<?xml version="1.0" encoding="UTF-8" standalone="no"?>
<!DOCTYPE svg PUBLIC "-//W3C//DTD SVG 1.1//EN"
 "http://www.w3.org/Graphics/SVG/1.1/DTD/svg11.dtd">
<!-- Generated by graphviz version 2.43.0 (0)
 -->
<!-- Title: src.capabilities.CapabilityManager.validate_module Pages: 1 -->
<svg width="372pt" height="86pt"
 viewBox="0.00 0.00 372.00 86.00" xmlns="http://www.w3.org/2000/svg" xmlns:xlink="http://www.w3.org/1999/xlink">
<g id="graph0" class="graph" transform="scale(1 1) rotate(0) translate(4 82)">
<title>src.capabilities.CapabilityManager.validate_module</title>
<!-- Node1 -->
<g id="Node000001" class="node">
<title>Node1</title>
<g id="a_Node000001"><a xlink:title=" ">
<polygon fill="#999999" stroke="#666666" points="143,-54 0,-54 0,-24 143,-24 143,-54"/>
<text text-anchor="start" x="8" y="-42" font-family="Helvetica,sans-Serif" font-size="10.00">src.capabilities.Capability</text>
<text text-anchor="middle" x="71.5" y="-31" font-family="Helvetica,sans-Serif" font-size="10.00">Manager.validate_module</text>
</a>
</g>
</g>
<!-- Node2 -->
<g id="Node000002" class="node">
<title>Node2</title>
<g id="a_Node000002"><a xlink:href="classsrc_1_1capabilities_1_1CapabilityManager.html#a573d5a90d7a7b2958e080bca4ee38c15" target="_top" xlink:title=" ">
<polygon fill="white" stroke="#666666" points="363.5,-78 179.5,-78 179.5,-48 363.5,-48 363.5,-78"/>
<text text-anchor="start" x="187.5" y="-66" font-family="Helvetica,sans-Serif" font-size="10.00">src.capabilities.Capability</text>
<text text-anchor="middle" x="271.5" y="-55" font-family="Helvetica,sans-Serif" font-size="10.00">Manager.get_optional_capabilities</text>
</a>
</g>
</g>
<!-- Node1&#45;&gt;Node2 -->
<g id="edge1_Node000001_Node000002" class="edge">
<title>Node1&#45;&gt;Node2</title>
<g id="a_edge1_Node000001_Node000002"><a xlink:title=" ">
<path fill="none" stroke="#63b8ff" d="M143.14,-47.56C151.7,-48.6 160.56,-49.67 169.44,-50.75"/>
<polygon fill="#63b8ff" stroke="#63b8ff" points="169.12,-54.24 179.47,-51.97 169.96,-47.29 169.12,-54.24"/>
</a>
</g>
</g>
<!-- Node3 -->
<g id="Node000003" class="node">
<title>Node3</title>
<g id="a_Node000003"><a xlink:href="classsrc_1_1capabilities_1_1CapabilityManager.html#ad61bfb96f07364fad3bda47b2625380e" target="_top" xlink:title=" ">
<polygon fill="white" stroke="#666666" points="364,-30 179,-30 179,0 364,0 364,-30"/>
<text text-anchor="start" x="187" y="-18" font-family="Helvetica,sans-Serif" font-size="10.00">src.capabilities.Capability</text>
<text text-anchor="middle" x="271.5" y="-7" font-family="Helvetica,sans-Serif" font-size="10.00">Manager.get_required_capabilities</text>
</a>
</g>
</g>
<!-- Node1&#45;&gt;Node3 -->
<g id="edge2_Node000001_Node000003" class="edge">
<title>Node1&#45;&gt;Node3</title>
<g id="a_edge2_Node000001_Node000003"><a xlink:title=" ">
<path fill="none" stroke="#63b8ff" d="M143.14,-30.44C151.45,-29.43 160.04,-28.39 168.66,-27.34"/>
<polygon fill="#63b8ff" stroke="#63b8ff" points="169.27,-30.8 178.78,-26.12 168.43,-23.85 169.27,-30.8"/>
</a>
</g>
</g>
</g>
</svg>
