<?xml version="1.0" encoding="UTF-8" standalone="no"?>
<!DOCTYPE svg PUBLIC "-//W3C//DTD SVG 1.1//EN"
 "http://www.w3.org/Graphics/SVG/1.1/DTD/svg11.dtd">
<!-- Generated by graphviz version 2.43.0 (0)
 -->
<!-- Title: src.modules.sff.SFFModule._decode_bias Pages: 1 -->
<svg width="380pt" height="86pt"
 viewBox="0.00 0.00 380.00 86.00" xmlns="http://www.w3.org/2000/svg" xmlns:xlink="http://www.w3.org/1999/xlink">
<g id="graph0" class="graph" transform="scale(1 1) rotate(0) translate(4 82)">
<title>src.modules.sff.SFFModule._decode_bias</title>
<!-- Node1 -->
<g id="Node000001" class="node">
<title>Node1</title>
<g id="a_Node000001"><a xlink:title=" ">
<polygon fill="#999999" stroke="#666666" points="372,-54 221,-54 221,-24 372,-24 372,-54"/>
<text text-anchor="start" x="229" y="-42" font-family="Helvetica,sans-Serif" font-size="10.00">src.modules.sff.SFFModule.</text>
<text text-anchor="middle" x="296.5" y="-31" font-family="Helvetica,sans-Serif" font-size="10.00">_decode_bias</text>
</a>
</g>
</g>
<!-- Node2 -->
<g id="Node000002" class="node">
<title>Node2</title>
<g id="a_Node000002"><a xlink:href="classsrc_1_1modules_1_1cmis_1_1CMISModule.html#a4ee4bb9014d315a32cb2e5e8477a3a85" target="_top" xlink:title=" ">
<polygon fill="white" stroke="#666666" points="185,-78 0,-78 0,-48 185,-48 185,-78"/>
<text text-anchor="start" x="8" y="-66" font-family="Helvetica,sans-Serif" font-size="10.00">src.modules.cmis.CMISModule.get</text>
<text text-anchor="middle" x="92.5" y="-55" font-family="Helvetica,sans-Serif" font-size="10.00">_status</text>
</a>
</g>
</g>
<!-- Node1&#45;&gt;Node2 -->
<g id="edge1_Node000001_Node000002" class="edge">
<title>Node1&#45;&gt;Node2</title>
<g id="a_edge1_Node000001_Node000002"><a xlink:title=" ">
<path fill="none" stroke="#63b8ff" d="M210.71,-49.07C202.32,-50.07 193.77,-51.09 185.31,-52.09"/>
<polygon fill="#63b8ff" stroke="#63b8ff" points="211.34,-52.52 220.86,-47.87 210.51,-45.57 211.34,-52.52"/>
</a>
</g>
</g>
<!-- Node3 -->
<g id="Node000003" class="node">
<title>Node3</title>
<g id="a_Node000003"><a xlink:href="classsrc_1_1modules_1_1sff_1_1SFFModule.html#a749ec10a0a54ba0faa14e9499fe08a79" target="_top" xlink:title=" ">
<polygon fill="white" stroke="#666666" points="176,-30 9,-30 9,0 176,0 176,-30"/>
<text text-anchor="start" x="17" y="-18" font-family="Helvetica,sans-Serif" font-size="10.00">src.modules.sff.SFFModule.get</text>
<text text-anchor="middle" x="92.5" y="-7" font-family="Helvetica,sans-Serif" font-size="10.00">_status</text>
</a>
</g>
</g>
<!-- Node1&#45;&gt;Node3 -->
<g id="edge2_Node000001_Node000003" class="edge">
<title>Node1&#45;&gt;Node3</title>
<g id="a_edge2_Node000001_Node000003"><a xlink:title=" ">
<path fill="none" stroke="#63b8ff" d="M210.9,-28.95C199.46,-27.59 187.74,-26.2 176.34,-24.84"/>
<polygon fill="#63b8ff" stroke="#63b8ff" points="210.51,-32.43 220.86,-30.13 211.34,-25.48 210.51,-32.43"/>
</a>
</g>
</g>
</g>
</svg>
