<?xml version="1.0" encoding="UTF-8" standalone="no"?>
<!DOCTYPE svg PUBLIC "-//W3C//DTD SVG 1.1//EN"
 "http://www.w3.org/Graphics/SVG/1.1/DTD/svg11.dtd">
<!-- Generated by graphviz version 2.43.0 (0)
 -->
<!-- Title: src.modules.base.ModuleIdentification Pages: 1 -->
<svg width="308pt" height="336pt"
 viewBox="0.00 0.00 308.00 336.00" xmlns="http://www.w3.org/2000/svg" xmlns:xlink="http://www.w3.org/1999/xlink">
<g id="graph0" class="graph" transform="scale(1 1) rotate(0) translate(4 332)">
<title>src.modules.base.ModuleIdentification</title>
<!-- Node1 -->
<g id="Node000001" class="node">
<title>Node1</title>
<g id="a_Node000001"><a xlink:title=" ">
<polygon fill="#999999" stroke="transparent" points="287.5,-94 88.5,-94 88.5,0 287.5,0 287.5,-94"/>
<text text-anchor="start" x="94" y="-82" font-family="Helvetica,sans-Serif" font-size="10.00">src.modules.base.ModuleIdentification</text>
<text text-anchor="start" x="120" y="-67" font-family="Helvetica,sans-Serif" font-size="10.00">+</text>
<text text-anchor="start" x="160" y="-67" font-family="Helvetica,sans-Serif" font-size="10.00">vendor_name</text>
<text text-anchor="start" x="120" y="-52" font-family="Helvetica,sans-Serif" font-size="10.00">+</text>
<text text-anchor="start" x="160" y="-52" font-family="Helvetica,sans-Serif" font-size="10.00">part_number</text>
<text text-anchor="start" x="120" y="-37" font-family="Helvetica,sans-Serif" font-size="10.00">+</text>
<text text-anchor="start" x="160" y="-37" font-family="Helvetica,sans-Serif" font-size="10.00">serial_number</text>
<text text-anchor="start" x="120" y="-22" font-family="Helvetica,sans-Serif" font-size="10.00">+</text>
<text text-anchor="start" x="160" y="-22" font-family="Helvetica,sans-Serif" font-size="10.00">revision</text>
<text text-anchor="start" x="186.5" y="-7" font-family="Helvetica,sans-Serif" font-size="10.00"> </text>
<polygon fill="#666666" stroke="#666666" points="89,-77 89,-77 288,-77 288,-77 89,-77"/>
<polygon fill="#666666" stroke="#666666" points="89,-17 89,-17 158,-17 158,-17 89,-17"/>
<polygon fill="#666666" stroke="#666666" points="158,-17 158,-17 288,-17 288,-17 158,-17"/>
<polygon fill="none" stroke="#666666" points="88.5,0 88.5,-94 287.5,-94 287.5,0 88.5,0"/>
</a>
</g>
</g>
<!-- Node2 -->
<g id="Node000002" class="node">
<title>Node2</title>
<g id="a_Node000002"><a xlink:href="classsrc_1_1detection_1_1detector_1_1ModuleType.html" target="_top" xlink:title=" ">
<polygon fill="white" stroke="transparent" points="178,-242 0,-242 0,-163 178,-163 178,-242"/>
<text text-anchor="start" x="5" y="-229.5" font-family="Helvetica,sans-Serif" font-size="10.00">src.detection.detector.ModuleType</text>
<text text-anchor="start" x="29.5" y="-214.5" font-family="Helvetica,sans-Serif" font-size="10.00">+</text>
<text text-anchor="start" x="68" y="-214.5" font-family="Helvetica,sans-Serif" font-size="10.00">UNKNOWN</text>
<text text-anchor="start" x="29.5" y="-199.5" font-family="Helvetica,sans-Serif" font-size="10.00">+</text>
<text text-anchor="start" x="68" y="-199.5" font-family="Helvetica,sans-Serif" font-size="10.00">SFF</text>
<text text-anchor="start" x="29.5" y="-184.5" font-family="Helvetica,sans-Serif" font-size="10.00">+</text>
<text text-anchor="start" x="68" y="-184.5" font-family="Helvetica,sans-Serif" font-size="10.00">CMIS</text>
<text text-anchor="start" x="87" y="-169.5" font-family="Helvetica,sans-Serif" font-size="10.00"> </text>
<polygon fill="#666666" stroke="#666666" points="0,-224.5 0,-224.5 178,-224.5 178,-224.5 0,-224.5"/>
<polygon fill="#666666" stroke="#666666" points="0,-179.5 0,-179.5 66,-179.5 66,-179.5 0,-179.5"/>
<polygon fill="#666666" stroke="#666666" points="66,-179.5 66,-179.5 178,-179.5 178,-179.5 66,-179.5"/>
<polygon fill="none" stroke="#666666" points="0,-163 0,-242 178,-242 178,-163 0,-163"/>
</a>
</g>
</g>
<!-- Node2&#45;&gt;Node1 -->
<g id="edge1_Node000001_Node000002" class="edge">
<title>Node2&#45;&gt;Node1</title>
<g id="a_edge1_Node000001_Node000002"><a xlink:title=" ">
<path fill="none" stroke="#63b8ff" d="M113.98,-162.77C125.39,-145.07 139.13,-123.78 151.65,-104.36"/>
<polygon fill="none" stroke="#63b8ff" points="151.76,-104.19 151.65,-96.97 158.27,-94.1 158.38,-101.31 151.76,-104.19"/>
</a>
</g>
<text text-anchor="middle" x="162" y="-126" font-family="Helvetica,sans-Serif" font-size="10.00" fill="grey"> +type</text>
</g>
<!-- Node3 -->
<g id="Node000003" class="node">
<title>Node3</title>
<g id="a_Node000003"><a xlink:title=" ">
<polygon fill="white" stroke="transparent" points="108,-328 70,-328 70,-279 108,-279 108,-328"/>
<text text-anchor="start" x="75" y="-315.5" font-family="Helvetica,sans-Serif" font-size="10.00">Enum</text>
<text text-anchor="start" x="87" y="-300.5" font-family="Helvetica,sans-Serif" font-size="10.00"> </text>
<text text-anchor="start" x="87" y="-285.5" font-family="Helvetica,sans-Serif" font-size="10.00"> </text>
<polygon fill="#666666" stroke="#666666" points="70,-310.5 70,-310.5 108,-310.5 108,-310.5 70,-310.5"/>
<polygon fill="#666666" stroke="#666666" points="70,-295.5 70,-295.5 108,-295.5 108,-295.5 70,-295.5"/>
<polygon fill="none" stroke="#666666" points="70,-279 70,-328 108,-328 108,-279 70,-279"/>
</a>
</g>
</g>
<!-- Node3&#45;&gt;Node2 -->
<g id="edge2_Node000002_Node000003" class="edge">
<title>Node3&#45;&gt;Node2</title>
<g id="a_edge2_Node000002_Node000003"><a xlink:title=" ">
<path fill="none" stroke="#63b8ff" d="M89,-268.75C89,-260.18 89,-250.89 89,-242.09"/>
<polygon fill="none" stroke="#63b8ff" points="85.5,-268.79 89,-278.79 92.5,-268.79 85.5,-268.79"/>
</a>
</g>
</g>
<!-- Node4 -->
<g id="Node000004" class="node">
<title>Node4</title>
<g id="a_Node000004"><a xlink:title=" ">
<polygon fill="white" stroke="transparent" points="248,-227 196,-227 196,-178 248,-178 248,-227"/>
<text text-anchor="start" x="201" y="-214.5" font-family="Helvetica,sans-Serif" font-size="10.00">Optional</text>
<text text-anchor="start" x="220" y="-199.5" font-family="Helvetica,sans-Serif" font-size="10.00"> </text>
<text text-anchor="start" x="220" y="-184.5" font-family="Helvetica,sans-Serif" font-size="10.00"> </text>
<polygon fill="#666666" stroke="#666666" points="196,-209.5 196,-209.5 248,-209.5 248,-209.5 196,-209.5"/>
<polygon fill="#666666" stroke="#666666" points="196,-194.5 196,-194.5 248,-194.5 248,-194.5 196,-194.5"/>
<polygon fill="none" stroke="#666666" points="196,-178 196,-227 248,-227 248,-178 196,-178"/>
</a>
</g>
</g>
<!-- Node4&#45;&gt;Node1 -->
<g id="edge3_Node000001_Node000004" class="edge">
<title>Node4&#45;&gt;Node1</title>
<g id="a_edge3_Node000001_Node000004"><a xlink:title=" ">
<path fill="none" stroke="#63b8ff" d="M216.76,-177.85C212.54,-158.77 206.41,-131.11 200.89,-106.21"/>
<polygon fill="none" stroke="#63b8ff" points="200.84,-105.97 195.64,-100.98 198.25,-94.26 203.45,-99.25 200.84,-105.97"/>
</a>
</g>
<text text-anchor="middle" x="254.5" y="-137" font-family="Helvetica,sans-Serif" font-size="10.00" fill="grey"> +date_code</text>
<text text-anchor="middle" x="254.5" y="-126" font-family="Helvetica,sans-Serif" font-size="10.00" fill="grey">+max_case_temp</text>
<text text-anchor="middle" x="254.5" y="-115" font-family="Helvetica,sans-Serif" font-size="10.00" fill="grey">+nominal_bit_rate</text>
</g>
</g>
</svg>
