<?xml version="1.0" encoding="UTF-8" standalone="no"?>
<!DOCTYPE svg PUBLIC "-//W3C//DTD SVG 1.1//EN"
 "http://www.w3.org/Graphics/SVG/1.1/DTD/svg11.dtd">
<!-- Generated by graphviz version 2.43.0 (0)
 -->
<!-- Title: src.modules.sff.SFFModule.get_configuration Pages: 1 -->
<svg width="601pt" height="278pt"
 viewBox="0.00 0.00 601.00 278.00" xmlns="http://www.w3.org/2000/svg" xmlns:xlink="http://www.w3.org/1999/xlink">
<g id="graph0" class="graph" transform="scale(1 1) rotate(0) translate(4 274)">
<title>src.modules.sff.SFFModule.get_configuration</title>
<!-- Node1 -->
<g id="Node000001" class="node">
<title>Node1</title>
<g id="a_Node000001"><a xlink:title=" ">
<polygon fill="#999999" stroke="#666666" points="167,-102 0,-102 0,-72 167,-72 167,-102"/>
<text text-anchor="start" x="8" y="-90" font-family="Helvetica,sans-Serif" font-size="10.00">src.modules.sff.SFFModule.get</text>
<text text-anchor="middle" x="83.5" y="-79" font-family="Helvetica,sans-Serif" font-size="10.00">_configuration</text>
</a>
</g>
</g>
<!-- Node2 -->
<g id="Node000002" class="node">
<title>Node2</title>
<g id="a_Node000002"><a xlink:href="classsrc_1_1modules_1_1sff_1_1SFFModule.html#a3decb2758dadaf2ecabc8d91e920c69c" target="_top" xlink:title=" ">
<polygon fill="white" stroke="#666666" points="371,-150 220,-150 220,-120 371,-120 371,-150"/>
<text text-anchor="start" x="228" y="-138" font-family="Helvetica,sans-Serif" font-size="10.00">src.modules.sff.SFFModule.</text>
<text text-anchor="middle" x="295.5" y="-127" font-family="Helvetica,sans-Serif" font-size="10.00">_get_alarm_thresholds</text>
</a>
</g>
</g>
<!-- Node1&#45;&gt;Node2 -->
<g id="edge1_Node000001_Node000002" class="edge">
<title>Node1&#45;&gt;Node2</title>
<g id="a_edge1_Node000001_Node000002"><a xlink:title=" ">
<path fill="none" stroke="#63b8ff" d="M150.37,-102.06C172.16,-107.04 196.58,-112.62 219.04,-117.75"/>
<polygon fill="#63b8ff" stroke="#63b8ff" points="218.34,-121.18 228.86,-120 219.9,-114.36 218.34,-121.18"/>
</a>
</g>
</g>
<!-- Node9 -->
<g id="Node000009" class="node">
<title>Node9</title>
<g id="a_Node000009"><a xlink:href="classsrc_1_1modules_1_1sff_1_1SFFModule.html#a2761e56798a7023ee9d8171c9caa552f" target="_top" xlink:title=" ">
<polygon fill="white" stroke="#666666" points="371,-102 220,-102 220,-72 371,-72 371,-102"/>
<text text-anchor="start" x="228" y="-90" font-family="Helvetica,sans-Serif" font-size="10.00">src.modules.sff.SFFModule.</text>
<text text-anchor="middle" x="295.5" y="-79" font-family="Helvetica,sans-Serif" font-size="10.00">_get_tx_disable</text>
</a>
</g>
</g>
<!-- Node1&#45;&gt;Node9 -->
<g id="edge8_Node000001_Node000009" class="edge">
<title>Node1&#45;&gt;Node9</title>
<g id="a_edge8_Node000001_Node000009"><a xlink:title=" ">
<path fill="none" stroke="#63b8ff" d="M167.2,-87C181.14,-87 195.64,-87 209.64,-87"/>
<polygon fill="#63b8ff" stroke="#63b8ff" points="209.73,-90.5 219.73,-87 209.73,-83.5 209.73,-90.5"/>
</a>
</g>
</g>
<!-- Node10 -->
<g id="Node000010" class="node">
<title>Node10</title>
<g id="a_Node000010"><a xlink:href="classsrc_1_1modules_1_1base_1_1BaseModule.html#a6bb8e32dd8de03f2b3529d499d6f07af" target="_top" xlink:title=" ">
<polygon fill="white" stroke="#666666" points="388,-54 203,-54 203,-24 388,-24 388,-54"/>
<text text-anchor="start" x="211" y="-42" font-family="Helvetica,sans-Serif" font-size="10.00">src.modules.base.BaseModule.has</text>
<text text-anchor="middle" x="295.5" y="-31" font-family="Helvetica,sans-Serif" font-size="10.00">_capability</text>
</a>
</g>
</g>
<!-- Node1&#45;&gt;Node10 -->
<g id="edge9_Node000001_Node000010" class="edge">
<title>Node1&#45;&gt;Node10</title>
<g id="a_edge9_Node000001_Node000010"><a xlink:title=" ">
<path fill="none" stroke="#63b8ff" d="M150.37,-71.94C172.16,-66.96 196.58,-61.38 219.04,-56.25"/>
<polygon fill="#63b8ff" stroke="#63b8ff" points="219.9,-59.64 228.86,-54 218.34,-52.82 219.9,-59.64"/>
</a>
</g>
</g>
<!-- Node3 -->
<g id="Node000003" class="node">
<title>Node3</title>
<g id="a_Node000003"><a xlink:href="classsrc_1_1modules_1_1cmis_1_1CMISModule.html#a2e52928a493945775d160881310609e6" target="_top" xlink:title=" ">
<polygon fill="white" stroke="#666666" points="593,-270 424,-270 424,-240 593,-240 593,-270"/>
<text text-anchor="start" x="432" y="-258" font-family="Helvetica,sans-Serif" font-size="10.00">src.modules.cmis.CMISModule.</text>
<text text-anchor="middle" x="508.5" y="-247" font-family="Helvetica,sans-Serif" font-size="10.00">_decode_temperature</text>
</a>
</g>
</g>
<!-- Node2&#45;&gt;Node3 -->
<g id="edge2_Node000002_Node000003" class="edge">
<title>Node2&#45;&gt;Node3</title>
<g id="a_edge2_Node000002_Node000003"><a xlink:title=" ">
<path fill="none" stroke="#63b8ff" d="M312.5,-150.18C335.46,-171.17 379.86,-208.99 424,-231 427.8,-232.89 431.77,-234.66 435.83,-236.31"/>
<polygon fill="#63b8ff" stroke="#63b8ff" points="434.83,-239.67 445.42,-239.93 437.3,-233.12 434.83,-239.67"/>
</a>
</g>
</g>
<!-- Node4 -->
<g id="Node000004" class="node">
<title>Node4</title>
<g id="a_Node000004"><a xlink:href="classsrc_1_1modules_1_1sff_1_1SFFModule.html#a8fadfa018dd158d3af7de512c2a85dc2" target="_top" xlink:title=" ">
<polygon fill="white" stroke="#666666" points="584,-222 433,-222 433,-192 584,-192 584,-222"/>
<text text-anchor="start" x="441" y="-210" font-family="Helvetica,sans-Serif" font-size="10.00">src.modules.sff.SFFModule.</text>
<text text-anchor="middle" x="508.5" y="-199" font-family="Helvetica,sans-Serif" font-size="10.00">_decode_temperature</text>
</a>
</g>
</g>
<!-- Node2&#45;&gt;Node4 -->
<g id="edge3_Node000002_Node000004" class="edge">
<title>Node2&#45;&gt;Node4</title>
<g id="a_edge3_Node000002_Node000004"><a xlink:title=" ">
<path fill="none" stroke="#63b8ff" d="M334.15,-150.08C359.39,-159.97 393.47,-172.88 424,-183 430.01,-184.99 436.3,-186.98 442.61,-188.9"/>
<polygon fill="#63b8ff" stroke="#63b8ff" points="441.93,-192.35 452.51,-191.87 443.94,-185.65 441.93,-192.35"/>
</a>
</g>
</g>
<!-- Node5 -->
<g id="Node000005" class="node">
<title>Node5</title>
<g id="a_Node000005"><a xlink:href="classsrc_1_1modules_1_1cmis_1_1CMISModule.html#a1f4a9d4397232ca2cf166c74a50c00eb" target="_top" xlink:title=" ">
<polygon fill="white" stroke="#666666" points="593,-174 424,-174 424,-144 593,-144 593,-174"/>
<text text-anchor="start" x="432" y="-162" font-family="Helvetica,sans-Serif" font-size="10.00">src.modules.cmis.CMISModule.</text>
<text text-anchor="middle" x="508.5" y="-151" font-family="Helvetica,sans-Serif" font-size="10.00">_decode_voltage</text>
</a>
</g>
</g>
<!-- Node2&#45;&gt;Node5 -->
<g id="edge4_Node000002_Node000005" class="edge">
<title>Node2&#45;&gt;Node5</title>
<g id="a_edge4_Node000002_Node000005"><a xlink:title=" ">
<path fill="none" stroke="#63b8ff" d="M371.19,-143.5C384.92,-145.06 399.43,-146.71 413.64,-148.32"/>
<polygon fill="#63b8ff" stroke="#63b8ff" points="413.6,-151.84 423.93,-149.49 414.39,-144.89 413.6,-151.84"/>
</a>
</g>
</g>
<!-- Node6 -->
<g id="Node000006" class="node">
<title>Node6</title>
<g id="a_Node000006"><a xlink:href="classsrc_1_1modules_1_1sff_1_1SFFModule.html#ad676a05e85ca2bb115955df520510140" target="_top" xlink:title=" ">
<polygon fill="white" stroke="#666666" points="584,-126 433,-126 433,-96 584,-96 584,-126"/>
<text text-anchor="start" x="441" y="-114" font-family="Helvetica,sans-Serif" font-size="10.00">src.modules.sff.SFFModule.</text>
<text text-anchor="middle" x="508.5" y="-103" font-family="Helvetica,sans-Serif" font-size="10.00">_decode_voltage</text>
</a>
</g>
</g>
<!-- Node2&#45;&gt;Node6 -->
<g id="edge5_Node000002_Node000006" class="edge">
<title>Node2&#45;&gt;Node6</title>
<g id="a_edge5_Node000002_Node000006"><a xlink:title=" ">
<path fill="none" stroke="#63b8ff" d="M371.19,-126.5C387.94,-124.6 405.82,-122.57 422.94,-120.62"/>
<polygon fill="#63b8ff" stroke="#63b8ff" points="423.37,-124.09 432.91,-119.48 422.58,-117.14 423.37,-124.09"/>
</a>
</g>
</g>
<!-- Node7 -->
<g id="Node000007" class="node">
<title>Node7</title>
<g id="a_Node000007"><a xlink:href="classsrc_1_1modules_1_1cmis_1_1CMISModule.html#a27e41dccd22970678e2a32a7234ca8d6" target="_top" xlink:title=" ">
<polygon fill="white" stroke="#666666" points="593,-78 424,-78 424,-48 593,-48 593,-78"/>
<text text-anchor="start" x="432" y="-66" font-family="Helvetica,sans-Serif" font-size="10.00">src.modules.cmis.CMISModule.</text>
<text text-anchor="middle" x="508.5" y="-55" font-family="Helvetica,sans-Serif" font-size="10.00">_read_word</text>
</a>
</g>
</g>
<!-- Node2&#45;&gt;Node7 -->
<g id="edge6_Node000002_Node000007" class="edge">
<title>Node2&#45;&gt;Node7</title>
<g id="a_edge6_Node000002_Node000007"><a xlink:title=" ">
<path fill="none" stroke="#63b8ff" d="M364.34,-119.93C372.46,-117.33 380.51,-114.37 388,-111 405.54,-103.12 406.55,-95.09 424,-87 428.11,-85.09 432.41,-83.3 436.8,-81.63"/>
<polygon fill="#63b8ff" stroke="#63b8ff" points="438.26,-84.82 446.49,-78.15 435.9,-78.23 438.26,-84.82"/>
</a>
</g>
</g>
<!-- Node8 -->
<g id="Node000008" class="node">
<title>Node8</title>
<g id="a_Node000008"><a xlink:href="classsrc_1_1modules_1_1sff_1_1SFFModule.html#ace3c41f8e23948b1d90f9e227aa1d98d" target="_top" xlink:title=" ">
<polygon fill="white" stroke="#666666" points="584,-30 433,-30 433,0 584,0 584,-30"/>
<text text-anchor="start" x="441" y="-18" font-family="Helvetica,sans-Serif" font-size="10.00">src.modules.sff.SFFModule.</text>
<text text-anchor="middle" x="508.5" y="-7" font-family="Helvetica,sans-Serif" font-size="10.00">_read_word</text>
</a>
</g>
</g>
<!-- Node2&#45;&gt;Node8 -->
<g id="edge7_Node000002_Node000008" class="edge">
<title>Node2&#45;&gt;Node8</title>
<g id="a_edge7_Node000002_Node000008"><a xlink:title=" ">
<path fill="none" stroke="#63b8ff" d="M371.1,-121.42C377.16,-118.57 382.9,-115.14 388,-111 415.78,-88.45 396.49,-61.87 424,-39 425.57,-37.7 427.2,-36.47 428.89,-35.3"/>
<polygon fill="#63b8ff" stroke="#63b8ff" points="430.95,-38.15 437.74,-30.02 427.36,-32.14 430.95,-38.15"/>
</a>
</g>
</g>
</g>
</svg>
