<?xml version="1.0" encoding="UTF-8" standalone="no"?>
<!DOCTYPE svg PUBLIC "-//W3C//DTD SVG 1.1//EN"
 "http://www.w3.org/Graphics/SVG/1.1/DTD/svg11.dtd">
<!-- Generated by graphviz version 2.43.0 (0)
 -->
<!-- Title: src.capabilities.CapabilityRequirement Pages: 1 -->
<svg width="145pt" height="168pt"
 viewBox="0.00 0.00 145.00 168.00" xmlns="http://www.w3.org/2000/svg" xmlns:xlink="http://www.w3.org/1999/xlink">
<g id="graph0" class="graph" transform="scale(1 1) rotate(0) translate(4 164)">
<title>src.capabilities.CapabilityRequirement</title>
<!-- Node1 -->
<g id="Node000001" class="node">
<title>Node1</title>
<g id="a_Node000001"><a xlink:title=" ">
<polygon fill="#999999" stroke="transparent" points="137,-75 0,-75 0,0 137,0 137,-75"/>
<text text-anchor="start" x="5.5" y="-62.5" font-family="Helvetica,sans-Serif" font-size="10.00">src.capabilities.Capability</text>
<text text-anchor="start" x="37" y="-51.5" font-family="Helvetica,sans-Serif" font-size="10.00">Requirement</text>
<text text-anchor="start" x="20.5" y="-36.5" font-family="Helvetica,sans-Serif" font-size="10.00">+</text>
<text text-anchor="start" x="49.5" y="-36.5" font-family="Helvetica,sans-Serif" font-size="10.00">REQUIRED</text>
<text text-anchor="start" x="20.5" y="-21.5" font-family="Helvetica,sans-Serif" font-size="10.00">+</text>
<text text-anchor="start" x="49.5" y="-21.5" font-family="Helvetica,sans-Serif" font-size="10.00">OPTIONAL</text>
<text text-anchor="start" x="67" y="-6.5" font-family="Helvetica,sans-Serif" font-size="10.00"> </text>
<polygon fill="#666666" stroke="#666666" points="0.5,-46.5 0.5,-46.5 137.5,-46.5 137.5,-46.5 0.5,-46.5"/>
<polygon fill="#666666" stroke="#666666" points="0.5,-16.5 0.5,-16.5 47.5,-16.5 47.5,-16.5 0.5,-16.5"/>
<polygon fill="#666666" stroke="#666666" points="47.5,-16.5 47.5,-16.5 137.5,-16.5 137.5,-16.5 47.5,-16.5"/>
<polygon fill="none" stroke="#666666" points="0,0 0,-75 137,-75 137,0 0,0"/>
</a>
</g>
</g>
<!-- Node2 -->
<g id="Node000002" class="node">
<title>Node2</title>
<g id="a_Node000002"><a xlink:title=" ">
<polygon fill="white" stroke="transparent" points="87.5,-160 49.5,-160 49.5,-111 87.5,-111 87.5,-160"/>
<text text-anchor="start" x="54.5" y="-147.5" font-family="Helvetica,sans-Serif" font-size="10.00">Enum</text>
<text text-anchor="start" x="66.5" y="-132.5" font-family="Helvetica,sans-Serif" font-size="10.00"> </text>
<text text-anchor="start" x="66.5" y="-117.5" font-family="Helvetica,sans-Serif" font-size="10.00"> </text>
<polygon fill="#666666" stroke="#666666" points="49.5,-142.5 49.5,-142.5 87.5,-142.5 87.5,-142.5 49.5,-142.5"/>
<polygon fill="#666666" stroke="#666666" points="49.5,-127.5 49.5,-127.5 87.5,-127.5 87.5,-127.5 49.5,-127.5"/>
<polygon fill="none" stroke="#666666" points="49.5,-111 49.5,-160 87.5,-160 87.5,-111 49.5,-111"/>
</a>
</g>
</g>
<!-- Node2&#45;&gt;Node1 -->
<g id="edge1_Node000001_Node000002" class="edge">
<title>Node2&#45;&gt;Node1</title>
<g id="a_edge1_Node000001_Node000002"><a xlink:title=" ">
<path fill="none" stroke="#63b8ff" d="M68.5,-100.68C68.5,-92.38 68.5,-83.46 68.5,-75.04"/>
<polygon fill="none" stroke="#63b8ff" points="65,-100.77 68.5,-110.77 72,-100.77 65,-100.77"/>
</a>
</g>
</g>
</g>
</svg>
