<?xml version="1.0" encoding="UTF-8" standalone="no"?>
<!DOCTYPE svg PUBLIC "-//W3C//DTD SVG 1.1//EN"
 "http://www.w3.org/Graphics/SVG/1.1/DTD/svg11.dtd">
<!-- Generated by graphviz version 2.43.0 (0)
 -->
<!-- Title: src.hardware.hal.HardwareInterface.get_gpio_state Pages: 1 -->
<svg width="348pt" height="86pt"
 viewBox="0.00 0.00 348.00 86.00" xmlns="http://www.w3.org/2000/svg" xmlns:xlink="http://www.w3.org/1999/xlink">
<g id="graph0" class="graph" transform="scale(1 1) rotate(0) translate(4 82)">
<title>src.hardware.hal.HardwareInterface.get_gpio_state</title>
<!-- Node1 -->
<g id="Node000001" class="node">
<title>Node1</title>
<g id="a_Node000001"><a xlink:title=" ">
<polygon fill="#999999" stroke="#666666" points="340,-54 192,-54 192,-24 340,-24 340,-54"/>
<text text-anchor="start" x="200" y="-42" font-family="Helvetica,sans-Serif" font-size="10.00">src.hardware.hal.Hardware</text>
<text text-anchor="middle" x="266" y="-31" font-family="Helvetica,sans-Serif" font-size="10.00">Interface.get_gpio_state</text>
</a>
</g>
</g>
<!-- Node2 -->
<g id="Node000002" class="node">
<title>Node2</title>
<g id="a_Node000002"><a xlink:href="classsrc_1_1hardware_1_1hal_1_1HardwareInterface.html#a8f7f95d2e0e28e83c011c649d87e0c59" target="_top" xlink:title=" ">
<polygon fill="white" stroke="#666666" points="156,-78 0,-78 0,-48 156,-48 156,-78"/>
<text text-anchor="start" x="8" y="-66" font-family="Helvetica,sans-Serif" font-size="10.00">src.hardware.hal.Hardware</text>
<text text-anchor="middle" x="78" y="-55" font-family="Helvetica,sans-Serif" font-size="10.00">Interface.get_interrupt_state</text>
</a>
</g>
</g>
<!-- Node1&#45;&gt;Node2 -->
<g id="edge1_Node000001_Node000002" class="edge">
<title>Node1&#45;&gt;Node2</title>
<g id="a_edge1_Node000001_Node000002"><a xlink:title=" ">
<path fill="none" stroke="#63b8ff" d="M181.8,-49.73C173.27,-50.84 164.62,-51.95 156.16,-53.04"/>
<polygon fill="#63b8ff" stroke="#63b8ff" points="182.29,-53.2 191.75,-48.45 181.39,-46.26 182.29,-53.2"/>
</a>
</g>
</g>
<!-- Node3 -->
<g id="Node000003" class="node">
<title>Node3</title>
<g id="a_Node000003"><a xlink:href="classsrc_1_1hardware_1_1hal_1_1HardwareInterface.html#abded628aa3b6da354d7dde6229d398ab" target="_top" xlink:title=" ">
<polygon fill="white" stroke="#666666" points="152,-30 4,-30 4,0 152,0 152,-30"/>
<text text-anchor="start" x="12" y="-18" font-family="Helvetica,sans-Serif" font-size="10.00">src.hardware.hal.Hardware</text>
<text text-anchor="middle" x="78" y="-7" font-family="Helvetica,sans-Serif" font-size="10.00">Interface.module_present</text>
</a>
</g>
</g>
<!-- Node1&#45;&gt;Node3 -->
<g id="edge2_Node000001_Node000003" class="edge">
<title>Node1&#45;&gt;Node3</title>
<g id="a_edge2_Node000001_Node000003"><a xlink:title=" ">
<path fill="none" stroke="#63b8ff" d="M181.6,-28.24C171.79,-26.97 161.83,-25.69 152.18,-24.44"/>
<polygon fill="#63b8ff" stroke="#63b8ff" points="181.39,-31.74 191.75,-29.55 182.29,-24.8 181.39,-31.74"/>
</a>
</g>
</g>
</g>
</svg>
