<?xml version="1.0" encoding="UTF-8" standalone="no"?>
<!DOCTYPE svg PUBLIC "-//W3C//DTD SVG 1.1//EN"
 "http://www.w3.org/Graphics/SVG/1.1/DTD/svg11.dtd">
<!-- Generated by graphviz version 2.43.0 (0)
 -->
<!-- Title: sff_8024_mem.CMIS_Page00h.__init__ Pages: 1 -->
<svg width="376pt" height="253pt"
 viewBox="0.00 0.00 376.00 252.50" xmlns="http://www.w3.org/2000/svg" xmlns:xlink="http://www.w3.org/1999/xlink">
<g id="graph0" class="graph" transform="scale(1 1) rotate(0) translate(4 248.5)">
<title>sff_8024_mem.CMIS_Page00h.__init__</title>
<!-- Node1 -->
<g id="Node000001" class="node">
<title>Node1</title>
<g id="a_Node000001"><a xlink:title=" ">
<polygon fill="#999999" stroke="#666666" points="166,-126 0,-126 0,-96 166,-96 166,-126"/>
<text text-anchor="start" x="8" y="-114" font-family="Helvetica,sans-Serif" font-size="10.00">sff_8024_mem.CMIS_Page00h.</text>
<text text-anchor="middle" x="83" y="-103" font-family="Helvetica,sans-Serif" font-size="10.00">__init__</text>
</a>
</g>
</g>
<!-- Node1&#45;&gt;Node1 -->
<g id="edge1_Node000001_Node000001" class="edge">
<title>Node1&#45;&gt;Node1</title>
<g id="a_edge1_Node000001_Node000001"><a xlink:title=" ">
<path fill="none" stroke="#63b8ff" d="M47.49,-126.28C39.6,-135.41 51.44,-144 83,-144 101.74,-144 113.53,-140.97 118.36,-136.6"/>
<polygon fill="#63b8ff" stroke="#63b8ff" points="121.86,-136.33 118.51,-126.28 114.86,-136.22 121.86,-136.33"/>
</a>
</g>
</g>
<!-- Node2 -->
<g id="Node000002" class="node">
<title>Node2</title>
<g id="a_Node000002"><a xlink:href="classsff__8024__mem_1_1SFF8024__BasePage00h.html#af3f71d48f0e5ed5030dfa525ba55ae2d" target="_top" xlink:title=" ">
<polygon fill="white" stroke="#666666" points="352,-244.5 218,-244.5 218,-203.5 352,-203.5 352,-244.5"/>
<text text-anchor="start" x="226" y="-232.5" font-family="Helvetica,sans-Serif" font-size="10.00">sff_8024_mem.SFF8024</text>
<text text-anchor="start" x="226" y="-221.5" font-family="Helvetica,sans-Serif" font-size="10.00">_BasePage00h._decode</text>
<text text-anchor="middle" x="285" y="-210.5" font-family="Helvetica,sans-Serif" font-size="10.00">_fields</text>
</a>
</g>
</g>
<!-- Node1&#45;&gt;Node2 -->
<g id="edge2_Node000001_Node000002" class="edge">
<title>Node1&#45;&gt;Node2</title>
<g id="a_edge2_Node000001_Node000002"><a xlink:title=" ">
<path fill="none" stroke="#63b8ff" d="M101.77,-126.07C124.01,-144.35 163.84,-175.17 202,-195 204.88,-196.5 207.86,-197.95 210.89,-199.35"/>
<polygon fill="#63b8ff" stroke="#63b8ff" points="209.57,-202.59 220.13,-203.4 212.38,-196.18 209.57,-202.59"/>
</a>
</g>
</g>
<!-- Node3 -->
<g id="Node000003" class="node">
<title>Node3</title>
<g id="a_Node000003"><a xlink:href="classsff__8024__mem_1_1SFF8472__DOMMemorySpace.html#ae39e1c3fdd4295847f40ee12f4bd3e11" target="_top" xlink:title=" ">
<polygon fill="white" stroke="#666666" points="364.5,-185.5 205.5,-185.5 205.5,-144.5 364.5,-144.5 364.5,-185.5"/>
<text text-anchor="start" x="213.5" y="-173.5" font-family="Helvetica,sans-Serif" font-size="10.00">sff_8024_mem.SFF8472</text>
<text text-anchor="start" x="213.5" y="-162.5" font-family="Helvetica,sans-Serif" font-size="10.00">_DOMMemorySpace._decode</text>
<text text-anchor="middle" x="285" y="-151.5" font-family="Helvetica,sans-Serif" font-size="10.00">_fields</text>
</a>
</g>
</g>
<!-- Node1&#45;&gt;Node3 -->
<g id="edge3_Node000001_Node000003" class="edge">
<title>Node1&#45;&gt;Node3</title>
<g id="a_edge3_Node000001_Node000003"><a xlink:title=" ">
<path fill="none" stroke="#63b8ff" d="M139.71,-126.04C157.89,-130.95 178.51,-136.52 198.36,-141.88"/>
<polygon fill="#63b8ff" stroke="#63b8ff" points="197.47,-145.26 208.03,-144.49 199.29,-138.5 197.47,-145.26"/>
</a>
</g>
</g>
<!-- Node4 -->
<g id="Node000004" class="node">
<title>Node4</title>
<g id="a_Node000004"><a xlink:href="classsff__8024__mem_1_1SFF8636__Page00h.html#a47a1bff7b3e8f51e705b256ee92da1b9" target="_top" xlink:title=" ">
<polygon fill="white" stroke="#666666" points="354,-126 216,-126 216,-96 354,-96 354,-126"/>
<text text-anchor="start" x="224" y="-114" font-family="Helvetica,sans-Serif" font-size="10.00">sff_8024_mem.SFF8636</text>
<text text-anchor="middle" x="285" y="-103" font-family="Helvetica,sans-Serif" font-size="10.00">_Page00h._decode_fields</text>
</a>
</g>
</g>
<!-- Node1&#45;&gt;Node4 -->
<g id="edge4_Node000001_Node000004" class="edge">
<title>Node1&#45;&gt;Node4</title>
<g id="a_edge4_Node000001_Node000004"><a xlink:title=" ">
<path fill="none" stroke="#63b8ff" d="M166.21,-111C179.22,-111 192.64,-111 205.56,-111"/>
<polygon fill="#63b8ff" stroke="#63b8ff" points="205.79,-114.5 215.79,-111 205.79,-107.5 205.79,-114.5"/>
</a>
</g>
</g>
<!-- Node5 -->
<g id="Node000005" class="node">
<title>Node5</title>
<g id="a_Node000005"><a xlink:href="classsff__8024__mem_1_1SFF8636__Page01h__CD.html#a6df928db0af129aaca86cc44ce38397a" target="_top" xlink:title=" ">
<polygon fill="white" stroke="#666666" points="364,-78 206,-78 206,-48 364,-48 364,-78"/>
<text text-anchor="start" x="214" y="-66" font-family="Helvetica,sans-Serif" font-size="10.00">sff_8024_mem.SFF8636</text>
<text text-anchor="middle" x="285" y="-55" font-family="Helvetica,sans-Serif" font-size="10.00">_Page01h_CD._decode_fields</text>
</a>
</g>
</g>
<!-- Node1&#45;&gt;Node5 -->
<g id="edge5_Node000001_Node000005" class="edge">
<title>Node1&#45;&gt;Node5</title>
<g id="a_edge5_Node000001_Node000005"><a xlink:title=" ">
<path fill="none" stroke="#63b8ff" d="M146.73,-95.94C167.3,-91.01 190.33,-85.48 211.56,-80.39"/>
<polygon fill="#63b8ff" stroke="#63b8ff" points="212.58,-83.74 221.49,-78 210.95,-76.93 212.58,-83.74"/>
</a>
</g>
</g>
<!-- Node6 -->
<g id="Node000006" class="node">
<title>Node6</title>
<g id="a_Node000006"><a xlink:href="classsff__8024__mem_1_1CMIS__Page00h.html#aa54b0786a5c69706c3d28ad96f364a58" target="_top" xlink:title=" ">
<polygon fill="white" stroke="#666666" points="368,-30 202,-30 202,0 368,0 368,-30"/>
<text text-anchor="start" x="210" y="-18" font-family="Helvetica,sans-Serif" font-size="10.00">sff_8024_mem.CMIS_Page00h.</text>
<text text-anchor="middle" x="285" y="-7" font-family="Helvetica,sans-Serif" font-size="10.00">_decode_fields</text>
</a>
</g>
</g>
<!-- Node1&#45;&gt;Node6 -->
<g id="edge6_Node000001_Node000006" class="edge">
<title>Node1&#45;&gt;Node6</title>
<g id="a_edge6_Node000001_Node000006"><a xlink:title=" ">
<path fill="none" stroke="#63b8ff" d="M104.82,-95.95C127.7,-79.99 166,-54.92 202,-39 206.43,-37.04 211.06,-35.19 215.78,-33.46"/>
<polygon fill="#63b8ff" stroke="#63b8ff" points="217.24,-36.65 225.53,-30.05 214.93,-30.04 217.24,-36.65"/>
</a>
</g>
</g>
</g>
</svg>
