<?xml version="1.0" encoding="UTF-8" standalone="no"?>
<!DOCTYPE svg PUBLIC "-//W3C//DTD SVG 1.1//EN"
 "http://www.w3.org/Graphics/SVG/1.1/DTD/svg11.dtd">
<!-- Generated by graphviz version 2.43.0 (0)
 -->
<!-- Title: sff_8024_mem.SFF8636_Page00h Pages: 1 -->
<svg width="171pt" height="423pt"
 viewBox="0.00 0.00 171.00 423.00" xmlns="http://www.w3.org/2000/svg" xmlns:xlink="http://www.w3.org/1999/xlink">
<g id="graph0" class="graph" transform="scale(1 1) rotate(0) translate(4 419)">
<title>sff_8024_mem.SFF8636_Page00h</title>
<!-- Node1 -->
<g id="Node000001" class="node">
<title>Node1</title>
<g id="a_Node000001"><a xlink:title=" ">
<polygon fill="#999999" stroke="transparent" points="163,-225 0,-225 0,0 163,0 163,-225"/>
<text text-anchor="start" x="23" y="-212.5" font-family="Helvetica,sans-Serif" font-size="10.00">sff_8024_mem.SFF8636</text>
<text text-anchor="start" x="58.5" y="-201.5" font-family="Helvetica,sans-Serif" font-size="10.00">_Page00h</text>
<text text-anchor="start" x="4.5" y="-186.5" font-family="Helvetica,sans-Serif" font-size="10.00">+</text>
<text text-anchor="start" x="17.5" y="-186.5" font-family="Helvetica,sans-Serif" font-size="10.00">identifier</text>
<text text-anchor="start" x="4.5" y="-171.5" font-family="Helvetica,sans-Serif" font-size="10.00">+</text>
<text text-anchor="start" x="17.5" y="-171.5" font-family="Helvetica,sans-Serif" font-size="10.00">rev_id</text>
<text text-anchor="start" x="4.5" y="-156.5" font-family="Helvetica,sans-Serif" font-size="10.00">+</text>
<text text-anchor="start" x="17.5" y="-156.5" font-family="Helvetica,sans-Serif" font-size="10.00">status_indicators</text>
<text text-anchor="start" x="4.5" y="-141.5" font-family="Helvetica,sans-Serif" font-size="10.00">+</text>
<text text-anchor="start" x="17.5" y="-141.5" font-family="Helvetica,sans-Serif" font-size="10.00">connector_type</text>
<text text-anchor="start" x="4.5" y="-126.5" font-family="Helvetica,sans-Serif" font-size="10.00">+</text>
<text text-anchor="start" x="17.5" y="-126.5" font-family="Helvetica,sans-Serif" font-size="10.00">ethernet_10g_compliance</text>
<text text-anchor="start" x="4.5" y="-111.5" font-family="Helvetica,sans-Serif" font-size="10.00">+</text>
<text text-anchor="start" x="17.5" y="-111.5" font-family="Helvetica,sans-Serif" font-size="10.00">ethernet_compliance</text>
<text text-anchor="start" x="4.5" y="-96.5" font-family="Helvetica,sans-Serif" font-size="10.00">+</text>
<text text-anchor="start" x="17.5" y="-96.5" font-family="Helvetica,sans-Serif" font-size="10.00">sonet_compliance</text>
<text text-anchor="start" x="4.5" y="-81.5" font-family="Helvetica,sans-Serif" font-size="10.00">+</text>
<text text-anchor="start" x="17.5" y="-81.5" font-family="Helvetica,sans-Serif" font-size="10.00">sas_sata_compliance</text>
<text text-anchor="start" x="4.5" y="-66.5" font-family="Helvetica,sans-Serif" font-size="10.00">+</text>
<text text-anchor="start" x="17.5" y="-66.5" font-family="Helvetica,sans-Serif" font-size="10.00">gigabit_ethernet_compliance</text>
<text text-anchor="start" x="4.5" y="-51.5" font-family="Helvetica,sans-Serif" font-size="10.00">+</text>
<text text-anchor="start" x="17.5" y="-51.5" font-family="Helvetica,sans-Serif" font-size="10.00">channel_fcc_compliance</text>
<text text-anchor="start" x="17.5" y="-36.5" font-family="Helvetica,sans-Serif" font-size="10.00">and 9 more...</text>
<text text-anchor="start" x="4.5" y="-21.5" font-family="Helvetica,sans-Serif" font-size="10.00">+</text>
<text text-anchor="start" x="17.5" y="-21.5" font-family="Helvetica,sans-Serif" font-size="10.00">__init__()</text>
<text text-anchor="start" x="4.5" y="-6.5" font-family="Helvetica,sans-Serif" font-size="10.00">#</text>
<text text-anchor="start" x="17.5" y="-6.5" font-family="Helvetica,sans-Serif" font-size="10.00">_decode_fields()</text>
<polygon fill="#666666" stroke="#666666" points="0.5,-196.5 0.5,-196.5 163.5,-196.5 163.5,-196.5 0.5,-196.5"/>
<polygon fill="#666666" stroke="#666666" points="0.5,-31.5 0.5,-31.5 15.5,-31.5 15.5,-31.5 0.5,-31.5"/>
<polygon fill="#666666" stroke="#666666" points="15.5,-31.5 15.5,-31.5 163.5,-31.5 163.5,-31.5 15.5,-31.5"/>
<polygon fill="none" stroke="#666666" points="0,0 0,-225 163,-225 163,0 0,0"/>
</a>
</g>
</g>
<!-- Node2 -->
<g id="Node000002" class="node">
<title>Node2</title>
<g id="a_Node000002"><a xlink:href="classsff__8024__mem_1_1MemorySpace.html" target="_top" xlink:title=" ">
<polygon fill="white" stroke="transparent" points="159,-415 4,-415 4,-261 159,-261 159,-415"/>
<text text-anchor="start" x="9.5" y="-403" font-family="Helvetica,sans-Serif" font-size="10.00">sff_8024_mem.MemorySpace</text>
<text text-anchor="start" x="23" y="-388" font-family="Helvetica,sans-Serif" font-size="10.00">#</text>
<text text-anchor="start" x="50.5" y="-388" font-family="Helvetica,sans-Serif" font-size="10.00">_data</text>
<text text-anchor="start" x="23" y="-373" font-family="Helvetica,sans-Serif" font-size="10.00">#</text>
<text text-anchor="start" x="50.5" y="-373" font-family="Helvetica,sans-Serif" font-size="10.00">_fields</text>
<text text-anchor="start" x="23" y="-358" font-family="Helvetica,sans-Serif" font-size="10.00">+</text>
<text text-anchor="start" x="50.5" y="-358" font-family="Helvetica,sans-Serif" font-size="10.00">__init__()</text>
<text text-anchor="start" x="23" y="-343" font-family="Helvetica,sans-Serif" font-size="10.00">+</text>
<text text-anchor="start" x="50.5" y="-343" font-family="Helvetica,sans-Serif" font-size="10.00">get_byte()</text>
<text text-anchor="start" x="23" y="-328" font-family="Helvetica,sans-Serif" font-size="10.00">+</text>
<text text-anchor="start" x="50.5" y="-328" font-family="Helvetica,sans-Serif" font-size="10.00">get_bytes()</text>
<text text-anchor="start" x="23" y="-313" font-family="Helvetica,sans-Serif" font-size="10.00">+</text>
<text text-anchor="start" x="50.5" y="-313" font-family="Helvetica,sans-Serif" font-size="10.00">get_string()</text>
<text text-anchor="start" x="23" y="-298" font-family="Helvetica,sans-Serif" font-size="10.00">+</text>
<text text-anchor="start" x="50.5" y="-298" font-family="Helvetica,sans-Serif" font-size="10.00">__repr__()</text>
<text text-anchor="start" x="23" y="-283" font-family="Helvetica,sans-Serif" font-size="10.00">+</text>
<text text-anchor="start" x="50.5" y="-283" font-family="Helvetica,sans-Serif" font-size="10.00">to_dict()</text>
<text text-anchor="start" x="23" y="-268" font-family="Helvetica,sans-Serif" font-size="10.00">#</text>
<text text-anchor="start" x="50.5" y="-268" font-family="Helvetica,sans-Serif" font-size="10.00">_decode_field()</text>
<polygon fill="#666666" stroke="#666666" points="4.5,-398 4.5,-398 159.5,-398 159.5,-398 4.5,-398"/>
<polygon fill="#666666" stroke="#666666" points="4.5,-368 4.5,-368 48.5,-368 48.5,-368 4.5,-368"/>
<polygon fill="#666666" stroke="#666666" points="48.5,-368 48.5,-368 159.5,-368 159.5,-368 48.5,-368"/>
<polygon fill="none" stroke="#666666" points="4,-261 4,-415 159,-415 159,-261 4,-261"/>
</a>
</g>
</g>
<!-- Node2&#45;&gt;Node1 -->
<g id="edge1_Node000001_Node000002" class="edge">
<title>Node2&#45;&gt;Node1</title>
<g id="a_edge1_Node000001_Node000002"><a xlink:title=" ">
<path fill="none" stroke="#63b8ff" d="M81.5,-250.6C81.5,-242.23 81.5,-233.65 81.5,-225.07"/>
<polygon fill="none" stroke="#63b8ff" points="78,-250.71 81.5,-260.71 85,-250.71 78,-250.71"/>
</a>
</g>
</g>
</g>
</svg>
