<?xml version="1.0" encoding="UTF-8" standalone="no"?>
<!DOCTYPE svg PUBLIC "-//W3C//DTD SVG 1.1//EN"
 "http://www.w3.org/Graphics/SVG/1.1/DTD/svg11.dtd">
<!-- Generated by graphviz version 2.43.0 (0)
 -->
<!-- Title: src.modules.sff.SFFModule.get_identification Pages: 1 -->
<svg width="380pt" height="134pt"
 viewBox="0.00 0.00 380.00 134.00" xmlns="http://www.w3.org/2000/svg" xmlns:xlink="http://www.w3.org/1999/xlink">
<g id="graph0" class="graph" transform="scale(1 1) rotate(0) translate(4 130)">
<title>src.modules.sff.SFFModule.get_identification</title>
<!-- Node1 -->
<g id="Node000001" class="node">
<title>Node1</title>
<g id="a_Node000001"><a xlink:title=" ">
<polygon fill="#999999" stroke="#666666" points="167,-78 0,-78 0,-48 167,-48 167,-78"/>
<text text-anchor="start" x="8" y="-66" font-family="Helvetica,sans-Serif" font-size="10.00">src.modules.sff.SFFModule.get</text>
<text text-anchor="middle" x="83.5" y="-55" font-family="Helvetica,sans-Serif" font-size="10.00">_identification</text>
</a>
</g>
</g>
<!-- Node2 -->
<g id="Node000002" class="node">
<title>Node2</title>
<g id="a_Node000002"><a xlink:href="classsrc_1_1detection_1_1detector_1_1ModuleDetector.html#a1381963782d79a461415eb8e7219544d" target="_top" xlink:title=" ">
<polygon fill="white" stroke="#666666" points="368,-126 207,-126 207,-96 368,-96 368,-126"/>
<text text-anchor="start" x="215" y="-114" font-family="Helvetica,sans-Serif" font-size="10.00">src.detection.detector.Module</text>
<text text-anchor="middle" x="287.5" y="-103" font-family="Helvetica,sans-Serif" font-size="10.00">Detector._read_string</text>
</a>
</g>
</g>
<!-- Node1&#45;&gt;Node2 -->
<g id="edge1_Node000001_Node000002" class="edge">
<title>Node1&#45;&gt;Node2</title>
<g id="a_edge1_Node000001_Node000002"><a xlink:title=" ">
<path fill="none" stroke="#63b8ff" d="M147.86,-78.06C168.73,-83.01 192.1,-88.57 213.62,-93.68"/>
<polygon fill="#63b8ff" stroke="#63b8ff" points="212.83,-97.09 223.36,-96 214.45,-90.28 212.83,-97.09"/>
</a>
</g>
</g>
<!-- Node3 -->
<g id="Node000003" class="node">
<title>Node3</title>
<g id="a_Node000003"><a xlink:href="classsrc_1_1modules_1_1cmis_1_1CMISModule.html#a7de855e3b1f7db0ff57db1ae6f0870dd" target="_top" xlink:title=" ">
<polygon fill="white" stroke="#666666" points="372,-78 203,-78 203,-48 372,-48 372,-78"/>
<text text-anchor="start" x="211" y="-66" font-family="Helvetica,sans-Serif" font-size="10.00">src.modules.cmis.CMISModule.</text>
<text text-anchor="middle" x="287.5" y="-55" font-family="Helvetica,sans-Serif" font-size="10.00">_read_string</text>
</a>
</g>
</g>
<!-- Node1&#45;&gt;Node3 -->
<g id="edge2_Node000001_Node000003" class="edge">
<title>Node1&#45;&gt;Node3</title>
<g id="a_edge2_Node000001_Node000003"><a xlink:title=" ">
<path fill="none" stroke="#63b8ff" d="M167.24,-63C175.7,-63 184.34,-63 192.9,-63"/>
<polygon fill="#63b8ff" stroke="#63b8ff" points="192.9,-66.5 202.9,-63 192.9,-59.5 192.9,-66.5"/>
</a>
</g>
</g>
<!-- Node4 -->
<g id="Node000004" class="node">
<title>Node4</title>
<g id="a_Node000004"><a xlink:href="classsrc_1_1modules_1_1sff_1_1SFFModule.html#a057e8bce361ffbe39bf662c71e19dc84" target="_top" xlink:title=" ">
<polygon fill="white" stroke="#666666" points="363,-30 212,-30 212,0 363,0 363,-30"/>
<text text-anchor="start" x="220" y="-18" font-family="Helvetica,sans-Serif" font-size="10.00">src.modules.sff.SFFModule.</text>
<text text-anchor="middle" x="287.5" y="-7" font-family="Helvetica,sans-Serif" font-size="10.00">_read_string</text>
</a>
</g>
</g>
<!-- Node1&#45;&gt;Node4 -->
<g id="edge3_Node000001_Node000004" class="edge">
<title>Node1&#45;&gt;Node4</title>
<g id="a_edge3_Node000001_Node000004"><a xlink:title=" ">
<path fill="none" stroke="#63b8ff" d="M147.86,-47.94C168.73,-42.99 192.1,-37.43 213.62,-32.32"/>
<polygon fill="#63b8ff" stroke="#63b8ff" points="214.45,-35.72 223.36,-30 212.83,-28.91 214.45,-35.72"/>
</a>
</g>
</g>
</g>
</svg>
