<?xml version="1.0" encoding="UTF-8" standalone="no"?>
<!DOCTYPE svg PUBLIC "-//W3C//DTD SVG 1.1//EN"
 "http://www.w3.org/Graphics/SVG/1.1/DTD/svg11.dtd">
<!-- Generated by graphviz version 2.43.0 (0)
 -->
<!-- Title: tests.emulation.cmis.CMISEmulatedModule Pages: 1 -->
<svg width="263pt" height="1028pt"
 viewBox="0.00 0.00 262.50 1028.00" xmlns="http://www.w3.org/2000/svg" xmlns:xlink="http://www.w3.org/1999/xlink">
<g id="graph0" class="graph" transform="scale(1 1) rotate(0) translate(4 1024)">
<title>tests.emulation.cmis.CMISEmulatedModule</title>
<!-- Node1 -->
<g id="Node000001" class="node">
<title>Node1</title>
<g id="a_Node000001"><a xlink:title=" ">
<polygon fill="#999999" stroke="transparent" points="232.5,-389 44.5,-389 44.5,0 232.5,0 232.5,-389"/>
<text text-anchor="start" x="49.5" y="-376.5" font-family="Helvetica,sans-Serif" font-size="10.00">tests.emulation.cmis.CMISEmulated</text>
<text text-anchor="start" x="120" y="-365.5" font-family="Helvetica,sans-Serif" font-size="10.00">Module</text>
<text text-anchor="start" x="55.5" y="-350.5" font-family="Helvetica,sans-Serif" font-size="10.00">#</text>
<text text-anchor="start" x="75.5" y="-350.5" font-family="Helvetica,sans-Serif" font-size="10.00">_tx_disable_mask</text>
<text text-anchor="start" x="55.5" y="-335.5" font-family="Helvetica,sans-Serif" font-size="10.00">#</text>
<text text-anchor="start" x="75.5" y="-335.5" font-family="Helvetica,sans-Serif" font-size="10.00">_tx_fault_mask</text>
<text text-anchor="start" x="55.5" y="-320.5" font-family="Helvetica,sans-Serif" font-size="10.00">#</text>
<text text-anchor="start" x="75.5" y="-320.5" font-family="Helvetica,sans-Serif" font-size="10.00">_rx_los_mask</text>
<text text-anchor="start" x="55.5" y="-305.5" font-family="Helvetica,sans-Serif" font-size="10.00">#</text>
<text text-anchor="start" x="75.5" y="-305.5" font-family="Helvetica,sans-Serif" font-size="10.00">_active_application</text>
<text text-anchor="start" x="55.5" y="-290.5" font-family="Helvetica,sans-Serif" font-size="10.00">#</text>
<text text-anchor="start" x="75.5" y="-290.5" font-family="Helvetica,sans-Serif" font-size="10.00">_power_class</text>
<text text-anchor="start" x="55.5" y="-275.5" font-family="Helvetica,sans-Serif" font-size="10.00">#</text>
<text text-anchor="start" x="75.5" y="-275.5" font-family="Helvetica,sans-Serif" font-size="10.00">_temperature</text>
<text text-anchor="start" x="55.5" y="-260.5" font-family="Helvetica,sans-Serif" font-size="10.00">#</text>
<text text-anchor="start" x="75.5" y="-260.5" font-family="Helvetica,sans-Serif" font-size="10.00">_voltage</text>
<text text-anchor="start" x="55.5" y="-245.5" font-family="Helvetica,sans-Serif" font-size="10.00">#</text>
<text text-anchor="start" x="75.5" y="-245.5" font-family="Helvetica,sans-Serif" font-size="10.00">_SFF8024_ATTR_TX_POWER</text>
<text text-anchor="start" x="75.5" y="-234.5" font-family="Helvetica,sans-Serif" font-size="10.00">_OFFSET</text>
<text text-anchor="start" x="55.5" y="-219.5" font-family="Helvetica,sans-Serif" font-size="10.00">#</text>
<text text-anchor="start" x="75.5" y="-219.5" font-family="Helvetica,sans-Serif" font-size="10.00">_SFF8024_ATTR_RX_POWER</text>
<text text-anchor="start" x="75.5" y="-208.5" font-family="Helvetica,sans-Serif" font-size="10.00">_OFFSET</text>
<text text-anchor="start" x="55.5" y="-193.5" font-family="Helvetica,sans-Serif" font-size="10.00">#</text>
<text text-anchor="start" x="75.5" y="-193.5" font-family="Helvetica,sans-Serif" font-size="10.00">_SFF8024_ATTR_TX_BIAS</text>
<text text-anchor="start" x="75.5" y="-182.5" font-family="Helvetica,sans-Serif" font-size="10.00">_OFFSET</text>
<text text-anchor="start" x="55.5" y="-167.5" font-family="Helvetica,sans-Serif" font-size="10.00">+</text>
<text text-anchor="start" x="75.5" y="-167.5" font-family="Helvetica,sans-Serif" font-size="10.00">__init__()</text>
<text text-anchor="start" x="55.5" y="-152.5" font-family="Helvetica,sans-Serif" font-size="10.00">+</text>
<text text-anchor="start" x="75.5" y="-152.5" font-family="Helvetica,sans-Serif" font-size="10.00">initialize_channels()</text>
<text text-anchor="start" x="55.5" y="-137.5" font-family="Helvetica,sans-Serif" font-size="10.00">+</text>
<text text-anchor="start" x="75.5" y="-137.5" font-family="Helvetica,sans-Serif" font-size="10.00">update_monitoring()</text>
<text text-anchor="start" x="55.5" y="-122.5" font-family="Helvetica,sans-Serif" font-size="10.00">+</text>
<text text-anchor="start" x="75.5" y="-122.5" font-family="Helvetica,sans-Serif" font-size="10.00">set_tx_disable()</text>
<text text-anchor="start" x="55.5" y="-107.5" font-family="Helvetica,sans-Serif" font-size="10.00">+</text>
<text text-anchor="start" x="75.5" y="-107.5" font-family="Helvetica,sans-Serif" font-size="10.00">set_application()</text>
<text text-anchor="start" x="55.5" y="-92.5" font-family="Helvetica,sans-Serif" font-size="10.00">+</text>
<text text-anchor="start" x="75.5" y="-92.5" font-family="Helvetica,sans-Serif" font-size="10.00">simulate_fault()</text>
<text text-anchor="start" x="55.5" y="-77.5" font-family="Helvetica,sans-Serif" font-size="10.00">+</text>
<text text-anchor="start" x="75.5" y="-77.5" font-family="Helvetica,sans-Serif" font-size="10.00">set_temperature()</text>
<text text-anchor="start" x="55.5" y="-62.5" font-family="Helvetica,sans-Serif" font-size="10.00">+</text>
<text text-anchor="start" x="75.5" y="-62.5" font-family="Helvetica,sans-Serif" font-size="10.00">set_voltage()</text>
<text text-anchor="start" x="55.5" y="-47.5" font-family="Helvetica,sans-Serif" font-size="10.00">+</text>
<text text-anchor="start" x="75.5" y="-47.5" font-family="Helvetica,sans-Serif" font-size="10.00">get_active_application()</text>
<text text-anchor="start" x="55.5" y="-32.5" font-family="Helvetica,sans-Serif" font-size="10.00">#</text>
<text text-anchor="start" x="75.5" y="-32.5" font-family="Helvetica,sans-Serif" font-size="10.00">_initialize_memory</text>
<text text-anchor="start" x="75.5" y="-21.5" font-family="Helvetica,sans-Serif" font-size="10.00">_map()</text>
<text text-anchor="start" x="55.5" y="-6.5" font-family="Helvetica,sans-Serif" font-size="10.00">#</text>
<text text-anchor="start" x="75.5" y="-6.5" font-family="Helvetica,sans-Serif" font-size="10.00">_encode_application()</text>
<polygon fill="#666666" stroke="#666666" points="44.5,-360.5 44.5,-360.5 232.5,-360.5 232.5,-360.5 44.5,-360.5"/>
<polygon fill="#666666" stroke="#666666" points="44.5,-177.5 44.5,-177.5 73.5,-177.5 73.5,-177.5 44.5,-177.5"/>
<polygon fill="#666666" stroke="#666666" points="73.5,-177.5 73.5,-177.5 232.5,-177.5 232.5,-177.5 73.5,-177.5"/>
<polygon fill="none" stroke="#666666" points="44.5,0 44.5,-389 232.5,-389 232.5,0 44.5,0"/>
</a>
</g>
</g>
<!-- Node2 -->
<g id="Node000002" class="node">
<title>Node2</title>
<g id="a_Node000002"><a xlink:href="classtests_1_1emulation_1_1base_1_1EmulatedModule.html" target="_top" xlink:title="Base class for emulated modules.">
<polygon fill="white" stroke="transparent" points="163,-934 0,-934 0,-458 163,-458 163,-934"/>
<text text-anchor="start" x="5.5" y="-922" font-family="Helvetica,sans-Serif" font-size="10.00">tests.emulation.base.Emulated</text>
<text text-anchor="start" x="63.5" y="-911" font-family="Helvetica,sans-Serif" font-size="10.00">Module</text>
<text text-anchor="start" x="11" y="-896" font-family="Helvetica,sans-Serif" font-size="10.00">+</text>
<text text-anchor="start" x="30.5" y="-896" font-family="Helvetica,sans-Serif" font-size="10.00">config</text>
<text text-anchor="start" x="11" y="-881" font-family="Helvetica,sans-Serif" font-size="10.00">+</text>
<text text-anchor="start" x="30.5" y="-881" font-family="Helvetica,sans-Serif" font-size="10.00">memory_map</text>
<text text-anchor="start" x="11" y="-866" font-family="Helvetica,sans-Serif" font-size="10.00">#</text>
<text text-anchor="start" x="30.5" y="-866" font-family="Helvetica,sans-Serif" font-size="10.00">_gpio_states</text>
<text text-anchor="start" x="11" y="-851" font-family="Helvetica,sans-Serif" font-size="10.00">#</text>
<text text-anchor="start" x="30.5" y="-851" font-family="Helvetica,sans-Serif" font-size="10.00">_temperature</text>
<text text-anchor="start" x="11" y="-836" font-family="Helvetica,sans-Serif" font-size="10.00">#</text>
<text text-anchor="start" x="30.5" y="-836" font-family="Helvetica,sans-Serif" font-size="10.00">_voltage</text>
<text text-anchor="start" x="11" y="-821" font-family="Helvetica,sans-Serif" font-size="10.00">#</text>
<text text-anchor="start" x="30.5" y="-821" font-family="Helvetica,sans-Serif" font-size="10.00">_tx_disable</text>
<text text-anchor="start" x="11" y="-806" font-family="Helvetica,sans-Serif" font-size="10.00">#</text>
<text text-anchor="start" x="30.5" y="-806" font-family="Helvetica,sans-Serif" font-size="10.00">_tx_fault</text>
<text text-anchor="start" x="11" y="-791" font-family="Helvetica,sans-Serif" font-size="10.00">#</text>
<text text-anchor="start" x="30.5" y="-791" font-family="Helvetica,sans-Serif" font-size="10.00">_rx_los</text>
<text text-anchor="start" x="11" y="-776" font-family="Helvetica,sans-Serif" font-size="10.00">#</text>
<text text-anchor="start" x="30.5" y="-776" font-family="Helvetica,sans-Serif" font-size="10.00">_tx_bias_ma</text>
<text text-anchor="start" x="11" y="-761" font-family="Helvetica,sans-Serif" font-size="10.00">#</text>
<text text-anchor="start" x="30.5" y="-761" font-family="Helvetica,sans-Serif" font-size="10.00">_tx_power_mw</text>
<text text-anchor="start" x="11" y="-746" font-family="Helvetica,sans-Serif" font-size="10.00">#</text>
<text text-anchor="start" x="30.5" y="-746" font-family="Helvetica,sans-Serif" font-size="10.00">_rx_power_mw</text>
<text text-anchor="start" x="11" y="-731" font-family="Helvetica,sans-Serif" font-size="10.00">+</text>
<text text-anchor="start" x="30.5" y="-731" font-family="Helvetica,sans-Serif" font-size="10.00">__init__()</text>
<text text-anchor="start" x="11" y="-716" font-family="Helvetica,sans-Serif" font-size="10.00">+</text>
<text text-anchor="start" x="30.5" y="-716" font-family="Helvetica,sans-Serif" font-size="10.00">is_present()</text>
<text text-anchor="start" x="11" y="-701" font-family="Helvetica,sans-Serif" font-size="10.00">+</text>
<text text-anchor="start" x="30.5" y="-701" font-family="Helvetica,sans-Serif" font-size="10.00">get_identifier()</text>
<text text-anchor="start" x="11" y="-686" font-family="Helvetica,sans-Serif" font-size="10.00">+</text>
<text text-anchor="start" x="30.5" y="-686" font-family="Helvetica,sans-Serif" font-size="10.00">get_vendor_name()</text>
<text text-anchor="start" x="11" y="-671" font-family="Helvetica,sans-Serif" font-size="10.00">+</text>
<text text-anchor="start" x="30.5" y="-671" font-family="Helvetica,sans-Serif" font-size="10.00">get_part_number()</text>
<text text-anchor="start" x="11" y="-656" font-family="Helvetica,sans-Serif" font-size="10.00">+</text>
<text text-anchor="start" x="30.5" y="-656" font-family="Helvetica,sans-Serif" font-size="10.00">get_serial_number()</text>
<text text-anchor="start" x="11" y="-641" font-family="Helvetica,sans-Serif" font-size="10.00">+</text>
<text text-anchor="start" x="30.5" y="-641" font-family="Helvetica,sans-Serif" font-size="10.00">get_revision()</text>
<text text-anchor="start" x="11" y="-626" font-family="Helvetica,sans-Serif" font-size="10.00">+</text>
<text text-anchor="start" x="30.5" y="-626" font-family="Helvetica,sans-Serif" font-size="10.00">get_temperature()</text>
<text text-anchor="start" x="11" y="-611" font-family="Helvetica,sans-Serif" font-size="10.00">+</text>
<text text-anchor="start" x="30.5" y="-611" font-family="Helvetica,sans-Serif" font-size="10.00">get_voltage()</text>
<text text-anchor="start" x="11" y="-596" font-family="Helvetica,sans-Serif" font-size="10.00">+</text>
<text text-anchor="start" x="30.5" y="-596" font-family="Helvetica,sans-Serif" font-size="10.00">set_temperature()</text>
<text text-anchor="start" x="30.5" y="-581" font-family="Helvetica,sans-Serif" font-size="10.00">and 7 more...</text>
<text text-anchor="start" x="11" y="-566" font-family="Helvetica,sans-Serif" font-size="10.00">#</text>
<text text-anchor="start" x="30.5" y="-566" font-family="Helvetica,sans-Serif" font-size="10.00">_initialize_memory</text>
<text text-anchor="start" x="30.5" y="-555" font-family="Helvetica,sans-Serif" font-size="10.00">_map()</text>
<text text-anchor="start" x="11" y="-540" font-family="Helvetica,sans-Serif" font-size="10.00">#</text>
<text text-anchor="start" x="30.5" y="-540" font-family="Helvetica,sans-Serif" font-size="10.00">_handle_reset()</text>
<text text-anchor="start" x="11" y="-525" font-family="Helvetica,sans-Serif" font-size="10.00">#</text>
<text text-anchor="start" x="30.5" y="-525" font-family="Helvetica,sans-Serif" font-size="10.00">_encode_temperature()</text>
<text text-anchor="start" x="11" y="-510" font-family="Helvetica,sans-Serif" font-size="10.00">#</text>
<text text-anchor="start" x="30.5" y="-510" font-family="Helvetica,sans-Serif" font-size="10.00">_encode_voltage()</text>
<text text-anchor="start" x="11" y="-495" font-family="Helvetica,sans-Serif" font-size="10.00">#</text>
<text text-anchor="start" x="30.5" y="-495" font-family="Helvetica,sans-Serif" font-size="10.00">_encode_power()</text>
<text text-anchor="start" x="11" y="-480" font-family="Helvetica,sans-Serif" font-size="10.00">#</text>
<text text-anchor="start" x="30.5" y="-480" font-family="Helvetica,sans-Serif" font-size="10.00">_encode_bias()</text>
<text text-anchor="start" x="11" y="-465" font-family="Helvetica,sans-Serif" font-size="10.00">#</text>
<text text-anchor="start" x="30.5" y="-465" font-family="Helvetica,sans-Serif" font-size="10.00">_write_string()</text>
<polygon fill="#666666" stroke="#666666" points="0.5,-906 0.5,-906 163.5,-906 163.5,-906 0.5,-906"/>
<polygon fill="#666666" stroke="#666666" points="0.5,-741 0.5,-741 28.5,-741 28.5,-741 0.5,-741"/>
<polygon fill="#666666" stroke="#666666" points="28.5,-741 28.5,-741 163.5,-741 163.5,-741 28.5,-741"/>
<polygon fill="none" stroke="#666666" points="0,-458 0,-934 163,-934 163,-458 0,-458"/>
</a>
</g>
</g>
<!-- Node2&#45;&gt;Node1 -->
<g id="edge1_Node000001_Node000002" class="edge">
<title>Node2&#45;&gt;Node1</title>
<g id="a_edge1_Node000001_Node000002"><a xlink:title=" ">
<path fill="none" stroke="#63b8ff" d="M109.72,-447.75C111.95,-428.13 114.19,-408.49 116.38,-389.32"/>
<polygon fill="none" stroke="#63b8ff" points="106.24,-447.35 108.58,-457.68 113.19,-448.15 106.24,-447.35"/>
</a>
</g>
</g>
<!-- Node3 -->
<g id="Node000003" class="node">
<title>Node3</title>
<g id="a_Node000003"><a xlink:title=" ">
<polygon fill="white" stroke="transparent" points="97,-1020 66,-1020 66,-971 97,-971 97,-1020"/>
<text text-anchor="start" x="71.5" y="-1007.5" font-family="Helvetica,sans-Serif" font-size="10.00">ABC</text>
<text text-anchor="start" x="80" y="-992.5" font-family="Helvetica,sans-Serif" font-size="10.00"> </text>
<text text-anchor="start" x="80" y="-977.5" font-family="Helvetica,sans-Serif" font-size="10.00"> </text>
<polygon fill="#666666" stroke="#666666" points="66.5,-1002.5 66.5,-1002.5 97.5,-1002.5 97.5,-1002.5 66.5,-1002.5"/>
<polygon fill="#666666" stroke="#666666" points="66.5,-987.5 66.5,-987.5 97.5,-987.5 97.5,-987.5 66.5,-987.5"/>
<polygon fill="none" stroke="#666666" points="66,-971 66,-1020 97,-1020 97,-971 66,-971"/>
</a>
</g>
</g>
<!-- Node3&#45;&gt;Node2 -->
<g id="edge2_Node000002_Node000003" class="edge">
<title>Node3&#45;&gt;Node2</title>
<g id="a_edge2_Node000002_Node000003"><a xlink:title=" ">
<path fill="none" stroke="#63b8ff" d="M81.5,-960.89C81.5,-953.02 81.5,-944.04 81.5,-934.26"/>
<polygon fill="none" stroke="#63b8ff" points="78,-960.91 81.5,-970.91 85,-960.91 78,-960.91"/>
</a>
</g>
</g>
<!-- Node4 -->
<g id="Node000004" class="node">
<title>Node4</title>
<g id="a_Node000004"><a xlink:title=" ">
<polygon fill="white" stroke="transparent" points="209.5,-720.5 181.5,-720.5 181.5,-671.5 209.5,-671.5 209.5,-720.5"/>
<text text-anchor="start" x="186.5" y="-708" font-family="Helvetica,sans-Serif" font-size="10.00">List</text>
<text text-anchor="start" x="193.5" y="-693" font-family="Helvetica,sans-Serif" font-size="10.00"> </text>
<text text-anchor="start" x="193.5" y="-678" font-family="Helvetica,sans-Serif" font-size="10.00"> </text>
<polygon fill="#666666" stroke="#666666" points="181.5,-703 181.5,-703 209.5,-703 209.5,-703 181.5,-703"/>
<polygon fill="#666666" stroke="#666666" points="181.5,-688 181.5,-688 209.5,-688 209.5,-688 181.5,-688"/>
<polygon fill="none" stroke="#666666" points="181.5,-671.5 181.5,-720.5 209.5,-720.5 209.5,-671.5 181.5,-671.5"/>
</a>
</g>
</g>
<!-- Node4&#45;&gt;Node1 -->
<g id="edge3_Node000001_Node000004" class="edge">
<title>Node4&#45;&gt;Node1</title>
<g id="a_edge3_Node000001_Node000004"><a xlink:title=" ">
<path fill="none" stroke="#63b8ff" d="M193.46,-671.43C189.73,-628.79 181.34,-536.05 172.5,-458 170.41,-439.57 168.14,-420.42 165.79,-401.24"/>
<polygon fill="none" stroke="#63b8ff" points="165.78,-401.21 161.08,-395.74 164.31,-389.3 169.02,-394.77 165.78,-401.21"/>
</a>
</g>
<text text-anchor="middle" x="212" y="-432" font-family="Helvetica,sans-Serif" font-size="10.00" fill="grey"> #_rx_power_mw</text>
<text text-anchor="middle" x="212" y="-421" font-family="Helvetica,sans-Serif" font-size="10.00" fill="grey">#_tx_bias_ma</text>
<text text-anchor="middle" x="212" y="-410" font-family="Helvetica,sans-Serif" font-size="10.00" fill="grey">#_tx_power_mw</text>
</g>
</g>
</svg>
