<?xml version="1.0" encoding="UTF-8" standalone="no"?>
<!DOCTYPE svg PUBLIC "-//W3C//DTD SVG 1.1//EN"
 "http://www.w3.org/Graphics/SVG/1.1/DTD/svg11.dtd">
<!-- Generated by graphviz version 2.43.0 (0)
 -->
<!-- Title: src.modules.sff.SFFModule._detect_capabilities Pages: 1 -->
<svg width="406pt" height="64pt"
 viewBox="0.00 0.00 406.00 64.00" xmlns="http://www.w3.org/2000/svg" xmlns:xlink="http://www.w3.org/1999/xlink">
<g id="graph0" class="graph" transform="scale(1 1) rotate(0) translate(4 60)">
<title>src.modules.sff.SFFModule._detect_capabilities</title>
<!-- Node1 -->
<g id="Node000001" class="node">
<title>Node1</title>
<g id="a_Node000001"><a xlink:title=" ">
<polygon fill="#999999" stroke="#666666" points="398,-42.5 247,-42.5 247,-12.5 398,-12.5 398,-42.5"/>
<text text-anchor="start" x="255" y="-30.5" font-family="Helvetica,sans-Serif" font-size="10.00">src.modules.sff.SFFModule.</text>
<text text-anchor="middle" x="322.5" y="-19.5" font-family="Helvetica,sans-Serif" font-size="10.00">_detect_capabilities</text>
</a>
</g>
</g>
<!-- Node2 -->
<g id="Node000002" class="node">
<title>Node2</title>
<g id="a_Node000002"><a xlink:href="classsrc_1_1modules_1_1cmis_1_1CMISModule.html#ade49f6179198cba73b212fafef3e32a7" target="_top" xlink:title=" ">
<polygon fill="white" stroke="#666666" points="211,-56 0,-56 0,-37 211,-37 211,-56"/>
<text text-anchor="middle" x="105.5" y="-44" font-family="Helvetica,sans-Serif" font-size="10.00">src.modules.cmis.CMISModule.initialize</text>
</a>
</g>
</g>
<!-- Node1&#45;&gt;Node2 -->
<g id="edge1_Node000001_Node000002" class="edge">
<title>Node1&#45;&gt;Node2</title>
<g id="a_edge1_Node000001_Node000002"><a xlink:title=" ">
<path fill="none" stroke="#63b8ff" d="M236.79,-34.99C228.4,-35.73 219.83,-36.49 211.27,-37.24"/>
<polygon fill="#63b8ff" stroke="#63b8ff" points="237.25,-38.46 246.91,-34.09 236.64,-31.49 237.25,-38.46"/>
</a>
</g>
</g>
<!-- Node3 -->
<g id="Node000003" class="node">
<title>Node3</title>
<g id="a_Node000003"><a xlink:href="classsrc_1_1modules_1_1sff_1_1SFFModule.html#a07cef8512fd087a2f633be03ef89273e" target="_top" xlink:title=" ">
<polygon fill="white" stroke="#666666" points="202,-19 9,-19 9,0 202,0 202,-19"/>
<text text-anchor="middle" x="105.5" y="-7" font-family="Helvetica,sans-Serif" font-size="10.00">src.modules.sff.SFFModule.initialize</text>
</a>
</g>
</g>
<!-- Node1&#45;&gt;Node3 -->
<g id="edge2_Node000001_Node000003" class="edge">
<title>Node1&#45;&gt;Node3</title>
<g id="a_edge2_Node000001_Node000003"><a xlink:title=" ">
<path fill="none" stroke="#63b8ff" d="M236.63,-20.39C225.32,-19.45 213.65,-18.47 202.17,-17.51"/>
<polygon fill="#63b8ff" stroke="#63b8ff" points="236.65,-23.91 246.91,-21.25 237.23,-16.93 236.65,-23.91"/>
</a>
</g>
</g>
</g>
</svg>
