<?xml version="1.0" encoding="UTF-8" standalone="no"?>
<!DOCTYPE svg PUBLIC "-//W3C//DTD SVG 1.1//EN"
 "http://www.w3.org/Graphics/SVG/1.1/DTD/svg11.dtd">
<!-- Generated by graphviz version 2.43.0 (0)
 -->
<!-- Title: sff_8024_mem.SFF8472_DOMMemorySpace.__init__ Pages: 1 -->
<svg width="365pt" height="253pt"
 viewBox="0.00 0.00 365.00 252.50" xmlns="http://www.w3.org/2000/svg" xmlns:xlink="http://www.w3.org/1999/xlink">
<g id="graph0" class="graph" transform="scale(1 1) rotate(0) translate(4 248.5)">
<title>sff_8024_mem.SFF8472_DOMMemorySpace.__init__</title>
<!-- Node1 -->
<g id="Node000001" class="node">
<title>Node1</title>
<g id="a_Node000001"><a xlink:title=" ">
<polygon fill="#999999" stroke="#666666" points="155,-126 0,-126 0,-96 155,-96 155,-126"/>
<text text-anchor="start" x="8" y="-114" font-family="Helvetica,sans-Serif" font-size="10.00">sff_8024_mem.SFF8472</text>
<text text-anchor="middle" x="77.5" y="-103" font-family="Helvetica,sans-Serif" font-size="10.00">_DOMMemorySpace.__init__</text>
</a>
</g>
</g>
<!-- Node1&#45;&gt;Node1 -->
<g id="edge1_Node000001_Node000001" class="edge">
<title>Node1&#45;&gt;Node1</title>
<g id="a_edge1_Node000001_Node000001"><a xlink:title=" ">
<path fill="none" stroke="#63b8ff" d="M43.05,-126.28C35.39,-135.41 46.88,-144 77.5,-144 95.68,-144 107.12,-140.97 111.81,-136.6"/>
<polygon fill="#63b8ff" stroke="#63b8ff" points="115.31,-136.32 111.95,-126.28 108.31,-136.22 115.31,-136.32"/>
</a>
</g>
</g>
<!-- Node2 -->
<g id="Node000002" class="node">
<title>Node2</title>
<g id="a_Node000002"><a xlink:href="classsff__8024__mem_1_1SFF8024__BasePage00h.html#af3f71d48f0e5ed5030dfa525ba55ae2d" target="_top" xlink:title=" ">
<polygon fill="white" stroke="#666666" points="341,-244.5 207,-244.5 207,-203.5 341,-203.5 341,-244.5"/>
<text text-anchor="start" x="215" y="-232.5" font-family="Helvetica,sans-Serif" font-size="10.00">sff_8024_mem.SFF8024</text>
<text text-anchor="start" x="215" y="-221.5" font-family="Helvetica,sans-Serif" font-size="10.00">_BasePage00h._decode</text>
<text text-anchor="middle" x="274" y="-210.5" font-family="Helvetica,sans-Serif" font-size="10.00">_fields</text>
</a>
</g>
</g>
<!-- Node1&#45;&gt;Node2 -->
<g id="edge2_Node000001_Node000002" class="edge">
<title>Node1&#45;&gt;Node2</title>
<g id="a_edge2_Node000001_Node000002"><a xlink:title=" ">
<path fill="none" stroke="#63b8ff" d="M95.31,-126.14C116.39,-144.48 154.24,-175.36 191,-195 193.71,-196.45 196.51,-197.85 199.36,-199.2"/>
<polygon fill="#63b8ff" stroke="#63b8ff" points="198.07,-202.46 208.62,-203.35 200.93,-196.07 198.07,-202.46"/>
</a>
</g>
</g>
<!-- Node3 -->
<g id="Node000003" class="node">
<title>Node3</title>
<g id="a_Node000003"><a xlink:href="classsff__8024__mem_1_1SFF8472__DOMMemorySpace.html#ae39e1c3fdd4295847f40ee12f4bd3e11" target="_top" xlink:title=" ">
<polygon fill="white" stroke="#666666" points="353.5,-185.5 194.5,-185.5 194.5,-144.5 353.5,-144.5 353.5,-185.5"/>
<text text-anchor="start" x="202.5" y="-173.5" font-family="Helvetica,sans-Serif" font-size="10.00">sff_8024_mem.SFF8472</text>
<text text-anchor="start" x="202.5" y="-162.5" font-family="Helvetica,sans-Serif" font-size="10.00">_DOMMemorySpace._decode</text>
<text text-anchor="middle" x="274" y="-151.5" font-family="Helvetica,sans-Serif" font-size="10.00">_fields</text>
</a>
</g>
</g>
<!-- Node1&#45;&gt;Node3 -->
<g id="edge3_Node000001_Node000003" class="edge">
<title>Node1&#45;&gt;Node3</title>
<g id="a_edge3_Node000001_Node000003"><a xlink:title=" ">
<path fill="none" stroke="#63b8ff" d="M132.68,-126.04C150.28,-130.93 170.23,-136.47 189.46,-141.81"/>
<polygon fill="#63b8ff" stroke="#63b8ff" points="188.55,-145.19 199.12,-144.49 190.42,-138.44 188.55,-145.19"/>
</a>
</g>
</g>
<!-- Node4 -->
<g id="Node000004" class="node">
<title>Node4</title>
<g id="a_Node000004"><a xlink:href="classsff__8024__mem_1_1SFF8636__Page00h.html#a47a1bff7b3e8f51e705b256ee92da1b9" target="_top" xlink:title=" ">
<polygon fill="white" stroke="#666666" points="343,-126 205,-126 205,-96 343,-96 343,-126"/>
<text text-anchor="start" x="213" y="-114" font-family="Helvetica,sans-Serif" font-size="10.00">sff_8024_mem.SFF8636</text>
<text text-anchor="middle" x="274" y="-103" font-family="Helvetica,sans-Serif" font-size="10.00">_Page00h._decode_fields</text>
</a>
</g>
</g>
<!-- Node1&#45;&gt;Node4 -->
<g id="edge4_Node000001_Node000004" class="edge">
<title>Node1&#45;&gt;Node4</title>
<g id="a_edge4_Node000001_Node000004"><a xlink:title=" ">
<path fill="none" stroke="#63b8ff" d="M155.09,-111C168.01,-111 181.44,-111 194.41,-111"/>
<polygon fill="#63b8ff" stroke="#63b8ff" points="194.69,-114.5 204.69,-111 194.69,-107.5 194.69,-114.5"/>
</a>
</g>
</g>
<!-- Node5 -->
<g id="Node000005" class="node">
<title>Node5</title>
<g id="a_Node000005"><a xlink:href="classsff__8024__mem_1_1SFF8636__Page01h__CD.html#a6df928db0af129aaca86cc44ce38397a" target="_top" xlink:title=" ">
<polygon fill="white" stroke="#666666" points="353,-78 195,-78 195,-48 353,-48 353,-78"/>
<text text-anchor="start" x="203" y="-66" font-family="Helvetica,sans-Serif" font-size="10.00">sff_8024_mem.SFF8636</text>
<text text-anchor="middle" x="274" y="-55" font-family="Helvetica,sans-Serif" font-size="10.00">_Page01h_CD._decode_fields</text>
</a>
</g>
</g>
<!-- Node1&#45;&gt;Node5 -->
<g id="edge5_Node000001_Node000005" class="edge">
<title>Node1&#45;&gt;Node5</title>
<g id="a_edge5_Node000001_Node000005"><a xlink:title=" ">
<path fill="none" stroke="#63b8ff" d="M139.51,-95.94C159.42,-91.03 181.7,-85.53 202.27,-80.46"/>
<polygon fill="#63b8ff" stroke="#63b8ff" points="203.34,-83.8 212.21,-78 201.66,-77 203.34,-83.8"/>
</a>
</g>
</g>
<!-- Node6 -->
<g id="Node000006" class="node">
<title>Node6</title>
<g id="a_Node000006"><a xlink:href="classsff__8024__mem_1_1CMIS__Page00h.html#aa54b0786a5c69706c3d28ad96f364a58" target="_top" xlink:title=" ">
<polygon fill="white" stroke="#666666" points="357,-30 191,-30 191,0 357,0 357,-30"/>
<text text-anchor="start" x="199" y="-18" font-family="Helvetica,sans-Serif" font-size="10.00">sff_8024_mem.CMIS_Page00h.</text>
<text text-anchor="middle" x="274" y="-7" font-family="Helvetica,sans-Serif" font-size="10.00">_decode_fields</text>
</a>
</g>
</g>
<!-- Node1&#45;&gt;Node6 -->
<g id="edge6_Node000001_Node000006" class="edge">
<title>Node1&#45;&gt;Node6</title>
<g id="a_edge6_Node000001_Node000006"><a xlink:title=" ">
<path fill="none" stroke="#63b8ff" d="M98.23,-95.89C119.95,-79.87 156.39,-54.75 191,-39 195.33,-37.03 199.86,-35.18 204.47,-33.44"/>
<polygon fill="#63b8ff" stroke="#63b8ff" points="205.77,-36.7 214.02,-30.05 203.43,-30.1 205.77,-36.7"/>
</a>
</g>
</g>
</g>
</svg>
