<?xml version="1.0" encoding="UTF-8" standalone="no"?>
<!DOCTYPE svg PUBLIC "-//W3C//DTD SVG 1.1//EN"
 "http://www.w3.org/Graphics/SVG/1.1/DTD/svg11.dtd">
<!-- Generated by graphviz version 2.43.0 (0)
 -->
<!-- Title: sff_8024_mem.MemorySpace Pages: 1 -->
<svg width="794pt" height="423pt"
 viewBox="0.00 0.00 793.50 423.00" xmlns="http://www.w3.org/2000/svg" xmlns:xlink="http://www.w3.org/1999/xlink">
<g id="graph0" class="graph" transform="scale(1 1) rotate(0) translate(4 419)">
<title>sff_8024_mem.MemorySpace</title>
<!-- Node1 -->
<g id="Node000001" class="node">
<title>Node1</title>
<g id="a_Node000001"><a xlink:title=" ">
<polygon fill="#999999" stroke="transparent" points="471,-415 316,-415 316,-261 471,-261 471,-415"/>
<text text-anchor="start" x="321.5" y="-403" font-family="Helvetica,sans-Serif" font-size="10.00">sff_8024_mem.MemorySpace</text>
<text text-anchor="start" x="335" y="-388" font-family="Helvetica,sans-Serif" font-size="10.00">#</text>
<text text-anchor="start" x="362.5" y="-388" font-family="Helvetica,sans-Serif" font-size="10.00">_data</text>
<text text-anchor="start" x="335" y="-373" font-family="Helvetica,sans-Serif" font-size="10.00">#</text>
<text text-anchor="start" x="362.5" y="-373" font-family="Helvetica,sans-Serif" font-size="10.00">_fields</text>
<text text-anchor="start" x="335" y="-358" font-family="Helvetica,sans-Serif" font-size="10.00">+</text>
<text text-anchor="start" x="362.5" y="-358" font-family="Helvetica,sans-Serif" font-size="10.00">__init__()</text>
<text text-anchor="start" x="335" y="-343" font-family="Helvetica,sans-Serif" font-size="10.00">+</text>
<text text-anchor="start" x="362.5" y="-343" font-family="Helvetica,sans-Serif" font-size="10.00">get_byte()</text>
<text text-anchor="start" x="335" y="-328" font-family="Helvetica,sans-Serif" font-size="10.00">+</text>
<text text-anchor="start" x="362.5" y="-328" font-family="Helvetica,sans-Serif" font-size="10.00">get_bytes()</text>
<text text-anchor="start" x="335" y="-313" font-family="Helvetica,sans-Serif" font-size="10.00">+</text>
<text text-anchor="start" x="362.5" y="-313" font-family="Helvetica,sans-Serif" font-size="10.00">get_string()</text>
<text text-anchor="start" x="335" y="-298" font-family="Helvetica,sans-Serif" font-size="10.00">+</text>
<text text-anchor="start" x="362.5" y="-298" font-family="Helvetica,sans-Serif" font-size="10.00">__repr__()</text>
<text text-anchor="start" x="335" y="-283" font-family="Helvetica,sans-Serif" font-size="10.00">+</text>
<text text-anchor="start" x="362.5" y="-283" font-family="Helvetica,sans-Serif" font-size="10.00">to_dict()</text>
<text text-anchor="start" x="335" y="-268" font-family="Helvetica,sans-Serif" font-size="10.00">#</text>
<text text-anchor="start" x="362.5" y="-268" font-family="Helvetica,sans-Serif" font-size="10.00">_decode_field()</text>
<polygon fill="#666666" stroke="#666666" points="316.5,-398 316.5,-398 471.5,-398 471.5,-398 316.5,-398"/>
<polygon fill="#666666" stroke="#666666" points="316.5,-368 316.5,-368 360.5,-368 360.5,-368 316.5,-368"/>
<polygon fill="#666666" stroke="#666666" points="360.5,-368 360.5,-368 471.5,-368 471.5,-368 360.5,-368"/>
<polygon fill="none" stroke="#666666" points="316,-261 316,-415 471,-415 471,-261 316,-261"/>
</a>
</g>
</g>
<!-- Node2 -->
<g id="Node000002" class="node">
<title>Node2</title>
<g id="a_Node000002"><a xlink:href="classsff__8024__mem_1_1CMIS__Page00h.html" target="_top" xlink:title=" ">
<polygon fill="white" stroke="transparent" points="157,-212 0,-212 0,-13 157,-13 157,-212"/>
<text text-anchor="start" x="5.5" y="-199.5" font-family="Helvetica,sans-Serif" font-size="10.00">sff_8024_mem.CMIS_Page00h</text>
<text text-anchor="start" x="12.5" y="-184.5" font-family="Helvetica,sans-Serif" font-size="10.00">+</text>
<text text-anchor="start" x="33.5" y="-184.5" font-family="Helvetica,sans-Serif" font-size="10.00">identifier</text>
<text text-anchor="start" x="12.5" y="-169.5" font-family="Helvetica,sans-Serif" font-size="10.00">+</text>
<text text-anchor="start" x="33.5" y="-169.5" font-family="Helvetica,sans-Serif" font-size="10.00">revision</text>
<text text-anchor="start" x="12.5" y="-154.5" font-family="Helvetica,sans-Serif" font-size="10.00">+</text>
<text text-anchor="start" x="33.5" y="-154.5" font-family="Helvetica,sans-Serif" font-size="10.00">status</text>
<text text-anchor="start" x="12.5" y="-139.5" font-family="Helvetica,sans-Serif" font-size="10.00">+</text>
<text text-anchor="start" x="33.5" y="-139.5" font-family="Helvetica,sans-Serif" font-size="10.00">module_temperature</text>
<text text-anchor="start" x="12.5" y="-124.5" font-family="Helvetica,sans-Serif" font-size="10.00">+</text>
<text text-anchor="start" x="33.5" y="-124.5" font-family="Helvetica,sans-Serif" font-size="10.00">module_vcc</text>
<text text-anchor="start" x="12.5" y="-109.5" font-family="Helvetica,sans-Serif" font-size="10.00">+</text>
<text text-anchor="start" x="33.5" y="-109.5" font-family="Helvetica,sans-Serif" font-size="10.00">vendor_name</text>
<text text-anchor="start" x="12.5" y="-94.5" font-family="Helvetica,sans-Serif" font-size="10.00">+</text>
<text text-anchor="start" x="33.5" y="-94.5" font-family="Helvetica,sans-Serif" font-size="10.00">vendor_oui</text>
<text text-anchor="start" x="12.5" y="-79.5" font-family="Helvetica,sans-Serif" font-size="10.00">+</text>
<text text-anchor="start" x="33.5" y="-79.5" font-family="Helvetica,sans-Serif" font-size="10.00">vendor_pn</text>
<text text-anchor="start" x="12.5" y="-64.5" font-family="Helvetica,sans-Serif" font-size="10.00">+</text>
<text text-anchor="start" x="33.5" y="-64.5" font-family="Helvetica,sans-Serif" font-size="10.00">vendor_rev</text>
<text text-anchor="start" x="12.5" y="-49.5" font-family="Helvetica,sans-Serif" font-size="10.00">+</text>
<text text-anchor="start" x="33.5" y="-49.5" font-family="Helvetica,sans-Serif" font-size="10.00">cc_base</text>
<text text-anchor="start" x="12.5" y="-34.5" font-family="Helvetica,sans-Serif" font-size="10.00">+</text>
<text text-anchor="start" x="33.5" y="-34.5" font-family="Helvetica,sans-Serif" font-size="10.00">__init__()</text>
<text text-anchor="start" x="12.5" y="-19.5" font-family="Helvetica,sans-Serif" font-size="10.00">#</text>
<text text-anchor="start" x="33.5" y="-19.5" font-family="Helvetica,sans-Serif" font-size="10.00">_decode_fields()</text>
<polygon fill="#666666" stroke="#666666" points="0.5,-194.5 0.5,-194.5 157.5,-194.5 157.5,-194.5 0.5,-194.5"/>
<polygon fill="#666666" stroke="#666666" points="0.5,-44.5 0.5,-44.5 31.5,-44.5 31.5,-44.5 0.5,-44.5"/>
<polygon fill="#666666" stroke="#666666" points="31.5,-44.5 31.5,-44.5 157.5,-44.5 157.5,-44.5 31.5,-44.5"/>
<polygon fill="none" stroke="#666666" points="0,-13 0,-212 157,-212 157,-13 0,-13"/>
</a>
</g>
</g>
<!-- Node1&#45;&gt;Node2 -->
<g id="edge1_Node000001_Node000002" class="edge">
<title>Node1&#45;&gt;Node2</title>
<g id="a_edge1_Node000001_Node000002"><a xlink:title=" ">
<path fill="none" stroke="#63b8ff" d="M306.61,-304.93C261.94,-285.88 208.27,-258.82 166.5,-225 161.52,-220.97 156.64,-216.6 151.89,-212.01"/>
<polygon fill="none" stroke="#63b8ff" points="305.42,-308.23 315.99,-308.88 308.13,-301.78 305.42,-308.23"/>
</a>
</g>
</g>
<!-- Node3 -->
<g id="Node000003" class="node">
<title>Node3</title>
<g id="a_Node000003"><a xlink:href="classsff__8024__mem_1_1SFF8024__BasePage00h.html" target="_top" xlink:title=" ">
<polygon fill="white" stroke="transparent" points="311.5,-225 175.5,-225 175.5,0 311.5,0 311.5,-225"/>
<text text-anchor="start" x="184.5" y="-212.5" font-family="Helvetica,sans-Serif" font-size="10.00">sff_8024_mem.SFF8024</text>
<text text-anchor="start" x="208" y="-201.5" font-family="Helvetica,sans-Serif" font-size="10.00">_BasePage00h</text>
<text text-anchor="start" x="179.5" y="-186.5" font-family="Helvetica,sans-Serif" font-size="10.00">+</text>
<text text-anchor="start" x="192.5" y="-186.5" font-family="Helvetica,sans-Serif" font-size="10.00">identifier</text>
<text text-anchor="start" x="179.5" y="-171.5" font-family="Helvetica,sans-Serif" font-size="10.00">+</text>
<text text-anchor="start" x="192.5" y="-171.5" font-family="Helvetica,sans-Serif" font-size="10.00">ext_identifier</text>
<text text-anchor="start" x="179.5" y="-156.5" font-family="Helvetica,sans-Serif" font-size="10.00">+</text>
<text text-anchor="start" x="192.5" y="-156.5" font-family="Helvetica,sans-Serif" font-size="10.00">connector_type</text>
<text text-anchor="start" x="179.5" y="-141.5" font-family="Helvetica,sans-Serif" font-size="10.00">+</text>
<text text-anchor="start" x="192.5" y="-141.5" font-family="Helvetica,sans-Serif" font-size="10.00">transceiver_technology</text>
<text text-anchor="start" x="179.5" y="-126.5" font-family="Helvetica,sans-Serif" font-size="10.00">+</text>
<text text-anchor="start" x="192.5" y="-126.5" font-family="Helvetica,sans-Serif" font-size="10.00">encoding</text>
<text text-anchor="start" x="179.5" y="-111.5" font-family="Helvetica,sans-Serif" font-size="10.00">+</text>
<text text-anchor="start" x="192.5" y="-111.5" font-family="Helvetica,sans-Serif" font-size="10.00">nominal_bit_rate_mbps</text>
<text text-anchor="start" x="179.5" y="-96.5" font-family="Helvetica,sans-Serif" font-size="10.00">+</text>
<text text-anchor="start" x="192.5" y="-96.5" font-family="Helvetica,sans-Serif" font-size="10.00">length_smf_km</text>
<text text-anchor="start" x="179.5" y="-81.5" font-family="Helvetica,sans-Serif" font-size="10.00">+</text>
<text text-anchor="start" x="192.5" y="-81.5" font-family="Helvetica,sans-Serif" font-size="10.00">length_smf_100m</text>
<text text-anchor="start" x="179.5" y="-66.5" font-family="Helvetica,sans-Serif" font-size="10.00">+</text>
<text text-anchor="start" x="192.5" y="-66.5" font-family="Helvetica,sans-Serif" font-size="10.00">length_om3_m</text>
<text text-anchor="start" x="179.5" y="-51.5" font-family="Helvetica,sans-Serif" font-size="10.00">+</text>
<text text-anchor="start" x="192.5" y="-51.5" font-family="Helvetica,sans-Serif" font-size="10.00">length_om2_m</text>
<text text-anchor="start" x="192.5" y="-36.5" font-family="Helvetica,sans-Serif" font-size="10.00">and 9 more...</text>
<text text-anchor="start" x="179.5" y="-21.5" font-family="Helvetica,sans-Serif" font-size="10.00">+</text>
<text text-anchor="start" x="192.5" y="-21.5" font-family="Helvetica,sans-Serif" font-size="10.00">__init__()</text>
<text text-anchor="start" x="179.5" y="-6.5" font-family="Helvetica,sans-Serif" font-size="10.00">#</text>
<text text-anchor="start" x="192.5" y="-6.5" font-family="Helvetica,sans-Serif" font-size="10.00">_decode_fields()</text>
<polygon fill="#666666" stroke="#666666" points="175.5,-196.5 175.5,-196.5 311.5,-196.5 311.5,-196.5 175.5,-196.5"/>
<polygon fill="#666666" stroke="#666666" points="175.5,-31.5 175.5,-31.5 190.5,-31.5 190.5,-31.5 175.5,-31.5"/>
<polygon fill="#666666" stroke="#666666" points="190.5,-31.5 190.5,-31.5 311.5,-31.5 311.5,-31.5 190.5,-31.5"/>
<polygon fill="none" stroke="#666666" points="175.5,0 175.5,-225 311.5,-225 311.5,0 175.5,0"/>
</a>
</g>
</g>
<!-- Node1&#45;&gt;Node3 -->
<g id="edge2_Node000001_Node000003" class="edge">
<title>Node1&#45;&gt;Node3</title>
<g id="a_edge2_Node000001_Node000003"><a xlink:title=" ">
<path fill="none" stroke="#63b8ff" d="M336.7,-252.37C328.54,-240.21 320.07,-227.59 311.71,-215.14"/>
<polygon fill="none" stroke="#63b8ff" points="333.82,-254.36 342.3,-260.71 339.63,-250.46 333.82,-254.36"/>
</a>
</g>
</g>
<!-- Node4 -->
<g id="Node000004" class="node">
<title>Node4</title>
<g id="a_Node000004"><a xlink:href="classsff__8024__mem_1_1SFF8472__DOMMemorySpace.html" target="_top" xlink:title=" ">
<polygon fill="white" stroke="transparent" points="457.5,-225 329.5,-225 329.5,0 457.5,0 457.5,-225"/>
<text text-anchor="start" x="334.5" y="-212.5" font-family="Helvetica,sans-Serif" font-size="10.00">sff_8024_mem.SFF8472</text>
<text text-anchor="start" x="343.5" y="-201.5" font-family="Helvetica,sans-Serif" font-size="10.00">_DOMMemorySpace</text>
<text text-anchor="start" x="336" y="-186.5" font-family="Helvetica,sans-Serif" font-size="10.00">+</text>
<text text-anchor="start" x="351.5" y="-186.5" font-family="Helvetica,sans-Serif" font-size="10.00">temp_high_alarm</text>
<text text-anchor="start" x="336" y="-171.5" font-family="Helvetica,sans-Serif" font-size="10.00">+</text>
<text text-anchor="start" x="351.5" y="-171.5" font-family="Helvetica,sans-Serif" font-size="10.00">temp_low_alarm</text>
<text text-anchor="start" x="336" y="-156.5" font-family="Helvetica,sans-Serif" font-size="10.00">+</text>
<text text-anchor="start" x="351.5" y="-156.5" font-family="Helvetica,sans-Serif" font-size="10.00">temp_high_warning</text>
<text text-anchor="start" x="336" y="-141.5" font-family="Helvetica,sans-Serif" font-size="10.00">+</text>
<text text-anchor="start" x="351.5" y="-141.5" font-family="Helvetica,sans-Serif" font-size="10.00">temp_low_warning</text>
<text text-anchor="start" x="336" y="-126.5" font-family="Helvetica,sans-Serif" font-size="10.00">+</text>
<text text-anchor="start" x="351.5" y="-126.5" font-family="Helvetica,sans-Serif" font-size="10.00">vcc_high_alarm</text>
<text text-anchor="start" x="336" y="-111.5" font-family="Helvetica,sans-Serif" font-size="10.00">+</text>
<text text-anchor="start" x="351.5" y="-111.5" font-family="Helvetica,sans-Serif" font-size="10.00">vcc_low_alarm</text>
<text text-anchor="start" x="336" y="-96.5" font-family="Helvetica,sans-Serif" font-size="10.00">+</text>
<text text-anchor="start" x="351.5" y="-96.5" font-family="Helvetica,sans-Serif" font-size="10.00">vcc_high_warning</text>
<text text-anchor="start" x="336" y="-81.5" font-family="Helvetica,sans-Serif" font-size="10.00">+</text>
<text text-anchor="start" x="351.5" y="-81.5" font-family="Helvetica,sans-Serif" font-size="10.00">vcc_low_warning</text>
<text text-anchor="start" x="336" y="-66.5" font-family="Helvetica,sans-Serif" font-size="10.00">+</text>
<text text-anchor="start" x="351.5" y="-66.5" font-family="Helvetica,sans-Serif" font-size="10.00">bias_high_alarm</text>
<text text-anchor="start" x="336" y="-51.5" font-family="Helvetica,sans-Serif" font-size="10.00">+</text>
<text text-anchor="start" x="351.5" y="-51.5" font-family="Helvetica,sans-Serif" font-size="10.00">bias_low_alarm</text>
<text text-anchor="start" x="351.5" y="-36.5" font-family="Helvetica,sans-Serif" font-size="10.00">and 16 more...</text>
<text text-anchor="start" x="336" y="-21.5" font-family="Helvetica,sans-Serif" font-size="10.00">+</text>
<text text-anchor="start" x="351.5" y="-21.5" font-family="Helvetica,sans-Serif" font-size="10.00">__init__()</text>
<text text-anchor="start" x="336" y="-6.5" font-family="Helvetica,sans-Serif" font-size="10.00">#</text>
<text text-anchor="start" x="351.5" y="-6.5" font-family="Helvetica,sans-Serif" font-size="10.00">_decode_fields()</text>
<polygon fill="#666666" stroke="#666666" points="329.5,-196.5 329.5,-196.5 457.5,-196.5 457.5,-196.5 329.5,-196.5"/>
<polygon fill="#666666" stroke="#666666" points="329.5,-31.5 329.5,-31.5 349.5,-31.5 349.5,-31.5 329.5,-31.5"/>
<polygon fill="#666666" stroke="#666666" points="349.5,-31.5 349.5,-31.5 457.5,-31.5 457.5,-31.5 349.5,-31.5"/>
<polygon fill="none" stroke="#666666" points="329.5,0 329.5,-225 457.5,-225 457.5,0 329.5,0"/>
</a>
</g>
</g>
<!-- Node1&#45;&gt;Node4 -->
<g id="edge3_Node000001_Node000004" class="edge">
<title>Node1&#45;&gt;Node4</title>
<g id="a_edge3_Node000001_Node000004"><a xlink:title=" ">
<path fill="none" stroke="#63b8ff" d="M393.5,-250.6C393.5,-242.23 393.5,-233.65 393.5,-225.07"/>
<polygon fill="none" stroke="#63b8ff" points="390,-250.71 393.5,-260.71 397,-250.71 390,-250.71"/>
</a>
</g>
</g>
<!-- Node5 -->
<g id="Node000005" class="node">
<title>Node5</title>
<g id="a_Node000005"><a xlink:href="classsff__8024__mem_1_1SFF8636__Page00h.html" target="_top" xlink:title=" ">
<polygon fill="white" stroke="transparent" points="639,-225 476,-225 476,0 639,0 639,-225"/>
<text text-anchor="start" x="499" y="-212.5" font-family="Helvetica,sans-Serif" font-size="10.00">sff_8024_mem.SFF8636</text>
<text text-anchor="start" x="534.5" y="-201.5" font-family="Helvetica,sans-Serif" font-size="10.00">_Page00h</text>
<text text-anchor="start" x="480.5" y="-186.5" font-family="Helvetica,sans-Serif" font-size="10.00">+</text>
<text text-anchor="start" x="493.5" y="-186.5" font-family="Helvetica,sans-Serif" font-size="10.00">identifier</text>
<text text-anchor="start" x="480.5" y="-171.5" font-family="Helvetica,sans-Serif" font-size="10.00">+</text>
<text text-anchor="start" x="493.5" y="-171.5" font-family="Helvetica,sans-Serif" font-size="10.00">rev_id</text>
<text text-anchor="start" x="480.5" y="-156.5" font-family="Helvetica,sans-Serif" font-size="10.00">+</text>
<text text-anchor="start" x="493.5" y="-156.5" font-family="Helvetica,sans-Serif" font-size="10.00">status_indicators</text>
<text text-anchor="start" x="480.5" y="-141.5" font-family="Helvetica,sans-Serif" font-size="10.00">+</text>
<text text-anchor="start" x="493.5" y="-141.5" font-family="Helvetica,sans-Serif" font-size="10.00">connector_type</text>
<text text-anchor="start" x="480.5" y="-126.5" font-family="Helvetica,sans-Serif" font-size="10.00">+</text>
<text text-anchor="start" x="493.5" y="-126.5" font-family="Helvetica,sans-Serif" font-size="10.00">ethernet_10g_compliance</text>
<text text-anchor="start" x="480.5" y="-111.5" font-family="Helvetica,sans-Serif" font-size="10.00">+</text>
<text text-anchor="start" x="493.5" y="-111.5" font-family="Helvetica,sans-Serif" font-size="10.00">ethernet_compliance</text>
<text text-anchor="start" x="480.5" y="-96.5" font-family="Helvetica,sans-Serif" font-size="10.00">+</text>
<text text-anchor="start" x="493.5" y="-96.5" font-family="Helvetica,sans-Serif" font-size="10.00">sonet_compliance</text>
<text text-anchor="start" x="480.5" y="-81.5" font-family="Helvetica,sans-Serif" font-size="10.00">+</text>
<text text-anchor="start" x="493.5" y="-81.5" font-family="Helvetica,sans-Serif" font-size="10.00">sas_sata_compliance</text>
<text text-anchor="start" x="480.5" y="-66.5" font-family="Helvetica,sans-Serif" font-size="10.00">+</text>
<text text-anchor="start" x="493.5" y="-66.5" font-family="Helvetica,sans-Serif" font-size="10.00">gigabit_ethernet_compliance</text>
<text text-anchor="start" x="480.5" y="-51.5" font-family="Helvetica,sans-Serif" font-size="10.00">+</text>
<text text-anchor="start" x="493.5" y="-51.5" font-family="Helvetica,sans-Serif" font-size="10.00">channel_fcc_compliance</text>
<text text-anchor="start" x="493.5" y="-36.5" font-family="Helvetica,sans-Serif" font-size="10.00">and 9 more...</text>
<text text-anchor="start" x="480.5" y="-21.5" font-family="Helvetica,sans-Serif" font-size="10.00">+</text>
<text text-anchor="start" x="493.5" y="-21.5" font-family="Helvetica,sans-Serif" font-size="10.00">__init__()</text>
<text text-anchor="start" x="480.5" y="-6.5" font-family="Helvetica,sans-Serif" font-size="10.00">#</text>
<text text-anchor="start" x="493.5" y="-6.5" font-family="Helvetica,sans-Serif" font-size="10.00">_decode_fields()</text>
<polygon fill="#666666" stroke="#666666" points="476.5,-196.5 476.5,-196.5 639.5,-196.5 639.5,-196.5 476.5,-196.5"/>
<polygon fill="#666666" stroke="#666666" points="476.5,-31.5 476.5,-31.5 491.5,-31.5 491.5,-31.5 476.5,-31.5"/>
<polygon fill="#666666" stroke="#666666" points="491.5,-31.5 491.5,-31.5 639.5,-31.5 639.5,-31.5 491.5,-31.5"/>
<polygon fill="none" stroke="#666666" points="476,0 476,-225 639,-225 639,0 476,0"/>
</a>
</g>
</g>
<!-- Node1&#45;&gt;Node5 -->
<g id="edge4_Node000001_Node000005" class="edge">
<title>Node1&#45;&gt;Node5</title>
<g id="a_edge4_Node000001_Node000005"><a xlink:title=" ">
<path fill="none" stroke="#63b8ff" d="M455.55,-252.44C462.22,-243.35 469.07,-234.01 475.92,-224.67"/>
<polygon fill="none" stroke="#63b8ff" points="452.58,-250.58 449.48,-260.71 458.22,-254.72 452.58,-250.58"/>
</a>
</g>
</g>
<!-- Node6 -->
<g id="Node000006" class="node">
<title>Node6</title>
<g id="a_Node000006"><a xlink:href="classsff__8024__mem_1_1SFF8636__Page01h__CD.html" target="_top" xlink:title=" ">
<polygon fill="white" stroke="transparent" points="785.5,-225 657.5,-225 657.5,0 785.5,0 785.5,-225"/>
<text text-anchor="start" x="662.5" y="-212.5" font-family="Helvetica,sans-Serif" font-size="10.00">sff_8024_mem.SFF8636</text>
<text text-anchor="start" x="688" y="-201.5" font-family="Helvetica,sans-Serif" font-size="10.00">_Page01h_CD</text>
<text text-anchor="start" x="661.5" y="-186.5" font-family="Helvetica,sans-Serif" font-size="10.00">+</text>
<text text-anchor="start" x="674.5" y="-186.5" font-family="Helvetica,sans-Serif" font-size="10.00">app_selection_byte_1</text>
<text text-anchor="start" x="661.5" y="-171.5" font-family="Helvetica,sans-Serif" font-size="10.00">+</text>
<text text-anchor="start" x="674.5" y="-171.5" font-family="Helvetica,sans-Serif" font-size="10.00">temp_c</text>
<text text-anchor="start" x="661.5" y="-156.5" font-family="Helvetica,sans-Serif" font-size="10.00">+</text>
<text text-anchor="start" x="674.5" y="-156.5" font-family="Helvetica,sans-Serif" font-size="10.00">vcc_v</text>
<text text-anchor="start" x="661.5" y="-141.5" font-family="Helvetica,sans-Serif" font-size="10.00">+</text>
<text text-anchor="start" x="674.5" y="-141.5" font-family="Helvetica,sans-Serif" font-size="10.00">ch1_tx_bias_ma</text>
<text text-anchor="start" x="661.5" y="-126.5" font-family="Helvetica,sans-Serif" font-size="10.00">+</text>
<text text-anchor="start" x="674.5" y="-126.5" font-family="Helvetica,sans-Serif" font-size="10.00">ch2_tx_bias_ma</text>
<text text-anchor="start" x="661.5" y="-111.5" font-family="Helvetica,sans-Serif" font-size="10.00">+</text>
<text text-anchor="start" x="674.5" y="-111.5" font-family="Helvetica,sans-Serif" font-size="10.00">ch3_tx_bias_ma</text>
<text text-anchor="start" x="661.5" y="-96.5" font-family="Helvetica,sans-Serif" font-size="10.00">+</text>
<text text-anchor="start" x="674.5" y="-96.5" font-family="Helvetica,sans-Serif" font-size="10.00">ch4_tx_bias_ma</text>
<text text-anchor="start" x="661.5" y="-81.5" font-family="Helvetica,sans-Serif" font-size="10.00">+</text>
<text text-anchor="start" x="674.5" y="-81.5" font-family="Helvetica,sans-Serif" font-size="10.00">ch1_tx_power_mw</text>
<text text-anchor="start" x="661.5" y="-66.5" font-family="Helvetica,sans-Serif" font-size="10.00">+</text>
<text text-anchor="start" x="674.5" y="-66.5" font-family="Helvetica,sans-Serif" font-size="10.00">ch2_tx_power_mw</text>
<text text-anchor="start" x="661.5" y="-51.5" font-family="Helvetica,sans-Serif" font-size="10.00">+</text>
<text text-anchor="start" x="674.5" y="-51.5" font-family="Helvetica,sans-Serif" font-size="10.00">ch3_tx_power_mw</text>
<text text-anchor="start" x="674.5" y="-36.5" font-family="Helvetica,sans-Serif" font-size="10.00">and 6 more...</text>
<text text-anchor="start" x="661.5" y="-21.5" font-family="Helvetica,sans-Serif" font-size="10.00">+</text>
<text text-anchor="start" x="674.5" y="-21.5" font-family="Helvetica,sans-Serif" font-size="10.00">__init__()</text>
<text text-anchor="start" x="661.5" y="-6.5" font-family="Helvetica,sans-Serif" font-size="10.00">#</text>
<text text-anchor="start" x="674.5" y="-6.5" font-family="Helvetica,sans-Serif" font-size="10.00">_decode_fields()</text>
<polygon fill="#666666" stroke="#666666" points="657.5,-196.5 657.5,-196.5 785.5,-196.5 785.5,-196.5 657.5,-196.5"/>
<polygon fill="#666666" stroke="#666666" points="657.5,-31.5 657.5,-31.5 672.5,-31.5 672.5,-31.5 657.5,-31.5"/>
<polygon fill="#666666" stroke="#666666" points="672.5,-31.5 672.5,-31.5 785.5,-31.5 785.5,-31.5 672.5,-31.5"/>
<polygon fill="none" stroke="#666666" points="657.5,0 657.5,-225 785.5,-225 785.5,0 657.5,0"/>
</a>
</g>
</g>
<!-- Node1&#45;&gt;Node6 -->
<g id="edge5_Node000001_Node000006" class="edge">
<title>Node1&#45;&gt;Node6</title>
<g id="a_edge5_Node000001_Node000006"><a xlink:title=" ">
<path fill="none" stroke="#63b8ff" d="M480.7,-312.66C533.48,-294.74 599.77,-266.25 648.5,-225 651.5,-222.46 654.43,-219.76 657.27,-216.94"/>
<polygon fill="none" stroke="#63b8ff" points="479.39,-309.41 471.01,-315.89 481.6,-316.05 479.39,-309.41"/>
</a>
</g>
</g>
</g>
</svg>
