<?xml version="1.0" encoding="UTF-8" standalone="no"?>
<!DOCTYPE svg PUBLIC "-//W3C//DTD SVG 1.1//EN"
 "http://www.w3.org/Graphics/SVG/1.1/DTD/svg11.dtd">
<!-- Generated by graphviz version 2.43.0 (0)
 -->
<!-- Title: tests.emulation.base.FormFactor Pages: 1 -->
<svg width="149pt" height="183pt"
 viewBox="0.00 0.00 149.00 183.00" xmlns="http://www.w3.org/2000/svg" xmlns:xlink="http://www.w3.org/1999/xlink">
<g id="graph0" class="graph" transform="scale(1 1) rotate(0) translate(4 179)">
<title>tests.emulation.base.FormFactor</title>
<!-- Node1 -->
<g id="Node000001" class="node">
<title>Node1</title>
<g id="a_Node000001"><a xlink:title="Supported module form factors.">
<polygon fill="#999999" stroke="transparent" points="141,-90 0,-90 0,0 141,0 141,-90"/>
<text text-anchor="start" x="5.5" y="-78" font-family="Helvetica,sans-Serif" font-size="10.00">tests.emulation.base.Form</text>
<text text-anchor="start" x="56" y="-67" font-family="Helvetica,sans-Serif" font-size="10.00">Factor</text>
<text text-anchor="start" x="28" y="-52" font-family="Helvetica,sans-Serif" font-size="10.00">+</text>
<text text-anchor="start" x="64.5" y="-52" font-family="Helvetica,sans-Serif" font-size="10.00">SFP</text>
<text text-anchor="start" x="28" y="-37" font-family="Helvetica,sans-Serif" font-size="10.00">+</text>
<text text-anchor="start" x="64.5" y="-37" font-family="Helvetica,sans-Serif" font-size="10.00">QSFP</text>
<text text-anchor="start" x="28" y="-22" font-family="Helvetica,sans-Serif" font-size="10.00">+</text>
<text text-anchor="start" x="64.5" y="-22" font-family="Helvetica,sans-Serif" font-size="10.00">OSFP</text>
<text text-anchor="start" x="69" y="-7" font-family="Helvetica,sans-Serif" font-size="10.00"> </text>
<polygon fill="#666666" stroke="#666666" points="0.5,-62 0.5,-62 141.5,-62 141.5,-62 0.5,-62"/>
<polygon fill="#666666" stroke="#666666" points="0.5,-17 0.5,-17 62.5,-17 62.5,-17 0.5,-17"/>
<polygon fill="#666666" stroke="#666666" points="62.5,-17 62.5,-17 141.5,-17 141.5,-17 62.5,-17"/>
<polygon fill="none" stroke="#666666" points="0,0 0,-90 141,-90 141,0 0,0"/>
</a>
</g>
</g>
<!-- Node2 -->
<g id="Node000002" class="node">
<title>Node2</title>
<g id="a_Node000002"><a xlink:title=" ">
<polygon fill="white" stroke="transparent" points="89.5,-175 51.5,-175 51.5,-126 89.5,-126 89.5,-175"/>
<text text-anchor="start" x="56.5" y="-162.5" font-family="Helvetica,sans-Serif" font-size="10.00">Enum</text>
<text text-anchor="start" x="68.5" y="-147.5" font-family="Helvetica,sans-Serif" font-size="10.00"> </text>
<text text-anchor="start" x="68.5" y="-132.5" font-family="Helvetica,sans-Serif" font-size="10.00"> </text>
<polygon fill="#666666" stroke="#666666" points="51.5,-157.5 51.5,-157.5 89.5,-157.5 89.5,-157.5 51.5,-157.5"/>
<polygon fill="#666666" stroke="#666666" points="51.5,-142.5 51.5,-142.5 89.5,-142.5 89.5,-142.5 51.5,-142.5"/>
<polygon fill="none" stroke="#666666" points="51.5,-126 51.5,-175 89.5,-175 89.5,-126 51.5,-126"/>
</a>
</g>
</g>
<!-- Node2&#45;&gt;Node1 -->
<g id="edge1_Node000001_Node000002" class="edge">
<title>Node2&#45;&gt;Node1</title>
<g id="a_edge1_Node000001_Node000002"><a xlink:title=" ">
<path fill="none" stroke="#63b8ff" d="M70.5,-115.62C70.5,-107.56 70.5,-98.84 70.5,-90.39"/>
<polygon fill="none" stroke="#63b8ff" points="67,-115.75 70.5,-125.76 74,-115.76 67,-115.75"/>
</a>
</g>
</g>
</g>
</svg>
