<?xml version="1.0" encoding="UTF-8" standalone="no"?>
<!DOCTYPE svg PUBLIC "-//W3C//DTD SVG 1.1//EN"
 "http://www.w3.org/Graphics/SVG/1.1/DTD/svg11.dtd">
<!-- Generated by graphviz version 2.43.0 (0)
 -->
<!-- Title: sff_8024_mem.CMIS_Page00h Pages: 1 -->
<svg width="165pt" height="397pt"
 viewBox="0.00 0.00 165.00 397.00" xmlns="http://www.w3.org/2000/svg" xmlns:xlink="http://www.w3.org/1999/xlink">
<g id="graph0" class="graph" transform="scale(1 1) rotate(0) translate(4 393)">
<title>sff_8024_mem.CMIS_Page00h</title>
<!-- Node1 -->
<g id="Node000001" class="node">
<title>Node1</title>
<g id="a_Node000001"><a xlink:title=" ">
<polygon fill="#999999" stroke="transparent" points="157,-199 0,-199 0,0 157,0 157,-199"/>
<text text-anchor="start" x="5.5" y="-186.5" font-family="Helvetica,sans-Serif" font-size="10.00">sff_8024_mem.CMIS_Page00h</text>
<text text-anchor="start" x="12.5" y="-171.5" font-family="Helvetica,sans-Serif" font-size="10.00">+</text>
<text text-anchor="start" x="33.5" y="-171.5" font-family="Helvetica,sans-Serif" font-size="10.00">identifier</text>
<text text-anchor="start" x="12.5" y="-156.5" font-family="Helvetica,sans-Serif" font-size="10.00">+</text>
<text text-anchor="start" x="33.5" y="-156.5" font-family="Helvetica,sans-Serif" font-size="10.00">revision</text>
<text text-anchor="start" x="12.5" y="-141.5" font-family="Helvetica,sans-Serif" font-size="10.00">+</text>
<text text-anchor="start" x="33.5" y="-141.5" font-family="Helvetica,sans-Serif" font-size="10.00">status</text>
<text text-anchor="start" x="12.5" y="-126.5" font-family="Helvetica,sans-Serif" font-size="10.00">+</text>
<text text-anchor="start" x="33.5" y="-126.5" font-family="Helvetica,sans-Serif" font-size="10.00">module_temperature</text>
<text text-anchor="start" x="12.5" y="-111.5" font-family="Helvetica,sans-Serif" font-size="10.00">+</text>
<text text-anchor="start" x="33.5" y="-111.5" font-family="Helvetica,sans-Serif" font-size="10.00">module_vcc</text>
<text text-anchor="start" x="12.5" y="-96.5" font-family="Helvetica,sans-Serif" font-size="10.00">+</text>
<text text-anchor="start" x="33.5" y="-96.5" font-family="Helvetica,sans-Serif" font-size="10.00">vendor_name</text>
<text text-anchor="start" x="12.5" y="-81.5" font-family="Helvetica,sans-Serif" font-size="10.00">+</text>
<text text-anchor="start" x="33.5" y="-81.5" font-family="Helvetica,sans-Serif" font-size="10.00">vendor_oui</text>
<text text-anchor="start" x="12.5" y="-66.5" font-family="Helvetica,sans-Serif" font-size="10.00">+</text>
<text text-anchor="start" x="33.5" y="-66.5" font-family="Helvetica,sans-Serif" font-size="10.00">vendor_pn</text>
<text text-anchor="start" x="12.5" y="-51.5" font-family="Helvetica,sans-Serif" font-size="10.00">+</text>
<text text-anchor="start" x="33.5" y="-51.5" font-family="Helvetica,sans-Serif" font-size="10.00">vendor_rev</text>
<text text-anchor="start" x="12.5" y="-36.5" font-family="Helvetica,sans-Serif" font-size="10.00">+</text>
<text text-anchor="start" x="33.5" y="-36.5" font-family="Helvetica,sans-Serif" font-size="10.00">cc_base</text>
<text text-anchor="start" x="12.5" y="-21.5" font-family="Helvetica,sans-Serif" font-size="10.00">+</text>
<text text-anchor="start" x="33.5" y="-21.5" font-family="Helvetica,sans-Serif" font-size="10.00">__init__()</text>
<text text-anchor="start" x="12.5" y="-6.5" font-family="Helvetica,sans-Serif" font-size="10.00">#</text>
<text text-anchor="start" x="33.5" y="-6.5" font-family="Helvetica,sans-Serif" font-size="10.00">_decode_fields()</text>
<polygon fill="#666666" stroke="#666666" points="0.5,-181.5 0.5,-181.5 157.5,-181.5 157.5,-181.5 0.5,-181.5"/>
<polygon fill="#666666" stroke="#666666" points="0.5,-31.5 0.5,-31.5 31.5,-31.5 31.5,-31.5 0.5,-31.5"/>
<polygon fill="#666666" stroke="#666666" points="31.5,-31.5 31.5,-31.5 157.5,-31.5 157.5,-31.5 31.5,-31.5"/>
<polygon fill="none" stroke="#666666" points="0,0 0,-199 157,-199 157,0 0,0"/>
</a>
</g>
</g>
<!-- Node2 -->
<g id="Node000002" class="node">
<title>Node2</title>
<g id="a_Node000002"><a xlink:href="classsff__8024__mem_1_1MemorySpace.html" target="_top" xlink:title=" ">
<polygon fill="white" stroke="transparent" points="156,-389 1,-389 1,-235 156,-235 156,-389"/>
<text text-anchor="start" x="6.5" y="-377" font-family="Helvetica,sans-Serif" font-size="10.00">sff_8024_mem.MemorySpace</text>
<text text-anchor="start" x="20" y="-362" font-family="Helvetica,sans-Serif" font-size="10.00">#</text>
<text text-anchor="start" x="47.5" y="-362" font-family="Helvetica,sans-Serif" font-size="10.00">_data</text>
<text text-anchor="start" x="20" y="-347" font-family="Helvetica,sans-Serif" font-size="10.00">#</text>
<text text-anchor="start" x="47.5" y="-347" font-family="Helvetica,sans-Serif" font-size="10.00">_fields</text>
<text text-anchor="start" x="20" y="-332" font-family="Helvetica,sans-Serif" font-size="10.00">+</text>
<text text-anchor="start" x="47.5" y="-332" font-family="Helvetica,sans-Serif" font-size="10.00">__init__()</text>
<text text-anchor="start" x="20" y="-317" font-family="Helvetica,sans-Serif" font-size="10.00">+</text>
<text text-anchor="start" x="47.5" y="-317" font-family="Helvetica,sans-Serif" font-size="10.00">get_byte()</text>
<text text-anchor="start" x="20" y="-302" font-family="Helvetica,sans-Serif" font-size="10.00">+</text>
<text text-anchor="start" x="47.5" y="-302" font-family="Helvetica,sans-Serif" font-size="10.00">get_bytes()</text>
<text text-anchor="start" x="20" y="-287" font-family="Helvetica,sans-Serif" font-size="10.00">+</text>
<text text-anchor="start" x="47.5" y="-287" font-family="Helvetica,sans-Serif" font-size="10.00">get_string()</text>
<text text-anchor="start" x="20" y="-272" font-family="Helvetica,sans-Serif" font-size="10.00">+</text>
<text text-anchor="start" x="47.5" y="-272" font-family="Helvetica,sans-Serif" font-size="10.00">__repr__()</text>
<text text-anchor="start" x="20" y="-257" font-family="Helvetica,sans-Serif" font-size="10.00">+</text>
<text text-anchor="start" x="47.5" y="-257" font-family="Helvetica,sans-Serif" font-size="10.00">to_dict()</text>
<text text-anchor="start" x="20" y="-242" font-family="Helvetica,sans-Serif" font-size="10.00">#</text>
<text text-anchor="start" x="47.5" y="-242" font-family="Helvetica,sans-Serif" font-size="10.00">_decode_field()</text>
<polygon fill="#666666" stroke="#666666" points="1.5,-372 1.5,-372 156.5,-372 156.5,-372 1.5,-372"/>
<polygon fill="#666666" stroke="#666666" points="1.5,-342 1.5,-342 45.5,-342 45.5,-342 1.5,-342"/>
<polygon fill="#666666" stroke="#666666" points="45.5,-342 45.5,-342 156.5,-342 156.5,-342 45.5,-342"/>
<polygon fill="none" stroke="#666666" points="1,-235 1,-389 156,-389 156,-235 1,-235"/>
</a>
</g>
</g>
<!-- Node2&#45;&gt;Node1 -->
<g id="edge1_Node000001_Node000002" class="edge">
<title>Node2&#45;&gt;Node1</title>
<g id="a_edge1_Node000001_Node000002"><a xlink:title=" ">
<path fill="none" stroke="#63b8ff" d="M78.5,-224.6C78.5,-216.23 78.5,-207.7 78.5,-199.22"/>
<polygon fill="none" stroke="#63b8ff" points="75,-224.71 78.5,-234.71 82,-224.71 75,-224.71"/>
</a>
</g>
</g>
</g>
</svg>
