<?xml version="1.0" encoding="UTF-8" standalone="no"?>
<!DOCTYPE svg PUBLIC "-//W3C//DTD SVG 1.1//EN"
 "http://www.w3.org/Graphics/SVG/1.1/DTD/svg11.dtd">
<!-- Generated by graphviz version 2.43.0 (0)
 -->
<!-- Title: sff_8024_mem.SFF8024_BasePage00h Pages: 1 -->
<svg width="163pt" height="423pt"
 viewBox="0.00 0.00 163.00 423.00" xmlns="http://www.w3.org/2000/svg" xmlns:xlink="http://www.w3.org/1999/xlink">
<g id="graph0" class="graph" transform="scale(1 1) rotate(0) translate(4 419)">
<title>sff_8024_mem.SFF8024_BasePage00h</title>
<!-- Node1 -->
<g id="Node000001" class="node">
<title>Node1</title>
<g id="a_Node000001"><a xlink:title=" ">
<polygon fill="#999999" stroke="transparent" points="145.5,-225 9.5,-225 9.5,0 145.5,0 145.5,-225"/>
<text text-anchor="start" x="18.5" y="-212.5" font-family="Helvetica,sans-Serif" font-size="10.00">sff_8024_mem.SFF8024</text>
<text text-anchor="start" x="42" y="-201.5" font-family="Helvetica,sans-Serif" font-size="10.00">_BasePage00h</text>
<text text-anchor="start" x="13.5" y="-186.5" font-family="Helvetica,sans-Serif" font-size="10.00">+</text>
<text text-anchor="start" x="26.5" y="-186.5" font-family="Helvetica,sans-Serif" font-size="10.00">identifier</text>
<text text-anchor="start" x="13.5" y="-171.5" font-family="Helvetica,sans-Serif" font-size="10.00">+</text>
<text text-anchor="start" x="26.5" y="-171.5" font-family="Helvetica,sans-Serif" font-size="10.00">ext_identifier</text>
<text text-anchor="start" x="13.5" y="-156.5" font-family="Helvetica,sans-Serif" font-size="10.00">+</text>
<text text-anchor="start" x="26.5" y="-156.5" font-family="Helvetica,sans-Serif" font-size="10.00">connector_type</text>
<text text-anchor="start" x="13.5" y="-141.5" font-family="Helvetica,sans-Serif" font-size="10.00">+</text>
<text text-anchor="start" x="26.5" y="-141.5" font-family="Helvetica,sans-Serif" font-size="10.00">transceiver_technology</text>
<text text-anchor="start" x="13.5" y="-126.5" font-family="Helvetica,sans-Serif" font-size="10.00">+</text>
<text text-anchor="start" x="26.5" y="-126.5" font-family="Helvetica,sans-Serif" font-size="10.00">encoding</text>
<text text-anchor="start" x="13.5" y="-111.5" font-family="Helvetica,sans-Serif" font-size="10.00">+</text>
<text text-anchor="start" x="26.5" y="-111.5" font-family="Helvetica,sans-Serif" font-size="10.00">nominal_bit_rate_mbps</text>
<text text-anchor="start" x="13.5" y="-96.5" font-family="Helvetica,sans-Serif" font-size="10.00">+</text>
<text text-anchor="start" x="26.5" y="-96.5" font-family="Helvetica,sans-Serif" font-size="10.00">length_smf_km</text>
<text text-anchor="start" x="13.5" y="-81.5" font-family="Helvetica,sans-Serif" font-size="10.00">+</text>
<text text-anchor="start" x="26.5" y="-81.5" font-family="Helvetica,sans-Serif" font-size="10.00">length_smf_100m</text>
<text text-anchor="start" x="13.5" y="-66.5" font-family="Helvetica,sans-Serif" font-size="10.00">+</text>
<text text-anchor="start" x="26.5" y="-66.5" font-family="Helvetica,sans-Serif" font-size="10.00">length_om3_m</text>
<text text-anchor="start" x="13.5" y="-51.5" font-family="Helvetica,sans-Serif" font-size="10.00">+</text>
<text text-anchor="start" x="26.5" y="-51.5" font-family="Helvetica,sans-Serif" font-size="10.00">length_om2_m</text>
<text text-anchor="start" x="26.5" y="-36.5" font-family="Helvetica,sans-Serif" font-size="10.00">and 9 more...</text>
<text text-anchor="start" x="13.5" y="-21.5" font-family="Helvetica,sans-Serif" font-size="10.00">+</text>
<text text-anchor="start" x="26.5" y="-21.5" font-family="Helvetica,sans-Serif" font-size="10.00">__init__()</text>
<text text-anchor="start" x="13.5" y="-6.5" font-family="Helvetica,sans-Serif" font-size="10.00">#</text>
<text text-anchor="start" x="26.5" y="-6.5" font-family="Helvetica,sans-Serif" font-size="10.00">_decode_fields()</text>
<polygon fill="#666666" stroke="#666666" points="9.5,-196.5 9.5,-196.5 145.5,-196.5 145.5,-196.5 9.5,-196.5"/>
<polygon fill="#666666" stroke="#666666" points="9.5,-31.5 9.5,-31.5 24.5,-31.5 24.5,-31.5 9.5,-31.5"/>
<polygon fill="#666666" stroke="#666666" points="24.5,-31.5 24.5,-31.5 145.5,-31.5 145.5,-31.5 24.5,-31.5"/>
<polygon fill="none" stroke="#666666" points="9.5,0 9.5,-225 145.5,-225 145.5,0 9.5,0"/>
</a>
</g>
</g>
<!-- Node2 -->
<g id="Node000002" class="node">
<title>Node2</title>
<g id="a_Node000002"><a xlink:href="classsff__8024__mem_1_1MemorySpace.html" target="_top" xlink:title=" ">
<polygon fill="white" stroke="transparent" points="155,-415 0,-415 0,-261 155,-261 155,-415"/>
<text text-anchor="start" x="5.5" y="-403" font-family="Helvetica,sans-Serif" font-size="10.00">sff_8024_mem.MemorySpace</text>
<text text-anchor="start" x="19" y="-388" font-family="Helvetica,sans-Serif" font-size="10.00">#</text>
<text text-anchor="start" x="46.5" y="-388" font-family="Helvetica,sans-Serif" font-size="10.00">_data</text>
<text text-anchor="start" x="19" y="-373" font-family="Helvetica,sans-Serif" font-size="10.00">#</text>
<text text-anchor="start" x="46.5" y="-373" font-family="Helvetica,sans-Serif" font-size="10.00">_fields</text>
<text text-anchor="start" x="19" y="-358" font-family="Helvetica,sans-Serif" font-size="10.00">+</text>
<text text-anchor="start" x="46.5" y="-358" font-family="Helvetica,sans-Serif" font-size="10.00">__init__()</text>
<text text-anchor="start" x="19" y="-343" font-family="Helvetica,sans-Serif" font-size="10.00">+</text>
<text text-anchor="start" x="46.5" y="-343" font-family="Helvetica,sans-Serif" font-size="10.00">get_byte()</text>
<text text-anchor="start" x="19" y="-328" font-family="Helvetica,sans-Serif" font-size="10.00">+</text>
<text text-anchor="start" x="46.5" y="-328" font-family="Helvetica,sans-Serif" font-size="10.00">get_bytes()</text>
<text text-anchor="start" x="19" y="-313" font-family="Helvetica,sans-Serif" font-size="10.00">+</text>
<text text-anchor="start" x="46.5" y="-313" font-family="Helvetica,sans-Serif" font-size="10.00">get_string()</text>
<text text-anchor="start" x="19" y="-298" font-family="Helvetica,sans-Serif" font-size="10.00">+</text>
<text text-anchor="start" x="46.5" y="-298" font-family="Helvetica,sans-Serif" font-size="10.00">__repr__()</text>
<text text-anchor="start" x="19" y="-283" font-family="Helvetica,sans-Serif" font-size="10.00">+</text>
<text text-anchor="start" x="46.5" y="-283" font-family="Helvetica,sans-Serif" font-size="10.00">to_dict()</text>
<text text-anchor="start" x="19" y="-268" font-family="Helvetica,sans-Serif" font-size="10.00">#</text>
<text text-anchor="start" x="46.5" y="-268" font-family="Helvetica,sans-Serif" font-size="10.00">_decode_field()</text>
<polygon fill="#666666" stroke="#666666" points="0.5,-398 0.5,-398 155.5,-398 155.5,-398 0.5,-398"/>
<polygon fill="#666666" stroke="#666666" points="0.5,-368 0.5,-368 44.5,-368 44.5,-368 0.5,-368"/>
<polygon fill="#666666" stroke="#666666" points="44.5,-368 44.5,-368 155.5,-368 155.5,-368 44.5,-368"/>
<polygon fill="none" stroke="#666666" points="0,-261 0,-415 155,-415 155,-261 0,-261"/>
</a>
</g>
</g>
<!-- Node2&#45;&gt;Node1 -->
<g id="edge1_Node000001_Node000002" class="edge">
<title>Node2&#45;&gt;Node1</title>
<g id="a_edge1_Node000001_Node000002"><a xlink:title=" ">
<path fill="none" stroke="#63b8ff" d="M77.5,-250.6C77.5,-242.23 77.5,-233.65 77.5,-225.07"/>
<polygon fill="none" stroke="#63b8ff" points="74,-250.71 77.5,-260.71 81,-250.71 74,-250.71"/>
</a>
</g>
</g>
</g>
</svg>
