<?xml version="1.0" encoding="UTF-8" standalone="no"?>
<!DOCTYPE svg PUBLIC "-//W3C//DTD SVG 1.1//EN"
 "http://www.w3.org/Graphics/SVG/1.1/DTD/svg11.dtd">
<!-- Generated by graphviz version 2.43.0 (0)
 -->
<!-- Title: src.memory_map.sff_map.MemoryPages Pages: 1 -->
<svg width="119pt" height="168pt"
 viewBox="0.00 0.00 119.00 168.00" xmlns="http://www.w3.org/2000/svg" xmlns:xlink="http://www.w3.org/1999/xlink">
<g id="graph0" class="graph" transform="scale(1 1) rotate(0) translate(4 164)">
<title>src.memory_map.sff_map.MemoryPages</title>
<!-- Node1 -->
<g id="Node000001" class="node">
<title>Node1</title>
<g id="a_Node000001"><a xlink:title=" ">
<polygon fill="#999999" stroke="transparent" points="111,-75 0,-75 0,0 111,0 111,-75"/>
<text text-anchor="start" x="5.5" y="-62.5" font-family="Helvetica,sans-Serif" font-size="10.00">src.memory_map.sff</text>
<text text-anchor="start" x="6" y="-51.5" font-family="Helvetica,sans-Serif" font-size="10.00">_map.MemoryPages</text>
<text text-anchor="start" x="23.5" y="-36.5" font-family="Helvetica,sans-Serif" font-size="10.00">+</text>
<text text-anchor="start" x="55.5" y="-36.5" font-family="Helvetica,sans-Serif" font-size="10.00">A0</text>
<text text-anchor="start" x="23.5" y="-21.5" font-family="Helvetica,sans-Serif" font-size="10.00">+</text>
<text text-anchor="start" x="55.5" y="-21.5" font-family="Helvetica,sans-Serif" font-size="10.00">A2</text>
<text text-anchor="start" x="54" y="-6.5" font-family="Helvetica,sans-Serif" font-size="10.00"> </text>
<polygon fill="#666666" stroke="#666666" points="0.5,-46.5 0.5,-46.5 111.5,-46.5 111.5,-46.5 0.5,-46.5"/>
<polygon fill="#666666" stroke="#666666" points="0.5,-16.5 0.5,-16.5 53.5,-16.5 53.5,-16.5 0.5,-16.5"/>
<polygon fill="#666666" stroke="#666666" points="53.5,-16.5 53.5,-16.5 111.5,-16.5 111.5,-16.5 53.5,-16.5"/>
<polygon fill="none" stroke="#666666" points="0,0 0,-75 111,-75 111,0 0,0"/>
</a>
</g>
</g>
<!-- Node2 -->
<g id="Node000002" class="node">
<title>Node2</title>
<g id="a_Node000002"><a xlink:title=" ">
<polygon fill="white" stroke="transparent" points="81,-160 30,-160 30,-111 81,-111 81,-160"/>
<text text-anchor="start" x="35.5" y="-147.5" font-family="Helvetica,sans-Serif" font-size="10.00">IntEnum</text>
<text text-anchor="start" x="54" y="-132.5" font-family="Helvetica,sans-Serif" font-size="10.00"> </text>
<text text-anchor="start" x="54" y="-117.5" font-family="Helvetica,sans-Serif" font-size="10.00"> </text>
<polygon fill="#666666" stroke="#666666" points="30.5,-142.5 30.5,-142.5 81.5,-142.5 81.5,-142.5 30.5,-142.5"/>
<polygon fill="#666666" stroke="#666666" points="30.5,-127.5 30.5,-127.5 81.5,-127.5 81.5,-127.5 30.5,-127.5"/>
<polygon fill="none" stroke="#666666" points="30,-111 30,-160 81,-160 81,-111 30,-111"/>
</a>
</g>
</g>
<!-- Node2&#45;&gt;Node1 -->
<g id="edge1_Node000001_Node000002" class="edge">
<title>Node2&#45;&gt;Node1</title>
<g id="a_edge1_Node000001_Node000002"><a xlink:title=" ">
<path fill="none" stroke="#63b8ff" d="M55.5,-100.68C55.5,-92.38 55.5,-83.46 55.5,-75.04"/>
<polygon fill="none" stroke="#63b8ff" points="52,-100.77 55.5,-110.77 59,-100.77 52,-100.77"/>
</a>
</g>
</g>
</g>
</svg>
