<?xml version="1.0" encoding="UTF-8" standalone="no"?>
<!DOCTYPE svg PUBLIC "-//W3C//DTD SVG 1.1//EN"
 "http://www.w3.org/Graphics/SVG/1.1/DTD/svg11.dtd">
<!-- Generated by graphviz version 2.43.0 (0)
 -->
<!-- Title: sff_8024_mem.MemorySpace Pages: 1 -->
<svg width="163pt" height="162pt"
 viewBox="0.00 0.00 163.00 162.00" xmlns="http://www.w3.org/2000/svg" xmlns:xlink="http://www.w3.org/1999/xlink">
<g id="graph0" class="graph" transform="scale(1 1) rotate(0) translate(4 158)">
<title>sff_8024_mem.MemorySpace</title>
<!-- Node1 -->
<g id="Node000001" class="node">
<title>Node1</title>
<g id="a_Node000001"><a xlink:title=" ">
<polygon fill="#999999" stroke="transparent" points="155,-154 0,-154 0,0 155,0 155,-154"/>
<text text-anchor="start" x="5.5" y="-142" font-family="Helvetica,sans-Serif" font-size="10.00">sff_8024_mem.MemorySpace</text>
<text text-anchor="start" x="19" y="-127" font-family="Helvetica,sans-Serif" font-size="10.00">#</text>
<text text-anchor="start" x="46.5" y="-127" font-family="Helvetica,sans-Serif" font-size="10.00">_data</text>
<text text-anchor="start" x="19" y="-112" font-family="Helvetica,sans-Serif" font-size="10.00">#</text>
<text text-anchor="start" x="46.5" y="-112" font-family="Helvetica,sans-Serif" font-size="10.00">_fields</text>
<text text-anchor="start" x="19" y="-97" font-family="Helvetica,sans-Serif" font-size="10.00">+</text>
<text text-anchor="start" x="46.5" y="-97" font-family="Helvetica,sans-Serif" font-size="10.00">__init__()</text>
<text text-anchor="start" x="19" y="-82" font-family="Helvetica,sans-Serif" font-size="10.00">+</text>
<text text-anchor="start" x="46.5" y="-82" font-family="Helvetica,sans-Serif" font-size="10.00">get_byte()</text>
<text text-anchor="start" x="19" y="-67" font-family="Helvetica,sans-Serif" font-size="10.00">+</text>
<text text-anchor="start" x="46.5" y="-67" font-family="Helvetica,sans-Serif" font-size="10.00">get_bytes()</text>
<text text-anchor="start" x="19" y="-52" font-family="Helvetica,sans-Serif" font-size="10.00">+</text>
<text text-anchor="start" x="46.5" y="-52" font-family="Helvetica,sans-Serif" font-size="10.00">get_string()</text>
<text text-anchor="start" x="19" y="-37" font-family="Helvetica,sans-Serif" font-size="10.00">+</text>
<text text-anchor="start" x="46.5" y="-37" font-family="Helvetica,sans-Serif" font-size="10.00">__repr__()</text>
<text text-anchor="start" x="19" y="-22" font-family="Helvetica,sans-Serif" font-size="10.00">+</text>
<text text-anchor="start" x="46.5" y="-22" font-family="Helvetica,sans-Serif" font-size="10.00">to_dict()</text>
<text text-anchor="start" x="19" y="-7" font-family="Helvetica,sans-Serif" font-size="10.00">#</text>
<text text-anchor="start" x="46.5" y="-7" font-family="Helvetica,sans-Serif" font-size="10.00">_decode_field()</text>
<polygon fill="#666666" stroke="#666666" points="0.5,-137 0.5,-137 155.5,-137 155.5,-137 0.5,-137"/>
<polygon fill="#666666" stroke="#666666" points="0.5,-107 0.5,-107 44.5,-107 44.5,-107 0.5,-107"/>
<polygon fill="#666666" stroke="#666666" points="44.5,-107 44.5,-107 155.5,-107 155.5,-107 44.5,-107"/>
<polygon fill="none" stroke="#666666" points="0,0 0,-154 155,-154 155,0 0,0"/>
</a>
</g>
</g>
</g>
</svg>
