<?xml version="1.0" encoding="UTF-8" standalone="no"?>
<!DOCTYPE svg PUBLIC "-//W3C//DTD SVG 1.1//EN"
 "http://www.w3.org/Graphics/SVG/1.1/DTD/svg11.dtd">
<!-- Generated by graphviz version 2.43.0 (0)
 -->
<!-- Title: src.modules.cmis.CMISModule.get_identification Pages: 1 -->
<svg width="398pt" height="182pt"
 viewBox="0.00 0.00 398.00 182.00" xmlns="http://www.w3.org/2000/svg" xmlns:xlink="http://www.w3.org/1999/xlink">
<g id="graph0" class="graph" transform="scale(1 1) rotate(0) translate(4 178)">
<title>src.modules.cmis.CMISModule.get_identification</title>
<!-- Node1 -->
<g id="Node000001" class="node">
<title>Node1</title>
<g id="a_Node000001"><a xlink:title=" ">
<polygon fill="#999999" stroke="#666666" points="185,-102 0,-102 0,-72 185,-72 185,-102"/>
<text text-anchor="start" x="8" y="-90" font-family="Helvetica,sans-Serif" font-size="10.00">src.modules.cmis.CMISModule.get</text>
<text text-anchor="middle" x="92.5" y="-79" font-family="Helvetica,sans-Serif" font-size="10.00">_identification</text>
</a>
</g>
</g>
<!-- Node2 -->
<g id="Node000002" class="node">
<title>Node2</title>
<g id="a_Node000002"><a xlink:href="classsrc_1_1detection_1_1detector_1_1ModuleDetector.html#a1381963782d79a461415eb8e7219544d" target="_top" xlink:title=" ">
<polygon fill="white" stroke="#666666" points="386,-174 225,-174 225,-144 386,-144 386,-174"/>
<text text-anchor="start" x="233" y="-162" font-family="Helvetica,sans-Serif" font-size="10.00">src.detection.detector.Module</text>
<text text-anchor="middle" x="305.5" y="-151" font-family="Helvetica,sans-Serif" font-size="10.00">Detector._read_string</text>
</a>
</g>
</g>
<!-- Node1&#45;&gt;Node2 -->
<g id="edge1_Node000001_Node000002" class="edge">
<title>Node1&#45;&gt;Node2</title>
<g id="a_edge1_Node000001_Node000002"><a xlink:title=" ">
<path fill="none" stroke="#63b8ff" d="M131.15,-102.08C156.39,-111.97 190.47,-124.88 221,-135 227.01,-136.99 233.3,-138.98 239.61,-140.9"/>
<polygon fill="#63b8ff" stroke="#63b8ff" points="238.93,-144.35 249.51,-143.87 240.94,-137.65 238.93,-144.35"/>
</a>
</g>
</g>
<!-- Node3 -->
<g id="Node000003" class="node">
<title>Node3</title>
<g id="a_Node000003"><a xlink:href="classsrc_1_1modules_1_1cmis_1_1CMISModule.html#a7de855e3b1f7db0ff57db1ae6f0870dd" target="_top" xlink:title=" ">
<polygon fill="white" stroke="#666666" points="390,-126 221,-126 221,-96 390,-96 390,-126"/>
<text text-anchor="start" x="229" y="-114" font-family="Helvetica,sans-Serif" font-size="10.00">src.modules.cmis.CMISModule.</text>
<text text-anchor="middle" x="305.5" y="-103" font-family="Helvetica,sans-Serif" font-size="10.00">_read_string</text>
</a>
</g>
</g>
<!-- Node1&#45;&gt;Node3 -->
<g id="edge2_Node000001_Node000003" class="edge">
<title>Node1&#45;&gt;Node3</title>
<g id="a_edge2_Node000001_Node000003"><a xlink:title=" ">
<path fill="none" stroke="#63b8ff" d="M185.13,-97.42C193.68,-98.39 202.36,-99.38 210.93,-100.36"/>
<polygon fill="#63b8ff" stroke="#63b8ff" points="210.6,-103.84 220.93,-101.49 211.39,-96.89 210.6,-103.84"/>
</a>
</g>
</g>
<!-- Node4 -->
<g id="Node000004" class="node">
<title>Node4</title>
<g id="a_Node000004"><a xlink:href="classsrc_1_1modules_1_1sff_1_1SFFModule.html#a057e8bce361ffbe39bf662c71e19dc84" target="_top" xlink:title=" ">
<polygon fill="white" stroke="#666666" points="381,-78 230,-78 230,-48 381,-48 381,-78"/>
<text text-anchor="start" x="238" y="-66" font-family="Helvetica,sans-Serif" font-size="10.00">src.modules.sff.SFFModule.</text>
<text text-anchor="middle" x="305.5" y="-55" font-family="Helvetica,sans-Serif" font-size="10.00">_read_string</text>
</a>
</g>
</g>
<!-- Node1&#45;&gt;Node4 -->
<g id="edge3_Node000001_Node000004" class="edge">
<title>Node1&#45;&gt;Node4</title>
<g id="a_edge3_Node000001_Node000004"><a xlink:title=" ">
<path fill="none" stroke="#63b8ff" d="M185.13,-76.58C196.54,-75.28 208.17,-73.96 219.47,-72.67"/>
<polygon fill="#63b8ff" stroke="#63b8ff" points="220.21,-76.11 229.75,-71.5 219.41,-69.16 220.21,-76.11"/>
</a>
</g>
</g>
<!-- Node5 -->
<g id="Node000005" class="node">
<title>Node5</title>
<g id="a_Node000005"><a xlink:href="classsrc_1_1modules_1_1cmis_1_1CMISModule.html#ad5d613bb1b9bb6b6c5710d46e353eb97" target="_top" xlink:title=" ">
<polygon fill="white" stroke="#666666" points="390,-30 221,-30 221,0 390,0 390,-30"/>
<text text-anchor="start" x="229" y="-18" font-family="Helvetica,sans-Serif" font-size="10.00">src.modules.cmis.CMISModule.</text>
<text text-anchor="middle" x="305.5" y="-7" font-family="Helvetica,sans-Serif" font-size="10.00">_select_page</text>
</a>
</g>
</g>
<!-- Node1&#45;&gt;Node5 -->
<g id="edge4_Node000001_Node000005" class="edge">
<title>Node1&#45;&gt;Node5</title>
<g id="a_edge4_Node000001_Node000005"><a xlink:title=" ">
<path fill="none" stroke="#63b8ff" d="M131.15,-71.92C156.39,-62.03 190.47,-49.12 221,-39 227.01,-37.01 233.3,-35.02 239.61,-33.1"/>
<polygon fill="#63b8ff" stroke="#63b8ff" points="240.94,-36.35 249.51,-30.13 238.93,-29.65 240.94,-36.35"/>
</a>
</g>
</g>
</g>
</svg>
