<?xml version="1.0" encoding="UTF-8" standalone="no"?>
<!DOCTYPE svg PUBLIC "-//W3C//DTD SVG 1.1//EN"
 "http://www.w3.org/Graphics/SVG/1.1/DTD/svg11.dtd">
<!-- Generated by graphviz version 2.43.0 (0)
 -->
<!-- Title: sff_8024_mem.SFF8024_BasePage00h.__init__ Pages: 1 -->
<svg width="344pt" height="253pt"
 viewBox="0.00 0.00 344.00 252.50" xmlns="http://www.w3.org/2000/svg" xmlns:xlink="http://www.w3.org/1999/xlink">
<g id="graph0" class="graph" transform="scale(1 1) rotate(0) translate(4 248.5)">
<title>sff_8024_mem.SFF8024_BasePage00h.__init__</title>
<!-- Node1 -->
<g id="Node000001" class="node">
<title>Node1</title>
<g id="a_Node000001"><a xlink:title=" ">
<polygon fill="#999999" stroke="#666666" points="134,-126 0,-126 0,-96 134,-96 134,-126"/>
<text text-anchor="start" x="8" y="-114" font-family="Helvetica,sans-Serif" font-size="10.00">sff_8024_mem.SFF8024</text>
<text text-anchor="middle" x="67" y="-103" font-family="Helvetica,sans-Serif" font-size="10.00">_BasePage00h.__init__</text>
</a>
</g>
</g>
<!-- Node1&#45;&gt;Node1 -->
<g id="edge1_Node000001_Node000001" class="edge">
<title>Node1&#45;&gt;Node1</title>
<g id="a_edge1_Node000001_Node000001"><a xlink:title=" ">
<path fill="none" stroke="#63b8ff" d="M34.3,-126.28C27.04,-135.41 37.94,-144 67,-144 84.26,-144 95.11,-140.97 99.56,-136.6"/>
<polygon fill="#63b8ff" stroke="#63b8ff" points="103.06,-136.32 99.7,-126.28 96.06,-136.23 103.06,-136.32"/>
</a>
</g>
</g>
<!-- Node2 -->
<g id="Node000002" class="node">
<title>Node2</title>
<g id="a_Node000002"><a xlink:href="classsff__8024__mem_1_1SFF8024__BasePage00h.html#af3f71d48f0e5ed5030dfa525ba55ae2d" target="_top" xlink:title=" ">
<polygon fill="white" stroke="#666666" points="320,-244.5 186,-244.5 186,-203.5 320,-203.5 320,-244.5"/>
<text text-anchor="start" x="194" y="-232.5" font-family="Helvetica,sans-Serif" font-size="10.00">sff_8024_mem.SFF8024</text>
<text text-anchor="start" x="194" y="-221.5" font-family="Helvetica,sans-Serif" font-size="10.00">_BasePage00h._decode</text>
<text text-anchor="middle" x="253" y="-210.5" font-family="Helvetica,sans-Serif" font-size="10.00">_fields</text>
</a>
</g>
</g>
<!-- Node1&#45;&gt;Node2 -->
<g id="edge2_Node000001_Node000002" class="edge">
<title>Node1&#45;&gt;Node2</title>
<g id="a_edge2_Node000001_Node000002"><a xlink:title=" ">
<path fill="none" stroke="#63b8ff" d="M82.97,-126.25C101.81,-144.7 135.85,-175.7 170,-195 172.53,-196.43 175.14,-197.8 177.8,-199.13"/>
<polygon fill="#63b8ff" stroke="#63b8ff" points="176.5,-202.38 187.04,-203.44 179.46,-196.04 176.5,-202.38"/>
</a>
</g>
</g>
<!-- Node3 -->
<g id="Node000003" class="node">
<title>Node3</title>
<g id="a_Node000003"><a xlink:href="classsff__8024__mem_1_1SFF8472__DOMMemorySpace.html#ae39e1c3fdd4295847f40ee12f4bd3e11" target="_top" xlink:title=" ">
<polygon fill="white" stroke="#666666" points="332.5,-185.5 173.5,-185.5 173.5,-144.5 332.5,-144.5 332.5,-185.5"/>
<text text-anchor="start" x="181.5" y="-173.5" font-family="Helvetica,sans-Serif" font-size="10.00">sff_8024_mem.SFF8472</text>
<text text-anchor="start" x="181.5" y="-162.5" font-family="Helvetica,sans-Serif" font-size="10.00">_DOMMemorySpace._decode</text>
<text text-anchor="middle" x="253" y="-151.5" font-family="Helvetica,sans-Serif" font-size="10.00">_fields</text>
</a>
</g>
</g>
<!-- Node1&#45;&gt;Node3 -->
<g id="edge3_Node000001_Node000003" class="edge">
<title>Node1&#45;&gt;Node3</title>
<g id="a_edge3_Node000001_Node000003"><a xlink:title=" ">
<path fill="none" stroke="#63b8ff" d="M119.25,-126.04C135.67,-130.86 154.26,-136.32 172.22,-141.59"/>
<polygon fill="#63b8ff" stroke="#63b8ff" points="171.53,-145.03 182.11,-144.49 173.5,-138.31 171.53,-145.03"/>
</a>
</g>
</g>
<!-- Node4 -->
<g id="Node000004" class="node">
<title>Node4</title>
<g id="a_Node000004"><a xlink:href="classsff__8024__mem_1_1SFF8636__Page00h.html#a47a1bff7b3e8f51e705b256ee92da1b9" target="_top" xlink:title=" ">
<polygon fill="white" stroke="#666666" points="322,-126 184,-126 184,-96 322,-96 322,-126"/>
<text text-anchor="start" x="192" y="-114" font-family="Helvetica,sans-Serif" font-size="10.00">sff_8024_mem.SFF8636</text>
<text text-anchor="middle" x="253" y="-103" font-family="Helvetica,sans-Serif" font-size="10.00">_Page00h._decode_fields</text>
</a>
</g>
</g>
<!-- Node1&#45;&gt;Node4 -->
<g id="edge4_Node000001_Node000004" class="edge">
<title>Node1&#45;&gt;Node4</title>
<g id="a_edge4_Node000001_Node000004"><a xlink:title=" ">
<path fill="none" stroke="#63b8ff" d="M134.17,-111C147.06,-111 160.68,-111 173.92,-111"/>
<polygon fill="#63b8ff" stroke="#63b8ff" points="173.94,-114.5 183.94,-111 173.94,-107.5 173.94,-114.5"/>
</a>
</g>
</g>
<!-- Node5 -->
<g id="Node000005" class="node">
<title>Node5</title>
<g id="a_Node000005"><a xlink:href="classsff__8024__mem_1_1SFF8636__Page01h__CD.html#a6df928db0af129aaca86cc44ce38397a" target="_top" xlink:title=" ">
<polygon fill="white" stroke="#666666" points="332,-78 174,-78 174,-48 332,-48 332,-78"/>
<text text-anchor="start" x="182" y="-66" font-family="Helvetica,sans-Serif" font-size="10.00">sff_8024_mem.SFF8636</text>
<text text-anchor="middle" x="253" y="-55" font-family="Helvetica,sans-Serif" font-size="10.00">_Page01h_CD._decode_fields</text>
</a>
</g>
</g>
<!-- Node1&#45;&gt;Node5 -->
<g id="edge5_Node000001_Node000005" class="edge">
<title>Node1&#45;&gt;Node5</title>
<g id="a_edge5_Node000001_Node000005"><a xlink:title=" ">
<path fill="none" stroke="#63b8ff" d="M125.71,-95.94C144.38,-91.07 165.25,-85.63 184.56,-80.59"/>
<polygon fill="#63b8ff" stroke="#63b8ff" points="185.7,-83.91 194.49,-78 183.93,-77.14 185.7,-83.91"/>
</a>
</g>
</g>
<!-- Node6 -->
<g id="Node000006" class="node">
<title>Node6</title>
<g id="a_Node000006"><a xlink:href="classsff__8024__mem_1_1CMIS__Page00h.html#aa54b0786a5c69706c3d28ad96f364a58" target="_top" xlink:title=" ">
<polygon fill="white" stroke="#666666" points="336,-30 170,-30 170,0 336,0 336,-30"/>
<text text-anchor="start" x="178" y="-18" font-family="Helvetica,sans-Serif" font-size="10.00">sff_8024_mem.CMIS_Page00h.</text>
<text text-anchor="middle" x="253" y="-7" font-family="Helvetica,sans-Serif" font-size="10.00">_decode_fields</text>
</a>
</g>
</g>
<!-- Node1&#45;&gt;Node6 -->
<g id="edge6_Node000001_Node000006" class="edge">
<title>Node1&#45;&gt;Node6</title>
<g id="a_edge6_Node000001_Node000006"><a xlink:title=" ">
<path fill="none" stroke="#63b8ff" d="M85.65,-95.77C105.13,-79.66 137.99,-54.45 170,-39 174.02,-37.06 178.22,-35.25 182.51,-33.56"/>
<polygon fill="#63b8ff" stroke="#63b8ff" points="183.84,-36.79 192.01,-30.04 181.42,-30.23 183.84,-36.79"/>
</a>
</g>
</g>
</g>
</svg>
