<?xml version="1.0" encoding="UTF-8" standalone="no"?>
<!DOCTYPE svg PUBLIC "-//W3C//DTD SVG 1.1//EN"
 "http://www.w3.org/Graphics/SVG/1.1/DTD/svg11.dtd">
<!-- Generated by graphviz version 2.43.0 (0)
 -->
<!-- Title: src.modules.cmis.CMISModule._decode_voltage Pages: 1 -->
<svg width="601pt" height="134pt"
 viewBox="0.00 0.00 601.00 134.00" xmlns="http://www.w3.org/2000/svg" xmlns:xlink="http://www.w3.org/1999/xlink">
<g id="graph0" class="graph" transform="scale(1 1) rotate(0) translate(4 130)">
<title>src.modules.cmis.CMISModule._decode_voltage</title>
<!-- Node1 -->
<g id="Node000001" class="node">
<title>Node1</title>
<g id="a_Node000001"><a xlink:title=" ">
<polygon fill="#999999" stroke="#666666" points="593,-78 424,-78 424,-48 593,-48 593,-78"/>
<text text-anchor="start" x="432" y="-66" font-family="Helvetica,sans-Serif" font-size="10.00">src.modules.cmis.CMISModule.</text>
<text text-anchor="middle" x="508.5" y="-55" font-family="Helvetica,sans-Serif" font-size="10.00">_decode_voltage</text>
</a>
</g>
</g>
<!-- Node2 -->
<g id="Node000002" class="node">
<title>Node2</title>
<g id="a_Node000002"><a xlink:href="classsrc_1_1modules_1_1sff_1_1SFFModule.html#a3decb2758dadaf2ecabc8d91e920c69c" target="_top" xlink:title=" ">
<polygon fill="white" stroke="#666666" points="371,-126 220,-126 220,-96 371,-96 371,-126"/>
<text text-anchor="start" x="228" y="-114" font-family="Helvetica,sans-Serif" font-size="10.00">src.modules.sff.SFFModule.</text>
<text text-anchor="middle" x="295.5" y="-103" font-family="Helvetica,sans-Serif" font-size="10.00">_get_alarm_thresholds</text>
</a>
</g>
</g>
<!-- Node1&#45;&gt;Node2 -->
<g id="edge1_Node000001_Node000002" class="edge">
<title>Node1&#45;&gt;Node2</title>
<g id="a_edge1_Node000001_Node000002"><a xlink:title=" ">
<path fill="none" stroke="#63b8ff" d="M431.44,-80.3C408.86,-85.44 384.33,-91.02 362.45,-96"/>
<polygon fill="#63b8ff" stroke="#63b8ff" points="432.34,-83.69 441.32,-78.06 430.79,-76.86 432.34,-83.69"/>
</a>
</g>
</g>
<!-- Node4 -->
<g id="Node000004" class="node">
<title>Node4</title>
<g id="a_Node000004"><a xlink:href="classsrc_1_1modules_1_1cmis_1_1CMISModule.html#a4ee4bb9014d315a32cb2e5e8477a3a85" target="_top" xlink:title=" ">
<polygon fill="white" stroke="#666666" points="388,-78 203,-78 203,-48 388,-48 388,-78"/>
<text text-anchor="start" x="211" y="-66" font-family="Helvetica,sans-Serif" font-size="10.00">src.modules.cmis.CMISModule.get</text>
<text text-anchor="middle" x="295.5" y="-55" font-family="Helvetica,sans-Serif" font-size="10.00">_status</text>
</a>
</g>
</g>
<!-- Node1&#45;&gt;Node4 -->
<g id="edge3_Node000001_Node000004" class="edge">
<title>Node1&#45;&gt;Node4</title>
<g id="a_edge3_Node000001_Node000004"><a xlink:title=" ">
<path fill="none" stroke="#63b8ff" d="M413.55,-63C405.09,-63 396.52,-63 388.08,-63"/>
<polygon fill="#63b8ff" stroke="#63b8ff" points="413.8,-66.5 423.8,-63 413.8,-59.5 413.8,-66.5"/>
</a>
</g>
</g>
<!-- Node5 -->
<g id="Node000005" class="node">
<title>Node5</title>
<g id="a_Node000005"><a xlink:href="classsrc_1_1modules_1_1sff_1_1SFFModule.html#a749ec10a0a54ba0faa14e9499fe08a79" target="_top" xlink:title=" ">
<polygon fill="white" stroke="#666666" points="379,-30 212,-30 212,0 379,0 379,-30"/>
<text text-anchor="start" x="220" y="-18" font-family="Helvetica,sans-Serif" font-size="10.00">src.modules.sff.SFFModule.get</text>
<text text-anchor="middle" x="295.5" y="-7" font-family="Helvetica,sans-Serif" font-size="10.00">_status</text>
</a>
</g>
</g>
<!-- Node1&#45;&gt;Node5 -->
<g id="edge4_Node000001_Node000005" class="edge">
<title>Node1&#45;&gt;Node5</title>
<g id="a_edge4_Node000001_Node000005"><a xlink:title=" ">
<path fill="none" stroke="#63b8ff" d="M431.44,-45.7C408.86,-40.56 384.33,-34.98 362.45,-30"/>
<polygon fill="#63b8ff" stroke="#63b8ff" points="430.79,-49.14 441.32,-47.94 432.34,-42.31 430.79,-49.14"/>
</a>
</g>
</g>
<!-- Node3 -->
<g id="Node000003" class="node">
<title>Node3</title>
<g id="a_Node000003"><a xlink:href="classsrc_1_1modules_1_1sff_1_1SFFModule.html#ae73d2bcdb53c403e7b575e794077091d" target="_top" xlink:title=" ">
<polygon fill="white" stroke="#666666" points="167,-126 0,-126 0,-96 167,-96 167,-126"/>
<text text-anchor="start" x="8" y="-114" font-family="Helvetica,sans-Serif" font-size="10.00">src.modules.sff.SFFModule.get</text>
<text text-anchor="middle" x="83.5" y="-103" font-family="Helvetica,sans-Serif" font-size="10.00">_configuration</text>
</a>
</g>
</g>
<!-- Node2&#45;&gt;Node3 -->
<g id="edge2_Node000002_Node000003" class="edge">
<title>Node2&#45;&gt;Node3</title>
<g id="a_edge2_Node000002_Node000003"><a xlink:title=" ">
<path fill="none" stroke="#63b8ff" d="M209.74,-111C195.67,-111 181.11,-111 167.1,-111"/>
<polygon fill="#63b8ff" stroke="#63b8ff" points="209.87,-114.5 219.87,-111 209.87,-107.5 209.87,-114.5"/>
</a>
</g>
</g>
</g>
</svg>
