<?xml version="1.0" encoding="UTF-8" standalone="no"?>
<!DOCTYPE svg PUBLIC "-//W3C//DTD SVG 1.1//EN"
 "http://www.w3.org/Graphics/SVG/1.1/DTD/svg11.dtd">
<!-- Generated by graphviz version 2.43.0 (0)
 -->
<!-- Title: src.modules.base.BaseModule.has_capability Pages: 1 -->
<svg width="414pt" height="278pt"
 viewBox="0.00 0.00 414.00 278.00" xmlns="http://www.w3.org/2000/svg" xmlns:xlink="http://www.w3.org/1999/xlink">
<g id="graph0" class="graph" transform="scale(1 1) rotate(0) translate(4 274)">
<title>src.modules.base.BaseModule.has_capability</title>
<!-- Node1 -->
<g id="Node000001" class="node">
<title>Node1</title>
<g id="a_Node000001"><a xlink:title=" ">
<polygon fill="#999999" stroke="#666666" points="406,-150 221,-150 221,-120 406,-120 406,-150"/>
<text text-anchor="start" x="229" y="-138" font-family="Helvetica,sans-Serif" font-size="10.00">src.modules.base.BaseModule.has</text>
<text text-anchor="middle" x="313.5" y="-127" font-family="Helvetica,sans-Serif" font-size="10.00">_capability</text>
</a>
</g>
</g>
<!-- Node2 -->
<g id="Node000002" class="node">
<title>Node2</title>
<g id="a_Node000002"><a xlink:href="classsrc_1_1modules_1_1cmis_1_1CMISModule.html#a33b10a4b1376fcfe2ed6aebb2465014b" target="_top" xlink:title=" ">
<polygon fill="white" stroke="#666666" points="185,-270 0,-270 0,-240 185,-240 185,-270"/>
<text text-anchor="start" x="8" y="-258" font-family="Helvetica,sans-Serif" font-size="10.00">src.modules.cmis.CMISModule.get</text>
<text text-anchor="middle" x="92.5" y="-247" font-family="Helvetica,sans-Serif" font-size="10.00">_configuration</text>
</a>
</g>
</g>
<!-- Node1&#45;&gt;Node2 -->
<g id="edge1_Node000001_Node000002" class="edge">
<title>Node1&#45;&gt;Node2</title>
<g id="a_edge1_Node000001_Node000002"><a xlink:title=" ">
<path fill="none" stroke="#63b8ff" d="M288.96,-157.26C264.69,-179.04 224.88,-211.69 185,-231 178.05,-234.36 170.57,-237.3 162.99,-239.86"/>
<polygon fill="#63b8ff" stroke="#63b8ff" points="291.53,-159.64 296.57,-150.32 286.82,-154.47 291.53,-159.64"/>
</a>
</g>
</g>
<!-- Node3 -->
<g id="Node000003" class="node">
<title>Node3</title>
<g id="a_Node000003"><a xlink:href="classsrc_1_1modules_1_1sff_1_1SFFModule.html#ae73d2bcdb53c403e7b575e794077091d" target="_top" xlink:title=" ">
<polygon fill="white" stroke="#666666" points="176,-222 9,-222 9,-192 176,-192 176,-222"/>
<text text-anchor="start" x="17" y="-210" font-family="Helvetica,sans-Serif" font-size="10.00">src.modules.sff.SFFModule.get</text>
<text text-anchor="middle" x="92.5" y="-199" font-family="Helvetica,sans-Serif" font-size="10.00">_configuration</text>
</a>
</g>
</g>
<!-- Node1&#45;&gt;Node3 -->
<g id="edge2_Node000001_Node000003" class="edge">
<title>Node1&#45;&gt;Node3</title>
<g id="a_edge2_Node000001_Node000003"><a xlink:title=" ">
<path fill="none" stroke="#63b8ff" d="M265.92,-153.86C241.95,-163.23 212.14,-174.36 185,-183 175.14,-186.14 164.59,-189.19 154.29,-192"/>
<polygon fill="#63b8ff" stroke="#63b8ff" points="267.45,-157.02 275.48,-150.1 264.89,-150.51 267.45,-157.02"/>
</a>
</g>
</g>
<!-- Node4 -->
<g id="Node000004" class="node">
<title>Node4</title>
<g id="a_Node000004"><a xlink:href="classsrc_1_1modules_1_1cmis_1_1CMISModule.html#a4ee4bb9014d315a32cb2e5e8477a3a85" target="_top" xlink:title=" ">
<polygon fill="white" stroke="#666666" points="185,-174 0,-174 0,-144 185,-144 185,-174"/>
<text text-anchor="start" x="8" y="-162" font-family="Helvetica,sans-Serif" font-size="10.00">src.modules.cmis.CMISModule.get</text>
<text text-anchor="middle" x="92.5" y="-151" font-family="Helvetica,sans-Serif" font-size="10.00">_status</text>
</a>
</g>
</g>
<!-- Node1&#45;&gt;Node4 -->
<g id="edge3_Node000001_Node000004" class="edge">
<title>Node1&#45;&gt;Node4</title>
<g id="a_edge3_Node000001_Node000004"><a xlink:title=" ">
<path fill="none" stroke="#63b8ff" d="M210.85,-146.14C202.26,-147.08 193.6,-148.03 185.09,-148.96"/>
<polygon fill="#63b8ff" stroke="#63b8ff" points="211.33,-149.61 220.89,-145.04 210.57,-142.65 211.33,-149.61"/>
</a>
</g>
</g>
<!-- Node5 -->
<g id="Node000005" class="node">
<title>Node5</title>
<g id="a_Node000005"><a xlink:href="classsrc_1_1modules_1_1sff_1_1SFFModule.html#a749ec10a0a54ba0faa14e9499fe08a79" target="_top" xlink:title=" ">
<polygon fill="white" stroke="#666666" points="176,-126 9,-126 9,-96 176,-96 176,-126"/>
<text text-anchor="start" x="17" y="-114" font-family="Helvetica,sans-Serif" font-size="10.00">src.modules.sff.SFFModule.get</text>
<text text-anchor="middle" x="92.5" y="-103" font-family="Helvetica,sans-Serif" font-size="10.00">_status</text>
</a>
</g>
</g>
<!-- Node1&#45;&gt;Node5 -->
<g id="edge4_Node000001_Node000005" class="edge">
<title>Node1&#45;&gt;Node5</title>
<g id="a_edge4_Node000001_Node000005"><a xlink:title=" ">
<path fill="none" stroke="#63b8ff" d="M210.72,-123.85C199.09,-122.57 187.35,-121.28 176.02,-120.04"/>
<polygon fill="#63b8ff" stroke="#63b8ff" points="210.57,-127.35 220.89,-124.96 211.33,-120.39 210.57,-127.35"/>
</a>
</g>
</g>
<!-- Node6 -->
<g id="Node000006" class="node">
<title>Node6</title>
<g id="a_Node000006"><a xlink:href="classsrc_1_1modules_1_1cmis_1_1CMISModule.html#ad63e182d3b08a2f8af670fa4bedffb9d" target="_top" xlink:title=" ">
<polygon fill="white" stroke="#666666" points="184.5,-78 0.5,-78 0.5,-48 184.5,-48 184.5,-78"/>
<text text-anchor="start" x="8.5" y="-66" font-family="Helvetica,sans-Serif" font-size="10.00">src.modules.cmis.CMISModule.set</text>
<text text-anchor="middle" x="92.5" y="-55" font-family="Helvetica,sans-Serif" font-size="10.00">_configuration</text>
</a>
</g>
</g>
<!-- Node1&#45;&gt;Node6 -->
<g id="edge5_Node000001_Node000006" class="edge">
<title>Node1&#45;&gt;Node6</title>
<g id="a_edge5_Node000001_Node000006"><a xlink:title=" ">
<path fill="none" stroke="#63b8ff" d="M265.92,-116.14C241.95,-106.77 212.14,-95.64 185,-87 175.14,-83.86 164.59,-80.81 154.29,-78"/>
<polygon fill="#63b8ff" stroke="#63b8ff" points="264.89,-119.49 275.48,-119.9 267.45,-112.98 264.89,-119.49"/>
</a>
</g>
</g>
<!-- Node7 -->
<g id="Node000007" class="node">
<title>Node7</title>
<g id="a_Node000007"><a xlink:href="classsrc_1_1modules_1_1sff_1_1SFFModule.html#ad2e5ca055b1ea761379afbf3084c2e60" target="_top" xlink:title=" ">
<polygon fill="white" stroke="#666666" points="175.5,-30 9.5,-30 9.5,0 175.5,0 175.5,-30"/>
<text text-anchor="start" x="17.5" y="-18" font-family="Helvetica,sans-Serif" font-size="10.00">src.modules.sff.SFFModule.set</text>
<text text-anchor="middle" x="92.5" y="-7" font-family="Helvetica,sans-Serif" font-size="10.00">_configuration</text>
</a>
</g>
</g>
<!-- Node1&#45;&gt;Node7 -->
<g id="edge6_Node000001_Node000007" class="edge">
<title>Node1&#45;&gt;Node7</title>
<g id="a_edge6_Node000001_Node000007"><a xlink:title=" ">
<path fill="none" stroke="#63b8ff" d="M288.96,-112.74C264.69,-90.96 224.88,-58.31 185,-39 178.05,-35.64 170.57,-32.7 162.99,-30.14"/>
<polygon fill="#63b8ff" stroke="#63b8ff" points="286.82,-115.53 296.57,-119.68 291.53,-110.36 286.82,-115.53"/>
</a>
</g>
</g>
</g>
</svg>
