<?xml version="1.0" encoding="UTF-8" standalone="no"?>
<!DOCTYPE svg PUBLIC "-//W3C//DTD SVG 1.1//EN"
 "http://www.w3.org/Graphics/SVG/1.1/DTD/svg11.dtd">
<!-- Generated by graphviz version 2.43.0 (0)
 -->
<!-- Title: sff_8024_mem.SFF8636_Page00h._decode_fields Pages: 1 -->
<svg width="348pt" height="320pt"
 viewBox="0.00 0.00 348.00 320.00" xmlns="http://www.w3.org/2000/svg" xmlns:xlink="http://www.w3.org/1999/xlink">
<g id="graph0" class="graph" transform="scale(1 1) rotate(0) translate(4 316)">
<title>sff_8024_mem.SFF8636_Page00h._decode_fields</title>
<!-- Node1 -->
<g id="Node000001" class="node">
<title>Node1</title>
<g id="a_Node000001"><a xlink:title=" ">
<polygon fill="#999999" stroke="#666666" points="340,-162 202,-162 202,-132 340,-132 340,-162"/>
<text text-anchor="start" x="210" y="-150" font-family="Helvetica,sans-Serif" font-size="10.00">sff_8024_mem.SFF8636</text>
<text text-anchor="middle" x="271" y="-139" font-family="Helvetica,sans-Serif" font-size="10.00">_Page00h._decode_fields</text>
</a>
</g>
</g>
<!-- Node2 -->
<g id="Node000002" class="node">
<title>Node2</title>
<g id="a_Node000002"><a xlink:href="classsff__8024__mem_1_1SFF8024__BasePage00h.html#ad40949dd2613d834634982da64e50ac2" target="_top" xlink:title=" ">
<polygon fill="white" stroke="#666666" points="150,-294 16,-294 16,-264 150,-264 150,-294"/>
<text text-anchor="start" x="24" y="-282" font-family="Helvetica,sans-Serif" font-size="10.00">sff_8024_mem.SFF8024</text>
<text text-anchor="middle" x="83" y="-271" font-family="Helvetica,sans-Serif" font-size="10.00">_BasePage00h.__init__</text>
</a>
</g>
</g>
<!-- Node1&#45;&gt;Node2 -->
<g id="edge1_Node000001_Node000002" class="edge">
<title>Node1&#45;&gt;Node2</title>
<g id="a_edge1_Node000001_Node000002"><a xlink:title=" ">
<path fill="none" stroke="#63b8ff" d="M253.4,-170.39C234.81,-194.92 202.45,-232.93 166,-255 160.42,-258.38 154.33,-261.31 148.08,-263.84"/>
<polygon fill="#63b8ff" stroke="#63b8ff" points="256.24,-172.43 259.39,-162.32 250.62,-168.26 256.24,-172.43"/>
</a>
</g>
</g>
<!-- Node3 -->
<g id="Node000003" class="node">
<title>Node3</title>
<g id="a_Node000003"><a xlink:href="classsff__8024__mem_1_1SFF8472__DOMMemorySpace.html#a67ab17ff1a6be4d18c8c0f02b507478e" target="_top" xlink:title=" ">
<polygon fill="white" stroke="#666666" points="160.5,-228 5.5,-228 5.5,-198 160.5,-198 160.5,-228"/>
<text text-anchor="start" x="13.5" y="-216" font-family="Helvetica,sans-Serif" font-size="10.00">sff_8024_mem.SFF8472</text>
<text text-anchor="middle" x="83" y="-205" font-family="Helvetica,sans-Serif" font-size="10.00">_DOMMemorySpace.__init__</text>
</a>
</g>
</g>
<!-- Node1&#45;&gt;Node3 -->
<g id="edge3_Node000001_Node000003" class="edge">
<title>Node1&#45;&gt;Node3</title>
<g id="a_edge3_Node000001_Node000003"><a xlink:title=" ">
<path fill="none" stroke="#63b8ff" d="M225.91,-165.93C207.54,-173.52 185.89,-182.09 166,-189 157.17,-192.07 147.72,-195.08 138.49,-197.87"/>
<polygon fill="#63b8ff" stroke="#63b8ff" points="227.3,-169.14 235.19,-162.07 224.61,-162.68 227.3,-169.14"/>
</a>
</g>
</g>
<!-- Node4 -->
<g id="Node000004" class="node">
<title>Node4</title>
<g id="a_Node000004"><a xlink:href="classsff__8024__mem_1_1SFF8636__Page00h.html#a7a36b5c87aa741ea03992d814f7efc01" target="_top" xlink:title=" ">
<polygon fill="white" stroke="#666666" points="150,-162 16,-162 16,-132 150,-132 150,-162"/>
<text text-anchor="start" x="24" y="-150" font-family="Helvetica,sans-Serif" font-size="10.00">sff_8024_mem.SFF8636</text>
<text text-anchor="middle" x="83" y="-139" font-family="Helvetica,sans-Serif" font-size="10.00">_Page00h.__init__</text>
</a>
</g>
</g>
<!-- Node1&#45;&gt;Node4 -->
<g id="edge5_Node000001_Node000004" class="edge">
<title>Node1&#45;&gt;Node4</title>
<g id="a_edge5_Node000001_Node000004"><a xlink:title=" ">
<path fill="none" stroke="#63b8ff" d="M191.78,-147C177.88,-147 163.54,-147 150.02,-147"/>
<polygon fill="#63b8ff" stroke="#63b8ff" points="191.8,-150.5 201.8,-147 191.8,-143.5 191.8,-150.5"/>
</a>
</g>
</g>
<!-- Node5 -->
<g id="Node000005" class="node">
<title>Node5</title>
<g id="a_Node000005"><a xlink:href="classsff__8024__mem_1_1SFF8636__Page01h__CD.html#a9f1e632510afa18f69b0fa1e54d0e2ac" target="_top" xlink:title=" ">
<polygon fill="white" stroke="#666666" points="150,-96 16,-96 16,-66 150,-66 150,-96"/>
<text text-anchor="start" x="24" y="-84" font-family="Helvetica,sans-Serif" font-size="10.00">sff_8024_mem.SFF8636</text>
<text text-anchor="middle" x="83" y="-73" font-family="Helvetica,sans-Serif" font-size="10.00">_Page01h_CD.__init__</text>
</a>
</g>
</g>
<!-- Node1&#45;&gt;Node5 -->
<g id="edge7_Node000001_Node000005" class="edge">
<title>Node1&#45;&gt;Node5</title>
<g id="a_edge7_Node000001_Node000005"><a xlink:title=" ">
<path fill="none" stroke="#63b8ff" d="M217.82,-128.48C188.98,-118.25 153.61,-105.7 126.47,-96.07"/>
<polygon fill="#63b8ff" stroke="#63b8ff" points="216.73,-131.81 227.33,-131.86 219.07,-125.22 216.73,-131.81"/>
</a>
</g>
</g>
<!-- Node6 -->
<g id="Node000006" class="node">
<title>Node6</title>
<g id="a_Node000006"><a xlink:href="classsff__8024__mem_1_1CMIS__Page00h.html#afc44e0d8e0cfbd69e8201b72cfc10bcd" target="_top" xlink:title=" ">
<polygon fill="white" stroke="#666666" points="166,-30 0,-30 0,0 166,0 166,-30"/>
<text text-anchor="start" x="8" y="-18" font-family="Helvetica,sans-Serif" font-size="10.00">sff_8024_mem.CMIS_Page00h.</text>
<text text-anchor="middle" x="83" y="-7" font-family="Helvetica,sans-Serif" font-size="10.00">__init__</text>
</a>
</g>
</g>
<!-- Node1&#45;&gt;Node6 -->
<g id="edge9_Node000001_Node000006" class="edge">
<title>Node1&#45;&gt;Node6</title>
<g id="a_edge9_Node000001_Node000006"><a xlink:title=" ">
<path fill="none" stroke="#63b8ff" d="M247.56,-124.75C227.32,-105.41 196.19,-77.36 166,-57 150.88,-46.8 132.97,-37.36 117.75,-30.02"/>
<polygon fill="#63b8ff" stroke="#63b8ff" points="245.13,-127.27 254.75,-131.71 250,-122.24 245.13,-127.27"/>
</a>
</g>
</g>
<!-- Node2&#45;&gt;Node2 -->
<g id="edge2_Node000002_Node000002" class="edge">
<title>Node2&#45;&gt;Node2</title>
<g id="a_edge2_Node000002_Node000002"><a xlink:title=" ">
<path fill="none" stroke="#63b8ff" d="M115.91,-304.6C111.41,-308.97 100.44,-312 83,-312 53.62,-312 42.61,-303.41 49.95,-294.28"/>
<polygon fill="#63b8ff" stroke="#63b8ff" points="119.41,-304.32 116.05,-294.28 112.41,-304.23 119.41,-304.32"/>
</a>
</g>
</g>
<!-- Node3&#45;&gt;Node3 -->
<g id="edge4_Node000003_Node000003" class="edge">
<title>Node3&#45;&gt;Node3</title>
<g id="a_edge4_Node000003_Node000003"><a xlink:title=" ">
<path fill="none" stroke="#63b8ff" d="M115.91,-238.6C111.41,-242.97 100.44,-246 83,-246 53.62,-246 42.61,-237.41 49.95,-228.28"/>
<polygon fill="#63b8ff" stroke="#63b8ff" points="119.41,-238.32 116.05,-228.28 112.41,-238.23 119.41,-238.32"/>
</a>
</g>
</g>
<!-- Node4&#45;&gt;Node4 -->
<g id="edge6_Node000004_Node000004" class="edge">
<title>Node4&#45;&gt;Node4</title>
<g id="a_edge6_Node000004_Node000004"><a xlink:title=" ">
<path fill="none" stroke="#63b8ff" d="M115.91,-172.6C111.41,-176.97 100.44,-180 83,-180 53.62,-180 42.61,-171.41 49.95,-162.28"/>
<polygon fill="#63b8ff" stroke="#63b8ff" points="119.41,-172.32 116.05,-162.28 112.41,-172.23 119.41,-172.32"/>
</a>
</g>
</g>
<!-- Node5&#45;&gt;Node5 -->
<g id="edge8_Node000005_Node000005" class="edge">
<title>Node5&#45;&gt;Node5</title>
<g id="a_edge8_Node000005_Node000005"><a xlink:title=" ">
<path fill="none" stroke="#63b8ff" d="M115.91,-106.6C111.41,-110.97 100.44,-114 83,-114 53.62,-114 42.61,-105.41 49.95,-96.28"/>
<polygon fill="#63b8ff" stroke="#63b8ff" points="119.41,-106.32 116.05,-96.28 112.41,-106.23 119.41,-106.32"/>
</a>
</g>
</g>
<!-- Node6&#45;&gt;Node6 -->
<g id="edge10_Node000006_Node000006" class="edge">
<title>Node6&#45;&gt;Node6</title>
<g id="a_edge10_Node000006_Node000006"><a xlink:title=" ">
<path fill="none" stroke="#63b8ff" d="M115.91,-40.6C111.41,-44.97 100.44,-48 83,-48 53.62,-48 42.61,-39.41 49.95,-30.28"/>
<polygon fill="#63b8ff" stroke="#63b8ff" points="119.41,-40.32 116.05,-30.28 112.41,-40.23 119.41,-40.32"/>
</a>
</g>
</g>
</g>
</svg>
