<?xml version="1.0" encoding="UTF-8" standalone="no"?>
<!DOCTYPE svg PUBLIC "-//W3C//DTD SVG 1.1//EN"
 "http://www.w3.org/Graphics/SVG/1.1/DTD/svg11.dtd">
<!-- Generated by graphviz version 2.43.0 (0)
 -->
<!-- Title: src.hardware.hal.HardwareInterface.module_present Pages: 1 -->
<svg width="361pt" height="86pt"
 viewBox="0.00 0.00 361.00 86.00" xmlns="http://www.w3.org/2000/svg" xmlns:xlink="http://www.w3.org/1999/xlink">
<g id="graph0" class="graph" transform="scale(1 1) rotate(0) translate(4 82)">
<title>src.hardware.hal.HardwareInterface.module_present</title>
<!-- Node1 -->
<g id="Node000001" class="node">
<title>Node1</title>
<g id="a_Node000001"><a xlink:title=" ">
<polygon fill="#999999" stroke="#666666" points="148,-54 0,-54 0,-24 148,-24 148,-54"/>
<text text-anchor="start" x="8" y="-42" font-family="Helvetica,sans-Serif" font-size="10.00">src.hardware.hal.Hardware</text>
<text text-anchor="middle" x="74" y="-31" font-family="Helvetica,sans-Serif" font-size="10.00">Interface.module_present</text>
</a>
</g>
</g>
<!-- Node2 -->
<g id="Node000002" class="node">
<title>Node2</title>
<g id="a_Node000002"><a xlink:href="classtests_1_1emulation_1_1base_1_1EmulatedModule.html#a18733413858095c4ca06cda7de682d51" target="_top" xlink:title=" ">
<polygon fill="white" stroke="#666666" points="353,-78 184,-78 184,-48 353,-48 353,-78"/>
<text text-anchor="start" x="192" y="-66" font-family="Helvetica,sans-Serif" font-size="10.00">tests.emulation.base.Emulated</text>
<text text-anchor="middle" x="268.5" y="-55" font-family="Helvetica,sans-Serif" font-size="10.00">Module.get_gpio_state</text>
</a>
</g>
</g>
<!-- Node1&#45;&gt;Node2 -->
<g id="edge1_Node000001_Node000002" class="edge">
<title>Node1&#45;&gt;Node2</title>
<g id="a_edge1_Node000001_Node000002"><a xlink:title=" ">
<path fill="none" stroke="#63b8ff" d="M148.05,-48.11C156.46,-49.16 165.12,-50.24 173.75,-51.31"/>
<polygon fill="#63b8ff" stroke="#63b8ff" points="173.5,-54.81 183.86,-52.57 174.37,-47.86 173.5,-54.81"/>
</a>
</g>
</g>
<!-- Node3 -->
<g id="Node000003" class="node">
<title>Node3</title>
<g id="a_Node000003"><a xlink:href="classsrc_1_1hardware_1_1hal_1_1HardwareInterface.html#a8606ee6274a3fb673ea56bde81ee5dcf" target="_top" xlink:title=" ">
<polygon fill="white" stroke="#666666" points="342.5,-30 194.5,-30 194.5,0 342.5,0 342.5,-30"/>
<text text-anchor="start" x="202.5" y="-18" font-family="Helvetica,sans-Serif" font-size="10.00">src.hardware.hal.Hardware</text>
<text text-anchor="middle" x="268.5" y="-7" font-family="Helvetica,sans-Serif" font-size="10.00">Interface.get_gpio_state</text>
</a>
</g>
</g>
<!-- Node1&#45;&gt;Node3 -->
<g id="edge2_Node000001_Node000003" class="edge">
<title>Node1&#45;&gt;Node3</title>
<g id="a_edge2_Node000001_Node000003"><a xlink:title=" ">
<path fill="none" stroke="#63b8ff" d="M148.05,-29.89C159.93,-28.41 172.32,-26.87 184.42,-25.36"/>
<polygon fill="#63b8ff" stroke="#63b8ff" points="185.01,-28.81 194.5,-24.1 184.14,-21.87 185.01,-28.81"/>
</a>
</g>
</g>
</g>
</svg>
