<?xml version="1.0" encoding="UTF-8" standalone="no"?>
<!DOCTYPE svg PUBLIC "-//W3C//DTD SVG 1.1//EN"
 "http://www.w3.org/Graphics/SVG/1.1/DTD/svg11.dtd">
<!-- Generated by graphviz version 2.43.0 (0)
 -->
<!-- Title: src.memory_map.sff_map.RequiredFeatures Pages: 1 -->
<svg width="134pt" height="98pt"
 viewBox="0.00 0.00 134.00 98.00" xmlns="http://www.w3.org/2000/svg" xmlns:xlink="http://www.w3.org/1999/xlink">
<g id="graph0" class="graph" transform="scale(1 1) rotate(0) translate(4 94)">
<title>src.memory_map.sff_map.RequiredFeatures</title>
<!-- Node1 -->
<g id="Node000001" class="node">
<title>Node1</title>
<g id="a_Node000001"><a xlink:title=" ">
<polygon fill="#999999" stroke="transparent" points="126,-90 0,-90 0,0 126,0 126,-90"/>
<text text-anchor="start" x="5" y="-78" font-family="Helvetica,sans-Serif" font-size="10.00">src.memory_map.sff</text>
<text text-anchor="start" x="5" y="-67" font-family="Helvetica,sans-Serif" font-size="10.00">_map.RequiredFeatures</text>
<text text-anchor="start" x="6.5" y="-52" font-family="Helvetica,sans-Serif" font-size="10.00">+</text>
<text text-anchor="start" x="22" y="-52" font-family="Helvetica,sans-Serif" font-size="10.00">IDENTIFIER_CHECK</text>
<text text-anchor="start" x="6.5" y="-37" font-family="Helvetica,sans-Serif" font-size="10.00">+</text>
<text text-anchor="start" x="22" y="-37" font-family="Helvetica,sans-Serif" font-size="10.00">BASIC_STATUS</text>
<text text-anchor="start" x="6.5" y="-22" font-family="Helvetica,sans-Serif" font-size="10.00">+</text>
<text text-anchor="start" x="22" y="-22" font-family="Helvetica,sans-Serif" font-size="10.00">VENDOR_INFO</text>
<text text-anchor="start" x="61" y="-7" font-family="Helvetica,sans-Serif" font-size="10.00"> </text>
<polygon fill="#666666" stroke="#666666" points="0,-62 0,-62 126,-62 126,-62 0,-62"/>
<polygon fill="#666666" stroke="#666666" points="0,-17 0,-17 20,-17 20,-17 0,-17"/>
<polygon fill="#666666" stroke="#666666" points="20,-17 20,-17 126,-17 126,-17 20,-17"/>
<polygon fill="none" stroke="#666666" points="0,0 0,-90 126,-90 126,0 0,0"/>
</a>
</g>
</g>
</g>
</svg>
