<?xml version="1.0" encoding="UTF-8" standalone="no"?>
<!DOCTYPE svg PUBLIC "-//W3C//DTD SVG 1.1//EN"
 "http://www.w3.org/Graphics/SVG/1.1/DTD/svg11.dtd">
<!-- Generated by graphviz version 2.43.0 (0)
 -->
<!-- Title: tests.emulation.base.EmulationError Pages: 1 -->
<svg width="174pt" height="153pt"
 viewBox="0.00 0.00 174.00 153.00" xmlns="http://www.w3.org/2000/svg" xmlns:xlink="http://www.w3.org/1999/xlink">
<g id="graph0" class="graph" transform="scale(1 1) rotate(0) translate(4 149)">
<title>tests.emulation.base.EmulationError</title>
<!-- Node1 -->
<g id="Node000001" class="node">
<title>Node1</title>
<g id="a_Node000001"><a xlink:title="Base class for emulation&#45;related errors.">
<polygon fill="#999999" stroke="transparent" points="166,-60 0,-60 0,0 166,0 166,-60"/>
<text text-anchor="start" x="5" y="-48" font-family="Helvetica,sans-Serif" font-size="10.00">tests.emulation.base.Emulation</text>
<text text-anchor="start" x="71" y="-37" font-family="Helvetica,sans-Serif" font-size="10.00">Error</text>
<text text-anchor="start" x="81" y="-22" font-family="Helvetica,sans-Serif" font-size="10.00"> </text>
<text text-anchor="start" x="81" y="-7" font-family="Helvetica,sans-Serif" font-size="10.00"> </text>
<polygon fill="#666666" stroke="#666666" points="0,-32 0,-32 166,-32 166,-32 0,-32"/>
<polygon fill="#666666" stroke="#666666" points="0,-17 0,-17 166,-17 166,-17 0,-17"/>
<polygon fill="none" stroke="#666666" points="0,0 0,-60 166,-60 166,0 0,0"/>
</a>
</g>
</g>
<!-- Node2 -->
<g id="Node000002" class="node">
<title>Node2</title>
<g id="a_Node000002"><a xlink:title=" ">
<polygon fill="white" stroke="transparent" points="112.5,-145 53.5,-145 53.5,-96 112.5,-96 112.5,-145"/>
<text text-anchor="start" x="59" y="-132.5" font-family="Helvetica,sans-Serif" font-size="10.00">Exception</text>
<text text-anchor="start" x="81.5" y="-117.5" font-family="Helvetica,sans-Serif" font-size="10.00"> </text>
<text text-anchor="start" x="81.5" y="-102.5" font-family="Helvetica,sans-Serif" font-size="10.00"> </text>
<polygon fill="#666666" stroke="#666666" points="54,-127.5 54,-127.5 113,-127.5 113,-127.5 54,-127.5"/>
<polygon fill="#666666" stroke="#666666" points="54,-112.5 54,-112.5 113,-112.5 113,-112.5 54,-112.5"/>
<polygon fill="none" stroke="#666666" points="53.5,-96 53.5,-145 112.5,-145 112.5,-96 53.5,-96"/>
</a>
</g>
</g>
<!-- Node2&#45;&gt;Node1 -->
<g id="edge1_Node000001_Node000002" class="edge">
<title>Node2&#45;&gt;Node1</title>
<g id="a_edge1_Node000001_Node000002"><a xlink:title=" ">
<path fill="none" stroke="#63b8ff" d="M83,-85.55C83,-77.18 83,-68.28 83,-60.16"/>
<polygon fill="none" stroke="#63b8ff" points="79.5,-85.78 83,-95.78 86.5,-85.78 79.5,-85.78"/>
</a>
</g>
</g>
</g>
</svg>
