<?xml version="1.0" encoding="UTF-8" standalone="no"?>
<!DOCTYPE svg PUBLIC "-//W3C//DTD SVG 1.1//EN"
 "http://www.w3.org/Graphics/SVG/1.1/DTD/svg11.dtd">
<!-- Generated by graphviz version 2.43.0 (0)
 -->
<!-- Title: sff_8024_mem.SFP_MemoryMap Pages: 1 -->
<svg width="178pt" height="87pt"
 viewBox="0.00 0.00 178.00 87.00" xmlns="http://www.w3.org/2000/svg" xmlns:xlink="http://www.w3.org/1999/xlink">
<g id="graph0" class="graph" transform="scale(1 1) rotate(0) translate(4 83)">
<title>sff_8024_mem.SFP_MemoryMap</title>
<!-- Node1 -->
<g id="Node000001" class="node">
<title>Node1</title>
<g id="a_Node000001"><a xlink:title=" ">
<polygon fill="#999999" stroke="transparent" points="170,-79 0,-79 0,0 170,0 170,-79"/>
<text text-anchor="start" x="5" y="-66.5" font-family="Helvetica,sans-Serif" font-size="10.00">sff_8024_mem.SFP_MemoryMap</text>
<text text-anchor="start" x="23.5" y="-51.5" font-family="Helvetica,sans-Serif" font-size="10.00">+</text>
<text text-anchor="start" x="56" y="-51.5" font-family="Helvetica,sans-Serif" font-size="10.00">base_id_fields</text>
<text text-anchor="start" x="23.5" y="-36.5" font-family="Helvetica,sans-Serif" font-size="10.00">+</text>
<text text-anchor="start" x="56" y="-36.5" font-family="Helvetica,sans-Serif" font-size="10.00">dom_fields</text>
<text text-anchor="start" x="23.5" y="-21.5" font-family="Helvetica,sans-Serif" font-size="10.00">+</text>
<text text-anchor="start" x="56" y="-21.5" font-family="Helvetica,sans-Serif" font-size="10.00">__init__()</text>
<text text-anchor="start" x="23.5" y="-6.5" font-family="Helvetica,sans-Serif" font-size="10.00">+</text>
<text text-anchor="start" x="56" y="-6.5" font-family="Helvetica,sans-Serif" font-size="10.00">to_dict()</text>
<polygon fill="#666666" stroke="#666666" points="0,-61.5 0,-61.5 170,-61.5 170,-61.5 0,-61.5"/>
<polygon fill="#666666" stroke="#666666" points="0,-31.5 0,-31.5 54,-31.5 54,-31.5 0,-31.5"/>
<polygon fill="#666666" stroke="#666666" points="54,-31.5 54,-31.5 170,-31.5 170,-31.5 54,-31.5"/>
<polygon fill="none" stroke="#666666" points="0,0 0,-79 170,-79 170,0 0,0"/>
</a>
</g>
</g>
</g>
</svg>
