<?xml version="1.0" encoding="UTF-8" standalone="no"?>
<!DOCTYPE svg PUBLIC "-//W3C//DTD SVG 1.1//EN"
 "http://www.w3.org/Graphics/SVG/1.1/DTD/svg11.dtd">
<!-- Generated by graphviz version 2.43.0 (0)
 -->
<!-- Title: tests.emulation.base.EmulatedModule Pages: 1 -->
<svg width="384pt" height="1084pt"
 viewBox="0.00 0.00 384.00 1084.00" xmlns="http://www.w3.org/2000/svg" xmlns:xlink="http://www.w3.org/1999/xlink">
<g id="graph0" class="graph" transform="scale(1 1) rotate(0) translate(4 1080)">
<title>tests.emulation.base.EmulatedModule</title>
<!-- Node1 -->
<g id="Node000001" class="node">
<title>Node1</title>
<g id="a_Node000001"><a xlink:title="Base class for emulated modules.">
<polygon fill="#999999" stroke="transparent" points="273.5,-991 110.5,-991 110.5,-515 273.5,-515 273.5,-991"/>
<text text-anchor="start" x="116" y="-979" font-family="Helvetica,sans-Serif" font-size="10.00">tests.emulation.base.Emulated</text>
<text text-anchor="start" x="174" y="-968" font-family="Helvetica,sans-Serif" font-size="10.00">Module</text>
<text text-anchor="start" x="121.5" y="-953" font-family="Helvetica,sans-Serif" font-size="10.00">+</text>
<text text-anchor="start" x="141" y="-953" font-family="Helvetica,sans-Serif" font-size="10.00">config</text>
<text text-anchor="start" x="121.5" y="-938" font-family="Helvetica,sans-Serif" font-size="10.00">+</text>
<text text-anchor="start" x="141" y="-938" font-family="Helvetica,sans-Serif" font-size="10.00">memory_map</text>
<text text-anchor="start" x="121.5" y="-923" font-family="Helvetica,sans-Serif" font-size="10.00">#</text>
<text text-anchor="start" x="141" y="-923" font-family="Helvetica,sans-Serif" font-size="10.00">_gpio_states</text>
<text text-anchor="start" x="121.5" y="-908" font-family="Helvetica,sans-Serif" font-size="10.00">#</text>
<text text-anchor="start" x="141" y="-908" font-family="Helvetica,sans-Serif" font-size="10.00">_temperature</text>
<text text-anchor="start" x="121.5" y="-893" font-family="Helvetica,sans-Serif" font-size="10.00">#</text>
<text text-anchor="start" x="141" y="-893" font-family="Helvetica,sans-Serif" font-size="10.00">_voltage</text>
<text text-anchor="start" x="121.5" y="-878" font-family="Helvetica,sans-Serif" font-size="10.00">#</text>
<text text-anchor="start" x="141" y="-878" font-family="Helvetica,sans-Serif" font-size="10.00">_tx_disable</text>
<text text-anchor="start" x="121.5" y="-863" font-family="Helvetica,sans-Serif" font-size="10.00">#</text>
<text text-anchor="start" x="141" y="-863" font-family="Helvetica,sans-Serif" font-size="10.00">_tx_fault</text>
<text text-anchor="start" x="121.5" y="-848" font-family="Helvetica,sans-Serif" font-size="10.00">#</text>
<text text-anchor="start" x="141" y="-848" font-family="Helvetica,sans-Serif" font-size="10.00">_rx_los</text>
<text text-anchor="start" x="121.5" y="-833" font-family="Helvetica,sans-Serif" font-size="10.00">#</text>
<text text-anchor="start" x="141" y="-833" font-family="Helvetica,sans-Serif" font-size="10.00">_tx_bias_ma</text>
<text text-anchor="start" x="121.5" y="-818" font-family="Helvetica,sans-Serif" font-size="10.00">#</text>
<text text-anchor="start" x="141" y="-818" font-family="Helvetica,sans-Serif" font-size="10.00">_tx_power_mw</text>
<text text-anchor="start" x="121.5" y="-803" font-family="Helvetica,sans-Serif" font-size="10.00">#</text>
<text text-anchor="start" x="141" y="-803" font-family="Helvetica,sans-Serif" font-size="10.00">_rx_power_mw</text>
<text text-anchor="start" x="121.5" y="-788" font-family="Helvetica,sans-Serif" font-size="10.00">+</text>
<text text-anchor="start" x="141" y="-788" font-family="Helvetica,sans-Serif" font-size="10.00">__init__()</text>
<text text-anchor="start" x="121.5" y="-773" font-family="Helvetica,sans-Serif" font-size="10.00">+</text>
<text text-anchor="start" x="141" y="-773" font-family="Helvetica,sans-Serif" font-size="10.00">is_present()</text>
<text text-anchor="start" x="121.5" y="-758" font-family="Helvetica,sans-Serif" font-size="10.00">+</text>
<text text-anchor="start" x="141" y="-758" font-family="Helvetica,sans-Serif" font-size="10.00">get_identifier()</text>
<text text-anchor="start" x="121.5" y="-743" font-family="Helvetica,sans-Serif" font-size="10.00">+</text>
<text text-anchor="start" x="141" y="-743" font-family="Helvetica,sans-Serif" font-size="10.00">get_vendor_name()</text>
<text text-anchor="start" x="121.5" y="-728" font-family="Helvetica,sans-Serif" font-size="10.00">+</text>
<text text-anchor="start" x="141" y="-728" font-family="Helvetica,sans-Serif" font-size="10.00">get_part_number()</text>
<text text-anchor="start" x="121.5" y="-713" font-family="Helvetica,sans-Serif" font-size="10.00">+</text>
<text text-anchor="start" x="141" y="-713" font-family="Helvetica,sans-Serif" font-size="10.00">get_serial_number()</text>
<text text-anchor="start" x="121.5" y="-698" font-family="Helvetica,sans-Serif" font-size="10.00">+</text>
<text text-anchor="start" x="141" y="-698" font-family="Helvetica,sans-Serif" font-size="10.00">get_revision()</text>
<text text-anchor="start" x="121.5" y="-683" font-family="Helvetica,sans-Serif" font-size="10.00">+</text>
<text text-anchor="start" x="141" y="-683" font-family="Helvetica,sans-Serif" font-size="10.00">get_temperature()</text>
<text text-anchor="start" x="121.5" y="-668" font-family="Helvetica,sans-Serif" font-size="10.00">+</text>
<text text-anchor="start" x="141" y="-668" font-family="Helvetica,sans-Serif" font-size="10.00">get_voltage()</text>
<text text-anchor="start" x="121.5" y="-653" font-family="Helvetica,sans-Serif" font-size="10.00">+</text>
<text text-anchor="start" x="141" y="-653" font-family="Helvetica,sans-Serif" font-size="10.00">set_temperature()</text>
<text text-anchor="start" x="141" y="-638" font-family="Helvetica,sans-Serif" font-size="10.00">and 7 more...</text>
<text text-anchor="start" x="121.5" y="-623" font-family="Helvetica,sans-Serif" font-size="10.00">#</text>
<text text-anchor="start" x="141" y="-623" font-family="Helvetica,sans-Serif" font-size="10.00">_initialize_memory</text>
<text text-anchor="start" x="141" y="-612" font-family="Helvetica,sans-Serif" font-size="10.00">_map()</text>
<text text-anchor="start" x="121.5" y="-597" font-family="Helvetica,sans-Serif" font-size="10.00">#</text>
<text text-anchor="start" x="141" y="-597" font-family="Helvetica,sans-Serif" font-size="10.00">_handle_reset()</text>
<text text-anchor="start" x="121.5" y="-582" font-family="Helvetica,sans-Serif" font-size="10.00">#</text>
<text text-anchor="start" x="141" y="-582" font-family="Helvetica,sans-Serif" font-size="10.00">_encode_temperature()</text>
<text text-anchor="start" x="121.5" y="-567" font-family="Helvetica,sans-Serif" font-size="10.00">#</text>
<text text-anchor="start" x="141" y="-567" font-family="Helvetica,sans-Serif" font-size="10.00">_encode_voltage()</text>
<text text-anchor="start" x="121.5" y="-552" font-family="Helvetica,sans-Serif" font-size="10.00">#</text>
<text text-anchor="start" x="141" y="-552" font-family="Helvetica,sans-Serif" font-size="10.00">_encode_power()</text>
<text text-anchor="start" x="121.5" y="-537" font-family="Helvetica,sans-Serif" font-size="10.00">#</text>
<text text-anchor="start" x="141" y="-537" font-family="Helvetica,sans-Serif" font-size="10.00">_encode_bias()</text>
<text text-anchor="start" x="121.5" y="-522" font-family="Helvetica,sans-Serif" font-size="10.00">#</text>
<text text-anchor="start" x="141" y="-522" font-family="Helvetica,sans-Serif" font-size="10.00">_write_string()</text>
<polygon fill="#666666" stroke="#666666" points="111,-963 111,-963 274,-963 274,-963 111,-963"/>
<polygon fill="#666666" stroke="#666666" points="111,-798 111,-798 139,-798 139,-798 111,-798"/>
<polygon fill="#666666" stroke="#666666" points="139,-798 139,-798 274,-798 274,-798 139,-798"/>
<polygon fill="none" stroke="#666666" points="110.5,-515 110.5,-991 273.5,-991 273.5,-515 110.5,-515"/>
</a>
</g>
</g>
<!-- Node3 -->
<g id="Node000003" class="node">
<title>Node3</title>
<g id="a_Node000003"><a xlink:href="classtests_1_1emulation_1_1cmis_1_1CMISEmulatedModule.html" target="_top" xlink:title=" ">
<polygon fill="white" stroke="transparent" points="188,-479 0,-479 0,0 188,0 188,-479"/>
<text text-anchor="start" x="5" y="-466.5" font-family="Helvetica,sans-Serif" font-size="10.00">tests.emulation.cmis.CMISEmulated</text>
<text text-anchor="start" x="75.5" y="-455.5" font-family="Helvetica,sans-Serif" font-size="10.00">Module</text>
<text text-anchor="start" x="11" y="-440.5" font-family="Helvetica,sans-Serif" font-size="10.00">#</text>
<text text-anchor="start" x="31" y="-440.5" font-family="Helvetica,sans-Serif" font-size="10.00">_tx_disable_mask</text>
<text text-anchor="start" x="11" y="-425.5" font-family="Helvetica,sans-Serif" font-size="10.00">#</text>
<text text-anchor="start" x="31" y="-425.5" font-family="Helvetica,sans-Serif" font-size="10.00">_tx_fault_mask</text>
<text text-anchor="start" x="11" y="-410.5" font-family="Helvetica,sans-Serif" font-size="10.00">#</text>
<text text-anchor="start" x="31" y="-410.5" font-family="Helvetica,sans-Serif" font-size="10.00">_rx_los_mask</text>
<text text-anchor="start" x="11" y="-395.5" font-family="Helvetica,sans-Serif" font-size="10.00">#</text>
<text text-anchor="start" x="31" y="-395.5" font-family="Helvetica,sans-Serif" font-size="10.00">_active_application</text>
<text text-anchor="start" x="11" y="-380.5" font-family="Helvetica,sans-Serif" font-size="10.00">#</text>
<text text-anchor="start" x="31" y="-380.5" font-family="Helvetica,sans-Serif" font-size="10.00">_power_class</text>
<text text-anchor="start" x="11" y="-365.5" font-family="Helvetica,sans-Serif" font-size="10.00">#</text>
<text text-anchor="start" x="31" y="-365.5" font-family="Helvetica,sans-Serif" font-size="10.00">_temperature</text>
<text text-anchor="start" x="11" y="-350.5" font-family="Helvetica,sans-Serif" font-size="10.00">#</text>
<text text-anchor="start" x="31" y="-350.5" font-family="Helvetica,sans-Serif" font-size="10.00">_voltage</text>
<text text-anchor="start" x="11" y="-335.5" font-family="Helvetica,sans-Serif" font-size="10.00">#</text>
<text text-anchor="start" x="31" y="-335.5" font-family="Helvetica,sans-Serif" font-size="10.00">_tx_bias_ma</text>
<text text-anchor="start" x="11" y="-320.5" font-family="Helvetica,sans-Serif" font-size="10.00">#</text>
<text text-anchor="start" x="31" y="-320.5" font-family="Helvetica,sans-Serif" font-size="10.00">_tx_power_mw</text>
<text text-anchor="start" x="11" y="-305.5" font-family="Helvetica,sans-Serif" font-size="10.00">#</text>
<text text-anchor="start" x="31" y="-305.5" font-family="Helvetica,sans-Serif" font-size="10.00">_rx_power_mw</text>
<text text-anchor="start" x="11" y="-290.5" font-family="Helvetica,sans-Serif" font-size="10.00">#</text>
<text text-anchor="start" x="31" y="-290.5" font-family="Helvetica,sans-Serif" font-size="10.00">_SFF8024_ATTR_TX_POWER</text>
<text text-anchor="start" x="31" y="-279.5" font-family="Helvetica,sans-Serif" font-size="10.00">_OFFSET</text>
<text text-anchor="start" x="11" y="-264.5" font-family="Helvetica,sans-Serif" font-size="10.00">#</text>
<text text-anchor="start" x="31" y="-264.5" font-family="Helvetica,sans-Serif" font-size="10.00">_SFF8024_ATTR_RX_POWER</text>
<text text-anchor="start" x="31" y="-253.5" font-family="Helvetica,sans-Serif" font-size="10.00">_OFFSET</text>
<text text-anchor="start" x="11" y="-238.5" font-family="Helvetica,sans-Serif" font-size="10.00">#</text>
<text text-anchor="start" x="31" y="-238.5" font-family="Helvetica,sans-Serif" font-size="10.00">_SFF8024_ATTR_TX_BIAS</text>
<text text-anchor="start" x="31" y="-227.5" font-family="Helvetica,sans-Serif" font-size="10.00">_OFFSET</text>
<text text-anchor="start" x="11" y="-212.5" font-family="Helvetica,sans-Serif" font-size="10.00">#</text>
<text text-anchor="start" x="31" y="-212.5" font-family="Helvetica,sans-Serif" font-size="10.00">_tx_bias_ma</text>
<text text-anchor="start" x="11" y="-197.5" font-family="Helvetica,sans-Serif" font-size="10.00">#</text>
<text text-anchor="start" x="31" y="-197.5" font-family="Helvetica,sans-Serif" font-size="10.00">_tx_power_mw</text>
<text text-anchor="start" x="11" y="-182.5" font-family="Helvetica,sans-Serif" font-size="10.00">#</text>
<text text-anchor="start" x="31" y="-182.5" font-family="Helvetica,sans-Serif" font-size="10.00">_rx_power_mw</text>
<text text-anchor="start" x="11" y="-167.5" font-family="Helvetica,sans-Serif" font-size="10.00">+</text>
<text text-anchor="start" x="31" y="-167.5" font-family="Helvetica,sans-Serif" font-size="10.00">__init__()</text>
<text text-anchor="start" x="11" y="-152.5" font-family="Helvetica,sans-Serif" font-size="10.00">+</text>
<text text-anchor="start" x="31" y="-152.5" font-family="Helvetica,sans-Serif" font-size="10.00">initialize_channels()</text>
<text text-anchor="start" x="11" y="-137.5" font-family="Helvetica,sans-Serif" font-size="10.00">+</text>
<text text-anchor="start" x="31" y="-137.5" font-family="Helvetica,sans-Serif" font-size="10.00">update_monitoring()</text>
<text text-anchor="start" x="11" y="-122.5" font-family="Helvetica,sans-Serif" font-size="10.00">+</text>
<text text-anchor="start" x="31" y="-122.5" font-family="Helvetica,sans-Serif" font-size="10.00">set_tx_disable()</text>
<text text-anchor="start" x="11" y="-107.5" font-family="Helvetica,sans-Serif" font-size="10.00">+</text>
<text text-anchor="start" x="31" y="-107.5" font-family="Helvetica,sans-Serif" font-size="10.00">set_application()</text>
<text text-anchor="start" x="11" y="-92.5" font-family="Helvetica,sans-Serif" font-size="10.00">+</text>
<text text-anchor="start" x="31" y="-92.5" font-family="Helvetica,sans-Serif" font-size="10.00">simulate_fault()</text>
<text text-anchor="start" x="11" y="-77.5" font-family="Helvetica,sans-Serif" font-size="10.00">+</text>
<text text-anchor="start" x="31" y="-77.5" font-family="Helvetica,sans-Serif" font-size="10.00">set_temperature()</text>
<text text-anchor="start" x="11" y="-62.5" font-family="Helvetica,sans-Serif" font-size="10.00">+</text>
<text text-anchor="start" x="31" y="-62.5" font-family="Helvetica,sans-Serif" font-size="10.00">set_voltage()</text>
<text text-anchor="start" x="11" y="-47.5" font-family="Helvetica,sans-Serif" font-size="10.00">+</text>
<text text-anchor="start" x="31" y="-47.5" font-family="Helvetica,sans-Serif" font-size="10.00">get_active_application()</text>
<text text-anchor="start" x="11" y="-32.5" font-family="Helvetica,sans-Serif" font-size="10.00">#</text>
<text text-anchor="start" x="31" y="-32.5" font-family="Helvetica,sans-Serif" font-size="10.00">_initialize_memory</text>
<text text-anchor="start" x="31" y="-21.5" font-family="Helvetica,sans-Serif" font-size="10.00">_map()</text>
<text text-anchor="start" x="11" y="-6.5" font-family="Helvetica,sans-Serif" font-size="10.00">#</text>
<text text-anchor="start" x="31" y="-6.5" font-family="Helvetica,sans-Serif" font-size="10.00">_encode_application()</text>
<polygon fill="#666666" stroke="#666666" points="0,-450.5 0,-450.5 188,-450.5 188,-450.5 0,-450.5"/>
<polygon fill="#666666" stroke="#666666" points="0,-177.5 0,-177.5 29,-177.5 29,-177.5 0,-177.5"/>
<polygon fill="#666666" stroke="#666666" points="29,-177.5 29,-177.5 188,-177.5 188,-177.5 29,-177.5"/>
<polygon fill="none" stroke="#666666" points="0,0 0,-479 188,-479 188,0 0,0"/>
</a>
</g>
</g>
<!-- Node1&#45;&gt;Node3 -->
<g id="edge2_Node000001_Node000003" class="edge">
<title>Node1&#45;&gt;Node3</title>
<g id="a_edge2_Node000001_Node000003"><a xlink:title=" ">
<path fill="none" stroke="#63b8ff" d="M144.66,-504.92C143.02,-496.36 141.38,-487.79 139.74,-479.24"/>
<polygon fill="none" stroke="#63b8ff" points="141.27,-505.8 146.59,-514.97 148.14,-504.49 141.27,-505.8"/>
</a>
</g>
</g>
<!-- Node4 -->
<g id="Node000004" class="node">
<title>Node4</title>
<g id="a_Node000004"><a xlink:href="classtests_1_1emulation_1_1sff_1_1SFFEmulatedModule.html" target="_top" xlink:title="Emulates an SFF&#45;compliant module.">
<polygon fill="white" stroke="transparent" points="376,-365 206,-365 206,-114 376,-114 376,-365"/>
<text text-anchor="start" x="211" y="-352.5" font-family="Helvetica,sans-Serif" font-size="10.00">tests.emulation.sff.SFFEmulated</text>
<text text-anchor="start" x="272.5" y="-341.5" font-family="Helvetica,sans-Serif" font-size="10.00">Module</text>
<text text-anchor="start" x="222" y="-326.5" font-family="Helvetica,sans-Serif" font-size="10.00">#</text>
<text text-anchor="start" x="247" y="-326.5" font-family="Helvetica,sans-Serif" font-size="10.00">_tx_disable</text>
<text text-anchor="start" x="222" y="-311.5" font-family="Helvetica,sans-Serif" font-size="10.00">#</text>
<text text-anchor="start" x="247" y="-311.5" font-family="Helvetica,sans-Serif" font-size="10.00">_tx_power_mw</text>
<text text-anchor="start" x="222" y="-296.5" font-family="Helvetica,sans-Serif" font-size="10.00">#</text>
<text text-anchor="start" x="247" y="-296.5" font-family="Helvetica,sans-Serif" font-size="10.00">_tx_fault</text>
<text text-anchor="start" x="222" y="-281.5" font-family="Helvetica,sans-Serif" font-size="10.00">#</text>
<text text-anchor="start" x="247" y="-281.5" font-family="Helvetica,sans-Serif" font-size="10.00">_rx_los</text>
<text text-anchor="start" x="222" y="-266.5" font-family="Helvetica,sans-Serif" font-size="10.00">#</text>
<text text-anchor="start" x="247" y="-266.5" font-family="Helvetica,sans-Serif" font-size="10.00">_rx_power_mw</text>
<text text-anchor="start" x="222" y="-251.5" font-family="Helvetica,sans-Serif" font-size="10.00">#</text>
<text text-anchor="start" x="247" y="-251.5" font-family="Helvetica,sans-Serif" font-size="10.00">_temperature</text>
<text text-anchor="start" x="222" y="-236.5" font-family="Helvetica,sans-Serif" font-size="10.00">#</text>
<text text-anchor="start" x="247" y="-236.5" font-family="Helvetica,sans-Serif" font-size="10.00">_voltage</text>
<text text-anchor="start" x="222" y="-221.5" font-family="Helvetica,sans-Serif" font-size="10.00">+</text>
<text text-anchor="start" x="247" y="-221.5" font-family="Helvetica,sans-Serif" font-size="10.00">__init__()</text>
<text text-anchor="start" x="222" y="-206.5" font-family="Helvetica,sans-Serif" font-size="10.00">+</text>
<text text-anchor="start" x="247" y="-206.5" font-family="Helvetica,sans-Serif" font-size="10.00">update_monitoring()</text>
<text text-anchor="start" x="222" y="-191.5" font-family="Helvetica,sans-Serif" font-size="10.00">+</text>
<text text-anchor="start" x="247" y="-191.5" font-family="Helvetica,sans-Serif" font-size="10.00">set_tx_disable()</text>
<text text-anchor="start" x="222" y="-176.5" font-family="Helvetica,sans-Serif" font-size="10.00">+</text>
<text text-anchor="start" x="247" y="-176.5" font-family="Helvetica,sans-Serif" font-size="10.00">simulate_fault()</text>
<text text-anchor="start" x="222" y="-161.5" font-family="Helvetica,sans-Serif" font-size="10.00">+</text>
<text text-anchor="start" x="247" y="-161.5" font-family="Helvetica,sans-Serif" font-size="10.00">set_temperature()</text>
<text text-anchor="start" x="222" y="-146.5" font-family="Helvetica,sans-Serif" font-size="10.00">+</text>
<text text-anchor="start" x="247" y="-146.5" font-family="Helvetica,sans-Serif" font-size="10.00">set_voltage()</text>
<text text-anchor="start" x="222" y="-131.5" font-family="Helvetica,sans-Serif" font-size="10.00">#</text>
<text text-anchor="start" x="247" y="-131.5" font-family="Helvetica,sans-Serif" font-size="10.00">_initialize_memory</text>
<text text-anchor="start" x="247" y="-120.5" font-family="Helvetica,sans-Serif" font-size="10.00">_map()</text>
<polygon fill="#666666" stroke="#666666" points="206,-336.5 206,-336.5 376,-336.5 376,-336.5 206,-336.5"/>
<polygon fill="#666666" stroke="#666666" points="206,-231.5 206,-231.5 245,-231.5 245,-231.5 206,-231.5"/>
<polygon fill="#666666" stroke="#666666" points="245,-231.5 245,-231.5 376,-231.5 376,-231.5 245,-231.5"/>
<polygon fill="none" stroke="#666666" points="206,-114 206,-365 376,-365 376,-114 206,-114"/>
</a>
</g>
</g>
<!-- Node1&#45;&gt;Node4 -->
<g id="edge3_Node000001_Node000004" class="edge">
<title>Node1&#45;&gt;Node4</title>
<g id="a_edge3_Node000001_Node000004"><a xlink:title=" ">
<path fill="none" stroke="#63b8ff" d="M239.82,-504.95C249.2,-456.45 258.67,-407.54 266.87,-365.19"/>
<polygon fill="none" stroke="#63b8ff" points="236.34,-504.48 237.88,-514.97 243.21,-505.81 236.34,-504.48"/>
</a>
</g>
</g>
<!-- Node2 -->
<g id="Node000002" class="node">
<title>Node2</title>
<g id="a_Node000002"><a xlink:title=" ">
<polygon fill="white" stroke="transparent" points="207.5,-1076 176.5,-1076 176.5,-1027 207.5,-1027 207.5,-1076"/>
<text text-anchor="start" x="182" y="-1063.5" font-family="Helvetica,sans-Serif" font-size="10.00">ABC</text>
<text text-anchor="start" x="190.5" y="-1048.5" font-family="Helvetica,sans-Serif" font-size="10.00"> </text>
<text text-anchor="start" x="190.5" y="-1033.5" font-family="Helvetica,sans-Serif" font-size="10.00"> </text>
<polygon fill="#666666" stroke="#666666" points="177,-1058.5 177,-1058.5 208,-1058.5 208,-1058.5 177,-1058.5"/>
<polygon fill="#666666" stroke="#666666" points="177,-1043.5 177,-1043.5 208,-1043.5 208,-1043.5 177,-1043.5"/>
<polygon fill="none" stroke="#666666" points="176.5,-1027 176.5,-1076 207.5,-1076 207.5,-1027 176.5,-1027"/>
</a>
</g>
</g>
<!-- Node2&#45;&gt;Node1 -->
<g id="edge1_Node000001_Node000002" class="edge">
<title>Node2&#45;&gt;Node1</title>
<g id="a_edge1_Node000001_Node000002"><a xlink:title=" ">
<path fill="none" stroke="#63b8ff" d="M192,-1016.89C192,-1009.23 192,-1000.52 192,-991.05"/>
<polygon fill="none" stroke="#63b8ff" points="188.5,-1016.99 192,-1026.99 195.5,-1016.99 188.5,-1016.99"/>
</a>
</g>
</g>
</g>
</svg>
