<?xml version="1.0" encoding="UTF-8" standalone="no"?>
<!DOCTYPE svg PUBLIC "-//W3C//DTD SVG 1.1//EN"
 "http://www.w3.org/Graphics/SVG/1.1/DTD/svg11.dtd">
<!-- Generated by graphviz version 2.43.0 (0)
 -->
<!-- Title: src.detection.detector.ModuleDetector._read_string Pages: 1 -->
<svg width="594pt" height="134pt"
 viewBox="0.00 0.00 594.00 134.00" xmlns="http://www.w3.org/2000/svg" xmlns:xlink="http://www.w3.org/1999/xlink">
<g id="graph0" class="graph" transform="scale(1 1) rotate(0) translate(4 130)">
<title>src.detection.detector.ModuleDetector._read_string</title>
<!-- Node1 -->
<g id="Node000001" class="node">
<title>Node1</title>
<g id="a_Node000001"><a xlink:title=" ">
<polygon fill="#999999" stroke="#666666" points="586,-78 425,-78 425,-48 586,-48 586,-78"/>
<text text-anchor="start" x="433" y="-66" font-family="Helvetica,sans-Serif" font-size="10.00">src.detection.detector.Module</text>
<text text-anchor="middle" x="505.5" y="-55" font-family="Helvetica,sans-Serif" font-size="10.00">Detector._read_string</text>
</a>
</g>
</g>
<!-- Node2 -->
<g id="Node000002" class="node">
<title>Node2</title>
<g id="a_Node000002"><a xlink:href="classsrc_1_1modules_1_1cmis_1_1CMISModule.html#a3ae7ef885da8e96e9631a7d38206238b" target="_top" xlink:title=" ">
<polygon fill="white" stroke="#666666" points="389,-126 204,-126 204,-96 389,-96 389,-126"/>
<text text-anchor="start" x="212" y="-114" font-family="Helvetica,sans-Serif" font-size="10.00">src.modules.cmis.CMISModule.get</text>
<text text-anchor="middle" x="296.5" y="-103" font-family="Helvetica,sans-Serif" font-size="10.00">_identification</text>
</a>
</g>
</g>
<!-- Node1&#45;&gt;Node2 -->
<g id="edge1_Node000001_Node000002" class="edge">
<title>Node1&#45;&gt;Node2</title>
<g id="a_edge1_Node000001_Node000002"><a xlink:title=" ">
<path fill="none" stroke="#63b8ff" d="M429.58,-80.37C407.51,-85.49 383.57,-91.04 362.2,-96"/>
<polygon fill="#63b8ff" stroke="#63b8ff" points="430.62,-83.72 439.57,-78.06 429.04,-76.91 430.62,-83.72"/>
</a>
</g>
</g>
<!-- Node4 -->
<g id="Node000004" class="node">
<title>Node4</title>
<g id="a_Node000004"><a xlink:href="classsrc_1_1modules_1_1sff_1_1SFFModule.html#ab9a9265195496bd65698b245bbeeff2d" target="_top" xlink:title=" ">
<polygon fill="white" stroke="#666666" points="380,-78 213,-78 213,-48 380,-48 380,-78"/>
<text text-anchor="start" x="221" y="-66" font-family="Helvetica,sans-Serif" font-size="10.00">src.modules.sff.SFFModule.get</text>
<text text-anchor="middle" x="296.5" y="-55" font-family="Helvetica,sans-Serif" font-size="10.00">_identification</text>
</a>
</g>
</g>
<!-- Node1&#45;&gt;Node4 -->
<g id="edge3_Node000001_Node000004" class="edge">
<title>Node1&#45;&gt;Node4</title>
<g id="a_edge3_Node000001_Node000004"><a xlink:title=" ">
<path fill="none" stroke="#63b8ff" d="M414.42,-63C403.07,-63 391.51,-63 380.28,-63"/>
<polygon fill="#63b8ff" stroke="#63b8ff" points="414.76,-66.5 424.76,-63 414.76,-59.5 414.76,-66.5"/>
</a>
</g>
</g>
<!-- Node5 -->
<g id="Node000005" class="node">
<title>Node5</title>
<g id="a_Node000005"><a xlink:href="classsrc_1_1detection_1_1detector_1_1ModuleDetector.html#a3f957c9b51d5a862295f333fa8ff2528" target="_top" xlink:title=" ">
<polygon fill="white" stroke="#666666" points="377,-30 216,-30 216,0 377,0 377,-30"/>
<text text-anchor="start" x="224" y="-18" font-family="Helvetica,sans-Serif" font-size="10.00">src.detection.detector.Module</text>
<text text-anchor="middle" x="296.5" y="-7" font-family="Helvetica,sans-Serif" font-size="10.00">Detector.get_module_info</text>
</a>
</g>
</g>
<!-- Node1&#45;&gt;Node5 -->
<g id="edge5_Node000001_Node000005" class="edge">
<title>Node1&#45;&gt;Node5</title>
<g id="a_edge5_Node000001_Node000005"><a xlink:title=" ">
<path fill="none" stroke="#63b8ff" d="M429.58,-45.63C407.51,-40.51 383.57,-34.96 362.2,-30"/>
<polygon fill="#63b8ff" stroke="#63b8ff" points="429.04,-49.09 439.57,-47.94 430.62,-42.28 429.04,-49.09"/>
</a>
</g>
</g>
<!-- Node3 -->
<g id="Node000003" class="node">
<title>Node3</title>
<g id="a_Node000003"><a xlink:href="classsrc_1_1modules_1_1base_1_1BaseModule.html#a04a652c82696275aad617e5e5d18e02b" target="_top" xlink:title=" ">
<polygon fill="white" stroke="#666666" points="168,-102 0,-102 0,-72 168,-72 168,-102"/>
<text text-anchor="start" x="8" y="-90" font-family="Helvetica,sans-Serif" font-size="10.00">src.modules.base.BaseModule.</text>
<text text-anchor="middle" x="84" y="-79" font-family="Helvetica,sans-Serif" font-size="10.00">__str__</text>
</a>
</g>
</g>
<!-- Node2&#45;&gt;Node3 -->
<g id="edge2_Node000002_Node000003" class="edge">
<title>Node2&#45;&gt;Node3</title>
<g id="a_edge2_Node000002_Node000003"><a xlink:title=" ">
<path fill="none" stroke="#63b8ff" d="M193.74,-99.4C185.16,-98.42 176.55,-97.44 168.14,-96.48"/>
<polygon fill="#63b8ff" stroke="#63b8ff" points="193.45,-102.89 203.78,-100.54 194.24,-95.93 193.45,-102.89"/>
</a>
</g>
</g>
<!-- Node4&#45;&gt;Node3 -->
<g id="edge4_Node000004_Node000003" class="edge">
<title>Node4&#45;&gt;Node3</title>
<g id="a_edge4_Node000004_Node000003"><a xlink:title=" ">
<path fill="none" stroke="#63b8ff" d="M202.81,-73.57C191.23,-74.89 179.46,-76.23 168.04,-77.53"/>
<polygon fill="#63b8ff" stroke="#63b8ff" points="203.37,-77.03 212.91,-72.42 202.58,-70.07 203.37,-77.03"/>
</a>
</g>
</g>
</g>
</svg>
