<?xml version="1.0" encoding="UTF-8" standalone="no"?>
<!DOCTYPE svg PUBLIC "-//W3C//DTD SVG 1.1//EN"
 "http://www.w3.org/Graphics/SVG/1.1/DTD/svg11.dtd">
<!-- Generated by graphviz version 2.43.0 (0)
 -->
<!-- Title: src.detection.detector.NoModuleError Pages: 1 -->
<svg width="169pt" height="249pt"
 viewBox="0.00 0.00 169.00 249.00" xmlns="http://www.w3.org/2000/svg" xmlns:xlink="http://www.w3.org/1999/xlink">
<g id="graph0" class="graph" transform="scale(1 1) rotate(0) translate(4 245)">
<title>src.detection.detector.NoModuleError</title>
<!-- Node1 -->
<g id="Node000001" class="node">
<title>Node1</title>
<g id="a_Node000001"><a xlink:title=" ">
<polygon fill="#999999" stroke="transparent" points="147,-60 14,-60 14,0 147,0 147,-60"/>
<text text-anchor="start" x="19.5" y="-48" font-family="Helvetica,sans-Serif" font-size="10.00">src.detection.detector.No</text>
<text text-anchor="start" x="51" y="-37" font-family="Helvetica,sans-Serif" font-size="10.00">ModuleError</text>
<text text-anchor="start" x="79" y="-22" font-family="Helvetica,sans-Serif" font-size="10.00"> </text>
<text text-anchor="start" x="79" y="-7" font-family="Helvetica,sans-Serif" font-size="10.00"> </text>
<polygon fill="#666666" stroke="#666666" points="14.5,-32 14.5,-32 147.5,-32 147.5,-32 14.5,-32"/>
<polygon fill="#666666" stroke="#666666" points="14.5,-17 14.5,-17 147.5,-17 147.5,-17 14.5,-17"/>
<polygon fill="none" stroke="#666666" points="14,0 14,-60 147,-60 147,0 14,0"/>
</a>
</g>
</g>
<!-- Node2 -->
<g id="Node000002" class="node">
<title>Node2</title>
<g id="a_Node000002"><a xlink:href="classsrc_1_1detection_1_1detector_1_1DetectorError.html" target="_top" xlink:title=" ">
<polygon fill="white" stroke="transparent" points="161,-156 0,-156 0,-96 161,-96 161,-156"/>
<text text-anchor="start" x="5.5" y="-144" font-family="Helvetica,sans-Serif" font-size="10.00">src.detection.detector.Detector</text>
<text text-anchor="start" x="69" y="-133" font-family="Helvetica,sans-Serif" font-size="10.00">Error</text>
<text text-anchor="start" x="79" y="-118" font-family="Helvetica,sans-Serif" font-size="10.00"> </text>
<text text-anchor="start" x="79" y="-103" font-family="Helvetica,sans-Serif" font-size="10.00"> </text>
<polygon fill="#666666" stroke="#666666" points="0.5,-128 0.5,-128 161.5,-128 161.5,-128 0.5,-128"/>
<polygon fill="#666666" stroke="#666666" points="0.5,-113 0.5,-113 161.5,-113 161.5,-113 0.5,-113"/>
<polygon fill="none" stroke="#666666" points="0,-96 0,-156 161,-156 161,-96 0,-96"/>
</a>
</g>
</g>
<!-- Node2&#45;&gt;Node1 -->
<g id="edge1_Node000001_Node000002" class="edge">
<title>Node2&#45;&gt;Node1</title>
<g id="a_edge1_Node000001_Node000002"><a xlink:title=" ">
<path fill="none" stroke="#63b8ff" d="M80.5,-85.63C80.5,-77.11 80.5,-68.25 80.5,-60.21"/>
<polygon fill="none" stroke="#63b8ff" points="77,-85.77 80.5,-95.77 84,-85.77 77,-85.77"/>
</a>
</g>
</g>
<!-- Node3 -->
<g id="Node000003" class="node">
<title>Node3</title>
<g id="a_Node000003"><a xlink:title=" ">
<polygon fill="white" stroke="transparent" points="110,-241 51,-241 51,-192 110,-192 110,-241"/>
<text text-anchor="start" x="56.5" y="-228.5" font-family="Helvetica,sans-Serif" font-size="10.00">Exception</text>
<text text-anchor="start" x="79" y="-213.5" font-family="Helvetica,sans-Serif" font-size="10.00"> </text>
<text text-anchor="start" x="79" y="-198.5" font-family="Helvetica,sans-Serif" font-size="10.00"> </text>
<polygon fill="#666666" stroke="#666666" points="51.5,-223.5 51.5,-223.5 110.5,-223.5 110.5,-223.5 51.5,-223.5"/>
<polygon fill="#666666" stroke="#666666" points="51.5,-208.5 51.5,-208.5 110.5,-208.5 110.5,-208.5 51.5,-208.5"/>
<polygon fill="none" stroke="#666666" points="51,-192 51,-241 110,-241 110,-192 51,-192"/>
</a>
</g>
</g>
<!-- Node3&#45;&gt;Node2 -->
<g id="edge2_Node000002_Node000003" class="edge">
<title>Node3&#45;&gt;Node2</title>
<g id="a_edge2_Node000002_Node000003"><a xlink:title=" ">
<path fill="none" stroke="#63b8ff" d="M80.5,-181.55C80.5,-173.18 80.5,-164.28 80.5,-156.16"/>
<polygon fill="none" stroke="#63b8ff" points="77,-181.78 80.5,-191.78 84,-181.78 77,-181.78"/>
</a>
</g>
</g>
</g>
</svg>
