<?xml version="1.0" encoding="UTF-8" standalone="no"?>
<!DOCTYPE svg PUBLIC "-//W3C//DTD SVG 1.1//EN"
 "http://www.w3.org/Graphics/SVG/1.1/DTD/svg11.dtd">
<!-- Generated by graphviz version 2.43.0 (0)
 -->
<!-- Title: tests.emulation.base.EmulatedModule.set_gpio_state Pages: 1 -->
<svg width="382pt" height="86pt"
 viewBox="0.00 0.00 382.00 86.00" xmlns="http://www.w3.org/2000/svg" xmlns:xlink="http://www.w3.org/1999/xlink">
<g id="graph0" class="graph" transform="scale(1 1) rotate(0) translate(4 82)">
<title>tests.emulation.base.EmulatedModule.set_gpio_state</title>
<!-- Node1 -->
<g id="Node000001" class="node">
<title>Node1</title>
<g id="a_Node000001"><a xlink:title=" ">
<polygon fill="#999999" stroke="#666666" points="374,-54 205,-54 205,-24 374,-24 374,-54"/>
<text text-anchor="start" x="213" y="-42" font-family="Helvetica,sans-Serif" font-size="10.00">tests.emulation.base.Emulated</text>
<text text-anchor="middle" x="289.5" y="-31" font-family="Helvetica,sans-Serif" font-size="10.00">Module.set_gpio_state</text>
</a>
</g>
</g>
<!-- Node2 -->
<g id="Node000002" class="node">
<title>Node2</title>
<g id="a_Node000002"><a xlink:href="classsrc_1_1hardware_1_1hal_1_1HardwareInterface.html#a3e08a23f219082451391ea1afd680b87" target="_top" xlink:title=" ">
<polygon fill="white" stroke="#666666" points="158.5,-78 10.5,-78 10.5,-48 158.5,-48 158.5,-78"/>
<text text-anchor="start" x="18.5" y="-66" font-family="Helvetica,sans-Serif" font-size="10.00">src.hardware.hal.Hardware</text>
<text text-anchor="middle" x="84.5" y="-55" font-family="Helvetica,sans-Serif" font-size="10.00">Interface.reset_module</text>
</a>
</g>
</g>
<!-- Node1&#45;&gt;Node2 -->
<g id="edge1_Node000001_Node000002" class="edge">
<title>Node1&#45;&gt;Node2</title>
<g id="a_edge1_Node000001_Node000002"><a xlink:title=" ">
<path fill="none" stroke="#63b8ff" d="M194.66,-50.09C182.58,-51.52 170.35,-52.97 158.67,-54.35"/>
<polygon fill="#63b8ff" stroke="#63b8ff" points="195.24,-53.55 204.76,-48.9 194.42,-46.6 195.24,-53.55"/>
</a>
</g>
</g>
<!-- Node3 -->
<g id="Node000003" class="node">
<title>Node3</title>
<g id="a_Node000003"><a xlink:href="classsrc_1_1hardware_1_1hal_1_1HardwareInterface.html#af1ae02974d746372d751aaa09be9c945" target="_top" xlink:title=" ">
<polygon fill="white" stroke="#666666" points="169,-30 0,-30 0,0 169,0 169,-30"/>
<text text-anchor="start" x="8" y="-18" font-family="Helvetica,sans-Serif" font-size="10.00">src.hardware.hal.Hardware</text>
<text text-anchor="middle" x="84.5" y="-7" font-family="Helvetica,sans-Serif" font-size="10.00">Interface.set_low_power_mode</text>
</a>
</g>
</g>
<!-- Node1&#45;&gt;Node3 -->
<g id="edge2_Node000001_Node000003" class="edge">
<title>Node1&#45;&gt;Node3</title>
<g id="a_edge2_Node000001_Node000003"><a xlink:title=" ">
<path fill="none" stroke="#63b8ff" d="M194.74,-27.92C186.17,-26.9 177.52,-25.88 169.05,-24.88"/>
<polygon fill="#63b8ff" stroke="#63b8ff" points="194.42,-31.4 204.76,-29.1 195.24,-24.45 194.42,-31.4"/>
</a>
</g>
</g>
</g>
</svg>
