<?xml version="1.0" encoding="UTF-8" standalone="no"?>
<!DOCTYPE svg PUBLIC "-//W3C//DTD SVG 1.1//EN"
 "http://www.w3.org/Graphics/SVG/1.1/DTD/svg11.dtd">
<!-- Generated by graphviz version 2.43.0 (0)
 -->
<!-- Title: src.modules.cmis.CMISModule.initialize Pages: 1 -->
<svg width="463pt" height="294pt"
 viewBox="0.00 0.00 463.00 294.00" xmlns="http://www.w3.org/2000/svg" xmlns:xlink="http://www.w3.org/1999/xlink">
<g id="graph0" class="graph" transform="scale(1 1) rotate(0) translate(4 290)">
<title>src.modules.cmis.CMISModule.initialize</title>
<!-- Node1 -->
<g id="Node000001" class="node">
<title>Node1</title>
<g id="a_Node000001"><a xlink:title=" ">
<polygon fill="#999999" stroke="#666666" points="211,-141.5 0,-141.5 0,-122.5 211,-122.5 211,-141.5"/>
<text text-anchor="middle" x="105.5" y="-129.5" font-family="Helvetica,sans-Serif" font-size="10.00">src.modules.cmis.CMISModule.initialize</text>
</a>
</g>
</g>
<!-- Node2 -->
<g id="Node000002" class="node">
<title>Node2</title>
<g id="a_Node000002"><a xlink:href="classsrc_1_1modules_1_1cmis_1_1CMISModule.html#ab78452b295a5b977f548acec3176d1f4" target="_top" xlink:title=" ">
<polygon fill="white" stroke="#666666" points="435.5,-286 266.5,-286 266.5,-256 435.5,-256 435.5,-286"/>
<text text-anchor="start" x="274.5" y="-274" font-family="Helvetica,sans-Serif" font-size="10.00">src.modules.cmis.CMISModule.</text>
<text text-anchor="middle" x="351" y="-263" font-family="Helvetica,sans-Serif" font-size="10.00">_detect_capabilities</text>
</a>
</g>
</g>
<!-- Node1&#45;&gt;Node2 -->
<g id="edge1_Node000001_Node000002" class="edge">
<title>Node1&#45;&gt;Node2</title>
<g id="a_edge1_Node000001_Node000002"><a xlink:title=" ">
<path fill="none" stroke="#63b8ff" d="M115.3,-141.77C135.96,-164.08 190.16,-219.02 247,-247 251.05,-248.99 255.27,-250.82 259.59,-252.51"/>
<polygon fill="#63b8ff" stroke="#63b8ff" points="258.59,-255.87 269.18,-255.96 260.96,-249.28 258.59,-255.87"/>
</a>
</g>
</g>
<!-- Node3 -->
<g id="Node000003" class="node">
<title>Node3</title>
<g id="a_Node000003"><a xlink:href="classsrc_1_1modules_1_1sff_1_1SFFModule.html#a36d2fc0f4a8f5a3a07a2ffe3eecb6ff4" target="_top" xlink:title=" ">
<polygon fill="white" stroke="#666666" points="426.5,-238 275.5,-238 275.5,-208 426.5,-208 426.5,-238"/>
<text text-anchor="start" x="283.5" y="-226" font-family="Helvetica,sans-Serif" font-size="10.00">src.modules.sff.SFFModule.</text>
<text text-anchor="middle" x="351" y="-215" font-family="Helvetica,sans-Serif" font-size="10.00">_detect_capabilities</text>
</a>
</g>
</g>
<!-- Node1&#45;&gt;Node3 -->
<g id="edge2_Node000001_Node000003" class="edge">
<title>Node1&#45;&gt;Node3</title>
<g id="a_edge2_Node000001_Node000003"><a xlink:title=" ">
<path fill="none" stroke="#63b8ff" d="M123.73,-141.72C149.72,-156.03 200.84,-182.83 247,-199 253.35,-201.22 259.98,-203.3 266.7,-205.23"/>
<polygon fill="#63b8ff" stroke="#63b8ff" points="266,-208.67 276.57,-207.95 267.86,-201.92 266,-208.67"/>
</a>
</g>
</g>
<!-- Node4 -->
<g id="Node000004" class="node">
<title>Node4</title>
<g id="a_Node000004"><a xlink:href="classsrc_1_1modules_1_1cmis_1_1CMISModule.html#ad5d613bb1b9bb6b6c5710d46e353eb97" target="_top" xlink:title=" ">
<polygon fill="white" stroke="#666666" points="435.5,-190 266.5,-190 266.5,-160 435.5,-160 435.5,-190"/>
<text text-anchor="start" x="274.5" y="-178" font-family="Helvetica,sans-Serif" font-size="10.00">src.modules.cmis.CMISModule.</text>
<text text-anchor="middle" x="351" y="-167" font-family="Helvetica,sans-Serif" font-size="10.00">_select_page</text>
</a>
</g>
</g>
<!-- Node1&#45;&gt;Node4 -->
<g id="edge3_Node000001_Node000004" class="edge">
<title>Node1&#45;&gt;Node4</title>
<g id="a_edge3_Node000001_Node000004"><a xlink:title=" ">
<path fill="none" stroke="#63b8ff" d="M160.54,-141.54C188.73,-146.52 224.02,-152.75 256.48,-158.48"/>
<polygon fill="#63b8ff" stroke="#63b8ff" points="255.99,-161.95 266.45,-160.25 257.21,-155.06 255.99,-161.95"/>
</a>
</g>
</g>
<!-- Node5 -->
<g id="Node000005" class="node">
<title>Node5</title>
<g id="a_Node000005"><a xlink:href="classsrc_1_1modules_1_1base_1_1BaseModule.html#ae8ab127949af2da9700759f26d35d9e6" target="_top" xlink:title=" ">
<polygon fill="white" stroke="#666666" points="447.5,-141.5 254.5,-141.5 254.5,-122.5 447.5,-122.5 447.5,-141.5"/>
<text text-anchor="middle" x="351" y="-129.5" font-family="Helvetica,sans-Serif" font-size="10.00">src.modules.base.BaseModule.reset</text>
</a>
</g>
</g>
<!-- Node1&#45;&gt;Node5 -->
<g id="edge4_Node000001_Node000005" class="edge">
<title>Node1&#45;&gt;Node5</title>
<g id="a_edge4_Node000001_Node000005"><a xlink:title=" ">
<path fill="none" stroke="#63b8ff" d="M211.18,-132C222.13,-132 233.28,-132 244.24,-132"/>
<polygon fill="#63b8ff" stroke="#63b8ff" points="244.25,-135.5 254.25,-132 244.25,-128.5 244.25,-135.5"/>
</a>
</g>
</g>
<!-- Node6 -->
<g id="Node000006" class="node">
<title>Node6</title>
<g id="a_Node000006"><a xlink:href="classsrc_1_1modules_1_1cmis_1_1CMISModule.html#a689f7e6b3800161e207fb519e2492eb5" target="_top" xlink:title=" ">
<polygon fill="white" stroke="#666666" points="448,-104.5 254,-104.5 254,-85.5 448,-85.5 448,-104.5"/>
<text text-anchor="middle" x="351" y="-92.5" font-family="Helvetica,sans-Serif" font-size="10.00">src.modules.cmis.CMISModule.reset</text>
</a>
</g>
</g>
<!-- Node1&#45;&gt;Node6 -->
<g id="edge5_Node000001_Node000006" class="edge">
<title>Node1&#45;&gt;Node6</title>
<g id="a_edge5_Node000001_Node000006"><a xlink:title=" ">
<path fill="none" stroke="#63b8ff" d="M169.21,-122.47C202.17,-117.46 242.75,-111.3 277.1,-106.08"/>
<polygon fill="#63b8ff" stroke="#63b8ff" points="277.72,-109.52 287.08,-104.56 276.67,-102.6 277.72,-109.52"/>
</a>
</g>
</g>
<!-- Node7 -->
<g id="Node000007" class="node">
<title>Node7</title>
<g id="a_Node000007"><a xlink:href="classsrc_1_1modules_1_1sff_1_1SFFModule.html#a1ff482e1d412a032e42135f4938e94d2" target="_top" xlink:title=" ">
<polygon fill="white" stroke="#666666" points="439,-67.5 263,-67.5 263,-48.5 439,-48.5 439,-67.5"/>
<text text-anchor="middle" x="351" y="-55.5" font-family="Helvetica,sans-Serif" font-size="10.00">src.modules.sff.SFFModule.reset</text>
</a>
</g>
</g>
<!-- Node1&#45;&gt;Node7 -->
<g id="edge6_Node000001_Node000007" class="edge">
<title>Node1&#45;&gt;Node7</title>
<g id="a_edge6_Node000001_Node000007"><a xlink:title=" ">
<path fill="none" stroke="#63b8ff" d="M127.49,-122.32C154.58,-110.18 203.42,-89.43 247,-77 256.87,-74.18 267.4,-71.69 277.81,-69.5"/>
<polygon fill="#63b8ff" stroke="#63b8ff" points="278.62,-72.91 287.74,-67.51 277.24,-66.05 278.62,-72.91"/>
</a>
</g>
</g>
<!-- Node8 -->
<g id="Node000008" class="node">
<title>Node8</title>
<g id="a_Node000008"><a xlink:href="classsrc_1_1modules_1_1base_1_1BaseModule.html#a2dddf72caa17a6a740e0990f6e77aaf2" target="_top" xlink:title=" ">
<polygon fill="white" stroke="#666666" points="455,-30 247,-30 247,0 455,0 455,-30"/>
<text text-anchor="start" x="255" y="-18" font-family="Helvetica,sans-Serif" font-size="10.00">src.modules.base.BaseModule.validate</text>
<text text-anchor="middle" x="351" y="-7" font-family="Helvetica,sans-Serif" font-size="10.00">_capabilities</text>
</a>
</g>
</g>
<!-- Node1&#45;&gt;Node8 -->
<g id="edge7_Node000001_Node000008" class="edge">
<title>Node1&#45;&gt;Node8</title>
<g id="a_edge7_Node000001_Node000008"><a xlink:title=" ">
<path fill="none" stroke="#63b8ff" d="M118.1,-122.38C141.17,-103.73 195.1,-62.49 247,-40 252.76,-37.5 258.82,-35.23 264.99,-33.16"/>
<polygon fill="#63b8ff" stroke="#63b8ff" points="266.27,-36.43 274.75,-30.08 264.16,-29.75 266.27,-36.43"/>
</a>
</g>
</g>
</g>
</svg>
