<?xml version="1.0" encoding="UTF-8" standalone="no"?>
<!DOCTYPE svg PUBLIC "-//W3C//DTD SVG 1.1//EN"
 "http://www.w3.org/Graphics/SVG/1.1/DTD/svg11.dtd">
<!-- Generated by graphviz version 2.43.0 (0)
 -->
<!-- Title: src.modules.base.BaseModule.__str__ Pages: 1 -->
<svg width="602pt" height="182pt"
 viewBox="0.00 0.00 602.00 182.00" xmlns="http://www.w3.org/2000/svg" xmlns:xlink="http://www.w3.org/1999/xlink">
<g id="graph0" class="graph" transform="scale(1 1) rotate(0) translate(4 178)">
<title>src.modules.base.BaseModule.__str__</title>
<!-- Node1 -->
<g id="Node000001" class="node">
<title>Node1</title>
<g id="a_Node000001"><a xlink:title=" ">
<polygon fill="#999999" stroke="#666666" points="168,-126 0,-126 0,-96 168,-96 168,-126"/>
<text text-anchor="start" x="8" y="-114" font-family="Helvetica,sans-Serif" font-size="10.00">src.modules.base.BaseModule.</text>
<text text-anchor="middle" x="84" y="-103" font-family="Helvetica,sans-Serif" font-size="10.00">__str__</text>
</a>
</g>
</g>
<!-- Node2 -->
<g id="Node000002" class="node">
<title>Node2</title>
<g id="a_Node000002"><a xlink:href="classsrc_1_1modules_1_1base_1_1BaseModule.html#a5d797582331ce2b0d5d51d1acba5fa7c" target="_top" xlink:title=" ">
<polygon fill="white" stroke="#666666" points="388.5,-174 204.5,-174 204.5,-144 388.5,-144 388.5,-174"/>
<text text-anchor="start" x="212.5" y="-162" font-family="Helvetica,sans-Serif" font-size="10.00">src.modules.base.BaseModule.get</text>
<text text-anchor="middle" x="296.5" y="-151" font-family="Helvetica,sans-Serif" font-size="10.00">_identification</text>
</a>
</g>
</g>
<!-- Node1&#45;&gt;Node2 -->
<g id="edge1_Node000001_Node000002" class="edge">
<title>Node1&#45;&gt;Node2</title>
<g id="a_edge1_Node000001_Node000002"><a xlink:title=" ">
<path fill="none" stroke="#63b8ff" d="M151.03,-126.06C172.87,-131.04 197.35,-136.62 219.86,-141.75"/>
<polygon fill="#63b8ff" stroke="#63b8ff" points="219.18,-145.19 229.71,-144 220.74,-138.36 219.18,-145.19"/>
</a>
</g>
</g>
<!-- Node3 -->
<g id="Node000003" class="node">
<title>Node3</title>
<g id="a_Node000003"><a xlink:href="classsrc_1_1modules_1_1cmis_1_1CMISModule.html#a3ae7ef885da8e96e9631a7d38206238b" target="_top" xlink:title=" ">
<polygon fill="white" stroke="#666666" points="389,-78 204,-78 204,-48 389,-48 389,-78"/>
<text text-anchor="start" x="212" y="-66" font-family="Helvetica,sans-Serif" font-size="10.00">src.modules.cmis.CMISModule.get</text>
<text text-anchor="middle" x="296.5" y="-55" font-family="Helvetica,sans-Serif" font-size="10.00">_identification</text>
</a>
</g>
</g>
<!-- Node1&#45;&gt;Node3 -->
<g id="edge2_Node000001_Node000003" class="edge">
<title>Node1&#45;&gt;Node3</title>
<g id="a_edge2_Node000001_Node000003"><a xlink:title=" ">
<path fill="none" stroke="#63b8ff" d="M151.03,-95.94C172.87,-90.96 197.35,-85.38 219.86,-80.25"/>
<polygon fill="#63b8ff" stroke="#63b8ff" points="220.74,-83.64 229.71,-78 219.18,-76.81 220.74,-83.64"/>
</a>
</g>
</g>
<!-- Node8 -->
<g id="Node000008" class="node">
<title>Node8</title>
<g id="a_Node000008"><a xlink:href="classsrc_1_1modules_1_1sff_1_1SFFModule.html#ab9a9265195496bd65698b245bbeeff2d" target="_top" xlink:title=" ">
<polygon fill="white" stroke="#666666" points="380,-126 213,-126 213,-96 380,-96 380,-126"/>
<text text-anchor="start" x="221" y="-114" font-family="Helvetica,sans-Serif" font-size="10.00">src.modules.sff.SFFModule.get</text>
<text text-anchor="middle" x="296.5" y="-103" font-family="Helvetica,sans-Serif" font-size="10.00">_identification</text>
</a>
</g>
</g>
<!-- Node1&#45;&gt;Node8 -->
<g id="edge7_Node000001_Node000008" class="edge">
<title>Node1&#45;&gt;Node8</title>
<g id="a_edge7_Node000001_Node000008"><a xlink:title=" ">
<path fill="none" stroke="#63b8ff" d="M168.2,-111C179.57,-111 191.31,-111 202.84,-111"/>
<polygon fill="#63b8ff" stroke="#63b8ff" points="202.91,-114.5 212.91,-111 202.91,-107.5 202.91,-114.5"/>
</a>
</g>
</g>
<!-- Node4 -->
<g id="Node000004" class="node">
<title>Node4</title>
<g id="a_Node000004"><a xlink:href="classsrc_1_1detection_1_1detector_1_1ModuleDetector.html#a1381963782d79a461415eb8e7219544d" target="_top" xlink:title=" ">
<polygon fill="white" stroke="#666666" points="590,-174 429,-174 429,-144 590,-144 590,-174"/>
<text text-anchor="start" x="437" y="-162" font-family="Helvetica,sans-Serif" font-size="10.00">src.detection.detector.Module</text>
<text text-anchor="middle" x="509.5" y="-151" font-family="Helvetica,sans-Serif" font-size="10.00">Detector._read_string</text>
</a>
</g>
</g>
<!-- Node3&#45;&gt;Node4 -->
<g id="edge3_Node000003_Node000004" class="edge">
<title>Node3&#45;&gt;Node4</title>
<g id="a_edge3_Node000003_Node000004"><a xlink:title=" ">
<path fill="none" stroke="#63b8ff" d="M372.75,-78.2C378.46,-80.7 383.96,-83.61 389,-87 411.13,-101.88 403.05,-119.86 425,-135 427.25,-136.55 429.6,-138 432.03,-139.36"/>
<polygon fill="#63b8ff" stroke="#63b8ff" points="430.58,-142.55 441.09,-143.89 433.71,-136.29 430.58,-142.55"/>
</a>
</g>
</g>
<!-- Node5 -->
<g id="Node000005" class="node">
<title>Node5</title>
<g id="a_Node000005"><a xlink:href="classsrc_1_1modules_1_1cmis_1_1CMISModule.html#a7de855e3b1f7db0ff57db1ae6f0870dd" target="_top" xlink:title=" ">
<polygon fill="white" stroke="#666666" points="594,-126 425,-126 425,-96 594,-96 594,-126"/>
<text text-anchor="start" x="433" y="-114" font-family="Helvetica,sans-Serif" font-size="10.00">src.modules.cmis.CMISModule.</text>
<text text-anchor="middle" x="509.5" y="-103" font-family="Helvetica,sans-Serif" font-size="10.00">_read_string</text>
</a>
</g>
</g>
<!-- Node3&#45;&gt;Node5 -->
<g id="edge4_Node000003_Node000005" class="edge">
<title>Node3&#45;&gt;Node5</title>
<g id="a_edge4_Node000003_Node000005"><a xlink:title=" ">
<path fill="none" stroke="#63b8ff" d="M363.68,-78.06C385.58,-83.04 410.12,-88.62 432.68,-93.75"/>
<polygon fill="#63b8ff" stroke="#63b8ff" points="432.02,-97.19 442.55,-96 433.58,-90.37 432.02,-97.19"/>
</a>
</g>
</g>
<!-- Node6 -->
<g id="Node000006" class="node">
<title>Node6</title>
<g id="a_Node000006"><a xlink:href="classsrc_1_1modules_1_1sff_1_1SFFModule.html#a057e8bce361ffbe39bf662c71e19dc84" target="_top" xlink:title=" ">
<polygon fill="white" stroke="#666666" points="585,-78 434,-78 434,-48 585,-48 585,-78"/>
<text text-anchor="start" x="442" y="-66" font-family="Helvetica,sans-Serif" font-size="10.00">src.modules.sff.SFFModule.</text>
<text text-anchor="middle" x="509.5" y="-55" font-family="Helvetica,sans-Serif" font-size="10.00">_read_string</text>
</a>
</g>
</g>
<!-- Node3&#45;&gt;Node6 -->
<g id="edge5_Node000003_Node000006" class="edge">
<title>Node3&#45;&gt;Node6</title>
<g id="a_edge5_Node000003_Node000006"><a xlink:title=" ">
<path fill="none" stroke="#63b8ff" d="M389.13,-63C400.54,-63 412.17,-63 423.47,-63"/>
<polygon fill="#63b8ff" stroke="#63b8ff" points="423.75,-66.5 433.75,-63 423.75,-59.5 423.75,-66.5"/>
</a>
</g>
</g>
<!-- Node7 -->
<g id="Node000007" class="node">
<title>Node7</title>
<g id="a_Node000007"><a xlink:href="classsrc_1_1modules_1_1cmis_1_1CMISModule.html#ad5d613bb1b9bb6b6c5710d46e353eb97" target="_top" xlink:title=" ">
<polygon fill="white" stroke="#666666" points="594,-30 425,-30 425,0 594,0 594,-30"/>
<text text-anchor="start" x="433" y="-18" font-family="Helvetica,sans-Serif" font-size="10.00">src.modules.cmis.CMISModule.</text>
<text text-anchor="middle" x="509.5" y="-7" font-family="Helvetica,sans-Serif" font-size="10.00">_select_page</text>
</a>
</g>
</g>
<!-- Node3&#45;&gt;Node7 -->
<g id="edge6_Node000003_Node000007" class="edge">
<title>Node3&#45;&gt;Node7</title>
<g id="a_edge6_Node000003_Node000007"><a xlink:title=" ">
<path fill="none" stroke="#63b8ff" d="M363.68,-47.94C385.58,-42.96 410.12,-37.38 432.68,-32.25"/>
<polygon fill="#63b8ff" stroke="#63b8ff" points="433.58,-35.63 442.55,-30 432.02,-28.81 433.58,-35.63"/>
</a>
</g>
</g>
<!-- Node8&#45;&gt;Node4 -->
<g id="edge8_Node000008_Node000004" class="edge">
<title>Node8&#45;&gt;Node4</title>
<g id="a_edge8_Node000008_Node000004"><a xlink:title=" ">
<path fill="none" stroke="#63b8ff" d="M363.68,-126.06C385.58,-131.04 410.12,-136.62 432.68,-141.75"/>
<polygon fill="#63b8ff" stroke="#63b8ff" points="432.02,-145.19 442.55,-144 433.58,-138.37 432.02,-145.19"/>
</a>
</g>
</g>
<!-- Node8&#45;&gt;Node5 -->
<g id="edge9_Node000008_Node000005" class="edge">
<title>Node8&#45;&gt;Node5</title>
<g id="a_edge9_Node000008_Node000005"><a xlink:title=" ">
<path fill="none" stroke="#63b8ff" d="M380.29,-111C391.63,-111 403.34,-111 414.85,-111"/>
<polygon fill="#63b8ff" stroke="#63b8ff" points="414.91,-114.5 424.91,-111 414.91,-107.5 414.91,-114.5"/>
</a>
</g>
</g>
<!-- Node8&#45;&gt;Node6 -->
<g id="edge10_Node000008_Node000006" class="edge">
<title>Node8&#45;&gt;Node6</title>
<g id="a_edge10_Node000008_Node000006"><a xlink:title=" ">
<path fill="none" stroke="#63b8ff" d="M363.68,-95.94C385.58,-90.96 410.12,-85.38 432.68,-80.25"/>
<polygon fill="#63b8ff" stroke="#63b8ff" points="433.58,-83.63 442.55,-78 432.02,-76.81 433.58,-83.63"/>
</a>
</g>
</g>
</g>
</svg>
