<?xml version="1.0" encoding="UTF-8" standalone="no"?>
<!DOCTYPE svg PUBLIC "-//W3C//DTD SVG 1.1//EN"
 "http://www.w3.org/Graphics/SVG/1.1/DTD/svg11.dtd">
<!-- Generated by graphviz version 2.43.0 (0)
 -->
<!-- Title: sff_8024_mem.SFF8636_Page01h_CD._decode_fields Pages: 1 -->
<svg width="368pt" height="320pt"
 viewBox="0.00 0.00 368.00 320.00" xmlns="http://www.w3.org/2000/svg" xmlns:xlink="http://www.w3.org/1999/xlink">
<g id="graph0" class="graph" transform="scale(1 1) rotate(0) translate(4 316)">
<title>sff_8024_mem.SFF8636_Page01h_CD._decode_fields</title>
<!-- Node1 -->
<g id="Node000001" class="node">
<title>Node1</title>
<g id="a_Node000001"><a xlink:title=" ">
<polygon fill="#999999" stroke="#666666" points="360,-162 202,-162 202,-132 360,-132 360,-162"/>
<text text-anchor="start" x="210" y="-150" font-family="Helvetica,sans-Serif" font-size="10.00">sff_8024_mem.SFF8636</text>
<text text-anchor="middle" x="281" y="-139" font-family="Helvetica,sans-Serif" font-size="10.00">_Page01h_CD._decode_fields</text>
</a>
</g>
</g>
<!-- Node2 -->
<g id="Node000002" class="node">
<title>Node2</title>
<g id="a_Node000002"><a xlink:href="classsff__8024__mem_1_1SFF8024__BasePage00h.html#ad40949dd2613d834634982da64e50ac2" target="_top" xlink:title=" ">
<polygon fill="white" stroke="#666666" points="150,-294 16,-294 16,-264 150,-264 150,-294"/>
<text text-anchor="start" x="24" y="-282" font-family="Helvetica,sans-Serif" font-size="10.00">sff_8024_mem.SFF8024</text>
<text text-anchor="middle" x="83" y="-271" font-family="Helvetica,sans-Serif" font-size="10.00">_BasePage00h.__init__</text>
</a>
</g>
</g>
<!-- Node1&#45;&gt;Node2 -->
<g id="edge1_Node000001_Node000002" class="edge">
<title>Node1&#45;&gt;Node2</title>
<g id="a_edge1_Node000001_Node000002"><a xlink:title=" ">
<path fill="none" stroke="#63b8ff" d="M261.59,-170C240.83,-194.47 204.86,-232.67 166,-255 160.08,-258.4 153.65,-261.35 147.07,-263.91"/>
<polygon fill="#63b8ff" stroke="#63b8ff" points="264.32,-172.2 268.03,-162.27 258.94,-167.72 264.32,-172.2"/>
</a>
</g>
</g>
<!-- Node3 -->
<g id="Node000003" class="node">
<title>Node3</title>
<g id="a_Node000003"><a xlink:href="classsff__8024__mem_1_1SFF8472__DOMMemorySpace.html#a67ab17ff1a6be4d18c8c0f02b507478e" target="_top" xlink:title=" ">
<polygon fill="white" stroke="#666666" points="160.5,-228 5.5,-228 5.5,-198 160.5,-198 160.5,-228"/>
<text text-anchor="start" x="13.5" y="-216" font-family="Helvetica,sans-Serif" font-size="10.00">sff_8024_mem.SFF8472</text>
<text text-anchor="middle" x="83" y="-205" font-family="Helvetica,sans-Serif" font-size="10.00">_DOMMemorySpace.__init__</text>
</a>
</g>
</g>
<!-- Node1&#45;&gt;Node3 -->
<g id="edge3_Node000001_Node000003" class="edge">
<title>Node1&#45;&gt;Node3</title>
<g id="a_edge3_Node000001_Node000003"><a xlink:title=" ">
<path fill="none" stroke="#63b8ff" d="M231.6,-165.66C211.42,-173.22 187.69,-181.84 166,-189 156.84,-192.02 147.05,-195.06 137.54,-197.9"/>
<polygon fill="#63b8ff" stroke="#63b8ff" points="233.06,-168.85 241.19,-162.05 230.6,-162.3 233.06,-168.85"/>
</a>
</g>
</g>
<!-- Node4 -->
<g id="Node000004" class="node">
<title>Node4</title>
<g id="a_Node000004"><a xlink:href="classsff__8024__mem_1_1SFF8636__Page00h.html#a7a36b5c87aa741ea03992d814f7efc01" target="_top" xlink:title=" ">
<polygon fill="white" stroke="#666666" points="150,-162 16,-162 16,-132 150,-132 150,-162"/>
<text text-anchor="start" x="24" y="-150" font-family="Helvetica,sans-Serif" font-size="10.00">sff_8024_mem.SFF8636</text>
<text text-anchor="middle" x="83" y="-139" font-family="Helvetica,sans-Serif" font-size="10.00">_Page00h.__init__</text>
</a>
</g>
</g>
<!-- Node1&#45;&gt;Node4 -->
<g id="edge5_Node000001_Node000004" class="edge">
<title>Node1&#45;&gt;Node4</title>
<g id="a_edge5_Node000001_Node000004"><a xlink:title=" ">
<path fill="none" stroke="#63b8ff" d="M191.82,-147C177.79,-147 163.49,-147 150.08,-147"/>
<polygon fill="#63b8ff" stroke="#63b8ff" points="191.97,-150.5 201.97,-147 191.97,-143.5 191.97,-150.5"/>
</a>
</g>
</g>
<!-- Node5 -->
<g id="Node000005" class="node">
<title>Node5</title>
<g id="a_Node000005"><a xlink:href="classsff__8024__mem_1_1SFF8636__Page01h__CD.html#a9f1e632510afa18f69b0fa1e54d0e2ac" target="_top" xlink:title=" ">
<polygon fill="white" stroke="#666666" points="150,-96 16,-96 16,-66 150,-66 150,-96"/>
<text text-anchor="start" x="24" y="-84" font-family="Helvetica,sans-Serif" font-size="10.00">sff_8024_mem.SFF8636</text>
<text text-anchor="middle" x="83" y="-73" font-family="Helvetica,sans-Serif" font-size="10.00">_Page01h_CD.__init__</text>
</a>
</g>
</g>
<!-- Node1&#45;&gt;Node5 -->
<g id="edge7_Node000001_Node000005" class="edge">
<title>Node1&#45;&gt;Node5</title>
<g id="a_edge7_Node000001_Node000005"><a xlink:title=" ">
<path fill="none" stroke="#63b8ff" d="M225.41,-128.62C194.95,-118.36 157.47,-105.74 128.76,-96.07"/>
<polygon fill="#63b8ff" stroke="#63b8ff" points="224.44,-131.98 235.03,-131.86 226.67,-125.35 224.44,-131.98"/>
</a>
</g>
</g>
<!-- Node6 -->
<g id="Node000006" class="node">
<title>Node6</title>
<g id="a_Node000006"><a xlink:href="classsff__8024__mem_1_1CMIS__Page00h.html#afc44e0d8e0cfbd69e8201b72cfc10bcd" target="_top" xlink:title=" ">
<polygon fill="white" stroke="#666666" points="166,-30 0,-30 0,0 166,0 166,-30"/>
<text text-anchor="start" x="8" y="-18" font-family="Helvetica,sans-Serif" font-size="10.00">sff_8024_mem.CMIS_Page00h.</text>
<text text-anchor="middle" x="83" y="-7" font-family="Helvetica,sans-Serif" font-size="10.00">__init__</text>
</a>
</g>
</g>
<!-- Node1&#45;&gt;Node6 -->
<g id="edge9_Node000001_Node000006" class="edge">
<title>Node1&#45;&gt;Node6</title>
<g id="a_edge9_Node000001_Node000006"><a xlink:title=" ">
<path fill="none" stroke="#63b8ff" d="M255.34,-125.21C232.93,-105.99 198.5,-77.87 166,-57 150.52,-47.06 132.4,-37.58 117.14,-30.14"/>
<polygon fill="#63b8ff" stroke="#63b8ff" points="253.17,-127.96 263.02,-131.86 257.75,-122.67 253.17,-127.96"/>
</a>
</g>
</g>
<!-- Node2&#45;&gt;Node2 -->
<g id="edge2_Node000002_Node000002" class="edge">
<title>Node2&#45;&gt;Node2</title>
<g id="a_edge2_Node000002_Node000002"><a xlink:title=" ">
<path fill="none" stroke="#63b8ff" d="M117.66,-304.6C112.92,-308.97 101.37,-312 83,-312 52.06,-312 40.46,-303.41 48.2,-294.28"/>
<polygon fill="#63b8ff" stroke="#63b8ff" points="121.16,-304.32 117.8,-294.28 114.16,-304.22 121.16,-304.32"/>
</a>
</g>
</g>
<!-- Node3&#45;&gt;Node3 -->
<g id="edge4_Node000003_Node000003" class="edge">
<title>Node3&#45;&gt;Node3</title>
<g id="a_edge4_Node000003_Node000003"><a xlink:title=" ">
<path fill="none" stroke="#63b8ff" d="M117.66,-238.6C112.92,-242.97 101.37,-246 83,-246 52.06,-246 40.46,-237.41 48.2,-228.28"/>
<polygon fill="#63b8ff" stroke="#63b8ff" points="121.16,-238.32 117.8,-228.28 114.16,-238.22 121.16,-238.32"/>
</a>
</g>
</g>
<!-- Node4&#45;&gt;Node4 -->
<g id="edge6_Node000004_Node000004" class="edge">
<title>Node4&#45;&gt;Node4</title>
<g id="a_edge6_Node000004_Node000004"><a xlink:title=" ">
<path fill="none" stroke="#63b8ff" d="M117.66,-172.6C112.92,-176.97 101.37,-180 83,-180 52.06,-180 40.46,-171.41 48.2,-162.28"/>
<polygon fill="#63b8ff" stroke="#63b8ff" points="121.16,-172.32 117.8,-162.28 114.16,-172.22 121.16,-172.32"/>
</a>
</g>
</g>
<!-- Node5&#45;&gt;Node5 -->
<g id="edge8_Node000005_Node000005" class="edge">
<title>Node5&#45;&gt;Node5</title>
<g id="a_edge8_Node000005_Node000005"><a xlink:title=" ">
<path fill="none" stroke="#63b8ff" d="M117.66,-106.6C112.92,-110.97 101.37,-114 83,-114 52.06,-114 40.46,-105.41 48.2,-96.28"/>
<polygon fill="#63b8ff" stroke="#63b8ff" points="121.16,-106.32 117.8,-96.28 114.16,-106.22 121.16,-106.32"/>
</a>
</g>
</g>
<!-- Node6&#45;&gt;Node6 -->
<g id="edge10_Node000006_Node000006" class="edge">
<title>Node6&#45;&gt;Node6</title>
<g id="a_edge10_Node000006_Node000006"><a xlink:title=" ">
<path fill="none" stroke="#63b8ff" d="M117.66,-40.6C112.92,-44.97 101.37,-48 83,-48 52.06,-48 40.46,-39.41 48.2,-30.28"/>
<polygon fill="#63b8ff" stroke="#63b8ff" points="121.16,-40.32 117.8,-30.28 114.16,-40.22 121.16,-40.32"/>
</a>
</g>
</g>
</g>
</svg>
