<?xml version="1.0" encoding="UTF-8" standalone="no"?>
<!DOCTYPE svg PUBLIC "-//W3C//DTD SVG 1.1//EN"
 "http://www.w3.org/Graphics/SVG/1.1/DTD/svg11.dtd">
<!-- Generated by graphviz version 2.43.0 (0)
 -->
<!-- Title: src.modules.cmis.CMISModule Pages: 1 -->
<svg width="168pt" height="662pt"
 viewBox="0.00 0.00 168.00 662.00" xmlns="http://www.w3.org/2000/svg" xmlns:xlink="http://www.w3.org/1999/xlink">
<g id="graph0" class="graph" transform="scale(1 1) rotate(0) translate(4 658)">
<title>src.modules.cmis.CMISModule</title>
<!-- Node1 -->
<g id="Node000001" class="node">
<title>Node1</title>
<g id="a_Node000001"><a xlink:title=" ">
<polygon fill="#999999" stroke="transparent" points="160,-319 0,-319 0,0 160,0 160,-319"/>
<text text-anchor="start" x="5" y="-306.5" font-family="Helvetica,sans-Serif" font-size="10.00">src.modules.cmis.CMISModule</text>
<text text-anchor="start" x="9.5" y="-291.5" font-family="Helvetica,sans-Serif" font-size="10.00">#</text>
<text text-anchor="start" x="28" y="-291.5" font-family="Helvetica,sans-Serif" font-size="10.00">_required_capabilities</text>
<text text-anchor="start" x="9.5" y="-276.5" font-family="Helvetica,sans-Serif" font-size="10.00">#</text>
<text text-anchor="start" x="28" y="-276.5" font-family="Helvetica,sans-Serif" font-size="10.00">_optional_capabilities</text>
<text text-anchor="start" x="9.5" y="-261.5" font-family="Helvetica,sans-Serif" font-size="10.00">#</text>
<text text-anchor="start" x="28" y="-261.5" font-family="Helvetica,sans-Serif" font-size="10.00">_current_page</text>
<text text-anchor="start" x="9.5" y="-246.5" font-family="Helvetica,sans-Serif" font-size="10.00">#</text>
<text text-anchor="start" x="28" y="-246.5" font-family="Helvetica,sans-Serif" font-size="10.00">_supported_capabilities</text>
<text text-anchor="start" x="9.5" y="-231.5" font-family="Helvetica,sans-Serif" font-size="10.00">+</text>
<text text-anchor="start" x="28" y="-231.5" font-family="Helvetica,sans-Serif" font-size="10.00">__init__()</text>
<text text-anchor="start" x="9.5" y="-216.5" font-family="Helvetica,sans-Serif" font-size="10.00">+</text>
<text text-anchor="start" x="28" y="-216.5" font-family="Helvetica,sans-Serif" font-size="10.00">initialize()</text>
<text text-anchor="start" x="9.5" y="-201.5" font-family="Helvetica,sans-Serif" font-size="10.00">+</text>
<text text-anchor="start" x="28" y="-201.5" font-family="Helvetica,sans-Serif" font-size="10.00">get_identification()</text>
<text text-anchor="start" x="9.5" y="-186.5" font-family="Helvetica,sans-Serif" font-size="10.00">+</text>
<text text-anchor="start" x="28" y="-186.5" font-family="Helvetica,sans-Serif" font-size="10.00">get_status()</text>
<text text-anchor="start" x="9.5" y="-171.5" font-family="Helvetica,sans-Serif" font-size="10.00">+</text>
<text text-anchor="start" x="28" y="-171.5" font-family="Helvetica,sans-Serif" font-size="10.00">get_capabilities()</text>
<text text-anchor="start" x="9.5" y="-156.5" font-family="Helvetica,sans-Serif" font-size="10.00">+</text>
<text text-anchor="start" x="28" y="-156.5" font-family="Helvetica,sans-Serif" font-size="10.00">reset()</text>
<text text-anchor="start" x="9.5" y="-141.5" font-family="Helvetica,sans-Serif" font-size="10.00">+</text>
<text text-anchor="start" x="28" y="-141.5" font-family="Helvetica,sans-Serif" font-size="10.00">get_configuration()</text>
<text text-anchor="start" x="9.5" y="-126.5" font-family="Helvetica,sans-Serif" font-size="10.00">+</text>
<text text-anchor="start" x="28" y="-126.5" font-family="Helvetica,sans-Serif" font-size="10.00">set_configuration()</text>
<text text-anchor="start" x="9.5" y="-111.5" font-family="Helvetica,sans-Serif" font-size="10.00">#</text>
<text text-anchor="start" x="28" y="-111.5" font-family="Helvetica,sans-Serif" font-size="10.00">_detect_capabilities()</text>
<text text-anchor="start" x="9.5" y="-96.5" font-family="Helvetica,sans-Serif" font-size="10.00">#</text>
<text text-anchor="start" x="28" y="-96.5" font-family="Helvetica,sans-Serif" font-size="10.00">_select_page()</text>
<text text-anchor="start" x="9.5" y="-81.5" font-family="Helvetica,sans-Serif" font-size="10.00">#</text>
<text text-anchor="start" x="28" y="-81.5" font-family="Helvetica,sans-Serif" font-size="10.00">_read_string()</text>
<text text-anchor="start" x="9.5" y="-66.5" font-family="Helvetica,sans-Serif" font-size="10.00">#</text>
<text text-anchor="start" x="28" y="-66.5" font-family="Helvetica,sans-Serif" font-size="10.00">_read_word()</text>
<text text-anchor="start" x="9.5" y="-51.5" font-family="Helvetica,sans-Serif" font-size="10.00">#</text>
<text text-anchor="start" x="28" y="-51.5" font-family="Helvetica,sans-Serif" font-size="10.00">_decode_temperature()</text>
<text text-anchor="start" x="9.5" y="-36.5" font-family="Helvetica,sans-Serif" font-size="10.00">#</text>
<text text-anchor="start" x="28" y="-36.5" font-family="Helvetica,sans-Serif" font-size="10.00">_decode_voltage()</text>
<text text-anchor="start" x="9.5" y="-21.5" font-family="Helvetica,sans-Serif" font-size="10.00">#</text>
<text text-anchor="start" x="28" y="-21.5" font-family="Helvetica,sans-Serif" font-size="10.00">_decode_bias()</text>
<text text-anchor="start" x="9.5" y="-6.5" font-family="Helvetica,sans-Serif" font-size="10.00">#</text>
<text text-anchor="start" x="28" y="-6.5" font-family="Helvetica,sans-Serif" font-size="10.00">_decode_power()</text>
<polygon fill="#666666" stroke="#666666" points="0,-301.5 0,-301.5 160,-301.5 160,-301.5 0,-301.5"/>
<polygon fill="#666666" stroke="#666666" points="0,-241.5 0,-241.5 26,-241.5 26,-241.5 0,-241.5"/>
<polygon fill="#666666" stroke="#666666" points="26,-241.5 26,-241.5 160,-241.5 160,-241.5 26,-241.5"/>
<polygon fill="none" stroke="#666666" points="0,0 0,-319 160,-319 160,0 0,0"/>
</a>
</g>
</g>
<!-- Node2 -->
<g id="Node000002" class="node">
<title>Node2</title>
<g id="a_Node000002"><a xlink:href="classsrc_1_1modules_1_1base_1_1BaseModule.html" target="_top" xlink:title=" ">
<polygon fill="white" stroke="transparent" points="159.5,-569 0.5,-569 0.5,-355 159.5,-355 159.5,-569"/>
<text text-anchor="start" x="6" y="-557" font-family="Helvetica,sans-Serif" font-size="10.00">src.modules.base.BaseModule</text>
<text text-anchor="start" x="10.5" y="-542" font-family="Helvetica,sans-Serif" font-size="10.00">+</text>
<text text-anchor="start" x="29" y="-542" font-family="Helvetica,sans-Serif" font-size="10.00">hw</text>
<text text-anchor="start" x="10.5" y="-527" font-family="Helvetica,sans-Serif" font-size="10.00">#</text>
<text text-anchor="start" x="29" y="-527" font-family="Helvetica,sans-Serif" font-size="10.00">_supported_capabilities</text>
<text text-anchor="start" x="10.5" y="-512" font-family="Helvetica,sans-Serif" font-size="10.00">+</text>
<text text-anchor="start" x="29" y="-512" font-family="Helvetica,sans-Serif" font-size="10.00">__init__()</text>
<text text-anchor="start" x="10.5" y="-497" font-family="Helvetica,sans-Serif" font-size="10.00">+</text>
<text text-anchor="start" x="29" y="-497" font-family="Helvetica,sans-Serif" font-size="10.00">initialize()</text>
<text text-anchor="start" x="10.5" y="-482" font-family="Helvetica,sans-Serif" font-size="10.00">+</text>
<text text-anchor="start" x="29" y="-482" font-family="Helvetica,sans-Serif" font-size="10.00">get_identification()</text>
<text text-anchor="start" x="10.5" y="-467" font-family="Helvetica,sans-Serif" font-size="10.00">+</text>
<text text-anchor="start" x="29" y="-467" font-family="Helvetica,sans-Serif" font-size="10.00">get_status()</text>
<text text-anchor="start" x="10.5" y="-452" font-family="Helvetica,sans-Serif" font-size="10.00">+</text>
<text text-anchor="start" x="29" y="-452" font-family="Helvetica,sans-Serif" font-size="10.00">get_capabilities()</text>
<text text-anchor="start" x="10.5" y="-437" font-family="Helvetica,sans-Serif" font-size="10.00">+</text>
<text text-anchor="start" x="29" y="-437" font-family="Helvetica,sans-Serif" font-size="10.00">has_capability()</text>
<text text-anchor="start" x="10.5" y="-422" font-family="Helvetica,sans-Serif" font-size="10.00">+</text>
<text text-anchor="start" x="29" y="-422" font-family="Helvetica,sans-Serif" font-size="10.00">validate_capabilities()</text>
<text text-anchor="start" x="10.5" y="-407" font-family="Helvetica,sans-Serif" font-size="10.00">+</text>
<text text-anchor="start" x="29" y="-407" font-family="Helvetica,sans-Serif" font-size="10.00">reset()</text>
<text text-anchor="start" x="10.5" y="-392" font-family="Helvetica,sans-Serif" font-size="10.00">+</text>
<text text-anchor="start" x="29" y="-392" font-family="Helvetica,sans-Serif" font-size="10.00">get_configuration()</text>
<text text-anchor="start" x="10.5" y="-377" font-family="Helvetica,sans-Serif" font-size="10.00">+</text>
<text text-anchor="start" x="29" y="-377" font-family="Helvetica,sans-Serif" font-size="10.00">set_configuration()</text>
<text text-anchor="start" x="10.5" y="-362" font-family="Helvetica,sans-Serif" font-size="10.00">+</text>
<text text-anchor="start" x="29" y="-362" font-family="Helvetica,sans-Serif" font-size="10.00">__str__()</text>
<polygon fill="#666666" stroke="#666666" points="1,-552 1,-552 160,-552 160,-552 1,-552"/>
<polygon fill="#666666" stroke="#666666" points="1,-522 1,-522 27,-522 27,-522 1,-522"/>
<polygon fill="#666666" stroke="#666666" points="27,-522 27,-522 160,-522 160,-522 27,-522"/>
<polygon fill="none" stroke="#666666" points="0.5,-355 0.5,-569 159.5,-569 159.5,-355 0.5,-355"/>
</a>
</g>
</g>
<!-- Node2&#45;&gt;Node1 -->
<g id="edge1_Node000001_Node000002" class="edge">
<title>Node2&#45;&gt;Node1</title>
<g id="a_edge1_Node000001_Node000002"><a xlink:title=" ">
<path fill="none" stroke="#63b8ff" d="M80,-344.51C80,-336.15 80,-327.65 80,-319.1"/>
<polygon fill="none" stroke="#63b8ff" points="76.5,-344.63 80,-354.63 83.5,-344.63 76.5,-344.63"/>
</a>
</g>
</g>
<!-- Node3 -->
<g id="Node000003" class="node">
<title>Node3</title>
<g id="a_Node000003"><a xlink:title=" ">
<polygon fill="white" stroke="transparent" points="95.5,-654 64.5,-654 64.5,-605 95.5,-605 95.5,-654"/>
<text text-anchor="start" x="70" y="-641.5" font-family="Helvetica,sans-Serif" font-size="10.00">ABC</text>
<text text-anchor="start" x="78.5" y="-626.5" font-family="Helvetica,sans-Serif" font-size="10.00"> </text>
<text text-anchor="start" x="78.5" y="-611.5" font-family="Helvetica,sans-Serif" font-size="10.00"> </text>
<polygon fill="#666666" stroke="#666666" points="65,-636.5 65,-636.5 96,-636.5 96,-636.5 65,-636.5"/>
<polygon fill="#666666" stroke="#666666" points="65,-621.5 65,-621.5 96,-621.5 96,-621.5 65,-621.5"/>
<polygon fill="none" stroke="#666666" points="64.5,-605 64.5,-654 95.5,-654 95.5,-605 64.5,-605"/>
</a>
</g>
</g>
<!-- Node3&#45;&gt;Node2 -->
<g id="edge2_Node000002_Node000003" class="edge">
<title>Node3&#45;&gt;Node2</title>
<g id="a_edge2_Node000002_Node000003"><a xlink:title=" ">
<path fill="none" stroke="#63b8ff" d="M80,-594.75C80,-586.93 80,-578.21 80,-569.07"/>
<polygon fill="none" stroke="#63b8ff" points="76.5,-594.79 80,-604.79 83.5,-594.79 76.5,-594.79"/>
</a>
</g>
</g>
</g>
</svg>
