<?xml version="1.0" encoding="UTF-8" standalone="no"?>
<!DOCTYPE svg PUBLIC "-//W3C//DTD SVG 1.1//EN"
 "http://www.w3.org/Graphics/SVG/1.1/DTD/svg11.dtd">
<!-- Generated by graphviz version 2.43.0 (0)
 -->
<!-- Title: src.hardware.hal.HardwareInterface.set_low_power_mode Pages: 1 -->
<svg width="382pt" height="86pt"
 viewBox="0.00 0.00 382.00 86.00" xmlns="http://www.w3.org/2000/svg" xmlns:xlink="http://www.w3.org/1999/xlink">
<g id="graph0" class="graph" transform="scale(1 1) rotate(0) translate(4 82)">
<title>src.hardware.hal.HardwareInterface.set_low_power_mode</title>
<!-- Node1 -->
<g id="Node000001" class="node">
<title>Node1</title>
<g id="a_Node000001"><a xlink:title=" ">
<polygon fill="#999999" stroke="#666666" points="169,-54 0,-54 0,-24 169,-24 169,-54"/>
<text text-anchor="start" x="8" y="-42" font-family="Helvetica,sans-Serif" font-size="10.00">src.hardware.hal.Hardware</text>
<text text-anchor="middle" x="84.5" y="-31" font-family="Helvetica,sans-Serif" font-size="10.00">Interface.set_low_power_mode</text>
</a>
</g>
</g>
<!-- Node2 -->
<g id="Node000002" class="node">
<title>Node2</title>
<g id="a_Node000002"><a xlink:href="classtests_1_1emulation_1_1base_1_1EmulatedModule.html#aae091aa53525508cf4d99b51cdd7745d" target="_top" xlink:title=" ">
<polygon fill="white" stroke="#666666" points="374,-78 205,-78 205,-48 374,-48 374,-78"/>
<text text-anchor="start" x="213" y="-66" font-family="Helvetica,sans-Serif" font-size="10.00">tests.emulation.base.Emulated</text>
<text text-anchor="middle" x="289.5" y="-55" font-family="Helvetica,sans-Serif" font-size="10.00">Module.set_gpio_state</text>
</a>
</g>
</g>
<!-- Node1&#45;&gt;Node2 -->
<g id="edge1_Node000001_Node000002" class="edge">
<title>Node1&#45;&gt;Node2</title>
<g id="a_edge1_Node000001_Node000002"><a xlink:title=" ">
<path fill="none" stroke="#63b8ff" d="M169.24,-48.9C177.72,-49.9 186.37,-50.93 194.94,-51.94"/>
<polygon fill="#63b8ff" stroke="#63b8ff" points="194.61,-55.42 204.95,-53.12 195.43,-48.47 194.61,-55.42"/>
</a>
</g>
</g>
<!-- Node3 -->
<g id="Node000003" class="node">
<title>Node3</title>
<g id="a_Node000003"><a xlink:href="classsrc_1_1hardware_1_1hal_1_1HardwareInterface.html#a5e5dea0ca28ff53a23a4d63d2ddebd57" target="_top" xlink:title=" ">
<polygon fill="white" stroke="#666666" points="363.5,-30 215.5,-30 215.5,0 363.5,0 363.5,-30"/>
<text text-anchor="start" x="223.5" y="-18" font-family="Helvetica,sans-Serif" font-size="10.00">src.hardware.hal.Hardware</text>
<text text-anchor="middle" x="289.5" y="-7" font-family="Helvetica,sans-Serif" font-size="10.00">Interface.set_gpio_state</text>
</a>
</g>
</g>
<!-- Node1&#45;&gt;Node3 -->
<g id="edge2_Node000001_Node000003" class="edge">
<title>Node1&#45;&gt;Node3</title>
<g id="a_edge2_Node000001_Node000003"><a xlink:title=" ">
<path fill="none" stroke="#63b8ff" d="M169.24,-29.1C181.07,-27.7 193.22,-26.26 205.04,-24.87"/>
<polygon fill="#63b8ff" stroke="#63b8ff" points="205.81,-28.3 215.33,-23.65 204.99,-21.35 205.81,-28.3"/>
</a>
</g>
</g>
</g>
</svg>
