<?xml version="1.0" encoding="UTF-8" standalone="no"?>
<!DOCTYPE svg PUBLIC "-//W3C//DTD SVG 1.1//EN"
 "http://www.w3.org/Graphics/SVG/1.1/DTD/svg11.dtd">
<!-- Generated by graphviz version 2.43.0 (0)
 -->
<!-- Title: src.hardware.hal.HardwareInterface.set_gpio_state Pages: 1 -->
<svg width="361pt" height="86pt"
 viewBox="0.00 0.00 361.00 86.00" xmlns="http://www.w3.org/2000/svg" xmlns:xlink="http://www.w3.org/1999/xlink">
<g id="graph0" class="graph" transform="scale(1 1) rotate(0) translate(4 82)">
<title>src.hardware.hal.HardwareInterface.set_gpio_state</title>
<!-- Node1 -->
<g id="Node000001" class="node">
<title>Node1</title>
<g id="a_Node000001"><a xlink:title=" ">
<polygon fill="#999999" stroke="#666666" points="353,-54 205,-54 205,-24 353,-24 353,-54"/>
<text text-anchor="start" x="213" y="-42" font-family="Helvetica,sans-Serif" font-size="10.00">src.hardware.hal.Hardware</text>
<text text-anchor="middle" x="279" y="-31" font-family="Helvetica,sans-Serif" font-size="10.00">Interface.set_gpio_state</text>
</a>
</g>
</g>
<!-- Node2 -->
<g id="Node000002" class="node">
<title>Node2</title>
<g id="a_Node000002"><a xlink:href="classsrc_1_1hardware_1_1hal_1_1HardwareInterface.html#a3e08a23f219082451391ea1afd680b87" target="_top" xlink:title=" ">
<polygon fill="white" stroke="#666666" points="158.5,-78 10.5,-78 10.5,-48 158.5,-48 158.5,-78"/>
<text text-anchor="start" x="18.5" y="-66" font-family="Helvetica,sans-Serif" font-size="10.00">src.hardware.hal.Hardware</text>
<text text-anchor="middle" x="84.5" y="-55" font-family="Helvetica,sans-Serif" font-size="10.00">Interface.reset_module</text>
</a>
</g>
</g>
<!-- Node1&#45;&gt;Node2 -->
<g id="edge1_Node000001_Node000002" class="edge">
<title>Node1&#45;&gt;Node2</title>
<g id="a_edge1_Node000001_Node000002"><a xlink:title=" ">
<path fill="none" stroke="#63b8ff" d="M194.87,-49.36C182.77,-50.87 170.38,-52.42 158.5,-53.9"/>
<polygon fill="#63b8ff" stroke="#63b8ff" points="195.46,-52.82 204.95,-48.11 194.59,-45.87 195.46,-52.82"/>
</a>
</g>
</g>
<!-- Node3 -->
<g id="Node000003" class="node">
<title>Node3</title>
<g id="a_Node000003"><a xlink:href="classsrc_1_1hardware_1_1hal_1_1HardwareInterface.html#af1ae02974d746372d751aaa09be9c945" target="_top" xlink:title=" ">
<polygon fill="white" stroke="#666666" points="169,-30 0,-30 0,0 169,0 169,-30"/>
<text text-anchor="start" x="8" y="-18" font-family="Helvetica,sans-Serif" font-size="10.00">src.hardware.hal.Hardware</text>
<text text-anchor="middle" x="84.5" y="-7" font-family="Helvetica,sans-Serif" font-size="10.00">Interface.set_low_power_mode</text>
</a>
</g>
</g>
<!-- Node1&#45;&gt;Node3 -->
<g id="edge2_Node000001_Node000003" class="edge">
<title>Node1&#45;&gt;Node3</title>
<g id="a_edge2_Node000001_Node000003"><a xlink:title=" ">
<path fill="none" stroke="#63b8ff" d="M194.98,-28.65C186.42,-27.58 177.71,-26.5 169.14,-25.43"/>
<polygon fill="#63b8ff" stroke="#63b8ff" points="194.59,-32.13 204.95,-29.89 195.46,-25.18 194.59,-32.13"/>
</a>
</g>
</g>
</g>
</svg>
