<?xml version="1.0" encoding="UTF-8" standalone="no"?>
<!DOCTYPE svg PUBLIC "-//W3C//DTD SVG 1.1//EN"
 "http://www.w3.org/Graphics/SVG/1.1/DTD/svg11.dtd">
<!-- Generated by graphviz version 2.43.0 (0)
 -->
<!-- Title: src.modules.base.BaseModule Pages: 1 -->
<svg width="167pt" height="307pt"
 viewBox="0.00 0.00 167.00 307.00" xmlns="http://www.w3.org/2000/svg" xmlns:xlink="http://www.w3.org/1999/xlink">
<g id="graph0" class="graph" transform="scale(1 1) rotate(0) translate(4 303)">
<title>src.modules.base.BaseModule</title>
<!-- Node1 -->
<g id="Node000001" class="node">
<title>Node1</title>
<g id="a_Node000001"><a xlink:title=" ">
<polygon fill="#999999" stroke="transparent" points="159,-214 0,-214 0,0 159,0 159,-214"/>
<text text-anchor="start" x="5.5" y="-202" font-family="Helvetica,sans-Serif" font-size="10.00">src.modules.base.BaseModule</text>
<text text-anchor="start" x="10" y="-187" font-family="Helvetica,sans-Serif" font-size="10.00">+</text>
<text text-anchor="start" x="28.5" y="-187" font-family="Helvetica,sans-Serif" font-size="10.00">hw</text>
<text text-anchor="start" x="10" y="-172" font-family="Helvetica,sans-Serif" font-size="10.00">#</text>
<text text-anchor="start" x="28.5" y="-172" font-family="Helvetica,sans-Serif" font-size="10.00">_supported_capabilities</text>
<text text-anchor="start" x="10" y="-157" font-family="Helvetica,sans-Serif" font-size="10.00">+</text>
<text text-anchor="start" x="28.5" y="-157" font-family="Helvetica,sans-Serif" font-size="10.00">__init__()</text>
<text text-anchor="start" x="10" y="-142" font-family="Helvetica,sans-Serif" font-size="10.00">+</text>
<text text-anchor="start" x="28.5" y="-142" font-family="Helvetica,sans-Serif" font-size="10.00">initialize()</text>
<text text-anchor="start" x="10" y="-127" font-family="Helvetica,sans-Serif" font-size="10.00">+</text>
<text text-anchor="start" x="28.5" y="-127" font-family="Helvetica,sans-Serif" font-size="10.00">get_identification()</text>
<text text-anchor="start" x="10" y="-112" font-family="Helvetica,sans-Serif" font-size="10.00">+</text>
<text text-anchor="start" x="28.5" y="-112" font-family="Helvetica,sans-Serif" font-size="10.00">get_status()</text>
<text text-anchor="start" x="10" y="-97" font-family="Helvetica,sans-Serif" font-size="10.00">+</text>
<text text-anchor="start" x="28.5" y="-97" font-family="Helvetica,sans-Serif" font-size="10.00">get_capabilities()</text>
<text text-anchor="start" x="10" y="-82" font-family="Helvetica,sans-Serif" font-size="10.00">+</text>
<text text-anchor="start" x="28.5" y="-82" font-family="Helvetica,sans-Serif" font-size="10.00">has_capability()</text>
<text text-anchor="start" x="10" y="-67" font-family="Helvetica,sans-Serif" font-size="10.00">+</text>
<text text-anchor="start" x="28.5" y="-67" font-family="Helvetica,sans-Serif" font-size="10.00">validate_capabilities()</text>
<text text-anchor="start" x="10" y="-52" font-family="Helvetica,sans-Serif" font-size="10.00">+</text>
<text text-anchor="start" x="28.5" y="-52" font-family="Helvetica,sans-Serif" font-size="10.00">reset()</text>
<text text-anchor="start" x="10" y="-37" font-family="Helvetica,sans-Serif" font-size="10.00">+</text>
<text text-anchor="start" x="28.5" y="-37" font-family="Helvetica,sans-Serif" font-size="10.00">get_configuration()</text>
<text text-anchor="start" x="10" y="-22" font-family="Helvetica,sans-Serif" font-size="10.00">+</text>
<text text-anchor="start" x="28.5" y="-22" font-family="Helvetica,sans-Serif" font-size="10.00">set_configuration()</text>
<text text-anchor="start" x="10" y="-7" font-family="Helvetica,sans-Serif" font-size="10.00">+</text>
<text text-anchor="start" x="28.5" y="-7" font-family="Helvetica,sans-Serif" font-size="10.00">__str__()</text>
<polygon fill="#666666" stroke="#666666" points="0.5,-197 0.5,-197 159.5,-197 159.5,-197 0.5,-197"/>
<polygon fill="#666666" stroke="#666666" points="0.5,-167 0.5,-167 26.5,-167 26.5,-167 0.5,-167"/>
<polygon fill="#666666" stroke="#666666" points="26.5,-167 26.5,-167 159.5,-167 159.5,-167 26.5,-167"/>
<polygon fill="none" stroke="#666666" points="0,0 0,-214 159,-214 159,0 0,0"/>
</a>
</g>
</g>
<!-- Node2 -->
<g id="Node000002" class="node">
<title>Node2</title>
<g id="a_Node000002"><a xlink:title=" ">
<polygon fill="white" stroke="transparent" points="95,-299 64,-299 64,-250 95,-250 95,-299"/>
<text text-anchor="start" x="69.5" y="-286.5" font-family="Helvetica,sans-Serif" font-size="10.00">ABC</text>
<text text-anchor="start" x="78" y="-271.5" font-family="Helvetica,sans-Serif" font-size="10.00"> </text>
<text text-anchor="start" x="78" y="-256.5" font-family="Helvetica,sans-Serif" font-size="10.00"> </text>
<polygon fill="#666666" stroke="#666666" points="64.5,-281.5 64.5,-281.5 95.5,-281.5 95.5,-281.5 64.5,-281.5"/>
<polygon fill="#666666" stroke="#666666" points="64.5,-266.5 64.5,-266.5 95.5,-266.5 95.5,-266.5 64.5,-266.5"/>
<polygon fill="none" stroke="#666666" points="64,-250 64,-299 95,-299 95,-250 64,-250"/>
</a>
</g>
</g>
<!-- Node2&#45;&gt;Node1 -->
<g id="edge1_Node000001_Node000002" class="edge">
<title>Node2&#45;&gt;Node1</title>
<g id="a_edge1_Node000001_Node000002"><a xlink:title=" ">
<path fill="none" stroke="#63b8ff" d="M79.5,-239.75C79.5,-231.93 79.5,-223.21 79.5,-214.07"/>
<polygon fill="none" stroke="#63b8ff" points="76,-239.79 79.5,-249.79 83,-239.79 76,-239.79"/>
</a>
</g>
</g>
</g>
</svg>
