<?xml version="1.0" encoding="UTF-8" standalone="no"?>
<!DOCTYPE svg PUBLIC "-//W3C//DTD SVG 1.1//EN"
 "http://www.w3.org/Graphics/SVG/1.1/DTD/svg11.dtd">
<!-- Generated by graphviz version 2.43.0 (0)
 -->
<!-- Title: src.modules.sff.SFFModule.set_configuration Pages: 1 -->
<svg width="395pt" height="134pt"
 viewBox="0.00 0.00 395.00 134.00" xmlns="http://www.w3.org/2000/svg" xmlns:xlink="http://www.w3.org/1999/xlink">
<g id="graph0" class="graph" transform="scale(1 1) rotate(0) translate(4 130)">
<title>src.modules.sff.SFFModule.set_configuration</title>
<!-- Node1 -->
<g id="Node000001" class="node">
<title>Node1</title>
<g id="a_Node000001"><a xlink:title=" ">
<polygon fill="#999999" stroke="#666666" points="166,-78 0,-78 0,-48 166,-48 166,-78"/>
<text text-anchor="start" x="8" y="-66" font-family="Helvetica,sans-Serif" font-size="10.00">src.modules.sff.SFFModule.set</text>
<text text-anchor="middle" x="83" y="-55" font-family="Helvetica,sans-Serif" font-size="10.00">_configuration</text>
</a>
</g>
</g>
<!-- Node2 -->
<g id="Node000002" class="node">
<title>Node2</title>
<g id="a_Node000002"><a xlink:href="classsrc_1_1modules_1_1sff_1_1SFFModule.html#a38587a2bfb5ab9e015d7b28d904f24d4" target="_top" xlink:title=" ">
<polygon fill="white" stroke="#666666" points="370,-126 219,-126 219,-96 370,-96 370,-126"/>
<text text-anchor="start" x="227" y="-114" font-family="Helvetica,sans-Serif" font-size="10.00">src.modules.sff.SFFModule.</text>
<text text-anchor="middle" x="294.5" y="-103" font-family="Helvetica,sans-Serif" font-size="10.00">_set_alarm_thresholds</text>
</a>
</g>
</g>
<!-- Node1&#45;&gt;Node2 -->
<g id="edge1_Node000001_Node000002" class="edge">
<title>Node1&#45;&gt;Node2</title>
<g id="a_edge1_Node000001_Node000002"><a xlink:title=" ">
<path fill="none" stroke="#63b8ff" d="M149.71,-78.06C171.45,-83.04 195.82,-88.62 218.22,-93.75"/>
<polygon fill="#63b8ff" stroke="#63b8ff" points="217.49,-97.18 228.02,-96 219.06,-90.35 217.49,-97.18"/>
</a>
</g>
</g>
<!-- Node3 -->
<g id="Node000003" class="node">
<title>Node3</title>
<g id="a_Node000003"><a xlink:href="classsrc_1_1modules_1_1sff_1_1SFFModule.html#a58b465adf185a23e0a71adf5382d5426" target="_top" xlink:title=" ">
<polygon fill="white" stroke="#666666" points="370,-78 219,-78 219,-48 370,-48 370,-78"/>
<text text-anchor="start" x="227" y="-66" font-family="Helvetica,sans-Serif" font-size="10.00">src.modules.sff.SFFModule.</text>
<text text-anchor="middle" x="294.5" y="-55" font-family="Helvetica,sans-Serif" font-size="10.00">_set_tx_disable</text>
</a>
</g>
</g>
<!-- Node1&#45;&gt;Node3 -->
<g id="edge2_Node000001_Node000003" class="edge">
<title>Node1&#45;&gt;Node3</title>
<g id="a_edge2_Node000001_Node000003"><a xlink:title=" ">
<path fill="none" stroke="#63b8ff" d="M166.2,-63C180.13,-63 194.61,-63 208.61,-63"/>
<polygon fill="#63b8ff" stroke="#63b8ff" points="208.7,-66.5 218.7,-63 208.7,-59.5 208.7,-66.5"/>
</a>
</g>
</g>
<!-- Node4 -->
<g id="Node000004" class="node">
<title>Node4</title>
<g id="a_Node000004"><a xlink:href="classsrc_1_1modules_1_1base_1_1BaseModule.html#a6bb8e32dd8de03f2b3529d499d6f07af" target="_top" xlink:title=" ">
<polygon fill="white" stroke="#666666" points="387,-30 202,-30 202,0 387,0 387,-30"/>
<text text-anchor="start" x="210" y="-18" font-family="Helvetica,sans-Serif" font-size="10.00">src.modules.base.BaseModule.has</text>
<text text-anchor="middle" x="294.5" y="-7" font-family="Helvetica,sans-Serif" font-size="10.00">_capability</text>
</a>
</g>
</g>
<!-- Node1&#45;&gt;Node4 -->
<g id="edge3_Node000001_Node000004" class="edge">
<title>Node1&#45;&gt;Node4</title>
<g id="a_edge3_Node000001_Node000004"><a xlink:title=" ">
<path fill="none" stroke="#63b8ff" d="M149.71,-47.94C171.45,-42.96 195.82,-37.38 218.22,-32.25"/>
<polygon fill="#63b8ff" stroke="#63b8ff" points="219.06,-35.65 228.02,-30 217.49,-28.82 219.06,-35.65"/>
</a>
</g>
</g>
</g>
</svg>
