<?xml version="1.0" encoding="UTF-8" standalone="no"?>
<!DOCTYPE svg PUBLIC "-//W3C//DTD SVG 1.1//EN"
 "http://www.w3.org/Graphics/SVG/1.1/DTD/svg11.dtd">
<!-- Generated by graphviz version 2.43.0 (0)
 -->
<!-- Title: src.modules.cmis.CMISModule._select_page Pages: 1 -->
<svg width="628pt" height="220pt"
 viewBox="0.00 0.00 628.00 220.00" xmlns="http://www.w3.org/2000/svg" xmlns:xlink="http://www.w3.org/1999/xlink">
<g id="graph0" class="graph" transform="scale(1 1) rotate(0) translate(4 216)">
<title>src.modules.cmis.CMISModule._select_page</title>
<!-- Node1 -->
<g id="Node000001" class="node">
<title>Node1</title>
<g id="a_Node000001"><a xlink:title=" ">
<polygon fill="#999999" stroke="#666666" points="620,-116 451,-116 451,-86 620,-86 620,-116"/>
<text text-anchor="start" x="459" y="-104" font-family="Helvetica,sans-Serif" font-size="10.00">src.modules.cmis.CMISModule.</text>
<text text-anchor="middle" x="535.5" y="-93" font-family="Helvetica,sans-Serif" font-size="10.00">_select_page</text>
</a>
</g>
</g>
<!-- Node2 -->
<g id="Node000002" class="node">
<title>Node2</title>
<g id="a_Node000002"><a xlink:href="classsrc_1_1modules_1_1cmis_1_1CMISModule.html#a33b10a4b1376fcfe2ed6aebb2465014b" target="_top" xlink:title=" ">
<polygon fill="white" stroke="#666666" points="402,-212 217,-212 217,-182 402,-182 402,-212"/>
<text text-anchor="start" x="225" y="-200" font-family="Helvetica,sans-Serif" font-size="10.00">src.modules.cmis.CMISModule.get</text>
<text text-anchor="middle" x="309.5" y="-189" font-family="Helvetica,sans-Serif" font-size="10.00">_configuration</text>
</a>
</g>
</g>
<!-- Node1&#45;&gt;Node2 -->
<g id="edge1_Node000001_Node000002" class="edge">
<title>Node1&#45;&gt;Node2</title>
<g id="a_edge1_Node000001_Node000002"><a xlink:title=" ">
<path fill="none" stroke="#63b8ff" d="M505.58,-122.02C482.19,-138.11 447.86,-159.72 415,-173 406.63,-176.38 397.68,-179.34 388.67,-181.92"/>
<polygon fill="#63b8ff" stroke="#63b8ff" points="507.79,-124.74 513.98,-116.15 503.78,-119 507.79,-124.74"/>
</a>
</g>
</g>
<!-- Node3 -->
<g id="Node000003" class="node">
<title>Node3</title>
<g id="a_Node000003"><a xlink:href="classsrc_1_1modules_1_1cmis_1_1CMISModule.html#a3ae7ef885da8e96e9631a7d38206238b" target="_top" xlink:title=" ">
<polygon fill="white" stroke="#666666" points="402,-164 217,-164 217,-134 402,-134 402,-164"/>
<text text-anchor="start" x="225" y="-152" font-family="Helvetica,sans-Serif" font-size="10.00">src.modules.cmis.CMISModule.get</text>
<text text-anchor="middle" x="309.5" y="-141" font-family="Helvetica,sans-Serif" font-size="10.00">_identification</text>
</a>
</g>
</g>
<!-- Node1&#45;&gt;Node3 -->
<g id="edge2_Node000001_Node000003" class="edge">
<title>Node1&#45;&gt;Node3</title>
<g id="a_edge2_Node000001_Node000003"><a xlink:title=" ">
<path fill="none" stroke="#63b8ff" d="M454.4,-118.17C430.25,-123.34 403.95,-128.98 380.51,-134"/>
<polygon fill="#63b8ff" stroke="#63b8ff" points="455.19,-121.57 464.24,-116.06 453.73,-114.73 455.19,-121.57"/>
</a>
</g>
</g>
<!-- Node5 -->
<g id="Node000005" class="node">
<title>Node5</title>
<g id="a_Node000005"><a xlink:href="classsrc_1_1modules_1_1cmis_1_1CMISModule.html#a4ee4bb9014d315a32cb2e5e8477a3a85" target="_top" xlink:title=" ">
<polygon fill="white" stroke="#666666" points="402,-116 217,-116 217,-86 402,-86 402,-116"/>
<text text-anchor="start" x="225" y="-104" font-family="Helvetica,sans-Serif" font-size="10.00">src.modules.cmis.CMISModule.get</text>
<text text-anchor="middle" x="309.5" y="-93" font-family="Helvetica,sans-Serif" font-size="10.00">_status</text>
</a>
</g>
</g>
<!-- Node1&#45;&gt;Node5 -->
<g id="edge4_Node000001_Node000005" class="edge">
<title>Node1&#45;&gt;Node5</title>
<g id="a_edge4_Node000001_Node000005"><a xlink:title=" ">
<path fill="none" stroke="#63b8ff" d="M440.61,-101C427.84,-101 414.74,-101 402.01,-101"/>
<polygon fill="#63b8ff" stroke="#63b8ff" points="440.77,-104.5 450.77,-101 440.77,-97.5 440.77,-104.5"/>
</a>
</g>
</g>
<!-- Node6 -->
<g id="Node000006" class="node">
<title>Node6</title>
<g id="a_Node000006"><a xlink:href="classsrc_1_1modules_1_1cmis_1_1CMISModule.html#ade49f6179198cba73b212fafef3e32a7" target="_top" xlink:title=" ">
<polygon fill="white" stroke="#666666" points="415,-67.5 204,-67.5 204,-48.5 415,-48.5 415,-67.5"/>
<text text-anchor="middle" x="309.5" y="-55.5" font-family="Helvetica,sans-Serif" font-size="10.00">src.modules.cmis.CMISModule.initialize</text>
</a>
</g>
</g>
<!-- Node1&#45;&gt;Node6 -->
<g id="edge5_Node000001_Node000006" class="edge">
<title>Node1&#45;&gt;Node6</title>
<g id="a_edge5_Node000001_Node000006"><a xlink:title=" ">
<path fill="none" stroke="#63b8ff" d="M450.62,-83.95C438.67,-81.58 426.53,-79.21 415,-77 398.43,-73.83 380.35,-70.5 363.97,-67.53"/>
<polygon fill="#63b8ff" stroke="#63b8ff" points="450.11,-87.42 460.6,-85.94 451.47,-80.55 450.11,-87.42"/>
</a>
</g>
</g>
<!-- Node7 -->
<g id="Node000007" class="node">
<title>Node7</title>
<g id="a_Node000007"><a xlink:href="classsrc_1_1modules_1_1cmis_1_1CMISModule.html#ad63e182d3b08a2f8af670fa4bedffb9d" target="_top" xlink:title=" ">
<polygon fill="white" stroke="#666666" points="401.5,-30 217.5,-30 217.5,0 401.5,0 401.5,-30"/>
<text text-anchor="start" x="225.5" y="-18" font-family="Helvetica,sans-Serif" font-size="10.00">src.modules.cmis.CMISModule.set</text>
<text text-anchor="middle" x="309.5" y="-7" font-family="Helvetica,sans-Serif" font-size="10.00">_configuration</text>
</a>
</g>
</g>
<!-- Node1&#45;&gt;Node7 -->
<g id="edge6_Node000001_Node000007" class="edge">
<title>Node1&#45;&gt;Node7</title>
<g id="a_edge6_Node000001_Node000007"><a xlink:title=" ">
<path fill="none" stroke="#63b8ff" d="M500.37,-80.82C476.98,-67.7 444.9,-51.03 415,-40 404.85,-36.26 393.93,-32.92 383.12,-30.01"/>
<polygon fill="#63b8ff" stroke="#63b8ff" points="498.77,-83.94 509.19,-85.84 502.23,-77.86 498.77,-83.94"/>
</a>
</g>
</g>
<!-- Node4 -->
<g id="Node000004" class="node">
<title>Node4</title>
<g id="a_Node000004"><a xlink:href="classsrc_1_1modules_1_1base_1_1BaseModule.html#a04a652c82696275aad617e5e5d18e02b" target="_top" xlink:title=" ">
<polygon fill="white" stroke="#666666" points="168,-164 0,-164 0,-134 168,-134 168,-164"/>
<text text-anchor="start" x="8" y="-152" font-family="Helvetica,sans-Serif" font-size="10.00">src.modules.base.BaseModule.</text>
<text text-anchor="middle" x="84" y="-141" font-family="Helvetica,sans-Serif" font-size="10.00">__str__</text>
</a>
</g>
</g>
<!-- Node3&#45;&gt;Node4 -->
<g id="edge3_Node000003_Node000004" class="edge">
<title>Node3&#45;&gt;Node4</title>
<g id="a_edge3_Node000003_Node000004"><a xlink:title=" ">
<path fill="none" stroke="#63b8ff" d="M206.66,-149C193.77,-149 180.7,-149 168.15,-149"/>
<polygon fill="#63b8ff" stroke="#63b8ff" points="206.95,-152.5 216.95,-149 206.95,-145.5 206.95,-152.5"/>
</a>
</g>
</g>
</g>
</svg>
