<?xml version="1.0" encoding="UTF-8" standalone="no"?>
<!DOCTYPE svg PUBLIC "-//W3C//DTD SVG 1.1//EN"
 "http://www.w3.org/Graphics/SVG/1.1/DTD/svg11.dtd">
<!-- Generated by graphviz version 2.43.0 (0)
 -->
<!-- Title: sff_8024_mem.OSFP_MemoryMap Pages: 1 -->
<svg width="186pt" height="72pt"
 viewBox="0.00 0.00 186.00 72.00" xmlns="http://www.w3.org/2000/svg" xmlns:xlink="http://www.w3.org/1999/xlink">
<g id="graph0" class="graph" transform="scale(1 1) rotate(0) translate(4 68)">
<title>sff_8024_mem.OSFP_MemoryMap</title>
<!-- Node1 -->
<g id="Node000001" class="node">
<title>Node1</title>
<g id="a_Node000001"><a xlink:title=" ">
<polygon fill="#999999" stroke="transparent" points="178,-64 0,-64 0,0 178,0 178,-64"/>
<text text-anchor="start" x="5" y="-52" font-family="Helvetica,sans-Serif" font-size="10.00">sff_8024_mem.OSFP_MemoryMap</text>
<text text-anchor="start" x="32" y="-37" font-family="Helvetica,sans-Serif" font-size="10.00">+</text>
<text text-anchor="start" x="73" y="-37" font-family="Helvetica,sans-Serif" font-size="10.00">page00h</text>
<text text-anchor="start" x="32" y="-22" font-family="Helvetica,sans-Serif" font-size="10.00">+</text>
<text text-anchor="start" x="73" y="-22" font-family="Helvetica,sans-Serif" font-size="10.00">__init__()</text>
<text text-anchor="start" x="32" y="-7" font-family="Helvetica,sans-Serif" font-size="10.00">+</text>
<text text-anchor="start" x="73" y="-7" font-family="Helvetica,sans-Serif" font-size="10.00">to_dict()</text>
<polygon fill="#666666" stroke="#666666" points="0,-47 0,-47 178,-47 178,-47 0,-47"/>
<polygon fill="#666666" stroke="#666666" points="0,-32 0,-32 71,-32 71,-32 0,-32"/>
<polygon fill="#666666" stroke="#666666" points="71,-32 71,-32 178,-32 178,-32 71,-32"/>
<polygon fill="none" stroke="#666666" points="0,0 0,-64 178,-64 178,0 0,0"/>
</a>
</g>
</g>
</g>
</svg>
