<?xml version="1.0" encoding="UTF-8" standalone="no"?>
<!DOCTYPE svg PUBLIC "-//W3C//DTD SVG 1.1//EN"
 "http://www.w3.org/Graphics/SVG/1.1/DTD/svg11.dtd">
<!-- Generated by graphviz version 2.43.0 (0)
 -->
<!-- Title: src.modules.sff.SFFModule._get_alarm_thresholds Pages: 1 -->
<svg width="364pt" height="278pt"
 viewBox="0.00 0.00 364.00 278.00" xmlns="http://www.w3.org/2000/svg" xmlns:xlink="http://www.w3.org/1999/xlink">
<g id="graph0" class="graph" transform="scale(1 1) rotate(0) translate(4 274)">
<title>src.modules.sff.SFFModule._get_alarm_thresholds</title>
<!-- Node1 -->
<g id="Node000001" class="node">
<title>Node1</title>
<g id="a_Node000001"><a xlink:title=" ">
<polygon fill="#999999" stroke="#666666" points="151,-150 0,-150 0,-120 151,-120 151,-150"/>
<text text-anchor="start" x="8" y="-138" font-family="Helvetica,sans-Serif" font-size="10.00">src.modules.sff.SFFModule.</text>
<text text-anchor="middle" x="75.5" y="-127" font-family="Helvetica,sans-Serif" font-size="10.00">_get_alarm_thresholds</text>
</a>
</g>
</g>
<!-- Node2 -->
<g id="Node000002" class="node">
<title>Node2</title>
<g id="a_Node000002"><a xlink:href="classsrc_1_1modules_1_1cmis_1_1CMISModule.html#a2e52928a493945775d160881310609e6" target="_top" xlink:title=" ">
<polygon fill="white" stroke="#666666" points="356,-270 187,-270 187,-240 356,-240 356,-270"/>
<text text-anchor="start" x="195" y="-258" font-family="Helvetica,sans-Serif" font-size="10.00">src.modules.cmis.CMISModule.</text>
<text text-anchor="middle" x="271.5" y="-247" font-family="Helvetica,sans-Serif" font-size="10.00">_decode_temperature</text>
</a>
</g>
</g>
<!-- Node1&#45;&gt;Node2 -->
<g id="edge1_Node000001_Node000002" class="edge">
<title>Node1&#45;&gt;Node2</title>
<g id="a_edge1_Node000001_Node000002"><a xlink:title=" ">
<path fill="none" stroke="#63b8ff" d="M89.95,-150.29C109.36,-171.43 147.25,-209.41 187,-231 190.31,-232.8 193.77,-234.47 197.31,-236.03"/>
<polygon fill="#63b8ff" stroke="#63b8ff" points="196.28,-239.39 206.87,-239.9 198.91,-232.9 196.28,-239.39"/>
</a>
</g>
</g>
<!-- Node3 -->
<g id="Node000003" class="node">
<title>Node3</title>
<g id="a_Node000003"><a xlink:href="classsrc_1_1modules_1_1sff_1_1SFFModule.html#a8fadfa018dd158d3af7de512c2a85dc2" target="_top" xlink:title=" ">
<polygon fill="white" stroke="#666666" points="347,-222 196,-222 196,-192 347,-192 347,-222"/>
<text text-anchor="start" x="204" y="-210" font-family="Helvetica,sans-Serif" font-size="10.00">src.modules.sff.SFFModule.</text>
<text text-anchor="middle" x="271.5" y="-199" font-family="Helvetica,sans-Serif" font-size="10.00">_decode_temperature</text>
</a>
</g>
</g>
<!-- Node1&#45;&gt;Node3 -->
<g id="edge2_Node000001_Node000003" class="edge">
<title>Node1&#45;&gt;Node3</title>
<g id="a_edge2_Node000001_Node000003"><a xlink:title=" ">
<path fill="none" stroke="#63b8ff" d="M108.45,-150.19C130.28,-160.25 160.03,-173.31 187,-183 192.78,-185.07 198.82,-187.1 204.91,-189.03"/>
<polygon fill="#63b8ff" stroke="#63b8ff" points="203.9,-192.38 214.48,-191.99 205.96,-185.69 203.9,-192.38"/>
</a>
</g>
</g>
<!-- Node4 -->
<g id="Node000004" class="node">
<title>Node4</title>
<g id="a_Node000004"><a xlink:href="classsrc_1_1modules_1_1cmis_1_1CMISModule.html#a1f4a9d4397232ca2cf166c74a50c00eb" target="_top" xlink:title=" ">
<polygon fill="white" stroke="#666666" points="356,-174 187,-174 187,-144 356,-144 356,-174"/>
<text text-anchor="start" x="195" y="-162" font-family="Helvetica,sans-Serif" font-size="10.00">src.modules.cmis.CMISModule.</text>
<text text-anchor="middle" x="271.5" y="-151" font-family="Helvetica,sans-Serif" font-size="10.00">_decode_voltage</text>
</a>
</g>
</g>
<!-- Node1&#45;&gt;Node4 -->
<g id="edge3_Node000001_Node000004" class="edge">
<title>Node1&#45;&gt;Node4</title>
<g id="a_edge3_Node000001_Node000004"><a xlink:title=" ">
<path fill="none" stroke="#63b8ff" d="M151.23,-144.24C159.59,-145.28 168.19,-146.34 176.75,-147.4"/>
<polygon fill="#63b8ff" stroke="#63b8ff" points="176.41,-150.89 186.77,-148.64 177.27,-143.94 176.41,-150.89"/>
</a>
</g>
</g>
<!-- Node5 -->
<g id="Node000005" class="node">
<title>Node5</title>
<g id="a_Node000005"><a xlink:href="classsrc_1_1modules_1_1sff_1_1SFFModule.html#ad676a05e85ca2bb115955df520510140" target="_top" xlink:title=" ">
<polygon fill="white" stroke="#666666" points="347,-126 196,-126 196,-96 347,-96 347,-126"/>
<text text-anchor="start" x="204" y="-114" font-family="Helvetica,sans-Serif" font-size="10.00">src.modules.sff.SFFModule.</text>
<text text-anchor="middle" x="271.5" y="-103" font-family="Helvetica,sans-Serif" font-size="10.00">_decode_voltage</text>
</a>
</g>
</g>
<!-- Node1&#45;&gt;Node5 -->
<g id="edge4_Node000001_Node000005" class="edge">
<title>Node1&#45;&gt;Node5</title>
<g id="a_edge4_Node000001_Node000005"><a xlink:title=" ">
<path fill="none" stroke="#63b8ff" d="M151.23,-125.76C162.54,-124.36 174.28,-122.9 185.78,-121.48"/>
<polygon fill="#63b8ff" stroke="#63b8ff" points="186.32,-124.94 195.81,-120.24 185.46,-117.99 186.32,-124.94"/>
</a>
</g>
</g>
<!-- Node6 -->
<g id="Node000006" class="node">
<title>Node6</title>
<g id="a_Node000006"><a xlink:href="classsrc_1_1modules_1_1cmis_1_1CMISModule.html#a27e41dccd22970678e2a32a7234ca8d6" target="_top" xlink:title=" ">
<polygon fill="white" stroke="#666666" points="356,-78 187,-78 187,-48 356,-48 356,-78"/>
<text text-anchor="start" x="195" y="-66" font-family="Helvetica,sans-Serif" font-size="10.00">src.modules.cmis.CMISModule.</text>
<text text-anchor="middle" x="271.5" y="-55" font-family="Helvetica,sans-Serif" font-size="10.00">_read_word</text>
</a>
</g>
</g>
<!-- Node1&#45;&gt;Node6 -->
<g id="edge5_Node000001_Node000006" class="edge">
<title>Node1&#45;&gt;Node6</title>
<g id="a_edge5_Node000001_Node000006"><a xlink:title=" ">
<path fill="none" stroke="#63b8ff" d="M108.45,-119.81C130.28,-109.75 160.03,-96.69 187,-87 192.78,-84.93 198.82,-82.9 204.91,-80.97"/>
<polygon fill="#63b8ff" stroke="#63b8ff" points="205.96,-84.31 214.48,-78.01 203.9,-77.62 205.96,-84.31"/>
</a>
</g>
</g>
<!-- Node7 -->
<g id="Node000007" class="node">
<title>Node7</title>
<g id="a_Node000007"><a xlink:href="classsrc_1_1modules_1_1sff_1_1SFFModule.html#ace3c41f8e23948b1d90f9e227aa1d98d" target="_top" xlink:title=" ">
<polygon fill="white" stroke="#666666" points="347,-30 196,-30 196,0 347,0 347,-30"/>
<text text-anchor="start" x="204" y="-18" font-family="Helvetica,sans-Serif" font-size="10.00">src.modules.sff.SFFModule.</text>
<text text-anchor="middle" x="271.5" y="-7" font-family="Helvetica,sans-Serif" font-size="10.00">_read_word</text>
</a>
</g>
</g>
<!-- Node1&#45;&gt;Node7 -->
<g id="edge6_Node000001_Node000007" class="edge">
<title>Node1&#45;&gt;Node7</title>
<g id="a_edge6_Node000001_Node000007"><a xlink:title=" ">
<path fill="none" stroke="#63b8ff" d="M89.95,-119.71C109.36,-98.57 147.25,-60.59 187,-39 190.31,-37.2 193.77,-35.53 197.31,-33.97"/>
<polygon fill="#63b8ff" stroke="#63b8ff" points="198.91,-37.1 206.87,-30.1 196.28,-30.61 198.91,-37.1"/>
</a>
</g>
</g>
</g>
</svg>
