<?xml version="1.0" encoding="UTF-8" standalone="no"?>
<!DOCTYPE svg PUBLIC "-//W3C//DTD SVG 1.1//EN"
 "http://www.w3.org/Graphics/SVG/1.1/DTD/svg11.dtd">
<!-- Generated by graphviz version 2.43.0 (0)
 -->
<!-- Title: tests.emulation.base.MemoryMap Pages: 1 -->
<svg width="186pt" height="192pt"
 viewBox="0.00 0.00 186.00 192.00" xmlns="http://www.w3.org/2000/svg" xmlns:xlink="http://www.w3.org/1999/xlink">
<g id="graph0" class="graph" transform="scale(1 1) rotate(0) translate(4 188)">
<title>tests.emulation.base.MemoryMap</title>
<!-- Node1 -->
<g id="Node000001" class="node">
<title>Node1</title>
<g id="a_Node000001"><a xlink:title="Represents a module&#39;s memory map.">
<polygon fill="#999999" stroke="transparent" points="178,-184 0,-184 0,0 178,0 178,-184"/>
<text text-anchor="start" x="5" y="-172" font-family="Helvetica,sans-Serif" font-size="10.00">tests.emulation.base.MemoryMap</text>
<text text-anchor="start" x="25" y="-157" font-family="Helvetica,sans-Serif" font-size="10.00">#</text>
<text text-anchor="start" x="59" y="-157" font-family="Helvetica,sans-Serif" font-size="10.00">_current_page</text>
<text text-anchor="start" x="25" y="-142" font-family="Helvetica,sans-Serif" font-size="10.00">#</text>
<text text-anchor="start" x="59" y="-142" font-family="Helvetica,sans-Serif" font-size="10.00">_size</text>
<text text-anchor="start" x="25" y="-127" font-family="Helvetica,sans-Serif" font-size="10.00">+</text>
<text text-anchor="start" x="59" y="-127" font-family="Helvetica,sans-Serif" font-size="10.00">__init__()</text>
<text text-anchor="start" x="25" y="-112" font-family="Helvetica,sans-Serif" font-size="10.00">+</text>
<text text-anchor="start" x="59" y="-112" font-family="Helvetica,sans-Serif" font-size="10.00">add_page()</text>
<text text-anchor="start" x="25" y="-97" font-family="Helvetica,sans-Serif" font-size="10.00">+</text>
<text text-anchor="start" x="59" y="-97" font-family="Helvetica,sans-Serif" font-size="10.00">current_page()</text>
<text text-anchor="start" x="25" y="-82" font-family="Helvetica,sans-Serif" font-size="10.00">+</text>
<text text-anchor="start" x="59" y="-82" font-family="Helvetica,sans-Serif" font-size="10.00">select_page()</text>
<text text-anchor="start" x="25" y="-67" font-family="Helvetica,sans-Serif" font-size="10.00">+</text>
<text text-anchor="start" x="59" y="-67" font-family="Helvetica,sans-Serif" font-size="10.00">read_byte()</text>
<text text-anchor="start" x="25" y="-52" font-family="Helvetica,sans-Serif" font-size="10.00">+</text>
<text text-anchor="start" x="59" y="-52" font-family="Helvetica,sans-Serif" font-size="10.00">write_byte()</text>
<text text-anchor="start" x="25" y="-37" font-family="Helvetica,sans-Serif" font-size="10.00">+</text>
<text text-anchor="start" x="59" y="-37" font-family="Helvetica,sans-Serif" font-size="10.00">write_bytes()</text>
<text text-anchor="start" x="25" y="-22" font-family="Helvetica,sans-Serif" font-size="10.00">+</text>
<text text-anchor="start" x="59" y="-22" font-family="Helvetica,sans-Serif" font-size="10.00">read_word()</text>
<text text-anchor="start" x="25" y="-7" font-family="Helvetica,sans-Serif" font-size="10.00">+</text>
<text text-anchor="start" x="59" y="-7" font-family="Helvetica,sans-Serif" font-size="10.00">write_word()</text>
<polygon fill="#666666" stroke="#666666" points="0,-167 0,-167 178,-167 178,-167 0,-167"/>
<polygon fill="#666666" stroke="#666666" points="0,-137 0,-137 57,-137 57,-137 0,-137"/>
<polygon fill="#666666" stroke="#666666" points="57,-137 57,-137 178,-137 178,-137 57,-137"/>
<polygon fill="none" stroke="#666666" points="0,0 0,-184 178,-184 178,0 0,0"/>
</a>
</g>
</g>
</g>
</svg>
