<?xml version="1.0" encoding="UTF-8" standalone="no"?>
<!DOCTYPE svg PUBLIC "-//W3C//DTD SVG 1.1//EN"
 "http://www.w3.org/Graphics/SVG/1.1/DTD/svg11.dtd">
<!-- Generated by graphviz version 2.43.0 (0)
 -->
<!-- Title: src.modules.cmis.CMISModule._read_word Pages: 1 -->
<svg width="601pt" height="182pt"
 viewBox="0.00 0.00 601.00 182.00" xmlns="http://www.w3.org/2000/svg" xmlns:xlink="http://www.w3.org/1999/xlink">
<g id="graph0" class="graph" transform="scale(1 1) rotate(0) translate(4 178)">
<title>src.modules.cmis.CMISModule._read_word</title>
<!-- Node1 -->
<g id="Node000001" class="node">
<title>Node1</title>
<g id="a_Node000001"><a xlink:title=" ">
<polygon fill="#999999" stroke="#666666" points="593,-102 424,-102 424,-72 593,-72 593,-102"/>
<text text-anchor="start" x="432" y="-90" font-family="Helvetica,sans-Serif" font-size="10.00">src.modules.cmis.CMISModule.</text>
<text text-anchor="middle" x="508.5" y="-79" font-family="Helvetica,sans-Serif" font-size="10.00">_read_word</text>
</a>
</g>
</g>
<!-- Node2 -->
<g id="Node000002" class="node">
<title>Node2</title>
<g id="a_Node000002"><a xlink:href="classsrc_1_1modules_1_1sff_1_1SFFModule.html#a3decb2758dadaf2ecabc8d91e920c69c" target="_top" xlink:title=" ">
<polygon fill="white" stroke="#666666" points="371,-174 220,-174 220,-144 371,-144 371,-174"/>
<text text-anchor="start" x="228" y="-162" font-family="Helvetica,sans-Serif" font-size="10.00">src.modules.sff.SFFModule.</text>
<text text-anchor="middle" x="295.5" y="-151" font-family="Helvetica,sans-Serif" font-size="10.00">_get_alarm_thresholds</text>
</a>
</g>
</g>
<!-- Node1&#45;&gt;Node2 -->
<g id="edge1_Node000001_Node000002" class="edge">
<title>Node1&#45;&gt;Node2</title>
<g id="a_edge1_Node000001_Node000002"><a xlink:title=" ">
<path fill="none" stroke="#63b8ff" d="M464.14,-105.94C441.67,-115.37 413.63,-126.53 388,-135 378.49,-138.14 368.31,-141.15 358.33,-143.91"/>
<polygon fill="#63b8ff" stroke="#63b8ff" points="465.56,-109.14 473.41,-102.02 462.84,-102.69 465.56,-109.14"/>
</a>
</g>
</g>
<!-- Node4 -->
<g id="Node000004" class="node">
<title>Node4</title>
<g id="a_Node000004"><a xlink:href="classsrc_1_1modules_1_1cmis_1_1CMISModule.html#a33b10a4b1376fcfe2ed6aebb2465014b" target="_top" xlink:title=" ">
<polygon fill="white" stroke="#666666" points="388,-126 203,-126 203,-96 388,-96 388,-126"/>
<text text-anchor="start" x="211" y="-114" font-family="Helvetica,sans-Serif" font-size="10.00">src.modules.cmis.CMISModule.get</text>
<text text-anchor="middle" x="295.5" y="-103" font-family="Helvetica,sans-Serif" font-size="10.00">_configuration</text>
</a>
</g>
</g>
<!-- Node1&#45;&gt;Node4 -->
<g id="edge3_Node000001_Node000004" class="edge">
<title>Node1&#45;&gt;Node4</title>
<g id="a_edge3_Node000001_Node000004"><a xlink:title=" ">
<path fill="none" stroke="#63b8ff" d="M413.83,-97.65C405.27,-98.63 396.62,-99.61 388.08,-100.58"/>
<polygon fill="#63b8ff" stroke="#63b8ff" points="414.26,-101.13 423.8,-96.52 413.47,-94.17 414.26,-101.13"/>
</a>
</g>
</g>
<!-- Node5 -->
<g id="Node000005" class="node">
<title>Node5</title>
<g id="a_Node000005"><a xlink:href="classsrc_1_1modules_1_1cmis_1_1CMISModule.html#a4ee4bb9014d315a32cb2e5e8477a3a85" target="_top" xlink:title=" ">
<polygon fill="white" stroke="#666666" points="388,-78 203,-78 203,-48 388,-48 388,-78"/>
<text text-anchor="start" x="211" y="-66" font-family="Helvetica,sans-Serif" font-size="10.00">src.modules.cmis.CMISModule.get</text>
<text text-anchor="middle" x="295.5" y="-55" font-family="Helvetica,sans-Serif" font-size="10.00">_status</text>
</a>
</g>
</g>
<!-- Node1&#45;&gt;Node5 -->
<g id="edge4_Node000001_Node000005" class="edge">
<title>Node1&#45;&gt;Node5</title>
<g id="a_edge4_Node000001_Node000005"><a xlink:title=" ">
<path fill="none" stroke="#63b8ff" d="M413.83,-76.35C405.27,-75.37 396.62,-74.39 388.08,-73.42"/>
<polygon fill="#63b8ff" stroke="#63b8ff" points="413.47,-79.83 423.8,-77.48 414.26,-72.87 413.47,-79.83"/>
</a>
</g>
</g>
<!-- Node6 -->
<g id="Node000006" class="node">
<title>Node6</title>
<g id="a_Node000006"><a xlink:href="classsrc_1_1modules_1_1sff_1_1SFFModule.html#a749ec10a0a54ba0faa14e9499fe08a79" target="_top" xlink:title=" ">
<polygon fill="white" stroke="#666666" points="379,-30 212,-30 212,0 379,0 379,-30"/>
<text text-anchor="start" x="220" y="-18" font-family="Helvetica,sans-Serif" font-size="10.00">src.modules.sff.SFFModule.get</text>
<text text-anchor="middle" x="295.5" y="-7" font-family="Helvetica,sans-Serif" font-size="10.00">_status</text>
</a>
</g>
</g>
<!-- Node1&#45;&gt;Node6 -->
<g id="edge5_Node000001_Node000006" class="edge">
<title>Node1&#45;&gt;Node6</title>
<g id="a_edge5_Node000001_Node000006"><a xlink:title=" ">
<path fill="none" stroke="#63b8ff" d="M464.14,-68.06C441.67,-58.63 413.63,-47.47 388,-39 378.49,-35.86 368.31,-32.85 358.33,-30.09"/>
<polygon fill="#63b8ff" stroke="#63b8ff" points="462.84,-71.31 473.41,-71.98 465.56,-64.86 462.84,-71.31"/>
</a>
</g>
</g>
<!-- Node3 -->
<g id="Node000003" class="node">
<title>Node3</title>
<g id="a_Node000003"><a xlink:href="classsrc_1_1modules_1_1sff_1_1SFFModule.html#ae73d2bcdb53c403e7b575e794077091d" target="_top" xlink:title=" ">
<polygon fill="white" stroke="#666666" points="167,-174 0,-174 0,-144 167,-144 167,-174"/>
<text text-anchor="start" x="8" y="-162" font-family="Helvetica,sans-Serif" font-size="10.00">src.modules.sff.SFFModule.get</text>
<text text-anchor="middle" x="83.5" y="-151" font-family="Helvetica,sans-Serif" font-size="10.00">_configuration</text>
</a>
</g>
</g>
<!-- Node2&#45;&gt;Node3 -->
<g id="edge2_Node000002_Node000003" class="edge">
<title>Node2&#45;&gt;Node3</title>
<g id="a_edge2_Node000002_Node000003"><a xlink:title=" ">
<path fill="none" stroke="#63b8ff" d="M209.74,-159C195.67,-159 181.11,-159 167.1,-159"/>
<polygon fill="#63b8ff" stroke="#63b8ff" points="209.87,-162.5 219.87,-159 209.87,-155.5 209.87,-162.5"/>
</a>
</g>
</g>
</g>
</svg>
