<?xml version="1.0" encoding="UTF-8" standalone="no"?>
<!DOCTYPE svg PUBLIC "-//W3C//DTD SVG 1.1//EN"
 "http://www.w3.org/Graphics/SVG/1.1/DTD/svg11.dtd">
<!-- Generated by graphviz version 2.43.0 (0)
 -->
<!-- Title: src.modules.sff.SFFModule.initialize Pages: 1 -->
<svg width="445pt" height="246pt"
 viewBox="0.00 0.00 445.00 246.00" xmlns="http://www.w3.org/2000/svg" xmlns:xlink="http://www.w3.org/1999/xlink">
<g id="graph0" class="graph" transform="scale(1 1) rotate(0) translate(4 242)">
<title>src.modules.sff.SFFModule.initialize</title>
<!-- Node1 -->
<g id="Node000001" class="node">
<title>Node1</title>
<g id="a_Node000001"><a xlink:title=" ">
<polygon fill="#999999" stroke="#666666" points="193,-122.5 0,-122.5 0,-103.5 193,-103.5 193,-122.5"/>
<text text-anchor="middle" x="96.5" y="-110.5" font-family="Helvetica,sans-Serif" font-size="10.00">src.modules.sff.SFFModule.initialize</text>
</a>
</g>
</g>
<!-- Node2 -->
<g id="Node000002" class="node">
<title>Node2</title>
<g id="a_Node000002"><a xlink:href="classsrc_1_1modules_1_1cmis_1_1CMISModule.html#ab78452b295a5b977f548acec3176d1f4" target="_top" xlink:title=" ">
<polygon fill="white" stroke="#666666" points="417.5,-238 248.5,-238 248.5,-208 417.5,-208 417.5,-238"/>
<text text-anchor="start" x="256.5" y="-226" font-family="Helvetica,sans-Serif" font-size="10.00">src.modules.cmis.CMISModule.</text>
<text text-anchor="middle" x="333" y="-215" font-family="Helvetica,sans-Serif" font-size="10.00">_detect_capabilities</text>
</a>
</g>
</g>
<!-- Node1&#45;&gt;Node2 -->
<g id="edge1_Node000001_Node000002" class="edge">
<title>Node1&#45;&gt;Node2</title>
<g id="a_edge1_Node000001_Node000002"><a xlink:title=" ">
<path fill="none" stroke="#63b8ff" d="M109.02,-122.58C130.95,-140.33 180.84,-178.41 229,-199 234.01,-201.14 239.25,-203.11 244.59,-204.92"/>
<polygon fill="#63b8ff" stroke="#63b8ff" points="243.69,-208.31 254.28,-208 245.81,-201.63 243.69,-208.31"/>
</a>
</g>
</g>
<!-- Node3 -->
<g id="Node000003" class="node">
<title>Node3</title>
<g id="a_Node000003"><a xlink:href="classsrc_1_1modules_1_1sff_1_1SFFModule.html#a36d2fc0f4a8f5a3a07a2ffe3eecb6ff4" target="_top" xlink:title=" ">
<polygon fill="white" stroke="#666666" points="408.5,-190 257.5,-190 257.5,-160 408.5,-160 408.5,-190"/>
<text text-anchor="start" x="265.5" y="-178" font-family="Helvetica,sans-Serif" font-size="10.00">src.modules.sff.SFFModule.</text>
<text text-anchor="middle" x="333" y="-167" font-family="Helvetica,sans-Serif" font-size="10.00">_detect_capabilities</text>
</a>
</g>
</g>
<!-- Node1&#45;&gt;Node3 -->
<g id="edge2_Node000001_Node000003" class="edge">
<title>Node1&#45;&gt;Node3</title>
<g id="a_edge2_Node000001_Node000003"><a xlink:title=" ">
<path fill="none" stroke="#63b8ff" d="M128.72,-122.52C155.29,-130.5 194.51,-142 229,-151 237.46,-153.21 246.33,-155.42 255.17,-157.56"/>
<polygon fill="#63b8ff" stroke="#63b8ff" points="254.57,-161.02 265.11,-159.95 256.2,-154.21 254.57,-161.02"/>
</a>
</g>
</g>
<!-- Node4 -->
<g id="Node000004" class="node">
<title>Node4</title>
<g id="a_Node000004"><a xlink:href="classsrc_1_1modules_1_1base_1_1BaseModule.html#ae8ab127949af2da9700759f26d35d9e6" target="_top" xlink:title=" ">
<polygon fill="white" stroke="#666666" points="429.5,-141.5 236.5,-141.5 236.5,-122.5 429.5,-122.5 429.5,-141.5"/>
<text text-anchor="middle" x="333" y="-129.5" font-family="Helvetica,sans-Serif" font-size="10.00">src.modules.base.BaseModule.reset</text>
</a>
</g>
</g>
<!-- Node1&#45;&gt;Node4 -->
<g id="edge3_Node000001_Node000004" class="edge">
<title>Node1&#45;&gt;Node4</title>
<g id="a_edge3_Node000001_Node000004"><a xlink:title=" ">
<path fill="none" stroke="#63b8ff" d="M193.22,-120.76C204.08,-121.64 215.19,-122.54 226.17,-123.43"/>
<polygon fill="#63b8ff" stroke="#63b8ff" points="225.96,-126.92 236.21,-124.24 226.52,-119.94 225.96,-126.92"/>
</a>
</g>
</g>
<!-- Node5 -->
<g id="Node000005" class="node">
<title>Node5</title>
<g id="a_Node000005"><a xlink:href="classsrc_1_1modules_1_1cmis_1_1CMISModule.html#a689f7e6b3800161e207fb519e2492eb5" target="_top" xlink:title=" ">
<polygon fill="white" stroke="#666666" points="430,-104.5 236,-104.5 236,-85.5 430,-85.5 430,-104.5"/>
<text text-anchor="middle" x="333" y="-92.5" font-family="Helvetica,sans-Serif" font-size="10.00">src.modules.cmis.CMISModule.reset</text>
</a>
</g>
</g>
<!-- Node1&#45;&gt;Node5 -->
<g id="edge4_Node000001_Node000005" class="edge">
<title>Node1&#45;&gt;Node5</title>
<g id="a_edge4_Node000001_Node000005"><a xlink:title=" ">
<path fill="none" stroke="#63b8ff" d="M193.22,-105.65C203.87,-104.84 214.77,-104 225.55,-103.17"/>
<polygon fill="#63b8ff" stroke="#63b8ff" points="226.12,-106.64 235.83,-102.38 225.59,-99.66 226.12,-106.64"/>
</a>
</g>
</g>
<!-- Node6 -->
<g id="Node000006" class="node">
<title>Node6</title>
<g id="a_Node000006"><a xlink:href="classsrc_1_1modules_1_1sff_1_1SFFModule.html#a1ff482e1d412a032e42135f4938e94d2" target="_top" xlink:title=" ">
<polygon fill="white" stroke="#666666" points="421,-67.5 245,-67.5 245,-48.5 421,-48.5 421,-67.5"/>
<text text-anchor="middle" x="333" y="-55.5" font-family="Helvetica,sans-Serif" font-size="10.00">src.modules.sff.SFFModule.reset</text>
</a>
</g>
</g>
<!-- Node1&#45;&gt;Node6 -->
<g id="edge5_Node000001_Node000006" class="edge">
<title>Node1&#45;&gt;Node6</title>
<g id="a_edge5_Node000001_Node000006"><a xlink:title=" ">
<path fill="none" stroke="#63b8ff" d="M129.46,-103.43C155.97,-95.69 194.73,-84.84 229,-77 240.7,-74.32 253.22,-71.76 265.35,-69.44"/>
<polygon fill="#63b8ff" stroke="#63b8ff" points="266.24,-72.83 275.42,-67.54 264.95,-65.95 266.24,-72.83"/>
</a>
</g>
</g>
<!-- Node7 -->
<g id="Node000007" class="node">
<title>Node7</title>
<g id="a_Node000007"><a xlink:href="classsrc_1_1modules_1_1base_1_1BaseModule.html#a2dddf72caa17a6a740e0990f6e77aaf2" target="_top" xlink:title=" ">
<polygon fill="white" stroke="#666666" points="437,-30 229,-30 229,0 437,0 437,-30"/>
<text text-anchor="start" x="237" y="-18" font-family="Helvetica,sans-Serif" font-size="10.00">src.modules.base.BaseModule.validate</text>
<text text-anchor="middle" x="333" y="-7" font-family="Helvetica,sans-Serif" font-size="10.00">_capabilities</text>
</a>
</g>
</g>
<!-- Node1&#45;&gt;Node7 -->
<g id="edge6_Node000001_Node000007" class="edge">
<title>Node1&#45;&gt;Node7</title>
<g id="a_edge6_Node000001_Node000007"><a xlink:title=" ">
<path fill="none" stroke="#63b8ff" d="M111.85,-103.33C135.37,-87.87 184.01,-57.58 229,-40 235.6,-37.42 242.54,-35.05 249.58,-32.89"/>
<polygon fill="#63b8ff" stroke="#63b8ff" points="250.59,-36.24 259.2,-30.07 248.62,-29.52 250.59,-36.24"/>
</a>
</g>
</g>
</g>
</svg>
