<?xml version="1.0" encoding="UTF-8" standalone="no"?>
<!DOCTYPE svg PUBLIC "-//W3C//DTD SVG 1.1//EN"
 "http://www.w3.org/Graphics/SVG/1.1/DTD/svg11.dtd">
<!-- Generated by graphviz version 2.43.0 (0)
 -->
<!-- Title: tests.emulation.base.MemoryMap.write_word Pages: 1 -->
<svg width="370pt" height="86pt"
 viewBox="0.00 0.00 370.00 86.00" xmlns="http://www.w3.org/2000/svg" xmlns:xlink="http://www.w3.org/1999/xlink">
<g id="graph0" class="graph" transform="scale(1 1) rotate(0) translate(4 82)">
<title>tests.emulation.base.MemoryMap.write_word</title>
<!-- Node1 -->
<g id="Node000001" class="node">
<title>Node1</title>
<g id="a_Node000001"><a xlink:title="Write a 16&#45;bit word to the current page.">
<polygon fill="#999999" stroke="#666666" points="163,-54 0,-54 0,-24 163,-24 163,-54"/>
<text text-anchor="start" x="8" y="-42" font-family="Helvetica,sans-Serif" font-size="10.00">tests.emulation.base.Memory</text>
<text text-anchor="middle" x="81.5" y="-31" font-family="Helvetica,sans-Serif" font-size="10.00">Map.write_word</text>
</a>
</g>
</g>
<!-- Node2 -->
<g id="Node000002" class="node">
<title>Node2</title>
<g id="a_Node000002"><a xlink:href="classtests_1_1emulation_1_1hardware_1_1EmulatedI2CBus.html#a2a7bf09bf1b5796ffb5bc9e039db72a2" target="_top" xlink:title=" ">
<polygon fill="white" stroke="#666666" points="356.5,-78 204.5,-78 204.5,-48 356.5,-48 356.5,-78"/>
<text text-anchor="start" x="212.5" y="-66" font-family="Helvetica,sans-Serif" font-size="10.00">tests.emulation.hardware.</text>
<text text-anchor="middle" x="280.5" y="-55" font-family="Helvetica,sans-Serif" font-size="10.00">EmulatedI2CBus.write_byte</text>
</a>
</g>
</g>
<!-- Node1&#45;&gt;Node2 -->
<g id="edge1_Node000001_Node000002" class="edge">
<title>Node1&#45;&gt;Node2</title>
<g id="a_edge1_Node000001_Node000002"><a xlink:title=" ">
<path fill="none" stroke="#63b8ff" d="M163.2,-48.83C173.4,-50.07 183.86,-51.35 194.13,-52.6"/>
<polygon fill="#63b8ff" stroke="#63b8ff" points="193.97,-56.11 204.32,-53.84 194.82,-49.16 193.97,-56.11"/>
</a>
</g>
</g>
<!-- Node3 -->
<g id="Node000003" class="node">
<title>Node3</title>
<g id="a_Node000003"><a xlink:href="classtests_1_1emulation_1_1base_1_1MemoryMap.html#ab3c032e263344441c22e7516dc3e08ae" target="_top" xlink:title="Write a byte to the current page.">
<polygon fill="white" stroke="#666666" points="362,-30 199,-30 199,0 362,0 362,-30"/>
<text text-anchor="start" x="207" y="-18" font-family="Helvetica,sans-Serif" font-size="10.00">tests.emulation.base.Memory</text>
<text text-anchor="middle" x="280.5" y="-7" font-family="Helvetica,sans-Serif" font-size="10.00">Map.write_byte</text>
</a>
</g>
</g>
<!-- Node1&#45;&gt;Node3 -->
<g id="edge2_Node000001_Node000003" class="edge">
<title>Node1&#45;&gt;Node3</title>
<g id="a_edge2_Node000001_Node000003"><a xlink:title=" ">
<path fill="none" stroke="#63b8ff" d="M163.2,-29.17C171.67,-28.14 180.33,-27.08 188.91,-26.04"/>
<polygon fill="#63b8ff" stroke="#63b8ff" points="189.43,-29.5 198.93,-24.82 188.58,-22.55 189.43,-29.5"/>
</a>
</g>
</g>
</g>
</svg>
