<?xml version="1.0" encoding="UTF-8" standalone="no"?>
<!DOCTYPE svg PUBLIC "-//W3C//DTD SVG 1.1//EN"
 "http://www.w3.org/Graphics/SVG/1.1/DTD/svg11.dtd">
<!-- Generated by graphviz version 2.43.0 (0)
 -->
<!-- Title: src.detection.detector.ModuleDetector.is_module_present Pages: 1 -->
<svg width="569pt" height="86pt"
 viewBox="0.00 0.00 569.00 86.00" xmlns="http://www.w3.org/2000/svg" xmlns:xlink="http://www.w3.org/1999/xlink">
<g id="graph0" class="graph" transform="scale(1 1) rotate(0) translate(4 82)">
<title>src.detection.detector.ModuleDetector.is_module_present</title>
<!-- Node1 -->
<g id="Node000001" class="node">
<title>Node1</title>
<g id="a_Node000001"><a xlink:title=" ">
<polygon fill="#999999" stroke="#666666" points="561,-54 400,-54 400,-24 561,-24 561,-54"/>
<text text-anchor="start" x="408" y="-42" font-family="Helvetica,sans-Serif" font-size="10.00">src.detection.detector.Module</text>
<text text-anchor="middle" x="480.5" y="-31" font-family="Helvetica,sans-Serif" font-size="10.00">Detector.is_module_present</text>
</a>
</g>
</g>
<!-- Node2 -->
<g id="Node000002" class="node">
<title>Node2</title>
<g id="a_Node000002"><a xlink:href="classsrc_1_1detection_1_1detector_1_1ModuleDetector.html#a8ad3770cfbbe1e7be572fc3315e31487" target="_top" xlink:title=" ">
<polygon fill="white" stroke="#666666" points="364,-78 197,-78 197,-48 364,-48 364,-78"/>
<text text-anchor="start" x="205" y="-66" font-family="Helvetica,sans-Serif" font-size="10.00">src.detection.detector.Module</text>
<text text-anchor="middle" x="280.5" y="-55" font-family="Helvetica,sans-Serif" font-size="10.00">Detector.identify_module_type</text>
</a>
</g>
</g>
<!-- Node1&#45;&gt;Node2 -->
<g id="edge1_Node000001_Node000002" class="edge">
<title>Node1&#45;&gt;Node2</title>
<g id="a_edge1_Node000001_Node000002"><a xlink:title=" ">
<path fill="none" stroke="#63b8ff" d="M389.87,-49.86C381.33,-50.9 372.71,-51.94 364.25,-52.97"/>
<polygon fill="#63b8ff" stroke="#63b8ff" points="390.32,-53.34 399.82,-48.66 389.47,-46.39 390.32,-53.34"/>
</a>
</g>
</g>
<!-- Node4 -->
<g id="Node000004" class="node">
<title>Node4</title>
<g id="a_Node000004"><a xlink:href="classsrc_1_1detection_1_1detector_1_1ModuleDetector.html#a25d217ca926943138f6b5cbc61a674d5" target="_top" xlink:title=" ">
<polygon fill="white" stroke="#666666" points="361,-30 200,-30 200,0 361,0 361,-30"/>
<text text-anchor="start" x="208" y="-18" font-family="Helvetica,sans-Serif" font-size="10.00">src.detection.detector.Module</text>
<text text-anchor="middle" x="280.5" y="-7" font-family="Helvetica,sans-Serif" font-size="10.00">Detector.wait_for_module</text>
</a>
</g>
</g>
<!-- Node1&#45;&gt;Node4 -->
<g id="edge3_Node000001_Node000004" class="edge">
<title>Node1&#45;&gt;Node4</title>
<g id="a_edge3_Node000001_Node000004"><a xlink:title=" ">
<path fill="none" stroke="#63b8ff" d="M389.86,-28.13C380.24,-26.97 370.5,-25.79 361.02,-24.64"/>
<polygon fill="#63b8ff" stroke="#63b8ff" points="389.47,-31.61 399.82,-29.34 390.32,-24.66 389.47,-31.61"/>
</a>
</g>
</g>
<!-- Node3 -->
<g id="Node000003" class="node">
<title>Node3</title>
<g id="a_Node000003"><a xlink:href="classsrc_1_1detection_1_1detector_1_1ModuleDetector.html#a3f957c9b51d5a862295f333fa8ff2528" target="_top" xlink:title=" ">
<polygon fill="white" stroke="#666666" points="161,-78 0,-78 0,-48 161,-48 161,-78"/>
<text text-anchor="start" x="8" y="-66" font-family="Helvetica,sans-Serif" font-size="10.00">src.detection.detector.Module</text>
<text text-anchor="middle" x="80.5" y="-55" font-family="Helvetica,sans-Serif" font-size="10.00">Detector.get_module_info</text>
</a>
</g>
</g>
<!-- Node2&#45;&gt;Node3 -->
<g id="edge2_Node000002_Node000003" class="edge">
<title>Node2&#45;&gt;Node3</title>
<g id="a_edge2_Node000002_Node000003"><a xlink:title=" ">
<path fill="none" stroke="#63b8ff" d="M186.87,-63C178.24,-63 169.54,-63 161.04,-63"/>
<polygon fill="#63b8ff" stroke="#63b8ff" points="186.96,-66.5 196.96,-63 186.96,-59.5 186.96,-66.5"/>
</a>
</g>
</g>
</g>
</svg>
