<?xml version="1.0" encoding="UTF-8" standalone="no"?>
<!DOCTYPE svg PUBLIC "-//W3C//DTD SVG 1.1//EN"
 "http://www.w3.org/Graphics/SVG/1.1/DTD/svg11.dtd">
<!-- Generated by graphviz version 2.43.0 (0)
 -->
<!-- Title: src.modules.cmis.CMISModule.set_configuration Pages: 1 -->
<svg width="413pt" height="86pt"
 viewBox="0.00 0.00 413.00 86.00" xmlns="http://www.w3.org/2000/svg" xmlns:xlink="http://www.w3.org/1999/xlink">
<g id="graph0" class="graph" transform="scale(1 1) rotate(0) translate(4 82)">
<title>src.modules.cmis.CMISModule.set_configuration</title>
<!-- Node1 -->
<g id="Node000001" class="node">
<title>Node1</title>
<g id="a_Node000001"><a xlink:title=" ">
<polygon fill="#999999" stroke="#666666" points="184,-54 0,-54 0,-24 184,-24 184,-54"/>
<text text-anchor="start" x="8" y="-42" font-family="Helvetica,sans-Serif" font-size="10.00">src.modules.cmis.CMISModule.set</text>
<text text-anchor="middle" x="92" y="-31" font-family="Helvetica,sans-Serif" font-size="10.00">_configuration</text>
</a>
</g>
</g>
<!-- Node2 -->
<g id="Node000002" class="node">
<title>Node2</title>
<g id="a_Node000002"><a xlink:href="classsrc_1_1modules_1_1cmis_1_1CMISModule.html#ad5d613bb1b9bb6b6c5710d46e353eb97" target="_top" xlink:title=" ">
<polygon fill="white" stroke="#666666" points="397,-78 228,-78 228,-48 397,-48 397,-78"/>
<text text-anchor="start" x="236" y="-66" font-family="Helvetica,sans-Serif" font-size="10.00">src.modules.cmis.CMISModule.</text>
<text text-anchor="middle" x="312.5" y="-55" font-family="Helvetica,sans-Serif" font-size="10.00">_select_page</text>
</a>
</g>
</g>
<!-- Node1&#45;&gt;Node2 -->
<g id="edge1_Node000001_Node000002" class="edge">
<title>Node1&#45;&gt;Node2</title>
<g id="a_edge1_Node000001_Node000002"><a xlink:title=" ">
<path fill="none" stroke="#63b8ff" d="M184.08,-49C195.2,-50.23 206.57,-51.47 217.73,-52.7"/>
<polygon fill="#63b8ff" stroke="#63b8ff" points="217.58,-56.2 227.9,-53.82 218.34,-49.25 217.58,-56.2"/>
</a>
</g>
</g>
<!-- Node3 -->
<g id="Node000003" class="node">
<title>Node3</title>
<g id="a_Node000003"><a xlink:href="classsrc_1_1modules_1_1base_1_1BaseModule.html#a6bb8e32dd8de03f2b3529d499d6f07af" target="_top" xlink:title=" ">
<polygon fill="white" stroke="#666666" points="405,-30 220,-30 220,0 405,0 405,-30"/>
<text text-anchor="start" x="228" y="-18" font-family="Helvetica,sans-Serif" font-size="10.00">src.modules.base.BaseModule.has</text>
<text text-anchor="middle" x="312.5" y="-7" font-family="Helvetica,sans-Serif" font-size="10.00">_capability</text>
</a>
</g>
</g>
<!-- Node1&#45;&gt;Node3 -->
<g id="edge2_Node000001_Node000003" class="edge">
<title>Node1&#45;&gt;Node3</title>
<g id="a_edge2_Node000001_Node000003"><a xlink:title=" ">
<path fill="none" stroke="#63b8ff" d="M184.08,-29C192.58,-28.06 201.23,-27.11 209.82,-26.17"/>
<polygon fill="#63b8ff" stroke="#63b8ff" points="210.31,-29.64 219.86,-25.07 209.54,-22.68 210.31,-29.64"/>
</a>
</g>
</g>
</g>
</svg>
