<?xml version="1.0" encoding="UTF-8" standalone="no"?>
<!DOCTYPE svg PUBLIC "-//W3C//DTD SVG 1.1//EN"
 "http://www.w3.org/Graphics/SVG/1.1/DTD/svg11.dtd">
<!-- Generated by graphviz version 2.43.0 (0)
 -->
<!-- Title: sff_8024_mem.CMIS_Page00h._decode_fields Pages: 1 -->
<svg width="376pt" height="320pt"
 viewBox="0.00 0.00 376.00 320.00" xmlns="http://www.w3.org/2000/svg" xmlns:xlink="http://www.w3.org/1999/xlink">
<g id="graph0" class="graph" transform="scale(1 1) rotate(0) translate(4 316)">
<title>sff_8024_mem.CMIS_Page00h._decode_fields</title>
<!-- Node1 -->
<g id="Node000001" class="node">
<title>Node1</title>
<g id="a_Node000001"><a xlink:title=" ">
<polygon fill="#999999" stroke="#666666" points="368,-162 202,-162 202,-132 368,-132 368,-162"/>
<text text-anchor="start" x="210" y="-150" font-family="Helvetica,sans-Serif" font-size="10.00">sff_8024_mem.CMIS_Page00h.</text>
<text text-anchor="middle" x="285" y="-139" font-family="Helvetica,sans-Serif" font-size="10.00">_decode_fields</text>
</a>
</g>
</g>
<!-- Node2 -->
<g id="Node000002" class="node">
<title>Node2</title>
<g id="a_Node000002"><a xlink:href="classsff__8024__mem_1_1SFF8024__BasePage00h.html#ad40949dd2613d834634982da64e50ac2" target="_top" xlink:title=" ">
<polygon fill="white" stroke="#666666" points="150,-294 16,-294 16,-264 150,-264 150,-294"/>
<text text-anchor="start" x="24" y="-282" font-family="Helvetica,sans-Serif" font-size="10.00">sff_8024_mem.SFF8024</text>
<text text-anchor="middle" x="83" y="-271" font-family="Helvetica,sans-Serif" font-size="10.00">_BasePage00h.__init__</text>
</a>
</g>
</g>
<!-- Node1&#45;&gt;Node2 -->
<g id="edge1_Node000001_Node000002" class="edge">
<title>Node1&#45;&gt;Node2</title>
<g id="a_edge1_Node000001_Node000002"><a xlink:title=" ">
<path fill="none" stroke="#63b8ff" d="M264.77,-169.97C243.14,-194.42 205.78,-232.59 166,-255 159.93,-258.42 153.32,-261.4 146.58,-263.97"/>
<polygon fill="#63b8ff" stroke="#63b8ff" points="267.57,-172.1 271.49,-162.25 262.29,-167.5 267.57,-172.1"/>
</a>
</g>
</g>
<!-- Node3 -->
<g id="Node000003" class="node">
<title>Node3</title>
<g id="a_Node000003"><a xlink:href="classsff__8024__mem_1_1SFF8472__DOMMemorySpace.html#a67ab17ff1a6be4d18c8c0f02b507478e" target="_top" xlink:title=" ">
<polygon fill="white" stroke="#666666" points="160.5,-228 5.5,-228 5.5,-198 160.5,-198 160.5,-228"/>
<text text-anchor="start" x="13.5" y="-216" font-family="Helvetica,sans-Serif" font-size="10.00">sff_8024_mem.SFF8472</text>
<text text-anchor="middle" x="83" y="-205" font-family="Helvetica,sans-Serif" font-size="10.00">_DOMMemorySpace.__init__</text>
</a>
</g>
</g>
<!-- Node1&#45;&gt;Node3 -->
<g id="edge3_Node000001_Node000003" class="edge">
<title>Node1&#45;&gt;Node3</title>
<g id="a_edge3_Node000001_Node000003"><a xlink:title=" ">
<path fill="none" stroke="#63b8ff" d="M233.88,-165.55C212.99,-173.1 188.41,-181.74 166,-189 156.69,-192.02 146.73,-195.07 137.07,-197.95"/>
<polygon fill="#63b8ff" stroke="#63b8ff" points="235.31,-168.76 243.51,-162.06 232.92,-162.18 235.31,-168.76"/>
</a>
</g>
</g>
<!-- Node4 -->
<g id="Node000004" class="node">
<title>Node4</title>
<g id="a_Node000004"><a xlink:href="classsff__8024__mem_1_1SFF8636__Page00h.html#a7a36b5c87aa741ea03992d814f7efc01" target="_top" xlink:title=" ">
<polygon fill="white" stroke="#666666" points="150,-162 16,-162 16,-132 150,-132 150,-162"/>
<text text-anchor="start" x="24" y="-150" font-family="Helvetica,sans-Serif" font-size="10.00">sff_8024_mem.SFF8636</text>
<text text-anchor="middle" x="83" y="-139" font-family="Helvetica,sans-Serif" font-size="10.00">_Page00h.__init__</text>
</a>
</g>
</g>
<!-- Node1&#45;&gt;Node4 -->
<g id="edge5_Node000001_Node000004" class="edge">
<title>Node1&#45;&gt;Node4</title>
<g id="a_edge5_Node000001_Node000004"><a xlink:title=" ">
<path fill="none" stroke="#63b8ff" d="M191.62,-147C177.58,-147 163.35,-147 150.02,-147"/>
<polygon fill="#63b8ff" stroke="#63b8ff" points="191.79,-150.5 201.79,-147 191.79,-143.5 191.79,-150.5"/>
</a>
</g>
</g>
<!-- Node5 -->
<g id="Node000005" class="node">
<title>Node5</title>
<g id="a_Node000005"><a xlink:href="classsff__8024__mem_1_1SFF8636__Page01h__CD.html#a9f1e632510afa18f69b0fa1e54d0e2ac" target="_top" xlink:title=" ">
<polygon fill="white" stroke="#666666" points="150,-96 16,-96 16,-66 150,-66 150,-96"/>
<text text-anchor="start" x="24" y="-84" font-family="Helvetica,sans-Serif" font-size="10.00">sff_8024_mem.SFF8636</text>
<text text-anchor="middle" x="83" y="-73" font-family="Helvetica,sans-Serif" font-size="10.00">_Page01h_CD.__init__</text>
</a>
</g>
</g>
<!-- Node1&#45;&gt;Node5 -->
<g id="edge7_Node000001_Node000005" class="edge">
<title>Node1&#45;&gt;Node5</title>
<g id="a_edge7_Node000001_Node000005"><a xlink:title=" ">
<path fill="none" stroke="#63b8ff" d="M228.55,-128.7C197.46,-118.44 159.15,-105.8 129.78,-96.11"/>
<polygon fill="#63b8ff" stroke="#63b8ff" points="227.77,-132.13 238.37,-131.94 229.97,-125.48 227.77,-132.13"/>
</a>
</g>
</g>
<!-- Node6 -->
<g id="Node000006" class="node">
<title>Node6</title>
<g id="a_Node000006"><a xlink:href="classsff__8024__mem_1_1CMIS__Page00h.html#afc44e0d8e0cfbd69e8201b72cfc10bcd" target="_top" xlink:title=" ">
<polygon fill="white" stroke="#666666" points="166,-30 0,-30 0,0 166,0 166,-30"/>
<text text-anchor="start" x="8" y="-18" font-family="Helvetica,sans-Serif" font-size="10.00">sff_8024_mem.CMIS_Page00h.</text>
<text text-anchor="middle" x="83" y="-7" font-family="Helvetica,sans-Serif" font-size="10.00">__init__</text>
</a>
</g>
</g>
<!-- Node1&#45;&gt;Node6 -->
<g id="edge9_Node000001_Node000006" class="edge">
<title>Node1&#45;&gt;Node6</title>
<g id="a_edge9_Node000001_Node000006"><a xlink:title=" ">
<path fill="none" stroke="#63b8ff" d="M258.35,-125.3C235.07,-106.13 199.39,-78.05 166,-57 150.3,-47.11 132,-37.55 116.67,-30.07"/>
<polygon fill="#63b8ff" stroke="#63b8ff" points="256.4,-128.23 266.33,-131.92 260.87,-122.84 256.4,-128.23"/>
</a>
</g>
</g>
<!-- Node2&#45;&gt;Node2 -->
<g id="edge2_Node000002_Node000002" class="edge">
<title>Node2&#45;&gt;Node2</title>
<g id="a_edge2_Node000002_Node000002"><a xlink:title=" ">
<path fill="none" stroke="#63b8ff" d="M118.36,-304.6C113.53,-308.97 101.74,-312 83,-312 51.44,-312 39.6,-303.41 47.49,-294.28"/>
<polygon fill="#63b8ff" stroke="#63b8ff" points="121.86,-304.33 118.51,-294.28 114.86,-304.22 121.86,-304.33"/>
</a>
</g>
</g>
<!-- Node3&#45;&gt;Node3 -->
<g id="edge4_Node000003_Node000003" class="edge">
<title>Node3&#45;&gt;Node3</title>
<g id="a_edge4_Node000003_Node000003"><a xlink:title=" ">
<path fill="none" stroke="#63b8ff" d="M118.36,-238.6C113.53,-242.97 101.74,-246 83,-246 51.44,-246 39.6,-237.41 47.49,-228.28"/>
<polygon fill="#63b8ff" stroke="#63b8ff" points="121.86,-238.33 118.51,-228.28 114.86,-238.22 121.86,-238.33"/>
</a>
</g>
</g>
<!-- Node4&#45;&gt;Node4 -->
<g id="edge6_Node000004_Node000004" class="edge">
<title>Node4&#45;&gt;Node4</title>
<g id="a_edge6_Node000004_Node000004"><a xlink:title=" ">
<path fill="none" stroke="#63b8ff" d="M118.36,-172.6C113.53,-176.97 101.74,-180 83,-180 51.44,-180 39.6,-171.41 47.49,-162.28"/>
<polygon fill="#63b8ff" stroke="#63b8ff" points="121.86,-172.33 118.51,-162.28 114.86,-172.22 121.86,-172.33"/>
</a>
</g>
</g>
<!-- Node5&#45;&gt;Node5 -->
<g id="edge8_Node000005_Node000005" class="edge">
<title>Node5&#45;&gt;Node5</title>
<g id="a_edge8_Node000005_Node000005"><a xlink:title=" ">
<path fill="none" stroke="#63b8ff" d="M118.36,-106.6C113.53,-110.97 101.74,-114 83,-114 51.44,-114 39.6,-105.41 47.49,-96.28"/>
<polygon fill="#63b8ff" stroke="#63b8ff" points="121.86,-106.33 118.51,-96.28 114.86,-106.22 121.86,-106.33"/>
</a>
</g>
</g>
<!-- Node6&#45;&gt;Node6 -->
<g id="edge10_Node000006_Node000006" class="edge">
<title>Node6&#45;&gt;Node6</title>
<g id="a_edge10_Node000006_Node000006"><a xlink:title=" ">
<path fill="none" stroke="#63b8ff" d="M118.36,-40.6C113.53,-44.97 101.74,-48 83,-48 51.44,-48 39.6,-39.41 47.49,-30.28"/>
<polygon fill="#63b8ff" stroke="#63b8ff" points="121.86,-40.33 118.51,-30.28 114.86,-40.22 121.86,-40.33"/>
</a>
</g>
</g>
</g>
</svg>
