<?xml version="1.0" encoding="UTF-8" standalone="no"?>
<!DOCTYPE svg PUBLIC "-//W3C//DTD SVG 1.1//EN"
 "http://www.w3.org/Graphics/SVG/1.1/DTD/svg11.dtd">
<!-- Generated by graphviz version 2.43.0 (0)
 -->
<!-- Title: src.modules.cmis.CMISModule.get_status Pages: 1 -->
<svg width="414pt" height="566pt"
 viewBox="0.00 0.00 414.00 566.00" xmlns="http://www.w3.org/2000/svg" xmlns:xlink="http://www.w3.org/1999/xlink">
<g id="graph0" class="graph" transform="scale(1 1) rotate(0) translate(4 562)">
<title>src.modules.cmis.CMISModule.get_status</title>
<!-- Node1 -->
<g id="Node000001" class="node">
<title>Node1</title>
<g id="a_Node000001"><a xlink:title=" ">
<polygon fill="#999999" stroke="#666666" points="185,-294 0,-294 0,-264 185,-264 185,-294"/>
<text text-anchor="start" x="8" y="-282" font-family="Helvetica,sans-Serif" font-size="10.00">src.modules.cmis.CMISModule.get</text>
<text text-anchor="middle" x="92.5" y="-271" font-family="Helvetica,sans-Serif" font-size="10.00">_status</text>
</a>
</g>
</g>
<!-- Node2 -->
<g id="Node000002" class="node">
<title>Node2</title>
<g id="a_Node000002"><a xlink:href="classsrc_1_1modules_1_1cmis_1_1CMISModule.html#a046ac30329003ca80d1ef63c9330a9e4" target="_top" xlink:title=" ">
<polygon fill="white" stroke="#666666" points="398,-558 229,-558 229,-528 398,-528 398,-558"/>
<text text-anchor="start" x="237" y="-546" font-family="Helvetica,sans-Serif" font-size="10.00">src.modules.cmis.CMISModule.</text>
<text text-anchor="middle" x="313.5" y="-535" font-family="Helvetica,sans-Serif" font-size="10.00">_decode_bias</text>
</a>
</g>
</g>
<!-- Node1&#45;&gt;Node2 -->
<g id="edge1_Node000001_Node000002" class="edge">
<title>Node1&#45;&gt;Node2</title>
<g id="a_edge1_Node000001_Node000002"><a xlink:title=" ">
<path fill="none" stroke="#63b8ff" d="M97,-294.11C107.63,-336.57 143.68,-457.8 221,-519 222.78,-520.41 224.63,-521.73 226.55,-522.98"/>
<polygon fill="#63b8ff" stroke="#63b8ff" points="224.87,-526.06 235.29,-527.98 228.34,-519.98 224.87,-526.06"/>
</a>
</g>
</g>
<!-- Node3 -->
<g id="Node000003" class="node">
<title>Node3</title>
<g id="a_Node000003"><a xlink:href="classsrc_1_1modules_1_1sff_1_1SFFModule.html#a0948fe9fddb54514cf2bc157b2949225" target="_top" xlink:title=" ">
<polygon fill="white" stroke="#666666" points="389,-510 238,-510 238,-480 389,-480 389,-510"/>
<text text-anchor="start" x="246" y="-498" font-family="Helvetica,sans-Serif" font-size="10.00">src.modules.sff.SFFModule.</text>
<text text-anchor="middle" x="313.5" y="-487" font-family="Helvetica,sans-Serif" font-size="10.00">_decode_bias</text>
</a>
</g>
</g>
<!-- Node1&#45;&gt;Node3 -->
<g id="edge2_Node000001_Node000003" class="edge">
<title>Node1&#45;&gt;Node3</title>
<g id="a_edge2_Node000001_Node000003"><a xlink:title=" ">
<path fill="none" stroke="#63b8ff" d="M99.13,-294.21C113.47,-330.71 154.92,-423.77 221,-471 223.52,-472.8 226.17,-474.47 228.92,-476.02"/>
<polygon fill="#63b8ff" stroke="#63b8ff" points="227.45,-479.19 237.96,-480.53 230.57,-472.93 227.45,-479.19"/>
</a>
</g>
</g>
<!-- Node4 -->
<g id="Node000004" class="node">
<title>Node4</title>
<g id="a_Node000004"><a xlink:href="classsrc_1_1modules_1_1cmis_1_1CMISModule.html#aeff7edb37fc769148a67a40edaf417a0" target="_top" xlink:title=" ">
<polygon fill="white" stroke="#666666" points="398,-462 229,-462 229,-432 398,-432 398,-462"/>
<text text-anchor="start" x="237" y="-450" font-family="Helvetica,sans-Serif" font-size="10.00">src.modules.cmis.CMISModule.</text>
<text text-anchor="middle" x="313.5" y="-439" font-family="Helvetica,sans-Serif" font-size="10.00">_decode_power</text>
</a>
</g>
</g>
<!-- Node1&#45;&gt;Node4 -->
<g id="edge3_Node000001_Node000004" class="edge">
<title>Node1&#45;&gt;Node4</title>
<g id="a_edge3_Node000001_Node000004"><a xlink:title=" ">
<path fill="none" stroke="#63b8ff" d="M102.6,-294.28C121.05,-323.87 165.82,-389.07 221,-423 223.8,-424.72 226.72,-426.32 229.72,-427.8"/>
<polygon fill="#63b8ff" stroke="#63b8ff" points="228.4,-431.04 238.95,-431.92 231.25,-424.65 228.4,-431.04"/>
</a>
</g>
</g>
<!-- Node5 -->
<g id="Node000005" class="node">
<title>Node5</title>
<g id="a_Node000005"><a xlink:href="classsrc_1_1modules_1_1sff_1_1SFFModule.html#a19a48fda57b98b49a3d3966a17afe9e1" target="_top" xlink:title=" ">
<polygon fill="white" stroke="#666666" points="389,-414 238,-414 238,-384 389,-384 389,-414"/>
<text text-anchor="start" x="246" y="-402" font-family="Helvetica,sans-Serif" font-size="10.00">src.modules.sff.SFFModule.</text>
<text text-anchor="middle" x="313.5" y="-391" font-family="Helvetica,sans-Serif" font-size="10.00">_decode_power</text>
</a>
</g>
</g>
<!-- Node1&#45;&gt;Node5 -->
<g id="edge4_Node000001_Node000005" class="edge">
<title>Node1&#45;&gt;Node5</title>
<g id="a_edge4_Node000001_Node000005"><a xlink:title=" ">
<path fill="none" stroke="#63b8ff" d="M109.43,-294.32C132.31,-315.49 176.61,-353.5 221,-375 225.02,-376.94 229.21,-378.75 233.5,-380.42"/>
<polygon fill="#63b8ff" stroke="#63b8ff" points="232.42,-383.75 243.01,-383.86 234.8,-377.16 232.42,-383.75"/>
</a>
</g>
</g>
<!-- Node6 -->
<g id="Node000006" class="node">
<title>Node6</title>
<g id="a_Node000006"><a xlink:href="classsrc_1_1modules_1_1cmis_1_1CMISModule.html#a2e52928a493945775d160881310609e6" target="_top" xlink:title=" ">
<polygon fill="white" stroke="#666666" points="398,-366 229,-366 229,-336 398,-336 398,-366"/>
<text text-anchor="start" x="237" y="-354" font-family="Helvetica,sans-Serif" font-size="10.00">src.modules.cmis.CMISModule.</text>
<text text-anchor="middle" x="313.5" y="-343" font-family="Helvetica,sans-Serif" font-size="10.00">_decode_temperature</text>
</a>
</g>
</g>
<!-- Node1&#45;&gt;Node6 -->
<g id="edge5_Node000001_Node000006" class="edge">
<title>Node1&#45;&gt;Node6</title>
<g id="a_edge5_Node000001_Node000006"><a xlink:title=" ">
<path fill="none" stroke="#63b8ff" d="M130.52,-294.1C155.78,-304.11 190.12,-317.17 221,-327 227.78,-329.16 234.88,-331.27 242.01,-333.3"/>
<polygon fill="#63b8ff" stroke="#63b8ff" points="241.13,-336.69 251.71,-336 243.01,-329.94 241.13,-336.69"/>
</a>
</g>
</g>
<!-- Node7 -->
<g id="Node000007" class="node">
<title>Node7</title>
<g id="a_Node000007"><a xlink:href="classsrc_1_1modules_1_1sff_1_1SFFModule.html#a8fadfa018dd158d3af7de512c2a85dc2" target="_top" xlink:title=" ">
<polygon fill="white" stroke="#666666" points="389,-318 238,-318 238,-288 389,-288 389,-318"/>
<text text-anchor="start" x="246" y="-306" font-family="Helvetica,sans-Serif" font-size="10.00">src.modules.sff.SFFModule.</text>
<text text-anchor="middle" x="313.5" y="-295" font-family="Helvetica,sans-Serif" font-size="10.00">_decode_temperature</text>
</a>
</g>
</g>
<!-- Node1&#45;&gt;Node7 -->
<g id="edge6_Node000001_Node000007" class="edge">
<title>Node1&#45;&gt;Node7</title>
<g id="a_edge6_Node000001_Node000007"><a xlink:title=" ">
<path fill="none" stroke="#63b8ff" d="M185.11,-289.04C199.25,-290.59 213.81,-292.18 227.8,-293.72"/>
<polygon fill="#63b8ff" stroke="#63b8ff" points="227.55,-297.21 237.87,-294.82 228.31,-290.25 227.55,-297.21"/>
</a>
</g>
</g>
<!-- Node8 -->
<g id="Node000008" class="node">
<title>Node8</title>
<g id="a_Node000008"><a xlink:href="classsrc_1_1modules_1_1cmis_1_1CMISModule.html#a1f4a9d4397232ca2cf166c74a50c00eb" target="_top" xlink:title=" ">
<polygon fill="white" stroke="#666666" points="398,-270 229,-270 229,-240 398,-240 398,-270"/>
<text text-anchor="start" x="237" y="-258" font-family="Helvetica,sans-Serif" font-size="10.00">src.modules.cmis.CMISModule.</text>
<text text-anchor="middle" x="313.5" y="-247" font-family="Helvetica,sans-Serif" font-size="10.00">_decode_voltage</text>
</a>
</g>
</g>
<!-- Node1&#45;&gt;Node8 -->
<g id="edge7_Node000001_Node000008" class="edge">
<title>Node1&#45;&gt;Node8</title>
<g id="a_edge7_Node000001_Node000008"><a xlink:title=" ">
<path fill="none" stroke="#63b8ff" d="M185.11,-268.96C196.23,-267.74 207.62,-266.49 218.77,-265.27"/>
<polygon fill="#63b8ff" stroke="#63b8ff" points="219.38,-268.73 228.94,-264.16 218.62,-261.77 219.38,-268.73"/>
</a>
</g>
</g>
<!-- Node9 -->
<g id="Node000009" class="node">
<title>Node9</title>
<g id="a_Node000009"><a xlink:href="classsrc_1_1modules_1_1sff_1_1SFFModule.html#ad676a05e85ca2bb115955df520510140" target="_top" xlink:title=" ">
<polygon fill="white" stroke="#666666" points="389,-222 238,-222 238,-192 389,-192 389,-222"/>
<text text-anchor="start" x="246" y="-210" font-family="Helvetica,sans-Serif" font-size="10.00">src.modules.sff.SFFModule.</text>
<text text-anchor="middle" x="313.5" y="-199" font-family="Helvetica,sans-Serif" font-size="10.00">_decode_voltage</text>
</a>
</g>
</g>
<!-- Node1&#45;&gt;Node9 -->
<g id="edge8_Node000001_Node000009" class="edge">
<title>Node1&#45;&gt;Node9</title>
<g id="a_edge8_Node000001_Node000009"><a xlink:title=" ">
<path fill="none" stroke="#63b8ff" d="M130.52,-263.9C155.78,-253.89 190.12,-240.83 221,-231 227.78,-228.84 234.88,-226.73 242.01,-224.7"/>
<polygon fill="#63b8ff" stroke="#63b8ff" points="243.01,-228.06 251.71,-222 241.13,-221.31 243.01,-228.06"/>
</a>
</g>
</g>
<!-- Node10 -->
<g id="Node000010" class="node">
<title>Node10</title>
<g id="a_Node000010"><a xlink:href="classsrc_1_1modules_1_1cmis_1_1CMISModule.html#a27e41dccd22970678e2a32a7234ca8d6" target="_top" xlink:title=" ">
<polygon fill="white" stroke="#666666" points="398,-174 229,-174 229,-144 398,-144 398,-174"/>
<text text-anchor="start" x="237" y="-162" font-family="Helvetica,sans-Serif" font-size="10.00">src.modules.cmis.CMISModule.</text>
<text text-anchor="middle" x="313.5" y="-151" font-family="Helvetica,sans-Serif" font-size="10.00">_read_word</text>
</a>
</g>
</g>
<!-- Node1&#45;&gt;Node10 -->
<g id="edge9_Node000001_Node000010" class="edge">
<title>Node1&#45;&gt;Node10</title>
<g id="a_edge9_Node000001_Node000010"><a xlink:title=" ">
<path fill="none" stroke="#63b8ff" d="M109.43,-263.68C132.31,-242.51 176.61,-204.5 221,-183 225.02,-181.06 229.21,-179.25 233.5,-177.58"/>
<polygon fill="#63b8ff" stroke="#63b8ff" points="234.8,-180.84 243.01,-174.14 232.42,-174.25 234.8,-180.84"/>
</a>
</g>
</g>
<!-- Node11 -->
<g id="Node000011" class="node">
<title>Node11</title>
<g id="a_Node000011"><a xlink:href="classsrc_1_1modules_1_1sff_1_1SFFModule.html#ace3c41f8e23948b1d90f9e227aa1d98d" target="_top" xlink:title=" ">
<polygon fill="white" stroke="#666666" points="389,-126 238,-126 238,-96 389,-96 389,-126"/>
<text text-anchor="start" x="246" y="-114" font-family="Helvetica,sans-Serif" font-size="10.00">src.modules.sff.SFFModule.</text>
<text text-anchor="middle" x="313.5" y="-103" font-family="Helvetica,sans-Serif" font-size="10.00">_read_word</text>
</a>
</g>
</g>
<!-- Node1&#45;&gt;Node11 -->
<g id="edge10_Node000001_Node000011" class="edge">
<title>Node1&#45;&gt;Node11</title>
<g id="a_edge10_Node000001_Node000011"><a xlink:title=" ">
<path fill="none" stroke="#63b8ff" d="M102.6,-263.72C121.05,-234.13 165.82,-168.93 221,-135 223.8,-133.28 226.72,-131.68 229.72,-130.2"/>
<polygon fill="#63b8ff" stroke="#63b8ff" points="231.25,-133.35 238.95,-126.08 228.4,-126.96 231.25,-133.35"/>
</a>
</g>
</g>
<!-- Node12 -->
<g id="Node000012" class="node">
<title>Node12</title>
<g id="a_Node000012"><a xlink:href="classsrc_1_1modules_1_1cmis_1_1CMISModule.html#ad5d613bb1b9bb6b6c5710d46e353eb97" target="_top" xlink:title=" ">
<polygon fill="white" stroke="#666666" points="398,-78 229,-78 229,-48 398,-48 398,-78"/>
<text text-anchor="start" x="237" y="-66" font-family="Helvetica,sans-Serif" font-size="10.00">src.modules.cmis.CMISModule.</text>
<text text-anchor="middle" x="313.5" y="-55" font-family="Helvetica,sans-Serif" font-size="10.00">_select_page</text>
</a>
</g>
</g>
<!-- Node1&#45;&gt;Node12 -->
<g id="edge11_Node000001_Node000012" class="edge">
<title>Node1&#45;&gt;Node12</title>
<g id="a_edge11_Node000001_Node000012"><a xlink:title=" ">
<path fill="none" stroke="#63b8ff" d="M99.13,-263.79C113.47,-227.29 154.92,-134.23 221,-87 223.1,-85.5 225.3,-84.09 227.56,-82.76"/>
<polygon fill="#63b8ff" stroke="#63b8ff" points="229.31,-85.8 236.58,-78.09 226.09,-79.58 229.31,-85.8"/>
</a>
</g>
</g>
<!-- Node13 -->
<g id="Node000013" class="node">
<title>Node13</title>
<g id="a_Node000013"><a xlink:href="classsrc_1_1modules_1_1base_1_1BaseModule.html#a6bb8e32dd8de03f2b3529d499d6f07af" target="_top" xlink:title=" ">
<polygon fill="white" stroke="#666666" points="406,-30 221,-30 221,0 406,0 406,-30"/>
<text text-anchor="start" x="229" y="-18" font-family="Helvetica,sans-Serif" font-size="10.00">src.modules.base.BaseModule.has</text>
<text text-anchor="middle" x="313.5" y="-7" font-family="Helvetica,sans-Serif" font-size="10.00">_capability</text>
</a>
</g>
</g>
<!-- Node1&#45;&gt;Node13 -->
<g id="edge12_Node000001_Node000013" class="edge">
<title>Node1&#45;&gt;Node13</title>
<g id="a_edge12_Node000001_Node000013"><a xlink:title=" ">
<path fill="none" stroke="#63b8ff" d="M97,-263.89C107.63,-221.43 143.68,-100.2 221,-39 222.78,-37.59 224.63,-36.27 226.55,-35.02"/>
<polygon fill="#63b8ff" stroke="#63b8ff" points="228.34,-38.02 235.29,-30.02 224.87,-31.94 228.34,-38.02"/>
</a>
</g>
</g>
</g>
</svg>
