<?xml version="1.0" encoding="UTF-8" standalone="no"?>
<!DOCTYPE svg PUBLIC "-//W3C//DTD SVG 1.1//EN"
 "http://www.w3.org/Graphics/SVG/1.1/DTD/svg11.dtd">
<!-- Generated by graphviz version 2.43.0 (0)
 -->
<!-- Title: tests.emulation.base.ModuleConfig Pages: 1 -->
<svg width="723pt" height="456pt"
 viewBox="0.00 0.00 722.50 456.00" xmlns="http://www.w3.org/2000/svg" xmlns:xlink="http://www.w3.org/1999/xlink">
<g id="graph0" class="graph" transform="scale(1 1) rotate(0) translate(4 452)">
<title>tests.emulation.base.ModuleConfig</title>
<!-- Node1 -->
<g id="Node000001" class="node">
<title>Node1</title>
<g id="a_Node000001"><a xlink:title="Configuration for an emulated module.">
<polygon fill="#999999" stroke="transparent" points="512.5,-180 360.5,-180 360.5,0 512.5,0 512.5,-180"/>
<text text-anchor="start" x="365.5" y="-168" font-family="Helvetica,sans-Serif" font-size="10.00">tests.emulation.base.Module</text>
<text text-anchor="start" x="421" y="-157" font-family="Helvetica,sans-Serif" font-size="10.00">Config</text>
<text text-anchor="start" x="375.5" y="-142" font-family="Helvetica,sans-Serif" font-size="10.00">+</text>
<text text-anchor="start" x="399.5" y="-142" font-family="Helvetica,sans-Serif" font-size="10.00">identifier</text>
<text text-anchor="start" x="375.5" y="-127" font-family="Helvetica,sans-Serif" font-size="10.00">+</text>
<text text-anchor="start" x="399.5" y="-127" font-family="Helvetica,sans-Serif" font-size="10.00">vendor_name</text>
<text text-anchor="start" x="375.5" y="-112" font-family="Helvetica,sans-Serif" font-size="10.00">+</text>
<text text-anchor="start" x="399.5" y="-112" font-family="Helvetica,sans-Serif" font-size="10.00">part_number</text>
<text text-anchor="start" x="375.5" y="-97" font-family="Helvetica,sans-Serif" font-size="10.00">+</text>
<text text-anchor="start" x="399.5" y="-97" font-family="Helvetica,sans-Serif" font-size="10.00">serial_number</text>
<text text-anchor="start" x="375.5" y="-82" font-family="Helvetica,sans-Serif" font-size="10.00">+</text>
<text text-anchor="start" x="399.5" y="-82" font-family="Helvetica,sans-Serif" font-size="10.00">revision</text>
<text text-anchor="start" x="375.5" y="-67" font-family="Helvetica,sans-Serif" font-size="10.00">+</text>
<text text-anchor="start" x="399.5" y="-67" font-family="Helvetica,sans-Serif" font-size="10.00">nominal_bit_rate</text>
<text text-anchor="start" x="375.5" y="-52" font-family="Helvetica,sans-Serif" font-size="10.00">+</text>
<text text-anchor="start" x="399.5" y="-52" font-family="Helvetica,sans-Serif" font-size="10.00">max_case_temp</text>
<text text-anchor="start" x="375.5" y="-37" font-family="Helvetica,sans-Serif" font-size="10.00">+</text>
<text text-anchor="start" x="399.5" y="-37" font-family="Helvetica,sans-Serif" font-size="10.00">num_channels</text>
<text text-anchor="start" x="375.5" y="-22" font-family="Helvetica,sans-Serif" font-size="10.00">+</text>
<text text-anchor="start" x="399.5" y="-22" font-family="Helvetica,sans-Serif" font-size="10.00">max_power_draw</text>
<text text-anchor="start" x="434.5" y="-7" font-family="Helvetica,sans-Serif" font-size="10.00"> </text>
<polygon fill="#666666" stroke="#666666" points="360.5,-152 360.5,-152 512.5,-152 512.5,-152 360.5,-152"/>
<polygon fill="#666666" stroke="#666666" points="360.5,-17 360.5,-17 397.5,-17 397.5,-17 360.5,-17"/>
<polygon fill="#666666" stroke="#666666" points="397.5,-17 397.5,-17 512.5,-17 512.5,-17 397.5,-17"/>
<polygon fill="none" stroke="#666666" points="360.5,0 360.5,-180 512.5,-180 512.5,0 360.5,0"/>
</a>
</g>
</g>
<!-- Node2 -->
<g id="Node000002" class="node">
<title>Node2</title>
<g id="a_Node000002"><a xlink:href="classtests_1_1emulation_1_1base_1_1FormFactor.html" target="_top" xlink:title="Supported module form factors.">
<polygon fill="white" stroke="transparent" points="141,-345 0,-345 0,-255 141,-255 141,-345"/>
<text text-anchor="start" x="5.5" y="-333" font-family="Helvetica,sans-Serif" font-size="10.00">tests.emulation.base.Form</text>
<text text-anchor="start" x="56" y="-322" font-family="Helvetica,sans-Serif" font-size="10.00">Factor</text>
<text text-anchor="start" x="28" y="-307" font-family="Helvetica,sans-Serif" font-size="10.00">+</text>
<text text-anchor="start" x="64.5" y="-307" font-family="Helvetica,sans-Serif" font-size="10.00">SFP</text>
<text text-anchor="start" x="28" y="-292" font-family="Helvetica,sans-Serif" font-size="10.00">+</text>
<text text-anchor="start" x="64.5" y="-292" font-family="Helvetica,sans-Serif" font-size="10.00">QSFP</text>
<text text-anchor="start" x="28" y="-277" font-family="Helvetica,sans-Serif" font-size="10.00">+</text>
<text text-anchor="start" x="64.5" y="-277" font-family="Helvetica,sans-Serif" font-size="10.00">OSFP</text>
<text text-anchor="start" x="69" y="-262" font-family="Helvetica,sans-Serif" font-size="10.00"> </text>
<polygon fill="#666666" stroke="#666666" points="0.5,-317 0.5,-317 141.5,-317 141.5,-317 0.5,-317"/>
<polygon fill="#666666" stroke="#666666" points="0.5,-272 0.5,-272 62.5,-272 62.5,-272 0.5,-272"/>
<polygon fill="#666666" stroke="#666666" points="62.5,-272 62.5,-272 141.5,-272 141.5,-272 62.5,-272"/>
<polygon fill="none" stroke="#666666" points="0,-255 0,-345 141,-345 141,-255 0,-255"/>
</a>
</g>
</g>
<!-- Node2&#45;&gt;Node1 -->
<g id="edge1_Node000001_Node000002" class="edge">
<title>Node2&#45;&gt;Node1</title>
<g id="a_edge1_Node000001_Node000002"><a xlink:title=" ">
<path fill="none" stroke="#63b8ff" d="M124.81,-255C132.92,-249.04 141.31,-243.2 149.5,-238 214,-197.07 291.28,-158.01 349.39,-130.45"/>
<polygon fill="none" stroke="#63b8ff" points="349.53,-130.39 353.25,-124.21 360.38,-125.27 356.66,-131.45 349.53,-130.39"/>
</a>
</g>
<text text-anchor="middle" x="245" y="-206.5" font-family="Helvetica,sans-Serif" font-size="10.00" fill="grey"> +form_factor</text>
</g>
<!-- Node3 -->
<g id="Node000003" class="node">
<title>Node3</title>
<g id="a_Node000003"><a xlink:title=" ">
<polygon fill="white" stroke="transparent" points="265.5,-448 227.5,-448 227.5,-399 265.5,-399 265.5,-448"/>
<text text-anchor="start" x="232.5" y="-435.5" font-family="Helvetica,sans-Serif" font-size="10.00">Enum</text>
<text text-anchor="start" x="244.5" y="-420.5" font-family="Helvetica,sans-Serif" font-size="10.00"> </text>
<text text-anchor="start" x="244.5" y="-405.5" font-family="Helvetica,sans-Serif" font-size="10.00"> </text>
<polygon fill="#666666" stroke="#666666" points="227.5,-430.5 227.5,-430.5 265.5,-430.5 265.5,-430.5 227.5,-430.5"/>
<polygon fill="#666666" stroke="#666666" points="227.5,-415.5 227.5,-415.5 265.5,-415.5 265.5,-415.5 227.5,-415.5"/>
<polygon fill="none" stroke="#666666" points="227.5,-399 227.5,-448 265.5,-448 265.5,-399 227.5,-399"/>
</a>
</g>
</g>
<!-- Node3&#45;&gt;Node2 -->
<g id="edge2_Node000002_Node000003" class="edge">
<title>Node3&#45;&gt;Node2</title>
<g id="a_edge2_Node000002_Node000003"><a xlink:title=" ">
<path fill="none" stroke="#63b8ff" d="M218.42,-406.01C198.8,-394.23 172.15,-377.75 149.5,-362 141.82,-356.66 133.86,-350.86 126.09,-345.02"/>
<polygon fill="none" stroke="#63b8ff" points="216.8,-409.11 227.18,-411.23 220.38,-403.1 216.8,-409.11"/>
</a>
</g>
</g>
<!-- Node4 -->
<g id="Node000004" class="node">
<title>Node4</title>
<g id="a_Node000004"><a xlink:href="classtests_1_1emulation_1_1base_1_1ModuleType.html" target="_top" xlink:title="Types of modules that can be emulated.">
<polygon fill="white" stroke="transparent" points="334,-347 159,-347 159,-253 334,-253 334,-347"/>
<text text-anchor="start" x="164.5" y="-335" font-family="Helvetica,sans-Serif" font-size="10.00">tests.emulation.base.ModuleType</text>
<text text-anchor="start" x="188" y="-320" font-family="Helvetica,sans-Serif" font-size="10.00">+</text>
<text text-anchor="start" x="225.5" y="-320" font-family="Helvetica,sans-Serif" font-size="10.00">SFF</text>
<text text-anchor="start" x="188" y="-305" font-family="Helvetica,sans-Serif" font-size="10.00">+</text>
<text text-anchor="start" x="225.5" y="-305" font-family="Helvetica,sans-Serif" font-size="10.00">SFP_PLUS</text>
<text text-anchor="start" x="188" y="-290" font-family="Helvetica,sans-Serif" font-size="10.00">+</text>
<text text-anchor="start" x="225.5" y="-290" font-family="Helvetica,sans-Serif" font-size="10.00">QSFP_PLUS</text>
<text text-anchor="start" x="188" y="-275" font-family="Helvetica,sans-Serif" font-size="10.00">+</text>
<text text-anchor="start" x="225.5" y="-275" font-family="Helvetica,sans-Serif" font-size="10.00">CMIS</text>
<text text-anchor="start" x="245" y="-260" font-family="Helvetica,sans-Serif" font-size="10.00"> </text>
<polygon fill="#666666" stroke="#666666" points="159.5,-330 159.5,-330 334.5,-330 334.5,-330 159.5,-330"/>
<polygon fill="#666666" stroke="#666666" points="159.5,-270 159.5,-270 223.5,-270 223.5,-270 159.5,-270"/>
<polygon fill="#666666" stroke="#666666" points="223.5,-270 223.5,-270 334.5,-270 334.5,-270 223.5,-270"/>
<polygon fill="none" stroke="#666666" points="159,-253 159,-347 334,-347 334,-253 159,-253"/>
</a>
</g>
</g>
<!-- Node3&#45;&gt;Node4 -->
<g id="edge4_Node000004_Node000003" class="edge">
<title>Node3&#45;&gt;Node4</title>
<g id="a_edge4_Node000004_Node000003"><a xlink:title=" ">
<path fill="none" stroke="#63b8ff" d="M246.5,-388.58C246.5,-375.79 246.5,-361.02 246.5,-347.29"/>
<polygon fill="none" stroke="#63b8ff" points="243,-388.79 246.5,-398.79 250,-388.79 243,-388.79"/>
</a>
</g>
</g>
<!-- Node5 -->
<g id="Node000005" class="node">
<title>Node5</title>
<g id="a_Node000005"><a xlink:href="classtests_1_1emulation_1_1base_1_1MediaType.html" target="_top" xlink:title="Types of media supported by modules.">
<polygon fill="white" stroke="transparent" points="521,-362 352,-362 352,-238 521,-238 521,-362"/>
<text text-anchor="start" x="357.5" y="-350" font-family="Helvetica,sans-Serif" font-size="10.00">tests.emulation.base.MediaType</text>
<text text-anchor="start" x="372" y="-335" font-family="Helvetica,sans-Serif" font-size="10.00">+</text>
<text text-anchor="start" x="400.5" y="-335" font-family="Helvetica,sans-Serif" font-size="10.00">COPPER_PASSIVE</text>
<text text-anchor="start" x="372" y="-320" font-family="Helvetica,sans-Serif" font-size="10.00">+</text>
<text text-anchor="start" x="400.5" y="-320" font-family="Helvetica,sans-Serif" font-size="10.00">COPPER_ACTIVE</text>
<text text-anchor="start" x="372" y="-305" font-family="Helvetica,sans-Serif" font-size="10.00">+</text>
<text text-anchor="start" x="400.5" y="-305" font-family="Helvetica,sans-Serif" font-size="10.00">MMF</text>
<text text-anchor="start" x="372" y="-290" font-family="Helvetica,sans-Serif" font-size="10.00">+</text>
<text text-anchor="start" x="400.5" y="-290" font-family="Helvetica,sans-Serif" font-size="10.00">SMF</text>
<text text-anchor="start" x="372" y="-275" font-family="Helvetica,sans-Serif" font-size="10.00">+</text>
<text text-anchor="start" x="400.5" y="-275" font-family="Helvetica,sans-Serif" font-size="10.00">SR</text>
<text text-anchor="start" x="372" y="-260" font-family="Helvetica,sans-Serif" font-size="10.00">+</text>
<text text-anchor="start" x="400.5" y="-260" font-family="Helvetica,sans-Serif" font-size="10.00">LR</text>
<text text-anchor="start" x="435" y="-245" font-family="Helvetica,sans-Serif" font-size="10.00"> </text>
<polygon fill="#666666" stroke="#666666" points="352.5,-345 352.5,-345 521.5,-345 521.5,-345 352.5,-345"/>
<polygon fill="#666666" stroke="#666666" points="352.5,-255 352.5,-255 398.5,-255 398.5,-255 352.5,-255"/>
<polygon fill="#666666" stroke="#666666" points="398.5,-255 398.5,-255 521.5,-255 521.5,-255 398.5,-255"/>
<polygon fill="none" stroke="#666666" points="352,-238 352,-362 521,-362 521,-238 352,-238"/>
</a>
</g>
</g>
<!-- Node3&#45;&gt;Node5 -->
<g id="edge6_Node000005_Node000003" class="edge">
<title>Node3&#45;&gt;Node5</title>
<g id="a_edge6_Node000005_Node000003"><a xlink:title=" ">
<path fill="none" stroke="#63b8ff" d="M274.21,-405.45C293.66,-393.42 320.26,-376.87 343.5,-362 346.27,-360.23 349.07,-358.43 351.91,-356.6"/>
<polygon fill="none" stroke="#63b8ff" points="272.21,-402.57 265.54,-410.8 275.89,-408.53 272.21,-402.57"/>
</a>
</g>
</g>
<!-- Node4&#45;&gt;Node1 -->
<g id="edge3_Node000001_Node000004" class="edge">
<title>Node4&#45;&gt;Node1</title>
<g id="a_edge3_Node000001_Node000004"><a xlink:title=" ">
<path fill="none" stroke="#63b8ff" d="M288.67,-252.84C307.38,-232.36 330.1,-207.48 352.05,-183.45"/>
<polygon fill="none" stroke="#63b8ff" points="352.33,-183.15 353.42,-176.02 360.42,-174.29 359.33,-181.41 352.33,-183.15"/>
</a>
</g>
<text text-anchor="middle" x="373.5" y="-206.5" font-family="Helvetica,sans-Serif" font-size="10.00" fill="grey"> +module_type</text>
</g>
<!-- Node5&#45;&gt;Node1 -->
<g id="edge5_Node000001_Node000005" class="edge">
<title>Node5&#45;&gt;Node1</title>
<g id="a_edge5_Node000001_Node000005"><a xlink:title=" ">
<path fill="none" stroke="#63b8ff" d="M436.5,-238C436.5,-223.72 436.5,-208.12 436.5,-192.6"/>
<polygon fill="none" stroke="#63b8ff" points="436.5,-192.19 432.5,-186.19 436.5,-180.19 440.5,-186.19 436.5,-192.19"/>
</a>
</g>
<text text-anchor="middle" x="471.5" y="-206.5" font-family="Helvetica,sans-Serif" font-size="10.00" fill="grey"> +media_type</text>
</g>
<!-- Node6 -->
<g id="Node000006" class="node">
<title>Node6</title>
<g id="a_Node000006"><a xlink:title=" ">
<polygon fill="white" stroke="transparent" points="566.5,-324.5 538.5,-324.5 538.5,-275.5 566.5,-275.5 566.5,-324.5"/>
<text text-anchor="start" x="543.5" y="-312" font-family="Helvetica,sans-Serif" font-size="10.00">List</text>
<text text-anchor="start" x="550.5" y="-297" font-family="Helvetica,sans-Serif" font-size="10.00"> </text>
<text text-anchor="start" x="550.5" y="-282" font-family="Helvetica,sans-Serif" font-size="10.00"> </text>
<polygon fill="#666666" stroke="#666666" points="538.5,-307 538.5,-307 566.5,-307 566.5,-307 538.5,-307"/>
<polygon fill="#666666" stroke="#666666" points="538.5,-292 538.5,-292 566.5,-292 566.5,-292 538.5,-292"/>
<polygon fill="none" stroke="#666666" points="538.5,-275.5 538.5,-324.5 566.5,-324.5 566.5,-275.5 538.5,-275.5"/>
</a>
</g>
</g>
<!-- Node6&#45;&gt;Node1 -->
<g id="edge7_Node000001_Node000006" class="edge">
<title>Node6&#45;&gt;Node1</title>
<g id="a_edge7_Node000001_Node000006"><a xlink:title=" ">
<path fill="none" stroke="#63b8ff" d="M544.67,-275.29C540.73,-263.89 535.69,-250.11 530.5,-238 523.71,-222.16 515.3,-206.11 506.32,-190.71"/>
<polygon fill="none" stroke="#63b8ff" points="506.18,-190.48 499.67,-187.37 500.03,-180.17 506.54,-183.27 506.18,-190.48"/>
</a>
</g>
<text text-anchor="middle" x="565" y="-206.5" font-family="Helvetica,sans-Serif" font-size="10.00" fill="grey"> +supported_rates</text>
</g>
<!-- Node7 -->
<g id="Node000007" class="node">
<title>Node7</title>
<g id="a_Node000007"><a xlink:title=" ">
<polygon fill="white" stroke="transparent" points="680.5,-324.5 628.5,-324.5 628.5,-275.5 680.5,-275.5 680.5,-324.5"/>
<text text-anchor="start" x="633.5" y="-312" font-family="Helvetica,sans-Serif" font-size="10.00">Optional</text>
<text text-anchor="start" x="652.5" y="-297" font-family="Helvetica,sans-Serif" font-size="10.00"> </text>
<text text-anchor="start" x="652.5" y="-282" font-family="Helvetica,sans-Serif" font-size="10.00"> </text>
<polygon fill="#666666" stroke="#666666" points="628.5,-307 628.5,-307 680.5,-307 680.5,-307 628.5,-307"/>
<polygon fill="#666666" stroke="#666666" points="628.5,-292 628.5,-292 680.5,-292 680.5,-292 628.5,-292"/>
<polygon fill="none" stroke="#666666" points="628.5,-275.5 628.5,-324.5 680.5,-324.5 680.5,-275.5 628.5,-275.5"/>
</a>
</g>
</g>
<!-- Node7&#45;&gt;Node1 -->
<g id="edge8_Node000001_Node000007" class="edge">
<title>Node7&#45;&gt;Node1</title>
<g id="a_edge8_Node000001_Node000007"><a xlink:title=" ">
<path fill="none" stroke="#63b8ff" d="M649.67,-275.08C644.22,-253.04 633.53,-220.44 614.5,-198 589.99,-169.09 555.59,-145.88 523.57,-128.57"/>
<polygon fill="none" stroke="#63b8ff" points="523.44,-128.5 516.27,-129.25 512.81,-122.92 519.99,-122.17 523.44,-128.5"/>
</a>
</g>
<text text-anchor="middle" x="671" y="-212" font-family="Helvetica,sans-Serif" font-size="10.00" fill="grey"> +length_meters</text>
<text text-anchor="middle" x="671" y="-201" font-family="Helvetica,sans-Serif" font-size="10.00" fill="grey">+wavelength_nm</text>
</g>
</g>
</svg>
