<?xml version="1.0" encoding="UTF-8" standalone="no"?>
<!DOCTYPE svg PUBLIC "-//W3C//DTD SVG 1.1//EN"
 "http://www.w3.org/Graphics/SVG/1.1/DTD/svg11.dtd">
<!-- Generated by graphviz version 2.43.0 (0)
 -->
<!-- Title: tests.emulation.sff.SFFEmulatedModule Pages: 1 -->
<svg width="178pt" height="856pt"
 viewBox="0.00 0.00 178.00 856.00" xmlns="http://www.w3.org/2000/svg" xmlns:xlink="http://www.w3.org/1999/xlink">
<g id="graph0" class="graph" transform="scale(1 1) rotate(0) translate(4 852)">
<title>tests.emulation.sff.SFFEmulatedModule</title>
<!-- Node1 -->
<g id="Node000001" class="node">
<title>Node1</title>
<g id="a_Node000001"><a xlink:title="Emulates an SFF&#45;compliant module.">
<polygon fill="#999999" stroke="transparent" points="170,-251 0,-251 0,0 170,0 170,-251"/>
<text text-anchor="start" x="5" y="-238.5" font-family="Helvetica,sans-Serif" font-size="10.00">tests.emulation.sff.SFFEmulated</text>
<text text-anchor="start" x="66.5" y="-227.5" font-family="Helvetica,sans-Serif" font-size="10.00">Module</text>
<text text-anchor="start" x="16" y="-212.5" font-family="Helvetica,sans-Serif" font-size="10.00">#</text>
<text text-anchor="start" x="41" y="-212.5" font-family="Helvetica,sans-Serif" font-size="10.00">_tx_disable</text>
<text text-anchor="start" x="16" y="-197.5" font-family="Helvetica,sans-Serif" font-size="10.00">#</text>
<text text-anchor="start" x="41" y="-197.5" font-family="Helvetica,sans-Serif" font-size="10.00">_tx_power_mw</text>
<text text-anchor="start" x="16" y="-182.5" font-family="Helvetica,sans-Serif" font-size="10.00">#</text>
<text text-anchor="start" x="41" y="-182.5" font-family="Helvetica,sans-Serif" font-size="10.00">_tx_fault</text>
<text text-anchor="start" x="16" y="-167.5" font-family="Helvetica,sans-Serif" font-size="10.00">#</text>
<text text-anchor="start" x="41" y="-167.5" font-family="Helvetica,sans-Serif" font-size="10.00">_rx_los</text>
<text text-anchor="start" x="16" y="-152.5" font-family="Helvetica,sans-Serif" font-size="10.00">#</text>
<text text-anchor="start" x="41" y="-152.5" font-family="Helvetica,sans-Serif" font-size="10.00">_rx_power_mw</text>
<text text-anchor="start" x="16" y="-137.5" font-family="Helvetica,sans-Serif" font-size="10.00">#</text>
<text text-anchor="start" x="41" y="-137.5" font-family="Helvetica,sans-Serif" font-size="10.00">_temperature</text>
<text text-anchor="start" x="16" y="-122.5" font-family="Helvetica,sans-Serif" font-size="10.00">#</text>
<text text-anchor="start" x="41" y="-122.5" font-family="Helvetica,sans-Serif" font-size="10.00">_voltage</text>
<text text-anchor="start" x="16" y="-107.5" font-family="Helvetica,sans-Serif" font-size="10.00">+</text>
<text text-anchor="start" x="41" y="-107.5" font-family="Helvetica,sans-Serif" font-size="10.00">__init__()</text>
<text text-anchor="start" x="16" y="-92.5" font-family="Helvetica,sans-Serif" font-size="10.00">+</text>
<text text-anchor="start" x="41" y="-92.5" font-family="Helvetica,sans-Serif" font-size="10.00">update_monitoring()</text>
<text text-anchor="start" x="16" y="-77.5" font-family="Helvetica,sans-Serif" font-size="10.00">+</text>
<text text-anchor="start" x="41" y="-77.5" font-family="Helvetica,sans-Serif" font-size="10.00">set_tx_disable()</text>
<text text-anchor="start" x="16" y="-62.5" font-family="Helvetica,sans-Serif" font-size="10.00">+</text>
<text text-anchor="start" x="41" y="-62.5" font-family="Helvetica,sans-Serif" font-size="10.00">simulate_fault()</text>
<text text-anchor="start" x="16" y="-47.5" font-family="Helvetica,sans-Serif" font-size="10.00">+</text>
<text text-anchor="start" x="41" y="-47.5" font-family="Helvetica,sans-Serif" font-size="10.00">set_temperature()</text>
<text text-anchor="start" x="16" y="-32.5" font-family="Helvetica,sans-Serif" font-size="10.00">+</text>
<text text-anchor="start" x="41" y="-32.5" font-family="Helvetica,sans-Serif" font-size="10.00">set_voltage()</text>
<text text-anchor="start" x="16" y="-17.5" font-family="Helvetica,sans-Serif" font-size="10.00">#</text>
<text text-anchor="start" x="41" y="-17.5" font-family="Helvetica,sans-Serif" font-size="10.00">_initialize_memory</text>
<text text-anchor="start" x="41" y="-6.5" font-family="Helvetica,sans-Serif" font-size="10.00">_map()</text>
<polygon fill="#666666" stroke="#666666" points="0,-222.5 0,-222.5 170,-222.5 170,-222.5 0,-222.5"/>
<polygon fill="#666666" stroke="#666666" points="0,-117.5 0,-117.5 39,-117.5 39,-117.5 0,-117.5"/>
<polygon fill="#666666" stroke="#666666" points="39,-117.5 39,-117.5 170,-117.5 170,-117.5 39,-117.5"/>
<polygon fill="none" stroke="#666666" points="0,0 0,-251 170,-251 170,0 0,0"/>
</a>
</g>
</g>
<!-- Node2 -->
<g id="Node000002" class="node">
<title>Node2</title>
<g id="a_Node000002"><a xlink:href="classtests_1_1emulation_1_1base_1_1EmulatedModule.html" target="_top" xlink:title="Base class for emulated modules.">
<polygon fill="white" stroke="transparent" points="166.5,-763 3.5,-763 3.5,-287 166.5,-287 166.5,-763"/>
<text text-anchor="start" x="9" y="-751" font-family="Helvetica,sans-Serif" font-size="10.00">tests.emulation.base.Emulated</text>
<text text-anchor="start" x="67" y="-740" font-family="Helvetica,sans-Serif" font-size="10.00">Module</text>
<text text-anchor="start" x="14.5" y="-725" font-family="Helvetica,sans-Serif" font-size="10.00">+</text>
<text text-anchor="start" x="34" y="-725" font-family="Helvetica,sans-Serif" font-size="10.00">config</text>
<text text-anchor="start" x="14.5" y="-710" font-family="Helvetica,sans-Serif" font-size="10.00">+</text>
<text text-anchor="start" x="34" y="-710" font-family="Helvetica,sans-Serif" font-size="10.00">memory_map</text>
<text text-anchor="start" x="14.5" y="-695" font-family="Helvetica,sans-Serif" font-size="10.00">#</text>
<text text-anchor="start" x="34" y="-695" font-family="Helvetica,sans-Serif" font-size="10.00">_gpio_states</text>
<text text-anchor="start" x="14.5" y="-680" font-family="Helvetica,sans-Serif" font-size="10.00">#</text>
<text text-anchor="start" x="34" y="-680" font-family="Helvetica,sans-Serif" font-size="10.00">_temperature</text>
<text text-anchor="start" x="14.5" y="-665" font-family="Helvetica,sans-Serif" font-size="10.00">#</text>
<text text-anchor="start" x="34" y="-665" font-family="Helvetica,sans-Serif" font-size="10.00">_voltage</text>
<text text-anchor="start" x="14.5" y="-650" font-family="Helvetica,sans-Serif" font-size="10.00">#</text>
<text text-anchor="start" x="34" y="-650" font-family="Helvetica,sans-Serif" font-size="10.00">_tx_disable</text>
<text text-anchor="start" x="14.5" y="-635" font-family="Helvetica,sans-Serif" font-size="10.00">#</text>
<text text-anchor="start" x="34" y="-635" font-family="Helvetica,sans-Serif" font-size="10.00">_tx_fault</text>
<text text-anchor="start" x="14.5" y="-620" font-family="Helvetica,sans-Serif" font-size="10.00">#</text>
<text text-anchor="start" x="34" y="-620" font-family="Helvetica,sans-Serif" font-size="10.00">_rx_los</text>
<text text-anchor="start" x="14.5" y="-605" font-family="Helvetica,sans-Serif" font-size="10.00">#</text>
<text text-anchor="start" x="34" y="-605" font-family="Helvetica,sans-Serif" font-size="10.00">_tx_bias_ma</text>
<text text-anchor="start" x="14.5" y="-590" font-family="Helvetica,sans-Serif" font-size="10.00">#</text>
<text text-anchor="start" x="34" y="-590" font-family="Helvetica,sans-Serif" font-size="10.00">_tx_power_mw</text>
<text text-anchor="start" x="14.5" y="-575" font-family="Helvetica,sans-Serif" font-size="10.00">#</text>
<text text-anchor="start" x="34" y="-575" font-family="Helvetica,sans-Serif" font-size="10.00">_rx_power_mw</text>
<text text-anchor="start" x="14.5" y="-560" font-family="Helvetica,sans-Serif" font-size="10.00">+</text>
<text text-anchor="start" x="34" y="-560" font-family="Helvetica,sans-Serif" font-size="10.00">__init__()</text>
<text text-anchor="start" x="14.5" y="-545" font-family="Helvetica,sans-Serif" font-size="10.00">+</text>
<text text-anchor="start" x="34" y="-545" font-family="Helvetica,sans-Serif" font-size="10.00">is_present()</text>
<text text-anchor="start" x="14.5" y="-530" font-family="Helvetica,sans-Serif" font-size="10.00">+</text>
<text text-anchor="start" x="34" y="-530" font-family="Helvetica,sans-Serif" font-size="10.00">get_identifier()</text>
<text text-anchor="start" x="14.5" y="-515" font-family="Helvetica,sans-Serif" font-size="10.00">+</text>
<text text-anchor="start" x="34" y="-515" font-family="Helvetica,sans-Serif" font-size="10.00">get_vendor_name()</text>
<text text-anchor="start" x="14.5" y="-500" font-family="Helvetica,sans-Serif" font-size="10.00">+</text>
<text text-anchor="start" x="34" y="-500" font-family="Helvetica,sans-Serif" font-size="10.00">get_part_number()</text>
<text text-anchor="start" x="14.5" y="-485" font-family="Helvetica,sans-Serif" font-size="10.00">+</text>
<text text-anchor="start" x="34" y="-485" font-family="Helvetica,sans-Serif" font-size="10.00">get_serial_number()</text>
<text text-anchor="start" x="14.5" y="-470" font-family="Helvetica,sans-Serif" font-size="10.00">+</text>
<text text-anchor="start" x="34" y="-470" font-family="Helvetica,sans-Serif" font-size="10.00">get_revision()</text>
<text text-anchor="start" x="14.5" y="-455" font-family="Helvetica,sans-Serif" font-size="10.00">+</text>
<text text-anchor="start" x="34" y="-455" font-family="Helvetica,sans-Serif" font-size="10.00">get_temperature()</text>
<text text-anchor="start" x="14.5" y="-440" font-family="Helvetica,sans-Serif" font-size="10.00">+</text>
<text text-anchor="start" x="34" y="-440" font-family="Helvetica,sans-Serif" font-size="10.00">get_voltage()</text>
<text text-anchor="start" x="14.5" y="-425" font-family="Helvetica,sans-Serif" font-size="10.00">+</text>
<text text-anchor="start" x="34" y="-425" font-family="Helvetica,sans-Serif" font-size="10.00">set_temperature()</text>
<text text-anchor="start" x="34" y="-410" font-family="Helvetica,sans-Serif" font-size="10.00">and 7 more...</text>
<text text-anchor="start" x="14.5" y="-395" font-family="Helvetica,sans-Serif" font-size="10.00">#</text>
<text text-anchor="start" x="34" y="-395" font-family="Helvetica,sans-Serif" font-size="10.00">_initialize_memory</text>
<text text-anchor="start" x="34" y="-384" font-family="Helvetica,sans-Serif" font-size="10.00">_map()</text>
<text text-anchor="start" x="14.5" y="-369" font-family="Helvetica,sans-Serif" font-size="10.00">#</text>
<text text-anchor="start" x="34" y="-369" font-family="Helvetica,sans-Serif" font-size="10.00">_handle_reset()</text>
<text text-anchor="start" x="14.5" y="-354" font-family="Helvetica,sans-Serif" font-size="10.00">#</text>
<text text-anchor="start" x="34" y="-354" font-family="Helvetica,sans-Serif" font-size="10.00">_encode_temperature()</text>
<text text-anchor="start" x="14.5" y="-339" font-family="Helvetica,sans-Serif" font-size="10.00">#</text>
<text text-anchor="start" x="34" y="-339" font-family="Helvetica,sans-Serif" font-size="10.00">_encode_voltage()</text>
<text text-anchor="start" x="14.5" y="-324" font-family="Helvetica,sans-Serif" font-size="10.00">#</text>
<text text-anchor="start" x="34" y="-324" font-family="Helvetica,sans-Serif" font-size="10.00">_encode_power()</text>
<text text-anchor="start" x="14.5" y="-309" font-family="Helvetica,sans-Serif" font-size="10.00">#</text>
<text text-anchor="start" x="34" y="-309" font-family="Helvetica,sans-Serif" font-size="10.00">_encode_bias()</text>
<text text-anchor="start" x="14.5" y="-294" font-family="Helvetica,sans-Serif" font-size="10.00">#</text>
<text text-anchor="start" x="34" y="-294" font-family="Helvetica,sans-Serif" font-size="10.00">_write_string()</text>
<polygon fill="#666666" stroke="#666666" points="4,-735 4,-735 167,-735 167,-735 4,-735"/>
<polygon fill="#666666" stroke="#666666" points="4,-570 4,-570 32,-570 32,-570 4,-570"/>
<polygon fill="#666666" stroke="#666666" points="32,-570 32,-570 167,-570 167,-570 32,-570"/>
<polygon fill="none" stroke="#666666" points="3.5,-287 3.5,-763 166.5,-763 166.5,-287 3.5,-287"/>
</a>
</g>
</g>
<!-- Node2&#45;&gt;Node1 -->
<g id="edge1_Node000001_Node000002" class="edge">
<title>Node2&#45;&gt;Node1</title>
<g id="a_edge1_Node000001_Node000002"><a xlink:title=" ">
<path fill="none" stroke="#63b8ff" d="M85,-276.57C85,-267.95 85,-259.46 85,-251.17"/>
<polygon fill="none" stroke="#63b8ff" points="81.5,-276.75 85,-286.75 88.5,-276.75 81.5,-276.75"/>
</a>
</g>
</g>
<!-- Node3 -->
<g id="Node000003" class="node">
<title>Node3</title>
<g id="a_Node000003"><a xlink:title=" ">
<polygon fill="white" stroke="transparent" points="100.5,-848 69.5,-848 69.5,-799 100.5,-799 100.5,-848"/>
<text text-anchor="start" x="75" y="-835.5" font-family="Helvetica,sans-Serif" font-size="10.00">ABC</text>
<text text-anchor="start" x="83.5" y="-820.5" font-family="Helvetica,sans-Serif" font-size="10.00"> </text>
<text text-anchor="start" x="83.5" y="-805.5" font-family="Helvetica,sans-Serif" font-size="10.00"> </text>
<polygon fill="#666666" stroke="#666666" points="70,-830.5 70,-830.5 101,-830.5 101,-830.5 70,-830.5"/>
<polygon fill="#666666" stroke="#666666" points="70,-815.5 70,-815.5 101,-815.5 101,-815.5 70,-815.5"/>
<polygon fill="none" stroke="#666666" points="69.5,-799 69.5,-848 100.5,-848 100.5,-799 69.5,-799"/>
</a>
</g>
</g>
<!-- Node3&#45;&gt;Node2 -->
<g id="edge2_Node000002_Node000003" class="edge">
<title>Node3&#45;&gt;Node2</title>
<g id="a_edge2_Node000002_Node000003"><a xlink:title=" ">
<path fill="none" stroke="#63b8ff" d="M85,-788.89C85,-781.23 85,-772.52 85,-763.05"/>
<polygon fill="none" stroke="#63b8ff" points="81.5,-788.99 85,-798.99 88.5,-788.99 81.5,-788.99"/>
</a>
</g>
</g>
</g>
</svg>
