<?xml version="1.0" encoding="UTF-8" standalone="no"?>
<!DOCTYPE svg PUBLIC "-//W3C//DTD SVG 1.1//EN"
 "http://www.w3.org/Graphics/SVG/1.1/DTD/svg11.dtd">
<!-- Generated by graphviz version 2.43.0 (0)
 -->
<!-- Title: tests.emulation.base.MediaType Pages: 1 -->
<svg width="177pt" height="217pt"
 viewBox="0.00 0.00 177.00 217.00" xmlns="http://www.w3.org/2000/svg" xmlns:xlink="http://www.w3.org/1999/xlink">
<g id="graph0" class="graph" transform="scale(1 1) rotate(0) translate(4 213)">
<title>tests.emulation.base.MediaType</title>
<!-- Node1 -->
<g id="Node000001" class="node">
<title>Node1</title>
<g id="a_Node000001"><a xlink:title="Types of media supported by modules.">
<polygon fill="#999999" stroke="transparent" points="169,-124 0,-124 0,0 169,0 169,-124"/>
<text text-anchor="start" x="5.5" y="-112" font-family="Helvetica,sans-Serif" font-size="10.00">tests.emulation.base.MediaType</text>
<text text-anchor="start" x="20" y="-97" font-family="Helvetica,sans-Serif" font-size="10.00">+</text>
<text text-anchor="start" x="48.5" y="-97" font-family="Helvetica,sans-Serif" font-size="10.00">COPPER_PASSIVE</text>
<text text-anchor="start" x="20" y="-82" font-family="Helvetica,sans-Serif" font-size="10.00">+</text>
<text text-anchor="start" x="48.5" y="-82" font-family="Helvetica,sans-Serif" font-size="10.00">COPPER_ACTIVE</text>
<text text-anchor="start" x="20" y="-67" font-family="Helvetica,sans-Serif" font-size="10.00">+</text>
<text text-anchor="start" x="48.5" y="-67" font-family="Helvetica,sans-Serif" font-size="10.00">MMF</text>
<text text-anchor="start" x="20" y="-52" font-family="Helvetica,sans-Serif" font-size="10.00">+</text>
<text text-anchor="start" x="48.5" y="-52" font-family="Helvetica,sans-Serif" font-size="10.00">SMF</text>
<text text-anchor="start" x="20" y="-37" font-family="Helvetica,sans-Serif" font-size="10.00">+</text>
<text text-anchor="start" x="48.5" y="-37" font-family="Helvetica,sans-Serif" font-size="10.00">SR</text>
<text text-anchor="start" x="20" y="-22" font-family="Helvetica,sans-Serif" font-size="10.00">+</text>
<text text-anchor="start" x="48.5" y="-22" font-family="Helvetica,sans-Serif" font-size="10.00">LR</text>
<text text-anchor="start" x="83" y="-7" font-family="Helvetica,sans-Serif" font-size="10.00"> </text>
<polygon fill="#666666" stroke="#666666" points="0.5,-107 0.5,-107 169.5,-107 169.5,-107 0.5,-107"/>
<polygon fill="#666666" stroke="#666666" points="0.5,-17 0.5,-17 46.5,-17 46.5,-17 0.5,-17"/>
<polygon fill="#666666" stroke="#666666" points="46.5,-17 46.5,-17 169.5,-17 169.5,-17 46.5,-17"/>
<polygon fill="none" stroke="#666666" points="0,0 0,-124 169,-124 169,0 0,0"/>
</a>
</g>
</g>
<!-- Node2 -->
<g id="Node000002" class="node">
<title>Node2</title>
<g id="a_Node000002"><a xlink:title=" ">
<polygon fill="white" stroke="transparent" points="103.5,-209 65.5,-209 65.5,-160 103.5,-160 103.5,-209"/>
<text text-anchor="start" x="70.5" y="-196.5" font-family="Helvetica,sans-Serif" font-size="10.00">Enum</text>
<text text-anchor="start" x="82.5" y="-181.5" font-family="Helvetica,sans-Serif" font-size="10.00"> </text>
<text text-anchor="start" x="82.5" y="-166.5" font-family="Helvetica,sans-Serif" font-size="10.00"> </text>
<polygon fill="#666666" stroke="#666666" points="65.5,-191.5 65.5,-191.5 103.5,-191.5 103.5,-191.5 65.5,-191.5"/>
<polygon fill="#666666" stroke="#666666" points="65.5,-176.5 65.5,-176.5 103.5,-176.5 103.5,-176.5 65.5,-176.5"/>
<polygon fill="none" stroke="#666666" points="65.5,-160 65.5,-209 103.5,-209 103.5,-160 65.5,-160"/>
</a>
</g>
</g>
<!-- Node2&#45;&gt;Node1 -->
<g id="edge1_Node000001_Node000002" class="edge">
<title>Node2&#45;&gt;Node1</title>
<g id="a_edge1_Node000001_Node000002"><a xlink:title=" ">
<path fill="none" stroke="#63b8ff" d="M84.5,-149.94C84.5,-141.91 84.5,-133.08 84.5,-124.23"/>
<polygon fill="none" stroke="#63b8ff" points="81,-149.98 84.5,-159.98 88,-149.98 81,-149.98"/>
</a>
</g>
</g>
</g>
</svg>
