<?xml version="1.0" encoding="UTF-8" standalone="no"?>
<!DOCTYPE svg PUBLIC "-//W3C//DTD SVG 1.1//EN"
 "http://www.w3.org/Graphics/SVG/1.1/DTD/svg11.dtd">
<!-- Generated by graphviz version 2.43.0 (0)
 -->
<!-- Title: src.modules.base.BaseModule Pages: 1 -->
<svg width="328pt" height="692pt"
 viewBox="0.00 0.00 328.00 692.00" xmlns="http://www.w3.org/2000/svg" xmlns:xlink="http://www.w3.org/1999/xlink">
<g id="graph0" class="graph" transform="scale(1 1) rotate(0) translate(4 688)">
<title>src.modules.base.BaseModule</title>
<!-- Node1 -->
<g id="Node000001" class="node">
<title>Node1</title>
<g id="a_Node000001"><a xlink:title=" ">
<polygon fill="#999999" stroke="transparent" points="243.5,-599 84.5,-599 84.5,-385 243.5,-385 243.5,-599"/>
<text text-anchor="start" x="90" y="-587" font-family="Helvetica,sans-Serif" font-size="10.00">src.modules.base.BaseModule</text>
<text text-anchor="start" x="94.5" y="-572" font-family="Helvetica,sans-Serif" font-size="10.00">+</text>
<text text-anchor="start" x="113" y="-572" font-family="Helvetica,sans-Serif" font-size="10.00">hw</text>
<text text-anchor="start" x="94.5" y="-557" font-family="Helvetica,sans-Serif" font-size="10.00">#</text>
<text text-anchor="start" x="113" y="-557" font-family="Helvetica,sans-Serif" font-size="10.00">_supported_capabilities</text>
<text text-anchor="start" x="94.5" y="-542" font-family="Helvetica,sans-Serif" font-size="10.00">+</text>
<text text-anchor="start" x="113" y="-542" font-family="Helvetica,sans-Serif" font-size="10.00">__init__()</text>
<text text-anchor="start" x="94.5" y="-527" font-family="Helvetica,sans-Serif" font-size="10.00">+</text>
<text text-anchor="start" x="113" y="-527" font-family="Helvetica,sans-Serif" font-size="10.00">initialize()</text>
<text text-anchor="start" x="94.5" y="-512" font-family="Helvetica,sans-Serif" font-size="10.00">+</text>
<text text-anchor="start" x="113" y="-512" font-family="Helvetica,sans-Serif" font-size="10.00">get_identification()</text>
<text text-anchor="start" x="94.5" y="-497" font-family="Helvetica,sans-Serif" font-size="10.00">+</text>
<text text-anchor="start" x="113" y="-497" font-family="Helvetica,sans-Serif" font-size="10.00">get_status()</text>
<text text-anchor="start" x="94.5" y="-482" font-family="Helvetica,sans-Serif" font-size="10.00">+</text>
<text text-anchor="start" x="113" y="-482" font-family="Helvetica,sans-Serif" font-size="10.00">get_capabilities()</text>
<text text-anchor="start" x="94.5" y="-467" font-family="Helvetica,sans-Serif" font-size="10.00">+</text>
<text text-anchor="start" x="113" y="-467" font-family="Helvetica,sans-Serif" font-size="10.00">has_capability()</text>
<text text-anchor="start" x="94.5" y="-452" font-family="Helvetica,sans-Serif" font-size="10.00">+</text>
<text text-anchor="start" x="113" y="-452" font-family="Helvetica,sans-Serif" font-size="10.00">validate_capabilities()</text>
<text text-anchor="start" x="94.5" y="-437" font-family="Helvetica,sans-Serif" font-size="10.00">+</text>
<text text-anchor="start" x="113" y="-437" font-family="Helvetica,sans-Serif" font-size="10.00">reset()</text>
<text text-anchor="start" x="94.5" y="-422" font-family="Helvetica,sans-Serif" font-size="10.00">+</text>
<text text-anchor="start" x="113" y="-422" font-family="Helvetica,sans-Serif" font-size="10.00">get_configuration()</text>
<text text-anchor="start" x="94.5" y="-407" font-family="Helvetica,sans-Serif" font-size="10.00">+</text>
<text text-anchor="start" x="113" y="-407" font-family="Helvetica,sans-Serif" font-size="10.00">set_configuration()</text>
<text text-anchor="start" x="94.5" y="-392" font-family="Helvetica,sans-Serif" font-size="10.00">+</text>
<text text-anchor="start" x="113" y="-392" font-family="Helvetica,sans-Serif" font-size="10.00">__str__()</text>
<polygon fill="#666666" stroke="#666666" points="85,-582 85,-582 244,-582 244,-582 85,-582"/>
<polygon fill="#666666" stroke="#666666" points="85,-552 85,-552 111,-552 111,-552 85,-552"/>
<polygon fill="#666666" stroke="#666666" points="111,-552 111,-552 244,-552 244,-552 111,-552"/>
<polygon fill="none" stroke="#666666" points="84.5,-385 84.5,-599 243.5,-599 243.5,-385 84.5,-385"/>
</a>
</g>
</g>
<!-- Node3 -->
<g id="Node000003" class="node">
<title>Node3</title>
<g id="a_Node000003"><a xlink:href="classsrc_1_1modules_1_1cmis_1_1CMISModule.html" target="_top" xlink:title=" ">
<polygon fill="white" stroke="transparent" points="160,-334 0,-334 0,-15 160,-15 160,-334"/>
<text text-anchor="start" x="5" y="-321.5" font-family="Helvetica,sans-Serif" font-size="10.00">src.modules.cmis.CMISModule</text>
<text text-anchor="start" x="9.5" y="-306.5" font-family="Helvetica,sans-Serif" font-size="10.00">#</text>
<text text-anchor="start" x="28" y="-306.5" font-family="Helvetica,sans-Serif" font-size="10.00">_required_capabilities</text>
<text text-anchor="start" x="9.5" y="-291.5" font-family="Helvetica,sans-Serif" font-size="10.00">#</text>
<text text-anchor="start" x="28" y="-291.5" font-family="Helvetica,sans-Serif" font-size="10.00">_optional_capabilities</text>
<text text-anchor="start" x="9.5" y="-276.5" font-family="Helvetica,sans-Serif" font-size="10.00">#</text>
<text text-anchor="start" x="28" y="-276.5" font-family="Helvetica,sans-Serif" font-size="10.00">_current_page</text>
<text text-anchor="start" x="9.5" y="-261.5" font-family="Helvetica,sans-Serif" font-size="10.00">#</text>
<text text-anchor="start" x="28" y="-261.5" font-family="Helvetica,sans-Serif" font-size="10.00">_supported_capabilities</text>
<text text-anchor="start" x="9.5" y="-246.5" font-family="Helvetica,sans-Serif" font-size="10.00">+</text>
<text text-anchor="start" x="28" y="-246.5" font-family="Helvetica,sans-Serif" font-size="10.00">__init__()</text>
<text text-anchor="start" x="9.5" y="-231.5" font-family="Helvetica,sans-Serif" font-size="10.00">+</text>
<text text-anchor="start" x="28" y="-231.5" font-family="Helvetica,sans-Serif" font-size="10.00">initialize()</text>
<text text-anchor="start" x="9.5" y="-216.5" font-family="Helvetica,sans-Serif" font-size="10.00">+</text>
<text text-anchor="start" x="28" y="-216.5" font-family="Helvetica,sans-Serif" font-size="10.00">get_identification()</text>
<text text-anchor="start" x="9.5" y="-201.5" font-family="Helvetica,sans-Serif" font-size="10.00">+</text>
<text text-anchor="start" x="28" y="-201.5" font-family="Helvetica,sans-Serif" font-size="10.00">get_status()</text>
<text text-anchor="start" x="9.5" y="-186.5" font-family="Helvetica,sans-Serif" font-size="10.00">+</text>
<text text-anchor="start" x="28" y="-186.5" font-family="Helvetica,sans-Serif" font-size="10.00">get_capabilities()</text>
<text text-anchor="start" x="9.5" y="-171.5" font-family="Helvetica,sans-Serif" font-size="10.00">+</text>
<text text-anchor="start" x="28" y="-171.5" font-family="Helvetica,sans-Serif" font-size="10.00">reset()</text>
<text text-anchor="start" x="9.5" y="-156.5" font-family="Helvetica,sans-Serif" font-size="10.00">+</text>
<text text-anchor="start" x="28" y="-156.5" font-family="Helvetica,sans-Serif" font-size="10.00">get_configuration()</text>
<text text-anchor="start" x="9.5" y="-141.5" font-family="Helvetica,sans-Serif" font-size="10.00">+</text>
<text text-anchor="start" x="28" y="-141.5" font-family="Helvetica,sans-Serif" font-size="10.00">set_configuration()</text>
<text text-anchor="start" x="9.5" y="-126.5" font-family="Helvetica,sans-Serif" font-size="10.00">#</text>
<text text-anchor="start" x="28" y="-126.5" font-family="Helvetica,sans-Serif" font-size="10.00">_detect_capabilities()</text>
<text text-anchor="start" x="9.5" y="-111.5" font-family="Helvetica,sans-Serif" font-size="10.00">#</text>
<text text-anchor="start" x="28" y="-111.5" font-family="Helvetica,sans-Serif" font-size="10.00">_select_page()</text>
<text text-anchor="start" x="9.5" y="-96.5" font-family="Helvetica,sans-Serif" font-size="10.00">#</text>
<text text-anchor="start" x="28" y="-96.5" font-family="Helvetica,sans-Serif" font-size="10.00">_read_string()</text>
<text text-anchor="start" x="9.5" y="-81.5" font-family="Helvetica,sans-Serif" font-size="10.00">#</text>
<text text-anchor="start" x="28" y="-81.5" font-family="Helvetica,sans-Serif" font-size="10.00">_read_word()</text>
<text text-anchor="start" x="9.5" y="-66.5" font-family="Helvetica,sans-Serif" font-size="10.00">#</text>
<text text-anchor="start" x="28" y="-66.5" font-family="Helvetica,sans-Serif" font-size="10.00">_decode_temperature()</text>
<text text-anchor="start" x="9.5" y="-51.5" font-family="Helvetica,sans-Serif" font-size="10.00">#</text>
<text text-anchor="start" x="28" y="-51.5" font-family="Helvetica,sans-Serif" font-size="10.00">_decode_voltage()</text>
<text text-anchor="start" x="9.5" y="-36.5" font-family="Helvetica,sans-Serif" font-size="10.00">#</text>
<text text-anchor="start" x="28" y="-36.5" font-family="Helvetica,sans-Serif" font-size="10.00">_decode_bias()</text>
<text text-anchor="start" x="9.5" y="-21.5" font-family="Helvetica,sans-Serif" font-size="10.00">#</text>
<text text-anchor="start" x="28" y="-21.5" font-family="Helvetica,sans-Serif" font-size="10.00">_decode_power()</text>
<polygon fill="#666666" stroke="#666666" points="0,-316.5 0,-316.5 160,-316.5 160,-316.5 0,-316.5"/>
<polygon fill="#666666" stroke="#666666" points="0,-256.5 0,-256.5 26,-256.5 26,-256.5 0,-256.5"/>
<polygon fill="#666666" stroke="#666666" points="26,-256.5 26,-256.5 160,-256.5 160,-256.5 26,-256.5"/>
<polygon fill="none" stroke="#666666" points="0,-15 0,-334 160,-334 160,-15 0,-15"/>
</a>
</g>
</g>
<!-- Node1&#45;&gt;Node3 -->
<g id="edge2_Node000001_Node000003" class="edge">
<title>Node1&#45;&gt;Node3</title>
<g id="a_edge2_Node000001_Node000003"><a xlink:title=" ">
<path fill="none" stroke="#63b8ff" d="M133.01,-374.61C129.49,-361.4 125.87,-347.77 122.24,-334.14"/>
<polygon fill="none" stroke="#63b8ff" points="129.72,-375.86 135.68,-384.63 136.49,-374.06 129.72,-375.86"/>
</a>
</g>
</g>
<!-- Node4 -->
<g id="Node000004" class="node">
<title>Node4</title>
<g id="a_Node000004"><a xlink:href="classsrc_1_1modules_1_1sff_1_1SFFModule.html" target="_top" xlink:title=" ">
<polygon fill="white" stroke="transparent" points="320,-349 178,-349 178,0 320,0 320,-349"/>
<text text-anchor="start" x="183" y="-336.5" font-family="Helvetica,sans-Serif" font-size="10.00">src.modules.sff.SFFModule</text>
<text text-anchor="start" x="182.5" y="-321.5" font-family="Helvetica,sans-Serif" font-size="10.00">#</text>
<text text-anchor="start" x="196" y="-321.5" font-family="Helvetica,sans-Serif" font-size="10.00">_required_capabilities</text>
<text text-anchor="start" x="182.5" y="-306.5" font-family="Helvetica,sans-Serif" font-size="10.00">#</text>
<text text-anchor="start" x="196" y="-306.5" font-family="Helvetica,sans-Serif" font-size="10.00">_optional_capabilities</text>
<text text-anchor="start" x="182.5" y="-291.5" font-family="Helvetica,sans-Serif" font-size="10.00">#</text>
<text text-anchor="start" x="196" y="-291.5" font-family="Helvetica,sans-Serif" font-size="10.00">_supported_capabilities</text>
<text text-anchor="start" x="182.5" y="-276.5" font-family="Helvetica,sans-Serif" font-size="10.00">+</text>
<text text-anchor="start" x="196" y="-276.5" font-family="Helvetica,sans-Serif" font-size="10.00">__init__()</text>
<text text-anchor="start" x="182.5" y="-261.5" font-family="Helvetica,sans-Serif" font-size="10.00">+</text>
<text text-anchor="start" x="196" y="-261.5" font-family="Helvetica,sans-Serif" font-size="10.00">initialize()</text>
<text text-anchor="start" x="182.5" y="-246.5" font-family="Helvetica,sans-Serif" font-size="10.00">+</text>
<text text-anchor="start" x="196" y="-246.5" font-family="Helvetica,sans-Serif" font-size="10.00">get_identification()</text>
<text text-anchor="start" x="182.5" y="-231.5" font-family="Helvetica,sans-Serif" font-size="10.00">+</text>
<text text-anchor="start" x="196" y="-231.5" font-family="Helvetica,sans-Serif" font-size="10.00">get_status()</text>
<text text-anchor="start" x="182.5" y="-216.5" font-family="Helvetica,sans-Serif" font-size="10.00">+</text>
<text text-anchor="start" x="196" y="-216.5" font-family="Helvetica,sans-Serif" font-size="10.00">get_capabilities()</text>
<text text-anchor="start" x="182.5" y="-201.5" font-family="Helvetica,sans-Serif" font-size="10.00">+</text>
<text text-anchor="start" x="196" y="-201.5" font-family="Helvetica,sans-Serif" font-size="10.00">reset()</text>
<text text-anchor="start" x="182.5" y="-186.5" font-family="Helvetica,sans-Serif" font-size="10.00">+</text>
<text text-anchor="start" x="196" y="-186.5" font-family="Helvetica,sans-Serif" font-size="10.00">get_configuration()</text>
<text text-anchor="start" x="182.5" y="-171.5" font-family="Helvetica,sans-Serif" font-size="10.00">+</text>
<text text-anchor="start" x="196" y="-171.5" font-family="Helvetica,sans-Serif" font-size="10.00">set_configuration()</text>
<text text-anchor="start" x="182.5" y="-156.5" font-family="Helvetica,sans-Serif" font-size="10.00">#</text>
<text text-anchor="start" x="196" y="-156.5" font-family="Helvetica,sans-Serif" font-size="10.00">_detect_capabilities()</text>
<text text-anchor="start" x="182.5" y="-141.5" font-family="Helvetica,sans-Serif" font-size="10.00">#</text>
<text text-anchor="start" x="196" y="-141.5" font-family="Helvetica,sans-Serif" font-size="10.00">_read_string()</text>
<text text-anchor="start" x="182.5" y="-126.5" font-family="Helvetica,sans-Serif" font-size="10.00">#</text>
<text text-anchor="start" x="196" y="-126.5" font-family="Helvetica,sans-Serif" font-size="10.00">_read_word()</text>
<text text-anchor="start" x="182.5" y="-111.5" font-family="Helvetica,sans-Serif" font-size="10.00">#</text>
<text text-anchor="start" x="196" y="-111.5" font-family="Helvetica,sans-Serif" font-size="10.00">_decode_temperature()</text>
<text text-anchor="start" x="182.5" y="-96.5" font-family="Helvetica,sans-Serif" font-size="10.00">#</text>
<text text-anchor="start" x="196" y="-96.5" font-family="Helvetica,sans-Serif" font-size="10.00">_decode_voltage()</text>
<text text-anchor="start" x="182.5" y="-81.5" font-family="Helvetica,sans-Serif" font-size="10.00">#</text>
<text text-anchor="start" x="196" y="-81.5" font-family="Helvetica,sans-Serif" font-size="10.00">_decode_bias()</text>
<text text-anchor="start" x="182.5" y="-66.5" font-family="Helvetica,sans-Serif" font-size="10.00">#</text>
<text text-anchor="start" x="196" y="-66.5" font-family="Helvetica,sans-Serif" font-size="10.00">_decode_power()</text>
<text text-anchor="start" x="182.5" y="-51.5" font-family="Helvetica,sans-Serif" font-size="10.00">#</text>
<text text-anchor="start" x="196" y="-51.5" font-family="Helvetica,sans-Serif" font-size="10.00">_get_tx_disable()</text>
<text text-anchor="start" x="182.5" y="-36.5" font-family="Helvetica,sans-Serif" font-size="10.00">#</text>
<text text-anchor="start" x="196" y="-36.5" font-family="Helvetica,sans-Serif" font-size="10.00">_set_tx_disable()</text>
<text text-anchor="start" x="182.5" y="-21.5" font-family="Helvetica,sans-Serif" font-size="10.00">#</text>
<text text-anchor="start" x="196" y="-21.5" font-family="Helvetica,sans-Serif" font-size="10.00">_get_alarm_thresholds()</text>
<text text-anchor="start" x="182.5" y="-6.5" font-family="Helvetica,sans-Serif" font-size="10.00">#</text>
<text text-anchor="start" x="196" y="-6.5" font-family="Helvetica,sans-Serif" font-size="10.00">_set_alarm_thresholds()</text>
<polygon fill="#666666" stroke="#666666" points="178,-331.5 178,-331.5 320,-331.5 320,-331.5 178,-331.5"/>
<polygon fill="#666666" stroke="#666666" points="178,-286.5 178,-286.5 194,-286.5 194,-286.5 178,-286.5"/>
<polygon fill="#666666" stroke="#666666" points="194,-286.5 194,-286.5 320,-286.5 320,-286.5 194,-286.5"/>
<polygon fill="none" stroke="#666666" points="178,0 178,-349 320,-349 320,0 178,0"/>
</a>
</g>
</g>
<!-- Node1&#45;&gt;Node4 -->
<g id="edge3_Node000001_Node000004" class="edge">
<title>Node1&#45;&gt;Node4</title>
<g id="a_edge3_Node000001_Node000004"><a xlink:title=" ">
<path fill="none" stroke="#63b8ff" d="M195.31,-374.8C197.58,-366.36 199.9,-357.74 202.24,-349.06"/>
<polygon fill="none" stroke="#63b8ff" points="191.88,-374.06 192.66,-384.63 198.64,-375.88 191.88,-374.06"/>
</a>
</g>
</g>
<!-- Node2 -->
<g id="Node000002" class="node">
<title>Node2</title>
<g id="a_Node000002"><a xlink:title=" ">
<polygon fill="white" stroke="transparent" points="179.5,-684 148.5,-684 148.5,-635 179.5,-635 179.5,-684"/>
<text text-anchor="start" x="154" y="-671.5" font-family="Helvetica,sans-Serif" font-size="10.00">ABC</text>
<text text-anchor="start" x="162.5" y="-656.5" font-family="Helvetica,sans-Serif" font-size="10.00"> </text>
<text text-anchor="start" x="162.5" y="-641.5" font-family="Helvetica,sans-Serif" font-size="10.00"> </text>
<polygon fill="#666666" stroke="#666666" points="149,-666.5 149,-666.5 180,-666.5 180,-666.5 149,-666.5"/>
<polygon fill="#666666" stroke="#666666" points="149,-651.5 149,-651.5 180,-651.5 180,-651.5 149,-651.5"/>
<polygon fill="none" stroke="#666666" points="148.5,-635 148.5,-684 179.5,-684 179.5,-635 148.5,-635"/>
</a>
</g>
</g>
<!-- Node2&#45;&gt;Node1 -->
<g id="edge1_Node000001_Node000002" class="edge">
<title>Node2&#45;&gt;Node1</title>
<g id="a_edge1_Node000001_Node000002"><a xlink:title=" ">
<path fill="none" stroke="#63b8ff" d="M164,-624.75C164,-616.93 164,-608.21 164,-599.07"/>
<polygon fill="none" stroke="#63b8ff" points="160.5,-624.79 164,-634.79 167.5,-624.79 160.5,-624.79"/>
</a>
</g>
</g>
</g>
</svg>
