<?xml version="1.0" encoding="UTF-8" standalone="no"?>
<!DOCTYPE svg PUBLIC "-//W3C//DTD SVG 1.1//EN"
 "http://www.w3.org/Graphics/SVG/1.1/DTD/svg11.dtd">
<!-- Generated by graphviz version 2.43.0 (0)
 -->
<!-- Title: sff_8024_mem.SFF8024_BasePage00h._decode_fields Pages: 1 -->
<svg width="344pt" height="320pt"
 viewBox="0.00 0.00 344.00 320.00" xmlns="http://www.w3.org/2000/svg" xmlns:xlink="http://www.w3.org/1999/xlink">
<g id="graph0" class="graph" transform="scale(1 1) rotate(0) translate(4 316)">
<title>sff_8024_mem.SFF8024_BasePage00h._decode_fields</title>
<!-- Node1 -->
<g id="Node000001" class="node">
<title>Node1</title>
<g id="a_Node000001"><a xlink:title=" ">
<polygon fill="#999999" stroke="#666666" points="336,-167.5 202,-167.5 202,-126.5 336,-126.5 336,-167.5"/>
<text text-anchor="start" x="210" y="-155.5" font-family="Helvetica,sans-Serif" font-size="10.00">sff_8024_mem.SFF8024</text>
<text text-anchor="start" x="210" y="-144.5" font-family="Helvetica,sans-Serif" font-size="10.00">_BasePage00h._decode</text>
<text text-anchor="middle" x="269" y="-133.5" font-family="Helvetica,sans-Serif" font-size="10.00">_fields</text>
</a>
</g>
</g>
<!-- Node2 -->
<g id="Node000002" class="node">
<title>Node2</title>
<g id="a_Node000002"><a xlink:href="classsff__8024__mem_1_1SFF8024__BasePage00h.html#ad40949dd2613d834634982da64e50ac2" target="_top" xlink:title=" ">
<polygon fill="white" stroke="#666666" points="150,-294 16,-294 16,-264 150,-264 150,-294"/>
<text text-anchor="start" x="24" y="-282" font-family="Helvetica,sans-Serif" font-size="10.00">sff_8024_mem.SFF8024</text>
<text text-anchor="middle" x="83" y="-271" font-family="Helvetica,sans-Serif" font-size="10.00">_BasePage00h.__init__</text>
</a>
</g>
</g>
<!-- Node1&#45;&gt;Node2 -->
<g id="edge1_Node000001_Node000002" class="edge">
<title>Node1&#45;&gt;Node2</title>
<g id="a_edge1_Node000001_Node000002"><a xlink:title=" ">
<path fill="none" stroke="#63b8ff" d="M247.76,-175.82C229.15,-200.26 199.45,-234.52 166,-255 160.43,-258.41 154.36,-261.35 148.11,-263.89"/>
<polygon fill="#63b8ff" stroke="#63b8ff" points="250.69,-177.74 253.86,-167.63 245.08,-173.55 250.69,-177.74"/>
</a>
</g>
</g>
<!-- Node3 -->
<g id="Node000003" class="node">
<title>Node3</title>
<g id="a_Node000003"><a xlink:href="classsff__8024__mem_1_1SFF8472__DOMMemorySpace.html#a67ab17ff1a6be4d18c8c0f02b507478e" target="_top" xlink:title=" ">
<polygon fill="white" stroke="#666666" points="160.5,-228 5.5,-228 5.5,-198 160.5,-198 160.5,-228"/>
<text text-anchor="start" x="13.5" y="-216" font-family="Helvetica,sans-Serif" font-size="10.00">sff_8024_mem.SFF8472</text>
<text text-anchor="middle" x="83" y="-205" font-family="Helvetica,sans-Serif" font-size="10.00">_DOMMemorySpace.__init__</text>
</a>
</g>
</g>
<!-- Node1&#45;&gt;Node3 -->
<g id="edge3_Node000001_Node000003" class="edge">
<title>Node1&#45;&gt;Node3</title>
<g id="a_edge3_Node000001_Node000003"><a xlink:title=" ">
<path fill="none" stroke="#63b8ff" d="M211.46,-171.53C196.78,-177.55 180.9,-183.77 166,-189 157.18,-192.1 147.74,-195.12 138.51,-197.92"/>
<polygon fill="#63b8ff" stroke="#63b8ff" points="213.02,-174.67 220.92,-167.61 210.34,-168.2 213.02,-174.67"/>
</a>
</g>
</g>
<!-- Node4 -->
<g id="Node000004" class="node">
<title>Node4</title>
<g id="a_Node000004"><a xlink:href="classsff__8024__mem_1_1SFF8636__Page00h.html#a7a36b5c87aa741ea03992d814f7efc01" target="_top" xlink:title=" ">
<polygon fill="white" stroke="#666666" points="150,-162 16,-162 16,-132 150,-132 150,-162"/>
<text text-anchor="start" x="24" y="-150" font-family="Helvetica,sans-Serif" font-size="10.00">sff_8024_mem.SFF8636</text>
<text text-anchor="middle" x="83" y="-139" font-family="Helvetica,sans-Serif" font-size="10.00">_Page00h.__init__</text>
</a>
</g>
</g>
<!-- Node1&#45;&gt;Node4 -->
<g id="edge5_Node000001_Node000004" class="edge">
<title>Node1&#45;&gt;Node4</title>
<g id="a_edge5_Node000001_Node000004"><a xlink:title=" ">
<path fill="none" stroke="#63b8ff" d="M191.46,-147C177.76,-147 163.58,-147 150.2,-147"/>
<polygon fill="#63b8ff" stroke="#63b8ff" points="191.83,-150.5 201.83,-147 191.83,-143.5 191.83,-150.5"/>
</a>
</g>
</g>
<!-- Node5 -->
<g id="Node000005" class="node">
<title>Node5</title>
<g id="a_Node000005"><a xlink:href="classsff__8024__mem_1_1SFF8636__Page01h__CD.html#a9f1e632510afa18f69b0fa1e54d0e2ac" target="_top" xlink:title=" ">
<polygon fill="white" stroke="#666666" points="150,-96 16,-96 16,-66 150,-66 150,-96"/>
<text text-anchor="start" x="24" y="-84" font-family="Helvetica,sans-Serif" font-size="10.00">sff_8024_mem.SFF8636</text>
<text text-anchor="middle" x="83" y="-73" font-family="Helvetica,sans-Serif" font-size="10.00">_Page01h_CD.__init__</text>
</a>
</g>
</g>
<!-- Node1&#45;&gt;Node5 -->
<g id="edge7_Node000001_Node000005" class="edge">
<title>Node1&#45;&gt;Node5</title>
<g id="a_edge7_Node000001_Node000005"><a xlink:title=" ">
<path fill="none" stroke="#63b8ff" d="M201.3,-123.07C176.14,-114.05 148.25,-104.05 125.98,-96.06"/>
<polygon fill="#63b8ff" stroke="#63b8ff" points="200.2,-126.4 210.79,-126.48 202.56,-119.81 200.2,-126.4"/>
</a>
</g>
</g>
<!-- Node6 -->
<g id="Node000006" class="node">
<title>Node6</title>
<g id="a_Node000006"><a xlink:href="classsff__8024__mem_1_1CMIS__Page00h.html#afc44e0d8e0cfbd69e8201b72cfc10bcd" target="_top" xlink:title=" ">
<polygon fill="white" stroke="#666666" points="166,-30 0,-30 0,0 166,0 166,-30"/>
<text text-anchor="start" x="8" y="-18" font-family="Helvetica,sans-Serif" font-size="10.00">sff_8024_mem.CMIS_Page00h.</text>
<text text-anchor="middle" x="83" y="-7" font-family="Helvetica,sans-Serif" font-size="10.00">__init__</text>
</a>
</g>
</g>
<!-- Node1&#45;&gt;Node6 -->
<g id="edge9_Node000001_Node000006" class="edge">
<title>Node1&#45;&gt;Node6</title>
<g id="a_edge9_Node000001_Node000006"><a xlink:title=" ">
<path fill="none" stroke="#63b8ff" d="M240.39,-119.21C220.71,-100.29 193.05,-75.43 166,-57 151.06,-46.82 133.34,-37.45 118.19,-30.15"/>
<polygon fill="#63b8ff" stroke="#63b8ff" points="238.17,-121.94 247.78,-126.4 243.05,-116.92 238.17,-121.94"/>
</a>
</g>
</g>
<!-- Node2&#45;&gt;Node2 -->
<g id="edge2_Node000002_Node000002" class="edge">
<title>Node2&#45;&gt;Node2</title>
<g id="a_edge2_Node000002_Node000002"><a xlink:title=" ">
<path fill="none" stroke="#63b8ff" d="M115.56,-304.6C111.11,-308.97 100.26,-312 83,-312 53.94,-312 43.04,-303.41 50.3,-294.28"/>
<polygon fill="#63b8ff" stroke="#63b8ff" points="119.06,-304.32 115.7,-294.28 112.06,-304.23 119.06,-304.32"/>
</a>
</g>
</g>
<!-- Node3&#45;&gt;Node3 -->
<g id="edge4_Node000003_Node000003" class="edge">
<title>Node3&#45;&gt;Node3</title>
<g id="a_edge4_Node000003_Node000003"><a xlink:title=" ">
<path fill="none" stroke="#63b8ff" d="M115.56,-238.6C111.11,-242.97 100.26,-246 83,-246 53.94,-246 43.04,-237.41 50.3,-228.28"/>
<polygon fill="#63b8ff" stroke="#63b8ff" points="119.06,-238.32 115.7,-228.28 112.06,-238.23 119.06,-238.32"/>
</a>
</g>
</g>
<!-- Node4&#45;&gt;Node4 -->
<g id="edge6_Node000004_Node000004" class="edge">
<title>Node4&#45;&gt;Node4</title>
<g id="a_edge6_Node000004_Node000004"><a xlink:title=" ">
<path fill="none" stroke="#63b8ff" d="M115.56,-172.6C111.11,-176.97 100.26,-180 83,-180 53.94,-180 43.04,-171.41 50.3,-162.28"/>
<polygon fill="#63b8ff" stroke="#63b8ff" points="119.06,-172.32 115.7,-162.28 112.06,-172.23 119.06,-172.32"/>
</a>
</g>
</g>
<!-- Node5&#45;&gt;Node5 -->
<g id="edge8_Node000005_Node000005" class="edge">
<title>Node5&#45;&gt;Node5</title>
<g id="a_edge8_Node000005_Node000005"><a xlink:title=" ">
<path fill="none" stroke="#63b8ff" d="M115.56,-106.6C111.11,-110.97 100.26,-114 83,-114 53.94,-114 43.04,-105.41 50.3,-96.28"/>
<polygon fill="#63b8ff" stroke="#63b8ff" points="119.06,-106.32 115.7,-96.28 112.06,-106.23 119.06,-106.32"/>
</a>
</g>
</g>
<!-- Node6&#45;&gt;Node6 -->
<g id="edge10_Node000006_Node000006" class="edge">
<title>Node6&#45;&gt;Node6</title>
<g id="a_edge10_Node000006_Node000006"><a xlink:title=" ">
<path fill="none" stroke="#63b8ff" d="M115.56,-40.6C111.11,-44.97 100.26,-48 83,-48 53.94,-48 43.04,-39.41 50.3,-30.28"/>
<polygon fill="#63b8ff" stroke="#63b8ff" points="119.06,-40.32 115.7,-30.28 112.06,-40.23 119.06,-40.32"/>
</a>
</g>
</g>
</g>
</svg>
