<?xml version="1.0" encoding="UTF-8" standalone="no"?>
<!DOCTYPE svg PUBLIC "-//W3C//DTD SVG 1.1//EN"
 "http://www.w3.org/Graphics/SVG/1.1/DTD/svg11.dtd">
<!-- Generated by graphviz version 2.43.0 (0)
 -->
<!-- Title: src.modules.sff.SFFModule.get_status Pages: 1 -->
<svg width="396pt" height="518pt"
 viewBox="0.00 0.00 396.00 518.00" xmlns="http://www.w3.org/2000/svg" xmlns:xlink="http://www.w3.org/1999/xlink">
<g id="graph0" class="graph" transform="scale(1 1) rotate(0) translate(4 514)">
<title>src.modules.sff.SFFModule.get_status</title>
<!-- Node1 -->
<g id="Node000001" class="node">
<title>Node1</title>
<g id="a_Node000001"><a xlink:title=" ">
<polygon fill="#999999" stroke="#666666" points="167,-270 0,-270 0,-240 167,-240 167,-270"/>
<text text-anchor="start" x="8" y="-258" font-family="Helvetica,sans-Serif" font-size="10.00">src.modules.sff.SFFModule.get</text>
<text text-anchor="middle" x="83.5" y="-247" font-family="Helvetica,sans-Serif" font-size="10.00">_status</text>
</a>
</g>
</g>
<!-- Node2 -->
<g id="Node000002" class="node">
<title>Node2</title>
<g id="a_Node000002"><a xlink:href="classsrc_1_1modules_1_1cmis_1_1CMISModule.html#a046ac30329003ca80d1ef63c9330a9e4" target="_top" xlink:title=" ">
<polygon fill="white" stroke="#666666" points="380,-510 211,-510 211,-480 380,-480 380,-510"/>
<text text-anchor="start" x="219" y="-498" font-family="Helvetica,sans-Serif" font-size="10.00">src.modules.cmis.CMISModule.</text>
<text text-anchor="middle" x="295.5" y="-487" font-family="Helvetica,sans-Serif" font-size="10.00">_decode_bias</text>
</a>
</g>
</g>
<!-- Node1&#45;&gt;Node2 -->
<g id="edge1_Node000001_Node000002" class="edge">
<title>Node1&#45;&gt;Node2</title>
<g id="a_edge1_Node000001_Node000002"><a xlink:title=" ">
<path fill="none" stroke="#63b8ff" d="M88.27,-270.01C98.97,-309.44 133.37,-416.65 203,-471 204.79,-472.4 206.65,-473.71 208.57,-474.95"/>
<polygon fill="#63b8ff" stroke="#63b8ff" points="206.92,-478.03 217.34,-479.91 210.36,-471.94 206.92,-478.03"/>
</a>
</g>
</g>
<!-- Node3 -->
<g id="Node000003" class="node">
<title>Node3</title>
<g id="a_Node000003"><a xlink:href="classsrc_1_1modules_1_1sff_1_1SFFModule.html#a0948fe9fddb54514cf2bc157b2949225" target="_top" xlink:title=" ">
<polygon fill="white" stroke="#666666" points="371,-462 220,-462 220,-432 371,-432 371,-462"/>
<text text-anchor="start" x="228" y="-450" font-family="Helvetica,sans-Serif" font-size="10.00">src.modules.sff.SFFModule.</text>
<text text-anchor="middle" x="295.5" y="-439" font-family="Helvetica,sans-Serif" font-size="10.00">_decode_bias</text>
</a>
</g>
</g>
<!-- Node1&#45;&gt;Node3 -->
<g id="edge2_Node000001_Node000003" class="edge">
<title>Node1&#45;&gt;Node3</title>
<g id="a_edge2_Node000001_Node000003"><a xlink:title=" ">
<path fill="none" stroke="#63b8ff" d="M90.72,-270.01C105.21,-303.06 144.49,-382.41 203,-423 205.4,-424.67 207.92,-426.22 210.51,-427.66"/>
<polygon fill="#63b8ff" stroke="#63b8ff" points="209.09,-430.87 219.6,-432.17 212.2,-424.59 209.09,-430.87"/>
</a>
</g>
</g>
<!-- Node4 -->
<g id="Node000004" class="node">
<title>Node4</title>
<g id="a_Node000004"><a xlink:href="classsrc_1_1modules_1_1cmis_1_1CMISModule.html#aeff7edb37fc769148a67a40edaf417a0" target="_top" xlink:title=" ">
<polygon fill="white" stroke="#666666" points="380,-414 211,-414 211,-384 380,-384 380,-414"/>
<text text-anchor="start" x="219" y="-402" font-family="Helvetica,sans-Serif" font-size="10.00">src.modules.cmis.CMISModule.</text>
<text text-anchor="middle" x="295.5" y="-391" font-family="Helvetica,sans-Serif" font-size="10.00">_decode_power</text>
</a>
</g>
</g>
<!-- Node1&#45;&gt;Node4 -->
<g id="edge3_Node000001_Node000004" class="edge">
<title>Node1&#45;&gt;Node4</title>
<g id="a_edge3_Node000001_Node000004"><a xlink:title=" ">
<path fill="none" stroke="#63b8ff" d="M95.05,-270.07C113.77,-295.65 155.34,-347.45 203,-375 206.08,-376.78 209.29,-378.43 212.59,-379.96"/>
<polygon fill="#63b8ff" stroke="#63b8ff" points="211.52,-383.31 222.1,-383.96 214.24,-376.86 211.52,-383.31"/>
</a>
</g>
</g>
<!-- Node5 -->
<g id="Node000005" class="node">
<title>Node5</title>
<g id="a_Node000005"><a xlink:href="classsrc_1_1modules_1_1sff_1_1SFFModule.html#a19a48fda57b98b49a3d3966a17afe9e1" target="_top" xlink:title=" ">
<polygon fill="white" stroke="#666666" points="371,-366 220,-366 220,-336 371,-336 371,-366"/>
<text text-anchor="start" x="228" y="-354" font-family="Helvetica,sans-Serif" font-size="10.00">src.modules.sff.SFFModule.</text>
<text text-anchor="middle" x="295.5" y="-343" font-family="Helvetica,sans-Serif" font-size="10.00">_decode_power</text>
</a>
</g>
</g>
<!-- Node1&#45;&gt;Node5 -->
<g id="edge4_Node000001_Node000005" class="edge">
<title>Node1&#45;&gt;Node5</title>
<g id="a_edge4_Node000001_Node000005"><a xlink:title=" ">
<path fill="none" stroke="#63b8ff" d="M105.33,-270.24C128.25,-286.37 166.66,-311.58 203,-327 207.79,-329.03 212.8,-330.93 217.89,-332.69"/>
<polygon fill="#63b8ff" stroke="#63b8ff" points="217.18,-336.14 227.77,-335.92 219.35,-329.49 217.18,-336.14"/>
</a>
</g>
</g>
<!-- Node6 -->
<g id="Node000006" class="node">
<title>Node6</title>
<g id="a_Node000006"><a xlink:href="classsrc_1_1modules_1_1cmis_1_1CMISModule.html#a2e52928a493945775d160881310609e6" target="_top" xlink:title=" ">
<polygon fill="white" stroke="#666666" points="380,-318 211,-318 211,-288 380,-288 380,-318"/>
<text text-anchor="start" x="219" y="-306" font-family="Helvetica,sans-Serif" font-size="10.00">src.modules.cmis.CMISModule.</text>
<text text-anchor="middle" x="295.5" y="-295" font-family="Helvetica,sans-Serif" font-size="10.00">_decode_temperature</text>
</a>
</g>
</g>
<!-- Node1&#45;&gt;Node6 -->
<g id="edge5_Node000001_Node000006" class="edge">
<title>Node1&#45;&gt;Node6</title>
<g id="a_edge5_Node000001_Node000006"><a xlink:title=" ">
<path fill="none" stroke="#63b8ff" d="M150.37,-270.06C172.16,-275.04 196.58,-280.62 219.04,-285.75"/>
<polygon fill="#63b8ff" stroke="#63b8ff" points="218.34,-289.18 228.86,-288 219.9,-282.36 218.34,-289.18"/>
</a>
</g>
</g>
<!-- Node7 -->
<g id="Node000007" class="node">
<title>Node7</title>
<g id="a_Node000007"><a xlink:href="classsrc_1_1modules_1_1sff_1_1SFFModule.html#a8fadfa018dd158d3af7de512c2a85dc2" target="_top" xlink:title=" ">
<polygon fill="white" stroke="#666666" points="371,-270 220,-270 220,-240 371,-240 371,-270"/>
<text text-anchor="start" x="228" y="-258" font-family="Helvetica,sans-Serif" font-size="10.00">src.modules.sff.SFFModule.</text>
<text text-anchor="middle" x="295.5" y="-247" font-family="Helvetica,sans-Serif" font-size="10.00">_decode_temperature</text>
</a>
</g>
</g>
<!-- Node1&#45;&gt;Node7 -->
<g id="edge6_Node000001_Node000007" class="edge">
<title>Node1&#45;&gt;Node7</title>
<g id="a_edge6_Node000001_Node000007"><a xlink:title=" ">
<path fill="none" stroke="#63b8ff" d="M167.2,-255C181.14,-255 195.64,-255 209.64,-255"/>
<polygon fill="#63b8ff" stroke="#63b8ff" points="209.73,-258.5 219.73,-255 209.73,-251.5 209.73,-258.5"/>
</a>
</g>
</g>
<!-- Node8 -->
<g id="Node000008" class="node">
<title>Node8</title>
<g id="a_Node000008"><a xlink:href="classsrc_1_1modules_1_1cmis_1_1CMISModule.html#a1f4a9d4397232ca2cf166c74a50c00eb" target="_top" xlink:title=" ">
<polygon fill="white" stroke="#666666" points="380,-222 211,-222 211,-192 380,-192 380,-222"/>
<text text-anchor="start" x="219" y="-210" font-family="Helvetica,sans-Serif" font-size="10.00">src.modules.cmis.CMISModule.</text>
<text text-anchor="middle" x="295.5" y="-199" font-family="Helvetica,sans-Serif" font-size="10.00">_decode_voltage</text>
</a>
</g>
</g>
<!-- Node1&#45;&gt;Node8 -->
<g id="edge7_Node000001_Node000008" class="edge">
<title>Node1&#45;&gt;Node8</title>
<g id="a_edge7_Node000001_Node000008"><a xlink:title=" ">
<path fill="none" stroke="#63b8ff" d="M150.37,-239.94C172.16,-234.96 196.58,-229.38 219.04,-224.25"/>
<polygon fill="#63b8ff" stroke="#63b8ff" points="219.9,-227.64 228.86,-222 218.34,-220.82 219.9,-227.64"/>
</a>
</g>
</g>
<!-- Node9 -->
<g id="Node000009" class="node">
<title>Node9</title>
<g id="a_Node000009"><a xlink:href="classsrc_1_1modules_1_1sff_1_1SFFModule.html#ad676a05e85ca2bb115955df520510140" target="_top" xlink:title=" ">
<polygon fill="white" stroke="#666666" points="371,-174 220,-174 220,-144 371,-144 371,-174"/>
<text text-anchor="start" x="228" y="-162" font-family="Helvetica,sans-Serif" font-size="10.00">src.modules.sff.SFFModule.</text>
<text text-anchor="middle" x="295.5" y="-151" font-family="Helvetica,sans-Serif" font-size="10.00">_decode_voltage</text>
</a>
</g>
</g>
<!-- Node1&#45;&gt;Node9 -->
<g id="edge8_Node000001_Node000009" class="edge">
<title>Node1&#45;&gt;Node9</title>
<g id="a_edge8_Node000001_Node000009"><a xlink:title=" ">
<path fill="none" stroke="#63b8ff" d="M105.33,-239.76C128.25,-223.63 166.66,-198.42 203,-183 207.79,-180.97 212.8,-179.07 217.89,-177.31"/>
<polygon fill="#63b8ff" stroke="#63b8ff" points="219.35,-180.51 227.77,-174.08 217.18,-173.86 219.35,-180.51"/>
</a>
</g>
</g>
<!-- Node10 -->
<g id="Node000010" class="node">
<title>Node10</title>
<g id="a_Node000010"><a xlink:href="classsrc_1_1modules_1_1cmis_1_1CMISModule.html#a27e41dccd22970678e2a32a7234ca8d6" target="_top" xlink:title=" ">
<polygon fill="white" stroke="#666666" points="380,-126 211,-126 211,-96 380,-96 380,-126"/>
<text text-anchor="start" x="219" y="-114" font-family="Helvetica,sans-Serif" font-size="10.00">src.modules.cmis.CMISModule.</text>
<text text-anchor="middle" x="295.5" y="-103" font-family="Helvetica,sans-Serif" font-size="10.00">_read_word</text>
</a>
</g>
</g>
<!-- Node1&#45;&gt;Node10 -->
<g id="edge9_Node000001_Node000010" class="edge">
<title>Node1&#45;&gt;Node10</title>
<g id="a_edge9_Node000001_Node000010"><a xlink:title=" ">
<path fill="none" stroke="#63b8ff" d="M95.05,-239.93C113.77,-214.35 155.34,-162.55 203,-135 206.08,-133.22 209.29,-131.57 212.59,-130.04"/>
<polygon fill="#63b8ff" stroke="#63b8ff" points="214.24,-133.14 222.1,-126.04 211.52,-126.69 214.24,-133.14"/>
</a>
</g>
</g>
<!-- Node11 -->
<g id="Node000011" class="node">
<title>Node11</title>
<g id="a_Node000011"><a xlink:href="classsrc_1_1modules_1_1sff_1_1SFFModule.html#ace3c41f8e23948b1d90f9e227aa1d98d" target="_top" xlink:title=" ">
<polygon fill="white" stroke="#666666" points="371,-78 220,-78 220,-48 371,-48 371,-78"/>
<text text-anchor="start" x="228" y="-66" font-family="Helvetica,sans-Serif" font-size="10.00">src.modules.sff.SFFModule.</text>
<text text-anchor="middle" x="295.5" y="-55" font-family="Helvetica,sans-Serif" font-size="10.00">_read_word</text>
</a>
</g>
</g>
<!-- Node1&#45;&gt;Node11 -->
<g id="edge10_Node000001_Node000011" class="edge">
<title>Node1&#45;&gt;Node11</title>
<g id="a_edge10_Node000001_Node000011"><a xlink:title=" ">
<path fill="none" stroke="#63b8ff" d="M90.72,-239.99C105.21,-206.94 144.49,-127.59 203,-87 205.4,-85.33 207.92,-83.78 210.51,-82.34"/>
<polygon fill="#63b8ff" stroke="#63b8ff" points="212.2,-85.41 219.6,-77.83 209.09,-79.13 212.2,-85.41"/>
</a>
</g>
</g>
<!-- Node12 -->
<g id="Node000012" class="node">
<title>Node12</title>
<g id="a_Node000012"><a xlink:href="classsrc_1_1modules_1_1base_1_1BaseModule.html#a6bb8e32dd8de03f2b3529d499d6f07af" target="_top" xlink:title=" ">
<polygon fill="white" stroke="#666666" points="388,-30 203,-30 203,0 388,0 388,-30"/>
<text text-anchor="start" x="211" y="-18" font-family="Helvetica,sans-Serif" font-size="10.00">src.modules.base.BaseModule.has</text>
<text text-anchor="middle" x="295.5" y="-7" font-family="Helvetica,sans-Serif" font-size="10.00">_capability</text>
</a>
</g>
</g>
<!-- Node1&#45;&gt;Node12 -->
<g id="edge11_Node000001_Node000012" class="edge">
<title>Node1&#45;&gt;Node12</title>
<g id="a_edge11_Node000001_Node000012"><a xlink:title=" ">
<path fill="none" stroke="#63b8ff" d="M88.27,-239.99C98.97,-200.56 133.37,-93.35 203,-39 204.79,-37.6 206.65,-36.29 208.57,-35.05"/>
<polygon fill="#63b8ff" stroke="#63b8ff" points="210.36,-38.06 217.34,-30.09 206.92,-31.97 210.36,-38.06"/>
</a>
</g>
</g>
</g>
</svg>
