<?xml version="1.0" encoding="UTF-8" standalone="no"?>
<!DOCTYPE svg PUBLIC "-//W3C//DTD SVG 1.1//EN"
 "http://www.w3.org/Graphics/SVG/1.1/DTD/svg11.dtd">
<!-- Generated by graphviz version 2.43.0 (0)
 -->
<!-- Title: src.detection.detector.ModuleDetector.get_module_info Pages: 1 -->
<svg width="571pt" height="182pt"
 viewBox="0.00 0.00 571.00 182.00" xmlns="http://www.w3.org/2000/svg" xmlns:xlink="http://www.w3.org/1999/xlink">
<g id="graph0" class="graph" transform="scale(1 1) rotate(0) translate(4 178)">
<title>src.detection.detector.ModuleDetector.get_module_info</title>
<!-- Node1 -->
<g id="Node000001" class="node">
<title>Node1</title>
<g id="a_Node000001"><a xlink:title=" ">
<polygon fill="#999999" stroke="#666666" points="161,-102 0,-102 0,-72 161,-72 161,-102"/>
<text text-anchor="start" x="8" y="-90" font-family="Helvetica,sans-Serif" font-size="10.00">src.detection.detector.Module</text>
<text text-anchor="middle" x="80.5" y="-79" font-family="Helvetica,sans-Serif" font-size="10.00">Detector.get_module_info</text>
</a>
</g>
</g>
<!-- Node2 -->
<g id="Node000002" class="node">
<title>Node2</title>
<g id="a_Node000002"><a xlink:href="classsrc_1_1detection_1_1detector_1_1ModuleDetector.html#a1381963782d79a461415eb8e7219544d" target="_top" xlink:title=" ">
<polygon fill="white" stroke="#666666" points="362,-174 201,-174 201,-144 362,-144 362,-174"/>
<text text-anchor="start" x="209" y="-162" font-family="Helvetica,sans-Serif" font-size="10.00">src.detection.detector.Module</text>
<text text-anchor="middle" x="281.5" y="-151" font-family="Helvetica,sans-Serif" font-size="10.00">Detector._read_string</text>
</a>
</g>
</g>
<!-- Node1&#45;&gt;Node2 -->
<g id="edge1_Node000001_Node000002" class="edge">
<title>Node1&#45;&gt;Node2</title>
<g id="a_edge1_Node000001_Node000002"><a xlink:title=" ">
<path fill="none" stroke="#63b8ff" d="M114.97,-102.1C137.82,-112.11 168.92,-125.17 197,-135 202.79,-137.03 208.85,-139.02 214.95,-140.93"/>
<polygon fill="#63b8ff" stroke="#63b8ff" points="213.94,-144.28 224.53,-143.87 215.99,-137.59 213.94,-144.28"/>
</a>
</g>
</g>
<!-- Node3 -->
<g id="Node000003" class="node">
<title>Node3</title>
<g id="a_Node000003"><a xlink:href="classsrc_1_1modules_1_1cmis_1_1CMISModule.html#a7de855e3b1f7db0ff57db1ae6f0870dd" target="_top" xlink:title=" ">
<polygon fill="white" stroke="#666666" points="366,-126 197,-126 197,-96 366,-96 366,-126"/>
<text text-anchor="start" x="205" y="-114" font-family="Helvetica,sans-Serif" font-size="10.00">src.modules.cmis.CMISModule.</text>
<text text-anchor="middle" x="281.5" y="-103" font-family="Helvetica,sans-Serif" font-size="10.00">_read_string</text>
</a>
</g>
</g>
<!-- Node1&#45;&gt;Node3 -->
<g id="edge2_Node000001_Node000003" class="edge">
<title>Node1&#45;&gt;Node3</title>
<g id="a_edge2_Node000001_Node000003"><a xlink:title=" ">
<path fill="none" stroke="#63b8ff" d="M161.01,-96.59C169.49,-97.61 178.17,-98.66 186.8,-99.7"/>
<polygon fill="#63b8ff" stroke="#63b8ff" points="186.53,-103.19 196.88,-100.92 187.37,-96.24 186.53,-103.19"/>
</a>
</g>
</g>
<!-- Node4 -->
<g id="Node000004" class="node">
<title>Node4</title>
<g id="a_Node000004"><a xlink:href="classsrc_1_1modules_1_1sff_1_1SFFModule.html#a057e8bce361ffbe39bf662c71e19dc84" target="_top" xlink:title=" ">
<polygon fill="white" stroke="#666666" points="357,-78 206,-78 206,-48 357,-48 357,-78"/>
<text text-anchor="start" x="214" y="-66" font-family="Helvetica,sans-Serif" font-size="10.00">src.modules.sff.SFFModule.</text>
<text text-anchor="middle" x="281.5" y="-55" font-family="Helvetica,sans-Serif" font-size="10.00">_read_string</text>
</a>
</g>
</g>
<!-- Node1&#45;&gt;Node4 -->
<g id="edge3_Node000001_Node000004" class="edge">
<title>Node1&#45;&gt;Node4</title>
<g id="a_edge3_Node000001_Node000004"><a xlink:title=" ">
<path fill="none" stroke="#63b8ff" d="M161.01,-77.41C172.48,-76.03 184.32,-74.6 195.89,-73.2"/>
<polygon fill="#63b8ff" stroke="#63b8ff" points="196.46,-76.66 205.96,-71.99 195.62,-69.71 196.46,-76.66"/>
</a>
</g>
</g>
<!-- Node5 -->
<g id="Node000005" class="node">
<title>Node5</title>
<g id="a_Node000005"><a xlink:href="classsrc_1_1detection_1_1detector_1_1ModuleDetector.html#a8ad3770cfbbe1e7be572fc3315e31487" target="_top" xlink:title=" ">
<polygon fill="white" stroke="#666666" points="365,-30 198,-30 198,0 365,0 365,-30"/>
<text text-anchor="start" x="206" y="-18" font-family="Helvetica,sans-Serif" font-size="10.00">src.detection.detector.Module</text>
<text text-anchor="middle" x="281.5" y="-7" font-family="Helvetica,sans-Serif" font-size="10.00">Detector.identify_module_type</text>
</a>
</g>
</g>
<!-- Node1&#45;&gt;Node5 -->
<g id="edge4_Node000001_Node000005" class="edge">
<title>Node1&#45;&gt;Node5</title>
<g id="a_edge4_Node000001_Node000005"><a xlink:title=" ">
<path fill="none" stroke="#63b8ff" d="M114.97,-71.9C137.82,-61.89 168.92,-48.83 197,-39 202.79,-36.97 208.85,-34.98 214.95,-33.07"/>
<polygon fill="#63b8ff" stroke="#63b8ff" points="215.99,-36.41 224.53,-30.13 213.94,-29.72 215.99,-36.41"/>
</a>
</g>
</g>
<!-- Node6 -->
<g id="Node000006" class="node">
<title>Node6</title>
<g id="a_Node000006"><a xlink:href="classsrc_1_1detection_1_1detector_1_1ModuleDetector.html#a4aebce34f38a358d1e6c8703fa915868" target="_top" xlink:title=" ">
<polygon fill="white" stroke="#666666" points="563,-30 402,-30 402,0 563,0 563,-30"/>
<text text-anchor="start" x="410" y="-18" font-family="Helvetica,sans-Serif" font-size="10.00">src.detection.detector.Module</text>
<text text-anchor="middle" x="482.5" y="-7" font-family="Helvetica,sans-Serif" font-size="10.00">Detector.is_module_present</text>
</a>
</g>
</g>
<!-- Node5&#45;&gt;Node6 -->
<g id="edge5_Node000005_Node000006" class="edge">
<title>Node5&#45;&gt;Node6</title>
<g id="a_edge5_Node000005_Node000006"><a xlink:title=" ">
<path fill="none" stroke="#63b8ff" d="M365.17,-15C374.01,-15 383.04,-15 391.96,-15"/>
<polygon fill="#63b8ff" stroke="#63b8ff" points="391.97,-18.5 401.97,-15 391.97,-11.5 391.97,-18.5"/>
</a>
</g>
</g>
</g>
</svg>
