<?xml version="1.0" encoding="UTF-8" standalone="no"?>
<!DOCTYPE svg PUBLIC "-//W3C//DTD SVG 1.1//EN"
 "http://www.w3.org/Graphics/SVG/1.1/DTD/svg11.dtd">
<!-- Generated by graphviz version 2.43.0 (0)
 -->
<!-- Title: tests.emulation.base.EmulatedModule Pages: 1 -->
<svg width="171pt" height="569pt"
 viewBox="0.00 0.00 171.00 569.00" xmlns="http://www.w3.org/2000/svg" xmlns:xlink="http://www.w3.org/1999/xlink">
<g id="graph0" class="graph" transform="scale(1 1) rotate(0) translate(4 565)">
<title>tests.emulation.base.EmulatedModule</title>
<!-- Node1 -->
<g id="Node000001" class="node">
<title>Node1</title>
<g id="a_Node000001"><a xlink:title="Base class for emulated modules.">
<polygon fill="#999999" stroke="transparent" points="163,-476 0,-476 0,0 163,0 163,-476"/>
<text text-anchor="start" x="5.5" y="-464" font-family="Helvetica,sans-Serif" font-size="10.00">tests.emulation.base.Emulated</text>
<text text-anchor="start" x="63.5" y="-453" font-family="Helvetica,sans-Serif" font-size="10.00">Module</text>
<text text-anchor="start" x="11" y="-438" font-family="Helvetica,sans-Serif" font-size="10.00">+</text>
<text text-anchor="start" x="30.5" y="-438" font-family="Helvetica,sans-Serif" font-size="10.00">config</text>
<text text-anchor="start" x="11" y="-423" font-family="Helvetica,sans-Serif" font-size="10.00">+</text>
<text text-anchor="start" x="30.5" y="-423" font-family="Helvetica,sans-Serif" font-size="10.00">memory_map</text>
<text text-anchor="start" x="11" y="-408" font-family="Helvetica,sans-Serif" font-size="10.00">#</text>
<text text-anchor="start" x="30.5" y="-408" font-family="Helvetica,sans-Serif" font-size="10.00">_gpio_states</text>
<text text-anchor="start" x="11" y="-393" font-family="Helvetica,sans-Serif" font-size="10.00">#</text>
<text text-anchor="start" x="30.5" y="-393" font-family="Helvetica,sans-Serif" font-size="10.00">_temperature</text>
<text text-anchor="start" x="11" y="-378" font-family="Helvetica,sans-Serif" font-size="10.00">#</text>
<text text-anchor="start" x="30.5" y="-378" font-family="Helvetica,sans-Serif" font-size="10.00">_voltage</text>
<text text-anchor="start" x="11" y="-363" font-family="Helvetica,sans-Serif" font-size="10.00">#</text>
<text text-anchor="start" x="30.5" y="-363" font-family="Helvetica,sans-Serif" font-size="10.00">_tx_disable</text>
<text text-anchor="start" x="11" y="-348" font-family="Helvetica,sans-Serif" font-size="10.00">#</text>
<text text-anchor="start" x="30.5" y="-348" font-family="Helvetica,sans-Serif" font-size="10.00">_tx_fault</text>
<text text-anchor="start" x="11" y="-333" font-family="Helvetica,sans-Serif" font-size="10.00">#</text>
<text text-anchor="start" x="30.5" y="-333" font-family="Helvetica,sans-Serif" font-size="10.00">_rx_los</text>
<text text-anchor="start" x="11" y="-318" font-family="Helvetica,sans-Serif" font-size="10.00">#</text>
<text text-anchor="start" x="30.5" y="-318" font-family="Helvetica,sans-Serif" font-size="10.00">_tx_bias_ma</text>
<text text-anchor="start" x="11" y="-303" font-family="Helvetica,sans-Serif" font-size="10.00">#</text>
<text text-anchor="start" x="30.5" y="-303" font-family="Helvetica,sans-Serif" font-size="10.00">_tx_power_mw</text>
<text text-anchor="start" x="11" y="-288" font-family="Helvetica,sans-Serif" font-size="10.00">#</text>
<text text-anchor="start" x="30.5" y="-288" font-family="Helvetica,sans-Serif" font-size="10.00">_rx_power_mw</text>
<text text-anchor="start" x="11" y="-273" font-family="Helvetica,sans-Serif" font-size="10.00">+</text>
<text text-anchor="start" x="30.5" y="-273" font-family="Helvetica,sans-Serif" font-size="10.00">__init__()</text>
<text text-anchor="start" x="11" y="-258" font-family="Helvetica,sans-Serif" font-size="10.00">+</text>
<text text-anchor="start" x="30.5" y="-258" font-family="Helvetica,sans-Serif" font-size="10.00">is_present()</text>
<text text-anchor="start" x="11" y="-243" font-family="Helvetica,sans-Serif" font-size="10.00">+</text>
<text text-anchor="start" x="30.5" y="-243" font-family="Helvetica,sans-Serif" font-size="10.00">get_identifier()</text>
<text text-anchor="start" x="11" y="-228" font-family="Helvetica,sans-Serif" font-size="10.00">+</text>
<text text-anchor="start" x="30.5" y="-228" font-family="Helvetica,sans-Serif" font-size="10.00">get_vendor_name()</text>
<text text-anchor="start" x="11" y="-213" font-family="Helvetica,sans-Serif" font-size="10.00">+</text>
<text text-anchor="start" x="30.5" y="-213" font-family="Helvetica,sans-Serif" font-size="10.00">get_part_number()</text>
<text text-anchor="start" x="11" y="-198" font-family="Helvetica,sans-Serif" font-size="10.00">+</text>
<text text-anchor="start" x="30.5" y="-198" font-family="Helvetica,sans-Serif" font-size="10.00">get_serial_number()</text>
<text text-anchor="start" x="11" y="-183" font-family="Helvetica,sans-Serif" font-size="10.00">+</text>
<text text-anchor="start" x="30.5" y="-183" font-family="Helvetica,sans-Serif" font-size="10.00">get_revision()</text>
<text text-anchor="start" x="11" y="-168" font-family="Helvetica,sans-Serif" font-size="10.00">+</text>
<text text-anchor="start" x="30.5" y="-168" font-family="Helvetica,sans-Serif" font-size="10.00">get_temperature()</text>
<text text-anchor="start" x="11" y="-153" font-family="Helvetica,sans-Serif" font-size="10.00">+</text>
<text text-anchor="start" x="30.5" y="-153" font-family="Helvetica,sans-Serif" font-size="10.00">get_voltage()</text>
<text text-anchor="start" x="11" y="-138" font-family="Helvetica,sans-Serif" font-size="10.00">+</text>
<text text-anchor="start" x="30.5" y="-138" font-family="Helvetica,sans-Serif" font-size="10.00">set_temperature()</text>
<text text-anchor="start" x="30.5" y="-123" font-family="Helvetica,sans-Serif" font-size="10.00">and 7 more...</text>
<text text-anchor="start" x="11" y="-108" font-family="Helvetica,sans-Serif" font-size="10.00">#</text>
<text text-anchor="start" x="30.5" y="-108" font-family="Helvetica,sans-Serif" font-size="10.00">_initialize_memory</text>
<text text-anchor="start" x="30.5" y="-97" font-family="Helvetica,sans-Serif" font-size="10.00">_map()</text>
<text text-anchor="start" x="11" y="-82" font-family="Helvetica,sans-Serif" font-size="10.00">#</text>
<text text-anchor="start" x="30.5" y="-82" font-family="Helvetica,sans-Serif" font-size="10.00">_handle_reset()</text>
<text text-anchor="start" x="11" y="-67" font-family="Helvetica,sans-Serif" font-size="10.00">#</text>
<text text-anchor="start" x="30.5" y="-67" font-family="Helvetica,sans-Serif" font-size="10.00">_encode_temperature()</text>
<text text-anchor="start" x="11" y="-52" font-family="Helvetica,sans-Serif" font-size="10.00">#</text>
<text text-anchor="start" x="30.5" y="-52" font-family="Helvetica,sans-Serif" font-size="10.00">_encode_voltage()</text>
<text text-anchor="start" x="11" y="-37" font-family="Helvetica,sans-Serif" font-size="10.00">#</text>
<text text-anchor="start" x="30.5" y="-37" font-family="Helvetica,sans-Serif" font-size="10.00">_encode_power()</text>
<text text-anchor="start" x="11" y="-22" font-family="Helvetica,sans-Serif" font-size="10.00">#</text>
<text text-anchor="start" x="30.5" y="-22" font-family="Helvetica,sans-Serif" font-size="10.00">_encode_bias()</text>
<text text-anchor="start" x="11" y="-7" font-family="Helvetica,sans-Serif" font-size="10.00">#</text>
<text text-anchor="start" x="30.5" y="-7" font-family="Helvetica,sans-Serif" font-size="10.00">_write_string()</text>
<polygon fill="#666666" stroke="#666666" points="0.5,-448 0.5,-448 163.5,-448 163.5,-448 0.5,-448"/>
<polygon fill="#666666" stroke="#666666" points="0.5,-283 0.5,-283 28.5,-283 28.5,-283 0.5,-283"/>
<polygon fill="#666666" stroke="#666666" points="28.5,-283 28.5,-283 163.5,-283 163.5,-283 28.5,-283"/>
<polygon fill="none" stroke="#666666" points="0,0 0,-476 163,-476 163,0 0,0"/>
</a>
</g>
</g>
<!-- Node2 -->
<g id="Node000002" class="node">
<title>Node2</title>
<g id="a_Node000002"><a xlink:title=" ">
<polygon fill="white" stroke="transparent" points="97,-561 66,-561 66,-512 97,-512 97,-561"/>
<text text-anchor="start" x="71.5" y="-548.5" font-family="Helvetica,sans-Serif" font-size="10.00">ABC</text>
<text text-anchor="start" x="80" y="-533.5" font-family="Helvetica,sans-Serif" font-size="10.00"> </text>
<text text-anchor="start" x="80" y="-518.5" font-family="Helvetica,sans-Serif" font-size="10.00"> </text>
<polygon fill="#666666" stroke="#666666" points="66.5,-543.5 66.5,-543.5 97.5,-543.5 97.5,-543.5 66.5,-543.5"/>
<polygon fill="#666666" stroke="#666666" points="66.5,-528.5 66.5,-528.5 97.5,-528.5 97.5,-528.5 66.5,-528.5"/>
<polygon fill="none" stroke="#666666" points="66,-512 66,-561 97,-561 97,-512 66,-512"/>
</a>
</g>
</g>
<!-- Node2&#45;&gt;Node1 -->
<g id="edge1_Node000001_Node000002" class="edge">
<title>Node2&#45;&gt;Node1</title>
<g id="a_edge1_Node000001_Node000002"><a xlink:title=" ">
<path fill="none" stroke="#63b8ff" d="M81.5,-501.89C81.5,-494.23 81.5,-485.52 81.5,-476.05"/>
<polygon fill="none" stroke="#63b8ff" points="78,-501.99 81.5,-511.99 85,-501.99 78,-501.99"/>
</a>
</g>
</g>
</g>
</svg>
