<?xml version="1.0" encoding="UTF-8" standalone="no"?>
<!DOCTYPE svg PUBLIC "-//W3C//DTD SVG 1.1//EN"
 "http://www.w3.org/Graphics/SVG/1.1/DTD/svg11.dtd">
<!-- Generated by graphviz version 2.43.0 (0)
 -->
<!-- Title: src.modules.sff.SFFModule Pages: 1 -->
<svg width="167pt" height="692pt"
 viewBox="0.00 0.00 167.00 692.00" xmlns="http://www.w3.org/2000/svg" xmlns:xlink="http://www.w3.org/1999/xlink">
<g id="graph0" class="graph" transform="scale(1 1) rotate(0) translate(4 688)">
<title>src.modules.sff.SFFModule</title>
<!-- Node1 -->
<g id="Node000001" class="node">
<title>Node1</title>
<g id="a_Node000001"><a xlink:title=" ">
<polygon fill="#999999" stroke="transparent" points="150.5,-349 8.5,-349 8.5,0 150.5,0 150.5,-349"/>
<text text-anchor="start" x="13.5" y="-336.5" font-family="Helvetica,sans-Serif" font-size="10.00">src.modules.sff.SFFModule</text>
<text text-anchor="start" x="13" y="-321.5" font-family="Helvetica,sans-Serif" font-size="10.00">#</text>
<text text-anchor="start" x="26.5" y="-321.5" font-family="Helvetica,sans-Serif" font-size="10.00">_required_capabilities</text>
<text text-anchor="start" x="13" y="-306.5" font-family="Helvetica,sans-Serif" font-size="10.00">#</text>
<text text-anchor="start" x="26.5" y="-306.5" font-family="Helvetica,sans-Serif" font-size="10.00">_optional_capabilities</text>
<text text-anchor="start" x="13" y="-291.5" font-family="Helvetica,sans-Serif" font-size="10.00">#</text>
<text text-anchor="start" x="26.5" y="-291.5" font-family="Helvetica,sans-Serif" font-size="10.00">_supported_capabilities</text>
<text text-anchor="start" x="13" y="-276.5" font-family="Helvetica,sans-Serif" font-size="10.00">+</text>
<text text-anchor="start" x="26.5" y="-276.5" font-family="Helvetica,sans-Serif" font-size="10.00">__init__()</text>
<text text-anchor="start" x="13" y="-261.5" font-family="Helvetica,sans-Serif" font-size="10.00">+</text>
<text text-anchor="start" x="26.5" y="-261.5" font-family="Helvetica,sans-Serif" font-size="10.00">initialize()</text>
<text text-anchor="start" x="13" y="-246.5" font-family="Helvetica,sans-Serif" font-size="10.00">+</text>
<text text-anchor="start" x="26.5" y="-246.5" font-family="Helvetica,sans-Serif" font-size="10.00">get_identification()</text>
<text text-anchor="start" x="13" y="-231.5" font-family="Helvetica,sans-Serif" font-size="10.00">+</text>
<text text-anchor="start" x="26.5" y="-231.5" font-family="Helvetica,sans-Serif" font-size="10.00">get_status()</text>
<text text-anchor="start" x="13" y="-216.5" font-family="Helvetica,sans-Serif" font-size="10.00">+</text>
<text text-anchor="start" x="26.5" y="-216.5" font-family="Helvetica,sans-Serif" font-size="10.00">get_capabilities()</text>
<text text-anchor="start" x="13" y="-201.5" font-family="Helvetica,sans-Serif" font-size="10.00">+</text>
<text text-anchor="start" x="26.5" y="-201.5" font-family="Helvetica,sans-Serif" font-size="10.00">reset()</text>
<text text-anchor="start" x="13" y="-186.5" font-family="Helvetica,sans-Serif" font-size="10.00">+</text>
<text text-anchor="start" x="26.5" y="-186.5" font-family="Helvetica,sans-Serif" font-size="10.00">get_configuration()</text>
<text text-anchor="start" x="13" y="-171.5" font-family="Helvetica,sans-Serif" font-size="10.00">+</text>
<text text-anchor="start" x="26.5" y="-171.5" font-family="Helvetica,sans-Serif" font-size="10.00">set_configuration()</text>
<text text-anchor="start" x="13" y="-156.5" font-family="Helvetica,sans-Serif" font-size="10.00">#</text>
<text text-anchor="start" x="26.5" y="-156.5" font-family="Helvetica,sans-Serif" font-size="10.00">_detect_capabilities()</text>
<text text-anchor="start" x="13" y="-141.5" font-family="Helvetica,sans-Serif" font-size="10.00">#</text>
<text text-anchor="start" x="26.5" y="-141.5" font-family="Helvetica,sans-Serif" font-size="10.00">_read_string()</text>
<text text-anchor="start" x="13" y="-126.5" font-family="Helvetica,sans-Serif" font-size="10.00">#</text>
<text text-anchor="start" x="26.5" y="-126.5" font-family="Helvetica,sans-Serif" font-size="10.00">_read_word()</text>
<text text-anchor="start" x="13" y="-111.5" font-family="Helvetica,sans-Serif" font-size="10.00">#</text>
<text text-anchor="start" x="26.5" y="-111.5" font-family="Helvetica,sans-Serif" font-size="10.00">_decode_temperature()</text>
<text text-anchor="start" x="13" y="-96.5" font-family="Helvetica,sans-Serif" font-size="10.00">#</text>
<text text-anchor="start" x="26.5" y="-96.5" font-family="Helvetica,sans-Serif" font-size="10.00">_decode_voltage()</text>
<text text-anchor="start" x="13" y="-81.5" font-family="Helvetica,sans-Serif" font-size="10.00">#</text>
<text text-anchor="start" x="26.5" y="-81.5" font-family="Helvetica,sans-Serif" font-size="10.00">_decode_bias()</text>
<text text-anchor="start" x="13" y="-66.5" font-family="Helvetica,sans-Serif" font-size="10.00">#</text>
<text text-anchor="start" x="26.5" y="-66.5" font-family="Helvetica,sans-Serif" font-size="10.00">_decode_power()</text>
<text text-anchor="start" x="13" y="-51.5" font-family="Helvetica,sans-Serif" font-size="10.00">#</text>
<text text-anchor="start" x="26.5" y="-51.5" font-family="Helvetica,sans-Serif" font-size="10.00">_get_tx_disable()</text>
<text text-anchor="start" x="13" y="-36.5" font-family="Helvetica,sans-Serif" font-size="10.00">#</text>
<text text-anchor="start" x="26.5" y="-36.5" font-family="Helvetica,sans-Serif" font-size="10.00">_set_tx_disable()</text>
<text text-anchor="start" x="13" y="-21.5" font-family="Helvetica,sans-Serif" font-size="10.00">#</text>
<text text-anchor="start" x="26.5" y="-21.5" font-family="Helvetica,sans-Serif" font-size="10.00">_get_alarm_thresholds()</text>
<text text-anchor="start" x="13" y="-6.5" font-family="Helvetica,sans-Serif" font-size="10.00">#</text>
<text text-anchor="start" x="26.5" y="-6.5" font-family="Helvetica,sans-Serif" font-size="10.00">_set_alarm_thresholds()</text>
<polygon fill="#666666" stroke="#666666" points="8.5,-331.5 8.5,-331.5 150.5,-331.5 150.5,-331.5 8.5,-331.5"/>
<polygon fill="#666666" stroke="#666666" points="8.5,-286.5 8.5,-286.5 24.5,-286.5 24.5,-286.5 8.5,-286.5"/>
<polygon fill="#666666" stroke="#666666" points="24.5,-286.5 24.5,-286.5 150.5,-286.5 150.5,-286.5 24.5,-286.5"/>
<polygon fill="none" stroke="#666666" points="8.5,0 8.5,-349 150.5,-349 150.5,0 8.5,0"/>
</a>
</g>
</g>
<!-- Node2 -->
<g id="Node000002" class="node">
<title>Node2</title>
<g id="a_Node000002"><a xlink:href="classsrc_1_1modules_1_1base_1_1BaseModule.html" target="_top" xlink:title=" ">
<polygon fill="white" stroke="transparent" points="159,-599 0,-599 0,-385 159,-385 159,-599"/>
<text text-anchor="start" x="5.5" y="-587" font-family="Helvetica,sans-Serif" font-size="10.00">src.modules.base.BaseModule</text>
<text text-anchor="start" x="10" y="-572" font-family="Helvetica,sans-Serif" font-size="10.00">+</text>
<text text-anchor="start" x="28.5" y="-572" font-family="Helvetica,sans-Serif" font-size="10.00">hw</text>
<text text-anchor="start" x="10" y="-557" font-family="Helvetica,sans-Serif" font-size="10.00">#</text>
<text text-anchor="start" x="28.5" y="-557" font-family="Helvetica,sans-Serif" font-size="10.00">_supported_capabilities</text>
<text text-anchor="start" x="10" y="-542" font-family="Helvetica,sans-Serif" font-size="10.00">+</text>
<text text-anchor="start" x="28.5" y="-542" font-family="Helvetica,sans-Serif" font-size="10.00">__init__()</text>
<text text-anchor="start" x="10" y="-527" font-family="Helvetica,sans-Serif" font-size="10.00">+</text>
<text text-anchor="start" x="28.5" y="-527" font-family="Helvetica,sans-Serif" font-size="10.00">initialize()</text>
<text text-anchor="start" x="10" y="-512" font-family="Helvetica,sans-Serif" font-size="10.00">+</text>
<text text-anchor="start" x="28.5" y="-512" font-family="Helvetica,sans-Serif" font-size="10.00">get_identification()</text>
<text text-anchor="start" x="10" y="-497" font-family="Helvetica,sans-Serif" font-size="10.00">+</text>
<text text-anchor="start" x="28.5" y="-497" font-family="Helvetica,sans-Serif" font-size="10.00">get_status()</text>
<text text-anchor="start" x="10" y="-482" font-family="Helvetica,sans-Serif" font-size="10.00">+</text>
<text text-anchor="start" x="28.5" y="-482" font-family="Helvetica,sans-Serif" font-size="10.00">get_capabilities()</text>
<text text-anchor="start" x="10" y="-467" font-family="Helvetica,sans-Serif" font-size="10.00">+</text>
<text text-anchor="start" x="28.5" y="-467" font-family="Helvetica,sans-Serif" font-size="10.00">has_capability()</text>
<text text-anchor="start" x="10" y="-452" font-family="Helvetica,sans-Serif" font-size="10.00">+</text>
<text text-anchor="start" x="28.5" y="-452" font-family="Helvetica,sans-Serif" font-size="10.00">validate_capabilities()</text>
<text text-anchor="start" x="10" y="-437" font-family="Helvetica,sans-Serif" font-size="10.00">+</text>
<text text-anchor="start" x="28.5" y="-437" font-family="Helvetica,sans-Serif" font-size="10.00">reset()</text>
<text text-anchor="start" x="10" y="-422" font-family="Helvetica,sans-Serif" font-size="10.00">+</text>
<text text-anchor="start" x="28.5" y="-422" font-family="Helvetica,sans-Serif" font-size="10.00">get_configuration()</text>
<text text-anchor="start" x="10" y="-407" font-family="Helvetica,sans-Serif" font-size="10.00">+</text>
<text text-anchor="start" x="28.5" y="-407" font-family="Helvetica,sans-Serif" font-size="10.00">set_configuration()</text>
<text text-anchor="start" x="10" y="-392" font-family="Helvetica,sans-Serif" font-size="10.00">+</text>
<text text-anchor="start" x="28.5" y="-392" font-family="Helvetica,sans-Serif" font-size="10.00">__str__()</text>
<polygon fill="#666666" stroke="#666666" points="0.5,-582 0.5,-582 159.5,-582 159.5,-582 0.5,-582"/>
<polygon fill="#666666" stroke="#666666" points="0.5,-552 0.5,-552 26.5,-552 26.5,-552 0.5,-552"/>
<polygon fill="#666666" stroke="#666666" points="26.5,-552 26.5,-552 159.5,-552 159.5,-552 26.5,-552"/>
<polygon fill="none" stroke="#666666" points="0,-385 0,-599 159,-599 159,-385 0,-385"/>
</a>
</g>
</g>
<!-- Node2&#45;&gt;Node1 -->
<g id="edge1_Node000001_Node000002" class="edge">
<title>Node2&#45;&gt;Node1</title>
<g id="a_edge1_Node000001_Node000002"><a xlink:title=" ">
<path fill="none" stroke="#63b8ff" d="M79.5,-374.52C79.5,-366.17 79.5,-357.65 79.5,-349.06"/>
<polygon fill="none" stroke="#63b8ff" points="76,-374.63 79.5,-384.63 83,-374.63 76,-374.63"/>
</a>
</g>
</g>
<!-- Node3 -->
<g id="Node000003" class="node">
<title>Node3</title>
<g id="a_Node000003"><a xlink:title=" ">
<polygon fill="white" stroke="transparent" points="95,-684 64,-684 64,-635 95,-635 95,-684"/>
<text text-anchor="start" x="69.5" y="-671.5" font-family="Helvetica,sans-Serif" font-size="10.00">ABC</text>
<text text-anchor="start" x="78" y="-656.5" font-family="Helvetica,sans-Serif" font-size="10.00"> </text>
<text text-anchor="start" x="78" y="-641.5" font-family="Helvetica,sans-Serif" font-size="10.00"> </text>
<polygon fill="#666666" stroke="#666666" points="64.5,-666.5 64.5,-666.5 95.5,-666.5 95.5,-666.5 64.5,-666.5"/>
<polygon fill="#666666" stroke="#666666" points="64.5,-651.5 64.5,-651.5 95.5,-651.5 95.5,-651.5 64.5,-651.5"/>
<polygon fill="none" stroke="#666666" points="64,-635 64,-684 95,-684 95,-635 64,-635"/>
</a>
</g>
</g>
<!-- Node3&#45;&gt;Node2 -->
<g id="edge2_Node000002_Node000003" class="edge">
<title>Node3&#45;&gt;Node2</title>
<g id="a_edge2_Node000002_Node000003"><a xlink:title=" ">
<path fill="none" stroke="#63b8ff" d="M79.5,-624.75C79.5,-616.93 79.5,-608.21 79.5,-599.07"/>
<polygon fill="none" stroke="#63b8ff" points="76,-624.79 79.5,-634.79 83,-624.79 76,-624.79"/>
</a>
</g>
</g>
</g>
</svg>
