<?xml version="1.0" encoding="UTF-8" standalone="no"?>
<!DOCTYPE svg PUBLIC "-//W3C//DTD SVG 1.1//EN"
 "http://www.w3.org/Graphics/SVG/1.1/DTD/svg11.dtd">
<!-- Generated by graphviz version 2.43.0 (0)
 -->
<!-- Title: src.memory_map.sff_map.SFFRegisters Pages: 1 -->
<svg width="119pt" height="218pt"
 viewBox="0.00 0.00 119.00 218.00" xmlns="http://www.w3.org/2000/svg" xmlns:xlink="http://www.w3.org/1999/xlink">
<g id="graph0" class="graph" transform="scale(1 1) rotate(0) translate(4 214)">
<title>src.memory_map.sff_map.SFFRegisters</title>
<!-- Node1 -->
<g id="Node000001" class="node">
<title>Node1</title>
<g id="a_Node000001"><a xlink:title=" ">
<polygon fill="#999999" stroke="transparent" points="111,-210 0,-210 0,0 111,0 111,-210"/>
<text text-anchor="start" x="5.5" y="-198" font-family="Helvetica,sans-Serif" font-size="10.00">src.memory_map.sff</text>
<text text-anchor="start" x="9" y="-187" font-family="Helvetica,sans-Serif" font-size="10.00">_map.SFFRegisters</text>
<text text-anchor="start" x="7.5" y="-172" font-family="Helvetica,sans-Serif" font-size="10.00">+</text>
<text text-anchor="start" x="23.5" y="-172" font-family="Helvetica,sans-Serif" font-size="10.00">IDENTIFIER</text>
<text text-anchor="start" x="7.5" y="-157" font-family="Helvetica,sans-Serif" font-size="10.00">+</text>
<text text-anchor="start" x="23.5" y="-157" font-family="Helvetica,sans-Serif" font-size="10.00">STATUS</text>
<text text-anchor="start" x="7.5" y="-142" font-family="Helvetica,sans-Serif" font-size="10.00">+</text>
<text text-anchor="start" x="23.5" y="-142" font-family="Helvetica,sans-Serif" font-size="10.00">TEMPERATURE</text>
<text text-anchor="start" x="7.5" y="-127" font-family="Helvetica,sans-Serif" font-size="10.00">+</text>
<text text-anchor="start" x="23.5" y="-127" font-family="Helvetica,sans-Serif" font-size="10.00">VOLTAGE</text>
<text text-anchor="start" x="7.5" y="-112" font-family="Helvetica,sans-Serif" font-size="10.00">+</text>
<text text-anchor="start" x="23.5" y="-112" font-family="Helvetica,sans-Serif" font-size="10.00">TX_BIAS</text>
<text text-anchor="start" x="7.5" y="-97" font-family="Helvetica,sans-Serif" font-size="10.00">+</text>
<text text-anchor="start" x="23.5" y="-97" font-family="Helvetica,sans-Serif" font-size="10.00">TX_POWER</text>
<text text-anchor="start" x="7.5" y="-82" font-family="Helvetica,sans-Serif" font-size="10.00">+</text>
<text text-anchor="start" x="23.5" y="-82" font-family="Helvetica,sans-Serif" font-size="10.00">RX_POWER</text>
<text text-anchor="start" x="7.5" y="-67" font-family="Helvetica,sans-Serif" font-size="10.00">+</text>
<text text-anchor="start" x="23.5" y="-67" font-family="Helvetica,sans-Serif" font-size="10.00">VENDOR_NAME</text>
<text text-anchor="start" x="7.5" y="-52" font-family="Helvetica,sans-Serif" font-size="10.00">+</text>
<text text-anchor="start" x="23.5" y="-52" font-family="Helvetica,sans-Serif" font-size="10.00">VENDOR_OUI</text>
<text text-anchor="start" x="7.5" y="-37" font-family="Helvetica,sans-Serif" font-size="10.00">+</text>
<text text-anchor="start" x="23.5" y="-37" font-family="Helvetica,sans-Serif" font-size="10.00">VENDOR_PN</text>
<text text-anchor="start" x="23.5" y="-22" font-family="Helvetica,sans-Serif" font-size="10.00">and 6 more...</text>
<text text-anchor="start" x="54" y="-7" font-family="Helvetica,sans-Serif" font-size="10.00"> </text>
<polygon fill="#666666" stroke="#666666" points="0.5,-182 0.5,-182 111.5,-182 111.5,-182 0.5,-182"/>
<polygon fill="#666666" stroke="#666666" points="0.5,-17 0.5,-17 21.5,-17 21.5,-17 0.5,-17"/>
<polygon fill="#666666" stroke="#666666" points="21.5,-17 21.5,-17 111.5,-17 111.5,-17 21.5,-17"/>
<polygon fill="none" stroke="#666666" points="0,0 0,-210 111,-210 111,0 0,0"/>
</a>
</g>
</g>
</g>
</svg>
