<?xml version="1.0" encoding="UTF-8" standalone="no"?>
<!DOCTYPE svg PUBLIC "-//W3C//DTD SVG 1.1//EN"
 "http://www.w3.org/Graphics/SVG/1.1/DTD/svg11.dtd">
<!-- Generated by graphviz version 2.43.0 (0)
 -->
<!-- Title: src.modules.cmis.CMISModule._decode_bias Pages: 1 -->
<svg width="398pt" height="86pt"
 viewBox="0.00 0.00 398.00 86.00" xmlns="http://www.w3.org/2000/svg" xmlns:xlink="http://www.w3.org/1999/xlink">
<g id="graph0" class="graph" transform="scale(1 1) rotate(0) translate(4 82)">
<title>src.modules.cmis.CMISModule._decode_bias</title>
<!-- Node1 -->
<g id="Node000001" class="node">
<title>Node1</title>
<g id="a_Node000001"><a xlink:title=" ">
<polygon fill="#999999" stroke="#666666" points="390,-54 221,-54 221,-24 390,-24 390,-54"/>
<text text-anchor="start" x="229" y="-42" font-family="Helvetica,sans-Serif" font-size="10.00">src.modules.cmis.CMISModule.</text>
<text text-anchor="middle" x="305.5" y="-31" font-family="Helvetica,sans-Serif" font-size="10.00">_decode_bias</text>
</a>
</g>
</g>
<!-- Node2 -->
<g id="Node000002" class="node">
<title>Node2</title>
<g id="a_Node000002"><a xlink:href="classsrc_1_1modules_1_1cmis_1_1CMISModule.html#a4ee4bb9014d315a32cb2e5e8477a3a85" target="_top" xlink:title=" ">
<polygon fill="white" stroke="#666666" points="185,-78 0,-78 0,-48 185,-48 185,-78"/>
<text text-anchor="start" x="8" y="-66" font-family="Helvetica,sans-Serif" font-size="10.00">src.modules.cmis.CMISModule.get</text>
<text text-anchor="middle" x="92.5" y="-55" font-family="Helvetica,sans-Serif" font-size="10.00">_status</text>
</a>
</g>
</g>
<!-- Node1&#45;&gt;Node2 -->
<g id="edge1_Node000001_Node000002" class="edge">
<title>Node1&#45;&gt;Node2</title>
<g id="a_edge1_Node000001_Node000002"><a xlink:title=" ">
<path fill="none" stroke="#63b8ff" d="M210.83,-49.65C202.27,-50.63 193.62,-51.61 185.08,-52.58"/>
<polygon fill="#63b8ff" stroke="#63b8ff" points="211.26,-53.13 220.8,-48.52 210.47,-46.17 211.26,-53.13"/>
</a>
</g>
</g>
<!-- Node3 -->
<g id="Node000003" class="node">
<title>Node3</title>
<g id="a_Node000003"><a xlink:href="classsrc_1_1modules_1_1sff_1_1SFFModule.html#a749ec10a0a54ba0faa14e9499fe08a79" target="_top" xlink:title=" ">
<polygon fill="white" stroke="#666666" points="176,-30 9,-30 9,0 176,0 176,-30"/>
<text text-anchor="start" x="17" y="-18" font-family="Helvetica,sans-Serif" font-size="10.00">src.modules.sff.SFFModule.get</text>
<text text-anchor="middle" x="92.5" y="-7" font-family="Helvetica,sans-Serif" font-size="10.00">_status</text>
</a>
</g>
</g>
<!-- Node1&#45;&gt;Node3 -->
<g id="edge2_Node000001_Node000003" class="edge">
<title>Node1&#45;&gt;Node3</title>
<g id="a_edge2_Node000001_Node000003"><a xlink:title=" ">
<path fill="none" stroke="#63b8ff" d="M210.72,-28.33C199.17,-27.02 187.43,-25.68 176.06,-24.39"/>
<polygon fill="#63b8ff" stroke="#63b8ff" points="210.47,-31.83 220.8,-29.48 211.26,-24.87 210.47,-31.83"/>
</a>
</g>
</g>
</g>
</svg>
