<?xml version="1.0" encoding="UTF-8" standalone="no"?>
<!DOCTYPE svg PUBLIC "-//W3C//DTD SVG 1.1//EN"
 "http://www.w3.org/Graphics/SVG/1.1/DTD/svg11.dtd">
<!-- Generated by graphviz version 2.43.0 (0)
 -->
<!-- Title: Graphical Class Hierarchy Pages: 1 -->
<svg width="456pt" height="86pt"
 viewBox="0.00 0.00 456.00 86.00" xmlns="http://www.w3.org/2000/svg" xmlns:xlink="http://www.w3.org/1999/xlink">
<g id="graph0" class="graph" transform="scale(1 1) rotate(0) translate(4 82)">
<title>Graphical Class Hierarchy</title>
<!-- Node0 -->
<g id="Node000000" class="node">
<title>Node0</title>
<g id="a_Node000000"><a xlink:title=" ">
<polygon fill="#e0e0e0" stroke="#999999" points="65,-48.5 0,-48.5 0,-29.5 65,-29.5 65,-48.5"/>
<text text-anchor="middle" x="32.5" y="-36.5" font-family="Helvetica,sans-Serif" font-size="10.00">Exception</text>
</a>
</g>
</g>
<!-- Node1 -->
<g id="Node000001" class="node">
<title>Node1</title>
<g id="a_Node000001"><a xlink:href="classsrc_1_1detection_1_1detector_1_1DetectorError.html" target="_top" xlink:title=" ">
<polygon fill="white" stroke="#666666" points="270.5,-78 103.5,-78 103.5,-48 270.5,-48 270.5,-78"/>
<text text-anchor="start" x="111.5" y="-66" font-family="Helvetica,sans-Serif" font-size="10.00">src.detection.detector.Detector</text>
<text text-anchor="middle" x="187" y="-55" font-family="Helvetica,sans-Serif" font-size="10.00">Error</text>
</a>
</g>
</g>
<!-- Node0&#45;&gt;Node1 -->
<g id="edge14_Node000000_Node000001" class="edge">
<title>Node0&#45;&gt;Node1</title>
<g id="a_edge14_Node000000_Node000001"><a xlink:title=" ">
<path fill="none" stroke="#63b8ff" d="M75.11,-45.55C83.99,-46.95 93.65,-48.47 103.46,-50.01"/>
<polygon fill="#63b8ff" stroke="#63b8ff" points="75.52,-42.07 65.1,-43.97 74.43,-48.98 75.52,-42.07"/>
</a>
</g>
</g>
<!-- Node3 -->
<g id="Node000003" class="node">
<title>Node3</title>
<g id="a_Node000003"><a xlink:href="classtests_1_1emulation_1_1base_1_1EmulationError.html" target="_top" xlink:title="Base class for emulation&#45;related errors.">
<polygon fill="white" stroke="#666666" points="273,-30 101,-30 101,0 273,0 273,-30"/>
<text text-anchor="start" x="109" y="-18" font-family="Helvetica,sans-Serif" font-size="10.00">tests.emulation.base.Emulation</text>
<text text-anchor="middle" x="187" y="-7" font-family="Helvetica,sans-Serif" font-size="10.00">Error</text>
</a>
</g>
</g>
<!-- Node0&#45;&gt;Node3 -->
<g id="edge16_Node000000_Node000003" class="edge">
<title>Node0&#45;&gt;Node3</title>
<g id="a_edge16_Node000000_Node000003"><a xlink:title=" ">
<path fill="none" stroke="#63b8ff" d="M75.01,-32.47C83.15,-31.19 91.97,-29.8 100.95,-28.39"/>
<polygon fill="#63b8ff" stroke="#63b8ff" points="74.43,-29.02 65.1,-34.03 75.52,-35.93 74.43,-29.02"/>
</a>
</g>
</g>
<!-- Node2 -->
<g id="Node000002" class="node">
<title>Node2</title>
<g id="a_Node000002"><a xlink:href="classsrc_1_1detection_1_1detector_1_1NoModuleError.html" target="_top" xlink:title=" ">
<polygon fill="white" stroke="#666666" points="448,-78 309,-78 309,-48 448,-48 448,-78"/>
<text text-anchor="start" x="317" y="-66" font-family="Helvetica,sans-Serif" font-size="10.00">src.detection.detector.No</text>
<text text-anchor="middle" x="378.5" y="-55" font-family="Helvetica,sans-Serif" font-size="10.00">ModuleError</text>
</a>
</g>
</g>
<!-- Node1&#45;&gt;Node2 -->
<g id="edge15_Node000001_Node000002" class="edge">
<title>Node1&#45;&gt;Node2</title>
<g id="a_edge15_Node000001_Node000002"><a xlink:title=" ">
<path fill="none" stroke="#63b8ff" d="M280.79,-63C290.23,-63 299.7,-63 308.82,-63"/>
<polygon fill="#63b8ff" stroke="#63b8ff" points="280.57,-59.5 270.57,-63 280.57,-66.5 280.57,-59.5"/>
</a>
</g>
</g>
</g>
</svg>
