<?xml version="1.0" encoding="UTF-8" standalone="no"?>
<!DOCTYPE svg PUBLIC "-//W3C//DTD SVG 1.1//EN"
 "http://www.w3.org/Graphics/SVG/1.1/DTD/svg11.dtd">
<!-- Generated by graphviz version 2.43.0 (0)
 -->
<!-- Title: Graphical Class Hierarchy Pages: 1 -->
<svg width="368pt" height="220pt"
 viewBox="0.00 0.00 368.00 219.50" xmlns="http://www.w3.org/2000/svg" xmlns:xlink="http://www.w3.org/1999/xlink">
<g id="graph0" class="graph" transform="scale(1 1) rotate(0) translate(4 215.5)">
<title>Graphical Class Hierarchy</title>
<!-- Node0 -->
<g id="Node000000" class="node">
<title>Node0</title>
<g id="a_Node000000"><a xlink:href="classsff__8024__mem_1_1MemorySpace.html" target="_top" xlink:title=" ">
<polygon fill="white" stroke="#666666" points="161,-120.5 0,-120.5 0,-101.5 161,-101.5 161,-120.5"/>
<text text-anchor="middle" x="80.5" y="-108.5" font-family="Helvetica,sans-Serif" font-size="10.00">sff_8024_mem.MemorySpace</text>
</a>
</g>
</g>
<!-- Node1 -->
<g id="Node000001" class="node">
<title>Node1</title>
<g id="a_Node000001"><a xlink:href="classsff__8024__mem_1_1CMIS__Page00h.html" target="_top" xlink:title=" ">
<polygon fill="white" stroke="#666666" points="360,-211.5 197,-211.5 197,-192.5 360,-192.5 360,-211.5"/>
<text text-anchor="middle" x="278.5" y="-199.5" font-family="Helvetica,sans-Serif" font-size="10.00">sff_8024_mem.CMIS_Page00h</text>
</a>
</g>
</g>
<!-- Node0&#45;&gt;Node1 -->
<g id="edge19_Node000000_Node000001" class="edge">
<title>Node0&#45;&gt;Node1</title>
<g id="a_edge19_Node000000_Node000001"><a xlink:title=" ">
<path fill="none" stroke="#63b8ff" d="M101.95,-126.64C124.2,-142.95 161.37,-168.16 197,-183 206.15,-186.81 216.21,-189.95 226.03,-192.49"/>
<polygon fill="#63b8ff" stroke="#63b8ff" points="104.02,-123.83 93.91,-120.66 99.84,-129.44 104.02,-123.83"/>
</a>
</g>
</g>
<!-- Node2 -->
<g id="Node000002" class="node">
<title>Node2</title>
<g id="a_Node000002"><a xlink:href="classsff__8024__mem_1_1SFF8024__BasePage00h.html" target="_top" xlink:title=" ">
<polygon fill="white" stroke="#666666" points="345.5,-174 211.5,-174 211.5,-144 345.5,-144 345.5,-174"/>
<text text-anchor="start" x="219.5" y="-162" font-family="Helvetica,sans-Serif" font-size="10.00">sff_8024_mem.SFF8024</text>
<text text-anchor="middle" x="278.5" y="-151" font-family="Helvetica,sans-Serif" font-size="10.00">_BasePage00h</text>
</a>
</g>
</g>
<!-- Node0&#45;&gt;Node2 -->
<g id="edge20_Node000000_Node000002" class="edge">
<title>Node0&#45;&gt;Node2</title>
<g id="a_edge20_Node000000_Node000002"><a xlink:title=" ">
<path fill="none" stroke="#63b8ff" d="M130.65,-123.04C156.52,-129.37 188.49,-137.2 215.99,-143.94"/>
<polygon fill="#63b8ff" stroke="#63b8ff" points="131.24,-119.58 120.69,-120.6 129.57,-126.38 131.24,-119.58"/>
</a>
</g>
</g>
<!-- Node3 -->
<g id="Node000003" class="node">
<title>Node3</title>
<g id="a_Node000003"><a xlink:href="classsff__8024__mem_1_1SFF8472__DOMMemorySpace.html" target="_top" xlink:title=" ">
<polygon fill="white" stroke="#666666" points="345.5,-126 211.5,-126 211.5,-96 345.5,-96 345.5,-126"/>
<text text-anchor="start" x="219.5" y="-114" font-family="Helvetica,sans-Serif" font-size="10.00">sff_8024_mem.SFF8472</text>
<text text-anchor="middle" x="278.5" y="-103" font-family="Helvetica,sans-Serif" font-size="10.00">_DOMMemorySpace</text>
</a>
</g>
</g>
<!-- Node0&#45;&gt;Node3 -->
<g id="edge21_Node000000_Node000003" class="edge">
<title>Node0&#45;&gt;Node3</title>
<g id="a_edge21_Node000000_Node000003"><a xlink:title=" ">
<path fill="none" stroke="#63b8ff" d="M171.43,-111C184.86,-111 198.5,-111 211.31,-111"/>
<polygon fill="#63b8ff" stroke="#63b8ff" points="171.22,-107.5 161.22,-111 171.22,-114.5 171.22,-107.5"/>
</a>
</g>
</g>
<!-- Node4 -->
<g id="Node000004" class="node">
<title>Node4</title>
<g id="a_Node000004"><a xlink:href="classsff__8024__mem_1_1SFF8636__Page00h.html" target="_top" xlink:title=" ">
<polygon fill="white" stroke="#666666" points="345.5,-78 211.5,-78 211.5,-48 345.5,-48 345.5,-78"/>
<text text-anchor="start" x="219.5" y="-66" font-family="Helvetica,sans-Serif" font-size="10.00">sff_8024_mem.SFF8636</text>
<text text-anchor="middle" x="278.5" y="-55" font-family="Helvetica,sans-Serif" font-size="10.00">_Page00h</text>
</a>
</g>
</g>
<!-- Node0&#45;&gt;Node4 -->
<g id="edge22_Node000000_Node000004" class="edge">
<title>Node0&#45;&gt;Node4</title>
<g id="a_edge22_Node000000_Node000004"><a xlink:title=" ">
<path fill="none" stroke="#63b8ff" d="M130.65,-98.96C156.52,-92.63 188.49,-84.8 215.99,-78.06"/>
<polygon fill="#63b8ff" stroke="#63b8ff" points="129.57,-95.62 120.69,-101.4 131.24,-102.42 129.57,-95.62"/>
</a>
</g>
</g>
<!-- Node5 -->
<g id="Node000005" class="node">
<title>Node5</title>
<g id="a_Node000005"><a xlink:href="classsff__8024__mem_1_1SFF8636__Page01h__CD.html" target="_top" xlink:title=" ">
<polygon fill="white" stroke="#666666" points="345.5,-30 211.5,-30 211.5,0 345.5,0 345.5,-30"/>
<text text-anchor="start" x="219.5" y="-18" font-family="Helvetica,sans-Serif" font-size="10.00">sff_8024_mem.SFF8636</text>
<text text-anchor="middle" x="278.5" y="-7" font-family="Helvetica,sans-Serif" font-size="10.00">_Page01h_CD</text>
</a>
</g>
</g>
<!-- Node0&#45;&gt;Node5 -->
<g id="edge23_Node000000_Node000005" class="edge">
<title>Node0&#45;&gt;Node5</title>
<g id="a_edge23_Node000000_Node000005"><a xlink:title=" ">
<path fill="none" stroke="#63b8ff" d="M102.49,-95.5C124.92,-79.52 162.01,-54.78 197,-39 204.31,-35.7 212.2,-32.72 220.07,-30.06"/>
<polygon fill="#63b8ff" stroke="#63b8ff" points="100.43,-92.67 94.36,-101.36 104.52,-98.35 100.43,-92.67"/>
</a>
</g>
</g>
</g>
</svg>
