<?xml version="1.0" encoding="UTF-8" standalone="no"?>
<!DOCTYPE svg PUBLIC "-//W3C//DTD SVG 1.1//EN"
 "http://www.w3.org/Graphics/SVG/1.1/DTD/svg11.dtd">
<!-- Generated by graphviz version 2.43.0 (0)
 -->
<!-- Title: Graphical Class Hierarchy Pages: 1 -->
<svg width="480pt" height="161pt"
 viewBox="0.00 0.00 480.00 160.50" xmlns="http://www.w3.org/2000/svg" xmlns:xlink="http://www.w3.org/1999/xlink">
<g id="graph0" class="graph" transform="scale(1 1) rotate(0) translate(4 156.5)">
<title>Graphical Class Hierarchy</title>
<!-- Node0 -->
<g id="Node000000" class="node">
<title>Node0</title>
<g id="a_Node000000"><a xlink:title=" ">
<polygon fill="#e0e0e0" stroke="#999999" points="37,-93.5 0,-93.5 0,-74.5 37,-74.5 37,-93.5"/>
<text text-anchor="middle" x="18.5" y="-81.5" font-family="Helvetica,sans-Serif" font-size="10.00">ABC</text>
</a>
</g>
</g>
<!-- Node1 -->
<g id="Node000001" class="node">
<title>Node1</title>
<g id="a_Node000001"><a xlink:href="classsrc_1_1modules_1_1base_1_1BaseModule.html" target="_top" xlink:title=" ">
<polygon fill="white" stroke="#666666" points="240,-115.5 75,-115.5 75,-96.5 240,-96.5 240,-115.5"/>
<text text-anchor="middle" x="157.5" y="-103.5" font-family="Helvetica,sans-Serif" font-size="10.00">src.modules.base.BaseModule</text>
</a>
</g>
</g>
<!-- Node0&#45;&gt;Node1 -->
<g id="edge1_Node000000_Node000001" class="edge">
<title>Node0&#45;&gt;Node1</title>
<g id="a_edge1_Node000000_Node000001"><a xlink:title=" ">
<path fill="none" stroke="#63b8ff" d="M47.3,-88.46C61.65,-90.77 79.74,-93.67 97.05,-96.45"/>
<polygon fill="#63b8ff" stroke="#63b8ff" points="47.56,-84.96 37.13,-86.83 46.45,-91.87 47.56,-84.96"/>
</a>
</g>
</g>
<!-- Node4 -->
<g id="Node000004" class="node">
<title>Node4</title>
<g id="a_Node000004"><a xlink:href="classtests_1_1emulation_1_1base_1_1EmulatedModule.html" target="_top" xlink:title="Base class for emulated modules.">
<polygon fill="white" stroke="#666666" points="242,-78 73,-78 73,-48 242,-48 242,-78"/>
<text text-anchor="start" x="81" y="-66" font-family="Helvetica,sans-Serif" font-size="10.00">tests.emulation.base.Emulated</text>
<text text-anchor="middle" x="157.5" y="-55" font-family="Helvetica,sans-Serif" font-size="10.00">Module</text>
</a>
</g>
</g>
<!-- Node0&#45;&gt;Node4 -->
<g id="edge4_Node000000_Node000004" class="edge">
<title>Node0&#45;&gt;Node4</title>
<g id="a_edge4_Node000000_Node000004"><a xlink:title=" ">
<path fill="none" stroke="#63b8ff" d="M47.23,-79.75C54.94,-78.57 63.74,-77.22 72.91,-75.81"/>
<polygon fill="#63b8ff" stroke="#63b8ff" points="46.48,-76.32 37.13,-81.3 47.54,-83.24 46.48,-76.32"/>
</a>
</g>
</g>
<!-- Node2 -->
<g id="Node000002" class="node">
<title>Node2</title>
<g id="a_Node000002"><a xlink:href="classsrc_1_1modules_1_1cmis_1_1CMISModule.html" target="_top" xlink:title=" ">
<polygon fill="white" stroke="#666666" points="458,-152.5 292,-152.5 292,-133.5 458,-133.5 458,-152.5"/>
<text text-anchor="middle" x="375" y="-140.5" font-family="Helvetica,sans-Serif" font-size="10.00">src.modules.cmis.CMISModule</text>
</a>
</g>
</g>
<!-- Node1&#45;&gt;Node2 -->
<g id="edge2_Node000001_Node000002" class="edge">
<title>Node1&#45;&gt;Node2</title>
<g id="a_edge2_Node000001_Node000002"><a xlink:title=" ">
<path fill="none" stroke="#63b8ff" d="M224,-117.25C254.13,-122.42 289.49,-128.49 318.32,-133.44"/>
<polygon fill="#63b8ff" stroke="#63b8ff" points="224.44,-113.77 214,-115.53 223.26,-120.67 224.44,-113.77"/>
</a>
</g>
</g>
<!-- Node3 -->
<g id="Node000003" class="node">
<title>Node3</title>
<g id="a_Node000003"><a xlink:href="classsrc_1_1modules_1_1sff_1_1SFFModule.html" target="_top" xlink:title=" ">
<polygon fill="white" stroke="#666666" points="449,-115.5 301,-115.5 301,-96.5 449,-96.5 449,-115.5"/>
<text text-anchor="middle" x="375" y="-103.5" font-family="Helvetica,sans-Serif" font-size="10.00">src.modules.sff.SFFModule</text>
</a>
</g>
</g>
<!-- Node1&#45;&gt;Node3 -->
<g id="edge3_Node000001_Node000003" class="edge">
<title>Node1&#45;&gt;Node3</title>
<g id="a_edge3_Node000001_Node000003"><a xlink:title=" ">
<path fill="none" stroke="#63b8ff" d="M250.63,-106C267.38,-106 284.65,-106 300.76,-106"/>
<polygon fill="#63b8ff" stroke="#63b8ff" points="250.28,-102.5 240.28,-106 250.28,-109.5 250.28,-102.5"/>
</a>
</g>
</g>
<!-- Node5 -->
<g id="Node000005" class="node">
<title>Node5</title>
<g id="a_Node000005"><a xlink:href="classtests_1_1emulation_1_1cmis_1_1CMISEmulatedModule.html" target="_top" xlink:title=" ">
<polygon fill="white" stroke="#666666" points="472,-78 278,-78 278,-48 472,-48 472,-78"/>
<text text-anchor="start" x="286" y="-66" font-family="Helvetica,sans-Serif" font-size="10.00">tests.emulation.cmis.CMISEmulated</text>
<text text-anchor="middle" x="375" y="-55" font-family="Helvetica,sans-Serif" font-size="10.00">Module</text>
</a>
</g>
</g>
<!-- Node4&#45;&gt;Node5 -->
<g id="edge5_Node000004_Node000005" class="edge">
<title>Node4&#45;&gt;Node5</title>
<g id="a_edge5_Node000004_Node000005"><a xlink:title=" ">
<path fill="none" stroke="#63b8ff" d="M252.37,-63C260.83,-63 269.4,-63 277.87,-63"/>
<polygon fill="#63b8ff" stroke="#63b8ff" points="252.13,-59.5 242.13,-63 252.13,-66.5 252.13,-59.5"/>
</a>
</g>
</g>
<!-- Node6 -->
<g id="Node000006" class="node">
<title>Node6</title>
<g id="a_Node000006"><a xlink:href="classtests_1_1emulation_1_1sff_1_1SFFEmulatedModule.html" target="_top" xlink:title="Emulates an SFF&#45;compliant module.">
<polygon fill="white" stroke="#666666" points="463,-30 287,-30 287,0 463,0 463,-30"/>
<text text-anchor="start" x="295" y="-18" font-family="Helvetica,sans-Serif" font-size="10.00">tests.emulation.sff.SFFEmulated</text>
<text text-anchor="middle" x="375" y="-7" font-family="Helvetica,sans-Serif" font-size="10.00">Module</text>
</a>
</g>
</g>
<!-- Node4&#45;&gt;Node6 -->
<g id="edge6_Node000004_Node000006" class="edge">
<title>Node4&#45;&gt;Node6</title>
<g id="a_edge6_Node000004_Node000006"><a xlink:title=" ">
<path fill="none" stroke="#63b8ff" d="M235.87,-45.77C259.02,-40.61 284.2,-35 306.65,-30"/>
<polygon fill="#63b8ff" stroke="#63b8ff" points="235.09,-42.35 226.09,-47.94 236.62,-49.19 235.09,-42.35"/>
</a>
</g>
</g>
</g>
</svg>
