<?xml version="1.0" encoding="UTF-8" standalone="no"?>
<!DOCTYPE svg PUBLIC "-//W3C//DTD SVG 1.1//EN"
 "http://www.w3.org/Graphics/SVG/1.1/DTD/svg11.dtd">
<!-- Generated by graphviz version 2.43.0 (0)
 -->
<!-- Title: Graphical Class Hierarchy Pages: 1 -->
<svg width="279pt" height="273pt"
 viewBox="0.00 0.00 279.00 272.50" xmlns="http://www.w3.org/2000/svg" xmlns:xlink="http://www.w3.org/1999/xlink">
<g id="graph0" class="graph" transform="scale(1 1) rotate(0) translate(4 268.5)">
<title>Graphical Class Hierarchy</title>
<!-- Node0 -->
<g id="Node000000" class="node">
<title>Node0</title>
<g id="a_Node000000"><a xlink:title=" ">
<polygon fill="#e0e0e0" stroke="#999999" points="44,-142 0,-142 0,-123 44,-123 44,-142"/>
<text text-anchor="middle" x="22" y="-130" font-family="Helvetica,sans-Serif" font-size="10.00">Enum</text>
</a>
</g>
</g>
<!-- Node1 -->
<g id="Node000001" class="node">
<title>Node1</title>
<g id="a_Node000001"><a xlink:href="classsrc_1_1capabilities_1_1CapabilityRequirement.html" target="_top" xlink:title=" ">
<polygon fill="white" stroke="#666666" points="247,-264.5 104,-264.5 104,-234.5 247,-234.5 247,-264.5"/>
<text text-anchor="start" x="112" y="-252.5" font-family="Helvetica,sans-Serif" font-size="10.00">src.capabilities.Capability</text>
<text text-anchor="middle" x="175.5" y="-241.5" font-family="Helvetica,sans-Serif" font-size="10.00">Requirement</text>
</a>
</g>
</g>
<!-- Node0&#45;&gt;Node1 -->
<g id="edge7_Node000000_Node000001" class="edge">
<title>Node0&#45;&gt;Node1</title>
<g id="a_edge7_Node000000_Node000001"><a xlink:title=" ">
<path fill="none" stroke="#63b8ff" d="M29.67,-151.68C38.07,-172.96 54.56,-206.77 80,-225.5 87.09,-230.72 95.19,-234.81 103.61,-238.01"/>
<polygon fill="#63b8ff" stroke="#63b8ff" points="32.87,-150.24 26.1,-142.09 26.31,-152.69 32.87,-150.24"/>
</a>
</g>
</g>
<!-- Node2 -->
<g id="Node000002" class="node">
<title>Node2</title>
<g id="a_Node000002"><a xlink:href="classsrc_1_1detection_1_1detector_1_1ModuleType.html" target="_top" xlink:title=" ">
<polygon fill="white" stroke="#666666" points="267.5,-216 83.5,-216 83.5,-197 267.5,-197 267.5,-216"/>
<text text-anchor="middle" x="175.5" y="-204" font-family="Helvetica,sans-Serif" font-size="10.00">src.detection.detector.ModuleType</text>
</a>
</g>
</g>
<!-- Node0&#45;&gt;Node2 -->
<g id="edge8_Node000000_Node000002" class="edge">
<title>Node0&#45;&gt;Node2</title>
<g id="a_edge8_Node000000_Node000002"><a xlink:title=" ">
<path fill="none" stroke="#63b8ff" d="M36.24,-150.22C46.7,-162.9 62.43,-179.3 80,-188.5 86.51,-191.91 93.57,-194.68 100.81,-196.93"/>
<polygon fill="#63b8ff" stroke="#63b8ff" points="38.83,-147.85 29.88,-142.17 33.33,-152.19 38.83,-147.85"/>
</a>
</g>
</g>
<!-- Node3 -->
<g id="Node000003" class="node">
<title>Node3</title>
<g id="a_Node000003"><a xlink:href="classsrc_1_1hardware_1_1hal_1_1GPIOSignal.html" target="_top" xlink:title=" ">
<polygon fill="white" stroke="#666666" points="253,-179 98,-179 98,-160 253,-160 253,-179"/>
<text text-anchor="middle" x="175.5" y="-167" font-family="Helvetica,sans-Serif" font-size="10.00">src.hardware.hal.GPIOSignal</text>
</a>
</g>
</g>
<!-- Node0&#45;&gt;Node3 -->
<g id="edge9_Node000000_Node000003" class="edge">
<title>Node0&#45;&gt;Node3</title>
<g id="a_edge9_Node000000_Node000003"><a xlink:title=" ">
<path fill="none" stroke="#63b8ff" d="M53.68,-143.56C62.14,-146.38 71.37,-149.25 80,-151.5 92.12,-154.66 105.25,-157.51 117.76,-159.97"/>
<polygon fill="#63b8ff" stroke="#63b8ff" points="54.78,-140.24 44.18,-140.31 52.51,-146.86 54.78,-140.24"/>
</a>
</g>
</g>
<!-- Node4 -->
<g id="Node000004" class="node">
<title>Node4</title>
<g id="a_Node000004"><a xlink:href="classsrc_1_1modules_1_1base_1_1ModuleCapability.html" target="_top" xlink:title=" ">
<polygon fill="white" stroke="#666666" points="271,-142 80,-142 80,-123 271,-123 271,-142"/>
<text text-anchor="middle" x="175.5" y="-130" font-family="Helvetica,sans-Serif" font-size="10.00">src.modules.base.ModuleCapability</text>
</a>
</g>
</g>
<!-- Node0&#45;&gt;Node4 -->
<g id="edge10_Node000000_Node000004" class="edge">
<title>Node0&#45;&gt;Node4</title>
<g id="a_edge10_Node000000_Node000004"><a xlink:title=" ">
<path fill="none" stroke="#63b8ff" d="M54.27,-132.5C61.98,-132.5 70.64,-132.5 79.69,-132.5"/>
<polygon fill="#63b8ff" stroke="#63b8ff" points="54.07,-129 44.07,-132.5 54.07,-136 54.07,-129"/>
</a>
</g>
</g>
<!-- Node5 -->
<g id="Node000005" class="node">
<title>Node5</title>
<g id="a_Node000005"><a xlink:href="classtests_1_1emulation_1_1base_1_1FormFactor.html" target="_top" xlink:title="Supported module form factors.">
<polygon fill="white" stroke="#666666" points="249,-104.5 102,-104.5 102,-74.5 249,-74.5 249,-104.5"/>
<text text-anchor="start" x="110" y="-92.5" font-family="Helvetica,sans-Serif" font-size="10.00">tests.emulation.base.Form</text>
<text text-anchor="middle" x="175.5" y="-81.5" font-family="Helvetica,sans-Serif" font-size="10.00">Factor</text>
</a>
</g>
</g>
<!-- Node0&#45;&gt;Node5 -->
<g id="edge11_Node000000_Node000005" class="edge">
<title>Node0&#45;&gt;Node5</title>
<g id="a_edge11_Node000000_Node000005"><a xlink:title=" ">
<path fill="none" stroke="#63b8ff" d="M53.61,-122.54C62.13,-119.85 71.4,-116.99 80,-114.5 91.57,-111.14 103.99,-107.73 115.91,-104.54"/>
<polygon fill="#63b8ff" stroke="#63b8ff" points="52.5,-119.22 44.04,-125.59 54.63,-125.89 52.5,-119.22"/>
</a>
</g>
</g>
<!-- Node6 -->
<g id="Node000006" class="node">
<title>Node6</title>
<g id="a_Node000006"><a xlink:href="classtests_1_1emulation_1_1base_1_1MediaType.html" target="_top" xlink:title="Types of media supported by modules.">
<polygon fill="white" stroke="#666666" points="263,-56 88,-56 88,-37 263,-37 263,-56"/>
<text text-anchor="middle" x="175.5" y="-44" font-family="Helvetica,sans-Serif" font-size="10.00">tests.emulation.base.MediaType</text>
</a>
</g>
</g>
<!-- Node0&#45;&gt;Node6 -->
<g id="edge12_Node000000_Node000006" class="edge">
<title>Node0&#45;&gt;Node6</title>
<g id="a_edge12_Node000000_Node000006"><a xlink:title=" ">
<path fill="none" stroke="#63b8ff" d="M33.6,-114.26C43.57,-98.8 59.95,-77.31 80,-65.5 86.49,-61.68 93.62,-58.61 100.96,-56.16"/>
<polygon fill="#63b8ff" stroke="#63b8ff" points="30.5,-112.61 28.24,-122.97 36.46,-116.28 30.5,-112.61"/>
</a>
</g>
</g>
<!-- Node7 -->
<g id="Node000007" class="node">
<title>Node7</title>
<g id="a_Node000007"><a xlink:href="classtests_1_1emulation_1_1base_1_1ModuleType.html" target="_top" xlink:title="Types of modules that can be emulated.">
<polygon fill="white" stroke="#666666" points="266,-19 85,-19 85,0 266,0 266,-19"/>
<text text-anchor="middle" x="175.5" y="-7" font-family="Helvetica,sans-Serif" font-size="10.00">tests.emulation.base.ModuleType</text>
</a>
</g>
</g>
<!-- Node0&#45;&gt;Node7 -->
<g id="edge13_Node000000_Node000007" class="edge">
<title>Node0&#45;&gt;Node7</title>
<g id="a_edge13_Node000000_Node000007"><a xlink:title=" ">
<path fill="none" stroke="#63b8ff" d="M28.09,-113.27C35.44,-89.48 51.37,-49.55 80,-28.5 85.12,-24.73 90.81,-21.67 96.77,-19.17"/>
<polygon fill="#63b8ff" stroke="#63b8ff" points="24.71,-112.36 25.31,-122.94 31.44,-114.3 24.71,-112.36"/>
</a>
</g>
</g>
</g>
</svg>
