<?xml version="1.0" encoding="UTF-8" standalone="no"?>
<!DOCTYPE svg PUBLIC "-//W3C//DTD SVG 1.1//EN"
 "http://www.w3.org/Graphics/SVG/1.1/DTD/svg11.dtd">
<!-- Generated by graphviz version 2.43.0 (0)
 -->
<!-- Title: Graphical Class Hierarchy Pages: 1 -->
<svg width="229pt" height="86pt"
 viewBox="0.00 0.00 229.00 86.00" xmlns="http://www.w3.org/2000/svg" xmlns:xlink="http://www.w3.org/1999/xlink">
<g id="graph0" class="graph" transform="scale(1 1) rotate(0) translate(4 82)">
<title>Graphical Class Hierarchy</title>
<!-- Node0 -->
<g id="Node000000" class="node">
<title>Node0</title>
<g id="a_Node000000"><a xlink:title=" ">
<polygon fill="#e0e0e0" stroke="#999999" points="57,-48.5 0,-48.5 0,-29.5 57,-29.5 57,-48.5"/>
<text text-anchor="middle" x="28.5" y="-36.5" font-family="Helvetica,sans-Serif" font-size="10.00">IntEnum</text>
</a>
</g>
</g>
<!-- Node1 -->
<g id="Node000001" class="node">
<title>Node1</title>
<g id="a_Node000001"><a xlink:href="classsrc_1_1memory__map_1_1cmis__map_1_1MemoryPages.html" target="_top" xlink:title=" ">
<polygon fill="white" stroke="#666666" points="221,-78 93,-78 93,-48 221,-48 221,-78"/>
<text text-anchor="start" x="101" y="-66" font-family="Helvetica,sans-Serif" font-size="10.00">src.memory_map.cmis</text>
<text text-anchor="middle" x="157" y="-55" font-family="Helvetica,sans-Serif" font-size="10.00">_map.MemoryPages</text>
</a>
</g>
</g>
<!-- Node0&#45;&gt;Node1 -->
<g id="edge17_Node000000_Node000001" class="edge">
<title>Node0&#45;&gt;Node1</title>
<g id="a_edge17_Node000000_Node000001"><a xlink:title=" ">
<path fill="none" stroke="#63b8ff" d="M67.12,-46.14C75.22,-47.67 84.01,-49.34 92.79,-51.01"/>
<polygon fill="#63b8ff" stroke="#63b8ff" points="67.74,-42.69 57.26,-44.27 66.43,-49.57 67.74,-42.69"/>
</a>
</g>
</g>
<!-- Node2 -->
<g id="Node000002" class="node">
<title>Node2</title>
<g id="a_Node000002"><a xlink:href="classsrc_1_1memory__map_1_1sff__map_1_1MemoryPages.html" target="_top" xlink:title=" ">
<polygon fill="white" stroke="#666666" points="215.5,-30 98.5,-30 98.5,0 215.5,0 215.5,-30"/>
<text text-anchor="start" x="106.5" y="-18" font-family="Helvetica,sans-Serif" font-size="10.00">src.memory_map.sff</text>
<text text-anchor="middle" x="157" y="-7" font-family="Helvetica,sans-Serif" font-size="10.00">_map.MemoryPages</text>
</a>
</g>
</g>
<!-- Node0&#45;&gt;Node2 -->
<g id="edge18_Node000000_Node000002" class="edge">
<title>Node0&#45;&gt;Node2</title>
<g id="a_edge18_Node000000_Node000002"><a xlink:title=" ">
<path fill="none" stroke="#63b8ff" d="M67.12,-31.86C76.97,-29.99 87.83,-27.93 98.47,-25.92"/>
<polygon fill="#63b8ff" stroke="#63b8ff" points="66.43,-28.43 57.26,-33.73 67.74,-35.31 66.43,-28.43"/>
</a>
</g>
</g>
</g>
</svg>
