<?xml version="1.0" encoding="UTF-8" standalone="no"?>
<!DOCTYPE svg PUBLIC "-//W3C//DTD SVG 1.1//EN"
 "http://www.w3.org/Graphics/SVG/1.1/DTD/svg11.dtd">
<!-- Generated by graphviz version 2.43.0 (0)
 -->
<!-- Title: temperature_alarm.set_temp_thresholds Pages: 1 -->
<svg width="312pt" height="51pt"
 viewBox="0.00 0.00 312.00 50.50" xmlns="http://www.w3.org/2000/svg" xmlns:xlink="http://www.w3.org/1999/xlink">
<g id="graph0" class="graph" transform="scale(1 1) rotate(0) translate(4 46.5)">
<title>temperature_alarm.set_temp_thresholds</title>
<!-- Node1 -->
<g id="Node000001" class="node">
<title>Node1</title>
<g id="a_Node000001"><a xlink:title=" ">
<polygon fill="#999999" stroke="#666666" points="304,-30 175,-30 175,0 304,0 304,-30"/>
<text text-anchor="start" x="183" y="-18" font-family="Helvetica,sans-Serif" font-size="10.00">temperature_alarm.set</text>
<text text-anchor="middle" x="239.5" y="-7" font-family="Helvetica,sans-Serif" font-size="10.00">_temp_thresholds</text>
</a>
</g>
</g>
<!-- Node2 -->
<g id="Node000002" class="node">
<title>Node2</title>
<g id="a_Node000002"><a xlink:href="namespacetemperature__alarm.html#ae6fc5eb3bc2e8d01379a6a6171691e91" target="_top" xlink:title=" ">
<polygon fill="white" stroke="#666666" points="139,-24.5 0,-24.5 0,-5.5 139,-5.5 139,-24.5"/>
<text text-anchor="middle" x="69.5" y="-12.5" font-family="Helvetica,sans-Serif" font-size="10.00">temperature_alarm.main</text>
</a>
</g>
</g>
<!-- Node1&#45;&gt;Node2 -->
<g id="edge1_Node000001_Node000002" class="edge">
<title>Node1&#45;&gt;Node2</title>
<g id="a_edge1_Node000001_Node000002"><a xlink:title=" ">
<path fill="none" stroke="#63b8ff" d="M164.72,-15C156.22,-15 147.58,-15 139.15,-15"/>
<polygon fill="#63b8ff" stroke="#63b8ff" points="164.99,-18.5 174.99,-15 164.99,-11.5 164.99,-18.5"/>
</a>
</g>
</g>
<!-- Node2&#45;&gt;Node2 -->
<g id="edge2_Node000002_Node000002" class="edge">
<title>Node2&#45;&gt;Node2</title>
<g id="a_edge2_Node000002_Node000002"><a xlink:title=" ">
<path fill="none" stroke="#63b8ff" d="M101.31,-32.95C100.4,-38.32 89.8,-42.5 69.5,-42.5 39.29,-42.5 30.55,-33.23 43.3,-24.58"/>
<polygon fill="#63b8ff" stroke="#63b8ff" points="104.18,-30.94 95.7,-24.58 98.36,-34.84 104.18,-30.94"/>
</a>
</g>
</g>
</g>
</svg>
