<?xml version="1.0" encoding="UTF-8" standalone="no"?>
<!DOCTYPE svg PUBLIC "-//W3C//DTD SVG 1.1//EN"
 "http://www.w3.org/Graphics/SVG/1.1/DTD/svg11.dtd">
<!-- Generated by graphviz version 2.43.0 (0)
 -->
<!-- Title: fault_handling.main Pages: 1 -->
<svg width="276pt" height="51pt"
 viewBox="0.00 0.00 276.00 50.50" xmlns="http://www.w3.org/2000/svg" xmlns:xlink="http://www.w3.org/1999/xlink">
<g id="graph0" class="graph" transform="scale(1 1) rotate(0) translate(4 46.5)">
<title>fault_handling.main</title>
<!-- Node1 -->
<g id="Node000001" class="node">
<title>Node1</title>
<g id="a_Node000001"><a xlink:title=" ">
<polygon fill="#999999" stroke="#666666" points="114,-24.5 0,-24.5 0,-5.5 114,-5.5 114,-24.5"/>
<text text-anchor="middle" x="57" y="-12.5" font-family="Helvetica,sans-Serif" font-size="10.00">fault_handling.main</text>
</a>
</g>
</g>
<!-- Node1&#45;&gt;Node1 -->
<g id="edge2_Node000001_Node000001" class="edge">
<title>Node1&#45;&gt;Node1</title>
<g id="a_edge2_Node000001_Node000001"><a xlink:title=" ">
<path fill="none" stroke="#63b8ff" d="M33.57,-24.58C22.18,-33.23 29.98,-42.5 57,-42.5 74.73,-42.5 84.19,-38.51 85.37,-33.32"/>
<polygon fill="#63b8ff" stroke="#63b8ff" points="88.4,-31.56 80.43,-24.58 82.31,-35.01 88.4,-31.56"/>
</a>
</g>
</g>
<!-- Node2 -->
<g id="Node000002" class="node">
<title>Node2</title>
<g id="a_Node000002"><a xlink:href="namespacefault__handling.html#ae36b2537bf41417c666e8ce6f7cc542c" target="_top" xlink:title=" ">
<polygon fill="white" stroke="#666666" points="268,-30 150,-30 150,0 268,0 268,-30"/>
<text text-anchor="start" x="158" y="-18" font-family="Helvetica,sans-Serif" font-size="10.00">fault_handling.check</text>
<text text-anchor="middle" x="209" y="-7" font-family="Helvetica,sans-Serif" font-size="10.00">_alarms</text>
</a>
</g>
</g>
<!-- Node1&#45;&gt;Node2 -->
<g id="edge1_Node000001_Node000002" class="edge">
<title>Node1&#45;&gt;Node2</title>
<g id="a_edge1_Node000001_Node000002"><a xlink:title=" ">
<path fill="none" stroke="#63b8ff" d="M114.28,-15C122.56,-15 131.15,-15 139.64,-15"/>
<polygon fill="#63b8ff" stroke="#63b8ff" points="139.9,-18.5 149.9,-15 139.9,-11.5 139.9,-18.5"/>
</a>
</g>
</g>
</g>
</svg>
