<?xml version="1.0" encoding="UTF-8" standalone="no"?>
<!DOCTYPE svg PUBLIC "-//W3C//DTD SVG 1.1//EN"
 "http://www.w3.org/Graphics/SVG/1.1/DTD/svg11.dtd">
<!-- Generated by graphviz version 2.43.0 (0)
 -->
<!-- Title: temperature_alarm.main Pages: 1 -->
<svg width="326pt" height="134pt"
 viewBox="0.00 0.00 326.00 134.00" xmlns="http://www.w3.org/2000/svg" xmlns:xlink="http://www.w3.org/1999/xlink">
<g id="graph0" class="graph" transform="scale(1 1) rotate(0) translate(4 130)">
<title>temperature_alarm.main</title>
<!-- Node1 -->
<g id="Node000001" class="node">
<title>Node1</title>
<g id="a_Node000001"><a xlink:title=" ">
<polygon fill="#999999" stroke="#666666" points="139,-72.5 0,-72.5 0,-53.5 139,-53.5 139,-72.5"/>
<text text-anchor="middle" x="69.5" y="-60.5" font-family="Helvetica,sans-Serif" font-size="10.00">temperature_alarm.main</text>
</a>
</g>
</g>
<!-- Node1&#45;&gt;Node1 -->
<g id="edge3_Node000001_Node000001" class="edge">
<title>Node1&#45;&gt;Node1</title>
<g id="a_edge3_Node000001_Node000001"><a xlink:title=" ">
<path fill="none" stroke="#63b8ff" d="M42.37,-72.58C29.18,-81.23 38.22,-90.5 69.5,-90.5 90.52,-90.5 101.5,-86.32 102.43,-80.95"/>
<polygon fill="#63b8ff" stroke="#63b8ff" points="105.2,-78.8 96.63,-72.58 99.45,-82.79 105.2,-78.8"/>
</a>
</g>
</g>
<!-- Node2 -->
<g id="Node000002" class="node">
<title>Node2</title>
<g id="a_Node000002"><a xlink:href="namespacetemperature__alarm.html#aafe0b68286535cff1c1fbaa0284abc50" target="_top" xlink:title=" ">
<polygon fill="white" stroke="#666666" points="318,-126 175,-126 175,-96 318,-96 318,-126"/>
<text text-anchor="start" x="183" y="-114" font-family="Helvetica,sans-Serif" font-size="10.00">temperature_alarm.check</text>
<text text-anchor="middle" x="246.5" y="-103" font-family="Helvetica,sans-Serif" font-size="10.00">_temp_alarms</text>
</a>
</g>
</g>
<!-- Node1&#45;&gt;Node2 -->
<g id="edge1_Node000001_Node000002" class="edge">
<title>Node1&#45;&gt;Node2</title>
<g id="a_edge1_Node000001_Node000002"><a xlink:title=" ">
<path fill="none" stroke="#63b8ff" d="M105.49,-72.6C126.98,-78.49 155.17,-86.22 180.62,-93.2"/>
<polygon fill="#63b8ff" stroke="#63b8ff" points="180.01,-96.67 190.58,-95.94 181.86,-89.92 180.01,-96.67"/>
</a>
</g>
</g>
<!-- Node3 -->
<g id="Node000003" class="node">
<title>Node3</title>
<g id="a_Node000003"><a xlink:href="namespacetemperature__alarm.html#abdd1dbc1066f9750aa959e66b411ea08" target="_top" xlink:title=" ">
<polygon fill="white" stroke="#666666" points="311.5,-78 181.5,-78 181.5,-48 311.5,-48 311.5,-78"/>
<text text-anchor="start" x="189.5" y="-66" font-family="Helvetica,sans-Serif" font-size="10.00">temperature_alarm.get</text>
<text text-anchor="middle" x="246.5" y="-55" font-family="Helvetica,sans-Serif" font-size="10.00">_temperature</text>
</a>
</g>
</g>
<!-- Node1&#45;&gt;Node3 -->
<g id="edge2_Node000001_Node000003" class="edge">
<title>Node1&#45;&gt;Node3</title>
<g id="a_edge2_Node000001_Node000003"><a xlink:title=" ">
<path fill="none" stroke="#63b8ff" d="M139.16,-63C149.68,-63 160.59,-63 171.22,-63"/>
<polygon fill="#63b8ff" stroke="#63b8ff" points="171.32,-66.5 181.32,-63 171.32,-59.5 171.32,-66.5"/>
</a>
</g>
</g>
<!-- Node4 -->
<g id="Node000004" class="node">
<title>Node4</title>
<g id="a_Node000004"><a xlink:href="namespacetemperature__alarm.html#a0e643086db46ce9e9b25e28f78585510" target="_top" xlink:title=" ">
<polygon fill="white" stroke="#666666" points="311,-30 182,-30 182,0 311,0 311,-30"/>
<text text-anchor="start" x="190" y="-18" font-family="Helvetica,sans-Serif" font-size="10.00">temperature_alarm.set</text>
<text text-anchor="middle" x="246.5" y="-7" font-family="Helvetica,sans-Serif" font-size="10.00">_temp_thresholds</text>
</a>
</g>
</g>
<!-- Node1&#45;&gt;Node4 -->
<g id="edge4_Node000001_Node000004" class="edge">
<title>Node1&#45;&gt;Node4</title>
<g id="a_edge4_Node000001_Node000004"><a xlink:title=" ">
<path fill="none" stroke="#63b8ff" d="M105.49,-53.4C126.98,-47.51 155.17,-39.78 180.62,-32.8"/>
<polygon fill="#63b8ff" stroke="#63b8ff" points="181.86,-36.08 190.58,-30.06 180.01,-29.33 181.86,-36.08"/>
</a>
</g>
</g>
</g>
</svg>
