<?xml version="1.0" encoding="UTF-8" standalone="no"?>
<!DOCTYPE svg PUBLIC "-//W3C//DTD SVG 1.1//EN"
 "http://www.w3.org/Graphics/SVG/1.1/DTD/svg11.dtd">
<!-- Generated by graphviz version 2.43.0 (0)
 -->
<!-- Title: basic_usage.main Pages: 1 -->
<svg width="327pt" height="161pt"
 viewBox="0.00 0.00 327.00 161.00" xmlns="http://www.w3.org/2000/svg" xmlns:xlink="http://www.w3.org/1999/xlink">
<g id="graph0" class="graph" transform="scale(1 1) rotate(0) translate(4 157)">
<title>basic_usage.main</title>
<!-- Node1 -->
<g id="Node000001" class="node">
<title>Node1</title>
<g id="a_Node000001"><a xlink:title=" ">
<polygon fill="#999999" stroke="#666666" points="104,-85.5 0,-85.5 0,-66.5 104,-66.5 104,-85.5"/>
<text text-anchor="middle" x="52" y="-73.5" font-family="Helvetica,sans-Serif" font-size="10.00">basic_usage.main</text>
</a>
</g>
</g>
<!-- Node1&#45;&gt;Node1 -->
<g id="edge1_Node000001_Node000001" class="edge">
<title>Node1&#45;&gt;Node1</title>
<g id="a_edge1_Node000001_Node000001"><a xlink:title=" ">
<path fill="none" stroke="#63b8ff" d="M24.87,-85.58C11.68,-94.23 20.72,-103.5 52,-103.5 73.02,-103.5 84,-99.32 84.93,-93.95"/>
<polygon fill="#63b8ff" stroke="#63b8ff" points="87.7,-91.8 79.13,-85.58 81.95,-95.79 87.7,-91.8"/>
</a>
</g>
</g>
<!-- Node2 -->
<g id="Node000002" class="node">
<title>Node2</title>
<g id="a_Node000002"><a xlink:href="namespacebasic__usage.html#a1ffea476bc29cfa4a46526896c438fa5" target="_top" xlink:title=" ">
<polygon fill="white" stroke="#666666" points="288.5,-153 170.5,-153 170.5,-123 288.5,-123 288.5,-153"/>
<text text-anchor="start" x="178.5" y="-141" font-family="Helvetica,sans-Serif" font-size="10.00">basic_usage.monitor</text>
<text text-anchor="middle" x="229.5" y="-130" font-family="Helvetica,sans-Serif" font-size="10.00">_module</text>
</a>
</g>
</g>
<!-- Node1&#45;&gt;Node2 -->
<g id="edge2_Node000001_Node000002" class="edge">
<title>Node1&#45;&gt;Node2</title>
<g id="a_edge2_Node000001_Node000002"><a xlink:title=" ">
<path fill="none" stroke="#63b8ff" d="M72.71,-85.6C90.13,-93.85 116.37,-105.69 140,-114 146.46,-116.27 153.24,-118.46 160.06,-120.52"/>
<polygon fill="#63b8ff" stroke="#63b8ff" points="159.47,-123.99 170.05,-123.46 161.44,-117.28 159.47,-123.99"/>
</a>
</g>
</g>
<!-- Node3 -->
<g id="Node000003" class="node">
<title>Node3</title>
<g id="a_Node000003"><a xlink:href="namespacebasic__usage.html#aa2f5e3a558d5ae419b11fecd9eae4745" target="_top" xlink:title=" ">
<polygon fill="white" stroke="#666666" points="319,-104.5 140,-104.5 140,-85.5 319,-85.5 319,-104.5"/>
<text text-anchor="middle" x="229.5" y="-92.5" font-family="Helvetica,sans-Serif" font-size="10.00">basic_usage.print_capability_info</text>
</a>
</g>
</g>
<!-- Node1&#45;&gt;Node3 -->
<g id="edge3_Node000001_Node000003" class="edge">
<title>Node1&#45;&gt;Node3</title>
<g id="a_edge3_Node000001_Node000003"><a xlink:title=" ">
<path fill="none" stroke="#63b8ff" d="M104.23,-81.55C112.54,-82.45 121.38,-83.4 130.36,-84.38"/>
<polygon fill="#63b8ff" stroke="#63b8ff" points="130.23,-87.88 140.55,-85.48 130.98,-80.92 130.23,-87.88"/>
</a>
</g>
</g>
<!-- Node4 -->
<g id="Node000004" class="node">
<title>Node4</title>
<g id="a_Node000004"><a xlink:href="namespacebasic__usage.html#a6654759a325be411583fce726eff7934" target="_top" xlink:title=" ">
<polygon fill="white" stroke="#666666" points="313.5,-67.5 145.5,-67.5 145.5,-48.5 313.5,-48.5 313.5,-67.5"/>
<text text-anchor="middle" x="229.5" y="-55.5" font-family="Helvetica,sans-Serif" font-size="10.00">basic_usage.print_module_info</text>
</a>
</g>
</g>
<!-- Node1&#45;&gt;Node4 -->
<g id="edge4_Node000001_Node000004" class="edge">
<title>Node1&#45;&gt;Node4</title>
<g id="a_edge4_Node000001_Node000004"><a xlink:title=" ">
<path fill="none" stroke="#63b8ff" d="M104.23,-70.75C113.97,-69.75 124.44,-68.67 135.02,-67.59"/>
<polygon fill="#63b8ff" stroke="#63b8ff" points="135.58,-71.05 145.17,-66.55 134.87,-64.08 135.58,-71.05"/>
</a>
</g>
</g>
<!-- Node5 -->
<g id="Node000005" class="node">
<title>Node5</title>
<g id="a_Node000005"><a xlink:href="namespacebasic__usage.html#a434b786139febae957a905392b06f419" target="_top" xlink:title=" ">
<polygon fill="white" stroke="#666666" points="301.5,-30 157.5,-30 157.5,0 301.5,0 301.5,-30"/>
<text text-anchor="start" x="165.5" y="-18" font-family="Helvetica,sans-Serif" font-size="10.00">basic_usage.print_module</text>
<text text-anchor="middle" x="229.5" y="-7" font-family="Helvetica,sans-Serif" font-size="10.00">_status</text>
</a>
</g>
</g>
<!-- Node1&#45;&gt;Node5 -->
<g id="edge5_Node000001_Node000005" class="edge">
<title>Node1&#45;&gt;Node5</title>
<g id="a_edge5_Node000001_Node000005"><a xlink:title=" ">
<path fill="none" stroke="#63b8ff" d="M74.18,-66.42C91.64,-58.72 117.14,-47.93 140,-40 146.95,-37.59 154.26,-35.24 161.58,-33"/>
<polygon fill="#63b8ff" stroke="#63b8ff" points="162.96,-36.24 171.54,-30.03 160.96,-29.54 162.96,-36.24"/>
</a>
</g>
</g>
</g>
</svg>
