<?xml version="1.0" encoding="UTF-8" standalone="no"?>
<!DOCTYPE svg PUBLIC "-//W3C//DTD SVG 1.1//EN"
 "http://www.w3.org/Graphics/SVG/1.1/DTD/svg11.dtd">
<!-- Generated by graphviz version 2.43.0 (0)
 -->
<!-- Title: temperature_alarm.check_temp_alarms Pages: 1 -->
<svg width="326pt" height="51pt"
 viewBox="0.00 0.00 326.00 50.50" xmlns="http://www.w3.org/2000/svg" xmlns:xlink="http://www.w3.org/1999/xlink">
<g id="graph0" class="graph" transform="scale(1 1) rotate(0) translate(4 46.5)">
<title>temperature_alarm.check_temp_alarms</title>
<!-- Node1 -->
<g id="Node000001" class="node">
<title>Node1</title>
<g id="a_Node000001"><a xlink:title=" ">
<polygon fill="#999999" stroke="#666666" points="318,-30 175,-30 175,0 318,0 318,-30"/>
<text text-anchor="start" x="183" y="-18" font-family="Helvetica,sans-Serif" font-size="10.00">temperature_alarm.check</text>
<text text-anchor="middle" x="246.5" y="-7" font-family="Helvetica,sans-Serif" font-size="10.00">_temp_alarms</text>
</a>
</g>
</g>
<!-- Node2 -->
<g id="Node000002" class="node">
<title>Node2</title>
<g id="a_Node000002"><a xlink:href="namespacetemperature__alarm.html#ae6fc5eb3bc2e8d01379a6a6171691e91" target="_top" xlink:title=" ">
<polygon fill="white" stroke="#666666" points="139,-24.5 0,-24.5 0,-5.5 139,-5.5 139,-24.5"/>
<text text-anchor="middle" x="69.5" y="-12.5" font-family="Helvetica,sans-Serif" font-size="10.00">temperature_alarm.main</text>
</a>
</g>
</g>
<!-- Node1&#45;&gt;Node2 -->
<g id="edge1_Node000001_Node000002" class="edge">
<title>Node1&#45;&gt;Node2</title>
<g id="a_edge1_Node000001_Node000002"><a xlink:title=" ">
<path fill="none" stroke="#63b8ff" d="M164.82,-15C156.25,-15 147.58,-15 139.17,-15"/>
<polygon fill="#63b8ff" stroke="#63b8ff" points="164.83,-18.5 174.83,-15 164.83,-11.5 164.83,-18.5"/>
</a>
</g>
</g>
<!-- Node2&#45;&gt;Node2 -->
<g id="edge2_Node000002_Node000002" class="edge">
<title>Node2&#45;&gt;Node2</title>
<g id="a_edge2_Node000002_Node000002"><a xlink:title=" ">
<path fill="none" stroke="#63b8ff" d="M102.43,-32.95C101.5,-38.32 90.52,-42.5 69.5,-42.5 38.22,-42.5 29.18,-33.23 42.37,-24.58"/>
<polygon fill="#63b8ff" stroke="#63b8ff" points="105.2,-30.8 96.63,-24.58 99.45,-34.79 105.2,-30.8"/>
</a>
</g>
</g>
</g>
</svg>
